<?xml version="1.0" encoding="utf-8"?>
<!-- Generator: Adobe Illustrator 18.1.0, SVG Export Plug-In . SVG Version: 6.00 Build 0)  -->
<!DOCTYPE svg PUBLIC "-//W3C//DTD SVG 1.1//EN" "http://www.w3.org/Graphics/SVG/1.1/DTD/svg11.dtd">
<svg version="1.1" id="twitterSVG" xmlns="http://www.w3.org/2000/svg" xmlns:xlink="http://www.w3.org/1999/xlink" x="0px" y="0px"
	 viewBox="0 0 37 30" enable-background="new 0 0 37 30" xml:space="preserve">
<g>
	<path fill="#333333" d="M36.9,3.7c-1,1.5-2.3,2.8-3.8,3.9c0,0.2,0,0.5,0,1c0,2-0.3,4.1-0.9,6.1c-0.6,2-1.5,4-2.7,5.8
		c-1.2,1.9-2.6,3.5-4.3,4.9c-1.7,1.4-3.7,2.5-6.1,3.4c-2.4,0.9-4.9,1.3-7.6,1.3C7.4,30.1,3.6,29,0,26.7c0.6,0.1,1.2,0.1,1.9,0.1
		c3.5,0,6.7-1.1,9.4-3.2c-1.7,0-3.1-0.5-4.4-1.5c-1.3-1-2.2-2.2-2.7-3.7c0.5,0.1,1,0.1,1.4,0.1c0.7,0,1.3-0.1,2-0.3
		c-1.7-0.4-3.2-1.2-4.4-2.6c-1.2-1.4-1.8-3-1.7-4.8v-0.1c1.1,0.6,2.2,0.9,3.4,1C3.9,10.9,3,10,2.4,8.9C1.8,7.8,1.5,6.6,1.5,5.3
		c0-1.4,0.4-2.6,1.1-3.8c1.9,2.3,4.2,4.2,6.9,5.6c2.7,1.4,5.6,2.2,8.7,2.4C18,8.8,18,8.3,18,7.7c0-2.1,0.7-3.9,2.2-5.4
		c1.5-1.5,3.3-2.2,5.4-2.2c2.2,0,4,0.8,5.5,2.4c1.7-0.3,3.3-1,4.8-1.8c-0.6,1.8-1.7,3.2-3.3,4.2C34.1,4.6,35.5,4.2,36.9,3.7
		L36.9,3.7z"/>
</g>
</svg>
