<?xml version="1.0" encoding="utf-8"?>
<!-- Generator: Adobe Illustrator 18.1.0, SVG Export Plug-In . SVG Version: 6.00 Build 0)  -->
<!DOCTYPE svg PUBLIC "-//W3C//DTD SVG 1.1//EN" "http://www.w3.org/Graphics/SVG/1.1/DTD/svg11.dtd">
<svg version="1.1" id="instagramSVG" xmlns="http://www.w3.org/2000/svg" xmlns:xlink="http://www.w3.org/1999/xlink" x="0px" y="0px"
	 viewBox="0 0 30 30" enable-background="new 0 0 30 30" xml:space="preserve">
<path fill="#333333" d="M26.4,0H3.6C1.6,0,0,1.6,0,3.6v22.9c0,2,1.6,3.6,3.6,3.6h22.9c2,0,3.6-1.6,3.6-3.6V3.6C30,1.6,28.4,0,26.4,0
	z M20.8,4.3c0-0.5,0.4-0.8,0.8-0.8h4.1c0.5,0,0.8,0.4,0.8,0.8v4c0,0.5-0.4,0.8-0.8,0.8h-4.1c-0.5,0-0.8-0.4-0.8-0.8V4.3z M15,9.3
	c3.2,0,5.8,2.6,5.8,5.8c0,3.2-2.6,5.8-5.8,5.8c-3.2,0-5.8-2.6-5.8-5.8C9.3,11.9,11.9,9.3,15,9.3z M26.6,25.7c0,0.5-0.4,0.8-0.8,0.8
	H4.3c-0.5,0-0.8-0.4-0.8-0.8v-13h2.8C6,13.4,5.9,14.2,5.9,15c0,5,4.1,9.1,9.1,9.1c5,0,9.1-4.1,9.1-9.1c0-0.8-0.1-1.6-0.3-2.4h2.8
	V25.7z"/>
</svg>
