<?xml version="1.0" encoding="utf-8"?>
<!-- Generator: Adobe Illustrator 18.1.0, SVG Export Plug-In . SVG Version: 6.00 Build 0)  -->
<!DOCTYPE svg PUBLIC "-//W3C//DTD SVG 1.1//EN" "http://www.w3.org/Graphics/SVG/1.1/DTD/svg11.dtd">
<svg version="1.1" id="mediumSVG" xmlns="http://www.w3.org/2000/svg" xmlns:xlink="http://www.w3.org/1999/xlink" x="0px" y="0px"
	 viewBox="0 0 30 30" enable-background="new 0 0 30 30" xml:space="preserve">
<g>
	<defs>
		<circle id="SVGID_1_" cx="15" cy="15" r="15"/>
	</defs>
	<clipPath id="SVGID_2_">
		<use xlink:href="#SVGID_1_"  overflow="visible"/>
	</clipPath>
	<g clip-path="url(#SVGID_2_)">
		<path fill="#333333" d="M0,0v30h30V0H0z M22.3,10.9h-0.6c-0.2,0-0.5,0.3-0.5,0.5v7.2c0,0.2,0.2,0.5,0.5,0.5h0.6v1.7h-5.2v-1.7h1
			v-7.6h0l-2.6,9.3h-2L11,11.5h0v7.6h1.1v1.7H7.7v-1.7h0.6c0.2,0,0.5-0.3,0.5-0.5v-7.2c0-0.2-0.2-0.5-0.5-0.5H7.7V9.2h5.5l1.8,6.7h0
			l1.8-6.7h5.5V10.9z"/>
	</g>
</g>
</svg>
