<?xml version="1.0" standalone="no"?>
<!DOCTYPE svg PUBLIC "-//W3C//DTD SVG 1.1//EN" "http://www.w3.org/Graphics/SVG/1.1/DTD/svg11.dtd" >
<svg xmlns="http://www.w3.org/2000/svg">
<metadata></metadata>
<defs>
<font id="goudyoldstyleitalic" horiz-adv-x="708" >
<font-face units-per-em="2048" ascent="1638" descent="-410" />
<missing-glyph horiz-adv-x="575" />
<glyph horiz-adv-x="2048" />
<glyph horiz-adv-x="2048" />
<glyph unicode="&#xd;" horiz-adv-x="681" />
<glyph unicode=" "  horiz-adv-x="575" />
<glyph unicode="&#x09;" horiz-adv-x="575" />
<glyph unicode="&#xa0;" horiz-adv-x="575" />
<glyph unicode="!" horiz-adv-x="409" d="M96 135q2 14 12.5 24.5t31 25t28.5 20.5q10 8 27.5 28.5t30 33t22.5 12.5q12 0 20 -11.5t18.5 -32t16.5 -28.5q8 -10 23.5 -21.5t24.5 -23t9 -27.5q0 -14 -11 -24.5t-29.5 -21.5t-26.5 -21q-8 -8 -19.5 -28t-21.5 -32t-23 -12q-14 0 -25 9t-25.5 28.5t-20.5 27.5 q-8 8 -27.5 23.5t-29 27t-5.5 23.5zM240 510l32 885q4 98 13 129q10 39 68.5 47t78.5 -15q14 -12 16.5 -28.5t-5 -46t-7.5 -39.5l-135 -905q0 -2 -3 -29t-9 -37t-23 -12q-14 -2 -20 14t-6 37z" />
<glyph unicode="&#x22;" horiz-adv-x="761" d="M217 1135l74 409q14 72 51 96q33 27 86 13.5t55 -54.5q0 -23 -3 -39t-13 -36l-10 -21l-170 -368h-70zM618 1135l76 409q10 70 47 96q35 27 88.5 13.5t55.5 -54.5q2 -39 -27 -96l-170 -368h-70z" />
<glyph unicode="#" horiz-adv-x="1265" d="M188 1010q4 43 19 43h256l151 227h-266q-16 0 -12 43q6 45 20 45h318l157 234q16 20 60 16q25 0 39 -2t8 -12l-160 -236h256l166 231q14 20 64 17h14t14 -1t10.5 -4t0.5 -7l-164 -236h204q17 0 11 -43q-4 -45 -23 -45h-256l-153 -227h268q25 0 14 -45q-8 -43 -26 -43 h-316l-153 -228q-14 -25 -62 -20q-47 0 -49 10q0 2 2 6l160 232h-256l-150 -222q-14 -23 -61 -18q-47 0 -43 14q0 2 2 4l147 222h-198q-16 0 -13 45zM567 1053h254l150 227h-254z" />
<glyph unicode="$" horiz-adv-x="1103" d="M111 223q-4 4 3 46t26.5 90.5t47.5 58.5q10 4 14.5 -7.5t9.5 -37t11 -55t25.5 -69.5t48.5 -75q96 -115 203 -115l82 750q-6 0 -40 10t-91.5 40t-108.5 72t-89 118.5t-40 171.5q-2 166 138.5 283.5t307.5 94.5l21 162q18 12 35 13q23 0 47 -13l-21 -162q4 0 28 -4 t57.5 -11t52.5 -15q59 -25 125.5 -79t68.5 -89q2 -66 -11 -93.5t-46 -37.5q-14 -4 -26.5 19.5t-45.5 76.5t-86 96q-25 20 -45 33.5t-33.5 19t-21.5 7.5t-17 2h-6l-61 -594q6 0 48 -13.5t108.5 -49.5t128 -85t103.5 -133t38 -182q-4 -102 -37 -183t-74 -130.5t-104.5 -84 t-104.5 -49t-103.5 -22.5t-69.5 -8h-32l-32 -309q-20 -16 -43 -15q-23 4 -35 19l29 299q-4 0 -37 8t-90.5 28.5t-106.5 47.5q-41 20 -79 60t-51 62.5t-19 32.5zM324 1280q-6 -59 19.5 -112.5t64 -87t83 -58.5t73 -36t32.5 -11l57 561q-297 0 -329 -256zM582 45q10 0 41.5 6 t90 29.5t111 60.5t93.5 109t45 166q2 74 -28 137t-74 101t-91 64.5t-77.5 38t-37.5 11.5z" />
<glyph unicode="%" horiz-adv-x="1351" d="M166 6l1114 1581h90l-1114 -1581h-90zM219 1217q4 162 86 276.5t221 116.5q33 0 69 -13.5t74 -41t60.5 -83t20.5 -129.5q-10 -182 -92.5 -289.5t-227.5 -109.5q-84 0 -150.5 68.5t-60.5 204.5zM324 1303q-29 -305 116 -316q96 -6 150.5 110t60.5 249q6 104 -32.5 160.5 t-92.5 58.5q-78 4 -133 -72t-69 -190zM788 252q6 164 88 277.5t222 115.5q31 0 67.5 -12t73.5 -41t59.5 -84t20.5 -129q-8 -182 -91 -290.5t-229 -111.5q-84 0 -150.5 70t-60.5 205zM893 338q-29 -305 117 -318q96 -4 150.5 112t60.5 249q6 102 -33 159.5t-90 59.5 q-78 4 -134.5 -71.5t-70.5 -190.5z" />
<glyph unicode="&#x26;" horiz-adv-x="1703" d="M135 498q0 90 36 178t76 142t103.5 110.5t83 70t49.5 31.5l2 2l-6 27q-4 27 -8 65.5t-4 65.5q10 190 143 326.5t316 123.5q236 -8 237 -196q0 -53 -36.5 -100.5t-73.5 -57.5t-56 10q-10 20 6.5 65.5t12.5 70.5q-6 43 -49 68.5t-107 21.5q-133 -8 -219 -105.5t-98 -238.5 q-2 -18 0 -47t6 -50l2 -18q6 2 30.5 11t67.5 18.5t74 9.5q80 2 135 -42t55 -114q0 -68 -55 -113t-127 -40q-72 2 -128 46t-76.5 79.5t-20.5 44.5q-8 -4 -20.5 -12.5t-46 -41t-59.5 -71.5t-46.5 -104.5t-22.5 -139.5q-4 -229 154 -386t366 -161q201 -4 366 126t177 347 q4 86 -61.5 165t-155.5 77q-72 -2 -123 -58.5t-55 -134.5q-4 -57 35 -97t86 -28q16 4 35.5 37t31.5 29q41 -12 13 -66q-31 -57 -97 -67q-14 -2 -26 0q-84 8 -132 77.5t-44 163.5q2 55 30.5 107.5t73.5 90.5t86 63.5t82 44.5l211 96q371 170 362 393q-4 74 -46 126t-121 54 q-61 0 -99.5 -56t-15.5 -116q8 -25 58 -26.5t57 -24.5q12 -39 -22 -72.5t-79 -35.5q-63 -2 -93 47t-26 116q10 92 69.5 154.5t150.5 67.5q119 6 193.5 -81t64.5 -210q-10 -109 -62.5 -198t-120 -140t-133 -87t-109.5 -60.5t-42 -41.5q2 -12 22.5 -29.5t45 -36t44 -67.5 t17.5 -121q-2 -180 -116 -328.5t-283 -224t-343 -67.5q-287 14 -444.5 159.5t-157.5 383.5zM565 999q0 -8 7.5 -30.5t42 -58.5t87.5 -46q37 -6 67 21.5t32 66.5q4 39 -18.5 60.5t-75.5 27.5q-35 4 -70 -6t-53 -22z" />
<glyph unicode="'" horiz-adv-x="358" d="M217 1139l74 407q14 72 51 96q33 27 86 14t55 -54q2 -29 -24 -97l-172 -366h-70z" />
<glyph unicode="(" horiz-adv-x="749" d="M147 590q25 154 98.5 317.5t166 289.5t186.5 225.5t166.5 145t101.5 27.5q10 -12 5 -17t-26.5 -27.5t-50 -43t-68.5 -65.5t-81 -95.5t-86 -132t-86 -174t-79 -223.5t-64 -280q-49 -293 -26.5 -476.5t55 -293t28.5 -113.5q-25 -33 -86 86q-109 207 -149 496 q-29 199 -5 354z" />
<glyph unicode=")" horiz-adv-x="737" d="M41 -326q-16 12 14.5 43t98 98.5t141.5 164t149.5 273.5t116.5 394q35 188 42 354t-7 268.5t-34.5 178.5t-34 113.5t-9.5 44.5q23 31 80 -60q113 -174 156 -481q16 -119 16 -242q2 -178 -67.5 -365.5t-170 -328.5t-206 -251.5t-185.5 -165t-100 -38.5z" />
<glyph unicode="*" horiz-adv-x="749" d="M231 1149q-18 43 23 63q35 16 97.5 33t100 30t37.5 28q0 12 -40.5 26t-96 31.5t-80.5 34.5q-33 18 -16 63q12 23 37.5 27t46.5 -15q8 -6 27.5 -24.5t30 -26.5t29.5 -25.5t27.5 -22.5t25 -17.5t19.5 -9t13 1.5q12 10 13 38.5t-5 83t-8 74.5q-2 23 15.5 42.5t39.5 17.5 q43 -4 43 -54q0 -20 -15 -72.5t-24.5 -84t0.5 -50.5q14 -8 45 13.5t77 61.5t71 57q18 12 43 7.5t33 -24.5q8 -18 3 -38.5t-24 -28.5q-31 -10 -92 -28t-95 -30t-40 -26q-6 -16 22.5 -30.5t85 -30t78.5 -25.5q27 -10 38 -37t-3 -45q-29 -37 -70 -9q-27 18 -67.5 57.5t-68 62 t-42.5 16.5q-12 -6 -15 -37t2 -97.5t5 -82.5q2 -23 -17.5 -33t-41.5 -6q-23 2 -32 22.5t-3 44.5q6 27 24.5 77t23.5 69.5t-5 40.5q-12 8 -45 -15.5t-81 -62.5t-81 -58q-20 -10 -38.5 -3t-29.5 26z" />
<glyph unicode="+" horiz-adv-x="1175" d="M133 453l12 131h457l47 452h129l-45 -452h453l-15 -131h-452l-47 -455h-137l49 455h-451z" />
<glyph unicode="," horiz-adv-x="380" d="M45 -360q-10 14 9.5 37.5t49 51t58 79t35.5 110.5q4 51 -14.5 90t-43 58.5t-45 38t-18.5 30.5q2 16 11 27.5t24.5 22t21.5 18.5t14.5 23.5t16.5 25.5t20 16q20 10 50 -19.5t54.5 -90t26.5 -123.5q4 -96 -56 -203.5t-128 -164t-86 -27.5z" />
<glyph unicode="-" horiz-adv-x="569" d="M143 525.5q-2 52.5 19 76.5q16 25 65 35l277 55q51 18 63 19q16 -2 19 -56.5t-13 -74.5q-12 -16 -59 -29l-246 -53q-14 -2 -51 -16.5t-49 -12.5q-23 4 -25 56.5z" />
<glyph unicode="." horiz-adv-x="403" d="M92 131q2 16 35 30.5t41 24.5q10 10 20.5 24.5t15.5 24t12 15.5t15 6q14 0 24.5 -13.5t21 -33t18.5 -27.5q10 -10 26.5 -19t23.5 -17.5t7 -24.5q0 -18 -27.5 -31.5t-41.5 -30.5q-8 -8 -22.5 -27.5t-25 -29.5t-16.5 -10q-10 0 -20.5 7t-14.5 12t-13 20.5t-11 17.5 q-10 16 -40 41t-28 41z" />
<glyph unicode="/" horiz-adv-x="1118" d="M68 6l1087 1591h94l-1087 -1591h-94z" />
<glyph unicode="0" horiz-adv-x="1085" d="M125 412q4 250 139 419.5t363 178.5q223 8 350 -124t125 -337q-2 -258 -159 -418t-392 -162q-209 -2 -319.5 127t-106.5 316zM227 444q-8 -156 70 -262t229 -112q197 -8 334 132t137 347q0 168 -108.5 268.5t-267.5 95.5q-168 -8 -274.5 -144t-119.5 -325z" />
<glyph unicode="1" horiz-adv-x="722" d="M133 20q0 31 57.5 39.5t73.5 24.5q45 49 55 156l52 483q6 80 -4.5 115.5t-53.5 58.5q-18 8 -54 14.5t-56.5 15.5t-18.5 27.5t11.5 24.5t33 3t52 -9t77 -11.5t97.5 -0.5q37 2 84 8t71.5 9t49 3t35 -6.5t12.5 -18.5q2 -23 -18.5 -32t-54.5 -11t-46 -8q-31 -12 -51.5 -56 t-22.5 -73l-55 -526v-12q-2 -10 -3 -22.5t0 -31t3 -34t8 -31t16 -23.5q27 -25 64 -35t63.5 -10t46 -8t17.5 -28.5t-45 -21.5t-124 8t-128 9q-33 0 -74 -3t-68.5 -6t-53 -4t-37 4t-11.5 19z" />
<glyph unicode="2" horiz-adv-x="978" d="M82 16q-6 23 18 37q2 2 4 2l68 39q100 59 232.5 162.5t256 242t123.5 226.5q2 86 -64.5 141.5t-164.5 63.5q-84 6 -134 -14.5t-62.5 -45t-18.5 -61.5q-4 -25 24.5 -68t18.5 -67q-10 -10 -49 -11t-80 21.5t-37 58.5q6 92 101.5 173t244.5 81q176 0 280.5 -66.5 t104.5 -201.5q0 -156 -336 -393l-168 -117q-70 -55 -53 -76q10 -14 78 -14h190q72 0 140 41q29 16 61.5 56t52 60.5t31.5 4.5q8 -12 -4 -40t-39 -72t-37 -68q-6 -14 -12 -42t-14.5 -45.5t-24.5 -23.5q-10 -4 -31.5 1t-29.5 5h-564q-12 0 -40.5 -5t-45 -3t-20.5 18z" />
<glyph unicode="3" horiz-adv-x="888" d="M38 -256.5q-5 59.5 11 88.5q10 10 26.5 -5t37 -41t67.5 -48.5t107 -22.5q156 -2 281.5 116t125.5 271q0 102 -62.5 169t-137 86.5t-136.5 9.5l-65 -13q-2 0 -12.5 -3t-14.5 -4t-10 2t-10 11q-2 6 -3 11.5t2 9.5t6 7t9 6l10 5t11.5 5.5t11.5 5.5l76 32q109 51 207 155.5 t92 197.5q-6 96 -73 143t-155 49q-57 2 -100 -11t-60.5 -28.5t-36 -26t-34.5 -1.5q-27 12 20 53q88 82 246 86h29q276 -6 303 -215q8 -68 -39 -138.5t-107.5 -116.5t-112.5 -87t-52 -56q0 -10 49 -16t110.5 -18.5t117 -73t63.5 -162.5q10 -117 -84.5 -244t-242 -212 t-286.5 -89q-43 -2 -75.5 2.5t-49 10.5t-26 12t-14.5 12t-7 6q-8 10 -13 69.5z" />
<glyph unicode="4" horiz-adv-x="1136" d="M71 53.5q5 12.5 9 17.5t16.5 16t16.5 17q0 2 63.5 74t158.5 179.5t165 183.5q229 258 391 420q2 2 6 8q27 35 41 28q20 -8 20 -22l-104 -836h72q57 0 71 6q16 8 46.5 35t46.5 27q12 -6 4.5 -42t-25.5 -80t-31 -48q-31 -14 -82 -8l-114 12l-43 -387q-4 -41 -17 -49 q-16 -8 -104 -8q-6 0 -10 2t-7.5 6t-4.5 9t-1 10t1 9.5t1 6.5v4l48 379h-586q-41 0 -45 10q-8 8 -3 20.5zM252 160q2 -16 27 -17h442l78 557q0 4 2 12.5t1 14.5t-5 10q-18 12 -39 -14l-488 -537q-20 -20 -18 -26z" />
<glyph unicode="5" horiz-adv-x="882" d="M32 -295q1 43 17 59q10 4 38 -23.5t81 -58t125 -28.5q125 2 222 77.5t143.5 175t48.5 197.5q2 168 -92.5 276.5t-284.5 121.5q-51 4 -69.5 1t-28 -2t-25.5 9q-18 10 -10 47l96 344q12 47 41 60q12 8 72 8h339q41 0 74 16q12 8 22.5 26.5t15.5 34t13.5 24.5t20.5 3 q27 -12 -19.5 -113.5t-68.5 -107.5q-41 -12 -94 -12h-308q-33 0 -45 -6q-8 -4 -14 -14.5t-9 -17.5t-3 -9l-29 -111q-14 -45 6 -51q23 -8 96 -8q205 0 316.5 -127t114.5 -299q0 -100 -48.5 -211t-128 -204t-195.5 -154.5t-237 -61.5h-90l4 2q-45 0 -76.5 47t-30.5 90z" />
<glyph unicode="6" horiz-adv-x="1101" d="M143 569q29 489 385 799q197 170 396 219q109 27 120 -6q4 -12 -12 -19.5t-54 -18.5t-84 -27.5t-111.5 -56.5t-129.5 -97q-45 -41 -83 -83t-65.5 -81t-50 -77t-38 -69.5t-25.5 -60t-16 -52.5t-10.5 -40t-4.5 -27l-2 -8l11 8q8 8 22.5 20.5t33.5 27t44 30t51.5 28.5 t59 21.5t63.5 10.5q190 14 323.5 -142.5t125.5 -351.5q-12 -238 -149.5 -402.5t-369.5 -152.5q-100 6 -179 52t-127 111.5t-77.5 147.5t-40 157t-6.5 140zM295 543q-2 -197 104.5 -353.5t243.5 -150.5q115 4 185.5 82t90 171t15.5 197q-6 195 -109.5 318t-269.5 104 q-115 -14 -187.5 -114.5t-72.5 -253.5z" />
<glyph unicode="7" horiz-adv-x="1040" d="M88 -354q-12 23 33 86q2 4 65.5 95t159.5 226t168 234q61 84 157.5 212t158 210t61.5 84q14 14 12 32q-2 6 -5 10.5t-10 5.5t-12.5 1h-15.5h-14h-451q-117 0 -145 -35q-8 -8 -17.5 -28.5t-20.5 -31t-32 -10.5q-27 0 -6 72q2 8 8 27q2 8 4 14q29 113 43.5 123t25.5 10 t23.5 -4t20.5 -4h688q14 0 39 12t36 18t23 -6q10 -27 11.5 -31.5t-11 -15t-16.5 -14.5q0 -2 -77 -110.5t-192.5 -275.5t-189.5 -280l-331 -522v-67q0 -39 -27 -39q-4 0 -47 -5.5t-78 -4.5t-39 12z" />
<glyph unicode="8" horiz-adv-x="1128" d="M133 399q0 94 36 170t86 120t99 75t85 49t36 31q2 16 -35 47t-80 65.5t-76.5 111.5t-27.5 177q12 164 142 265.5t304 101.5q168 0 287 -91t117 -266q0 -78 -27.5 -137t-66.5 -93t-79 -57.5t-71 -43t-37 -35.5q-2 -8 23.5 -23.5t67.5 -41t83 -65.5t73 -114t36 -168 q10 -215 -148.5 -358.5t-400.5 -136.5q-186 2 -307 105t-119 312zM246 426q-16 -154 72 -268.5t243 -118.5q190 -8 300 101.5t122 285.5q6 82 -67.5 189.5t-182.5 142.5l-176 55q-10 -4 -32.5 -14.5t-70.5 -42t-89 -72.5t-76 -109.5t-43 -148.5zM348 1278q-2 -74 38 -137.5 t96.5 -102.5t119 -67.5t101 -39.5t47.5 -11q4 0 26.5 11t59 37.5t71.5 62.5t61.5 94t30.5 124q6 121 -84 209t-217 92q-133 8 -239.5 -71.5t-110.5 -200.5z" />
<glyph unicode="9" horiz-adv-x="1081" d="M133 430q2 152 55.5 280t166 213t263.5 87q215 2 343 -162t116 -377q-29 -483 -391 -750q-197 -143 -397 -170q-106 -12 -105 19q4 23 36 26t118 28.5t188 94.5q82 55 155 131t106.5 129.5t23.5 61.5q-10 6 -47 -10.5t-100.5 -37t-126.5 -18.5q-197 8 -301.5 134.5 t-102.5 320.5zM270 530q-12 -203 90.5 -340t272.5 -129q137 4 209 80t78 295q6 203 -94.5 360.5t-245.5 143.5q-72 -6 -127.5 -34.5t-87 -66.5t-53 -93.5t-30 -104.5t-12.5 -111z" />
<glyph unicode=":" horiz-adv-x="417" d="M100 131q2 16 35 31.5t41 23.5q10 10 20.5 24.5t15.5 24t12 15.5t16 6q14 0 23 -13.5t19.5 -33t18.5 -27.5q10 -10 27.5 -19t24.5 -17.5t7 -24.5q0 -14 -10 -21.5t-28.5 -16.5t-32.5 -24q-6 -6 -21.5 -27.5t-25 -30.5t-17.5 -9q-10 0 -19 6t-14.5 13t-13.5 19.5t-12 18.5 q-10 16 -29.5 31.5t-29 26t-7.5 24.5zM162 842q2 16 34.5 32.5t41.5 24.5q10 12 22 32.5t20.5 29t20.5 8.5q14 0 23.5 -13.5t19.5 -33t18 -27.5q10 -10 27 -19.5t25 -17.5t8 -24q0 -14 -10.5 -21.5t-28.5 -17t-33 -25.5q-6 -6 -21.5 -25.5t-24.5 -28.5t-17 -9q-10 0 -19.5 6 t-14.5 12t-14.5 19.5t-13.5 19.5q-10 14 -28.5 29.5t-27.5 25.5t-7 23z" />
<glyph unicode=";" horiz-adv-x="444" d="M106 -360q-8 14 10.5 37.5t48.5 51t57.5 79t33.5 110.5q4 51 -13.5 90t-42 58.5t-44 38t-19.5 30.5q2 16 11.5 26.5t24.5 22t24 19.5q4 6 12 22.5t16 26.5t21 16q20 12 50 -18.5t54.5 -91t26.5 -123.5q4 -96 -56.5 -203.5t-128 -164t-86.5 -27.5zM166 848q2 16 34.5 32.5 t41.5 24.5q12 12 23 32.5t19.5 29t20.5 8.5q14 0 23.5 -13.5t19.5 -33t19 -27.5q10 -10 26.5 -19.5t24.5 -17.5t8 -24.5t-10 -23.5t-28.5 -15t-33.5 -25q-6 -8 -21.5 -26.5t-24.5 -28.5t-17 -10q-14 0 -24.5 8t-22 25.5t-15.5 23.5q-10 16 -28.5 31.5t-27.5 26t-7 22.5z" />
<glyph unicode="&#x3c;" horiz-adv-x="1179" d="M123 481l12 117l1090 496l-13 -131l-929 -431l841 -405l-14 -121z" />
<glyph unicode="=" horiz-adv-x="1286" d="M106 285l17 137h1157l-14 -137h-1160zM158 731l14 137h1159l-16 -137h-1157z" />
<glyph unicode="&#x3e;" horiz-adv-x="1171" d="M90 6l14 121l926 405l-837 431l12 131l985 -496l-12 -117z" />
<glyph unicode="?" horiz-adv-x="630" d="M166 121q2 16 13 28.5t32.5 28t28.5 19.5q14 10 31.5 29.5t28.5 29.5t24 10q18 -2 30.5 -32.5t20.5 -38.5q8 -10 26.5 -22.5t26.5 -24t6 -27.5q-2 -14 -11 -21.5t-26.5 -17.5t-31.5 -23q-8 -8 -28 -39.5t-38 -33.5q-10 0 -20.5 6t-15.5 11t-16 20.5t-16 19.5 q-12 14 -30.5 28.5t-27.5 24.5t-7 25zM256 1386q-39 23 31 78q86 70 172 68h6q98 -6 189 -86t79 -182q-12 -88 -62 -176.5t-106.5 -151t-113 -142t-74.5 -149.5q-16 -57 -14 -103t7 -54.5t-10 -24.5q-31 -18 -53 35q-45 100 29 270q31 72 98.5 174t106.5 181t30 149 q-6 78 -61 121t-133 41q-37 0 -59.5 -18.5t-33 -29t-28.5 -0.5z" />
<glyph unicode="@" horiz-adv-x="1689" d="M193 537q0 252 130 472t353 351t481 131q145 0 273.5 -49t215.5 -156t87 -250q0 -135 -62.5 -271t-159 -235.5t-215 -163t-225.5 -63.5q-35 0 -58.5 11.5t-34.5 22.5t-17.5 41t-6.5 43v50l-82 -74q-102 -90 -229 -90q-88 0 -140 67.5t-52 162.5q0 141 102 273t241.5 208 t256.5 76q66 0 99.5 -33t33.5 -119l76 131h172l-320 -602q-49 -111 14 -111q88 0 202 97.5t199 253t85 301.5q0 127 -74 215t-177.5 122.5t-227.5 34.5q-215 0 -409 -121.5t-305.5 -306t-111.5 -370.5q0 -215 133 -357.5t369 -142.5q121 0 230.5 30.5t178 73.5t120 86 t71.5 74l23 31h135q-10 -16 -32 -43t-94.5 -95.5t-156.5 -120.5t-220 -95t-284 -43q-270 0 -428.5 155.5t-158.5 397.5zM614 477q0 -55 30 -80.5t69 -25.5q74 0 175 100t174 236.5t73 230.5q0 102 -84 102q-74 0 -178.5 -100t-181.5 -235.5t-77 -227.5z" />
<glyph unicode="A" horiz-adv-x="1755" d="M82 14q0 23 9 30t43 16.5t63 21.5q27 12 65.5 77.5t48.5 94.5l668 1356q25 47 51 47h4q18 -6 28.5 -43t10.5 -51l430 -1344q0 -2 7.5 -22.5t8.5 -24.5t7 -19.5t10 -21.5t11 -17.5t15.5 -18.5t18.5 -13q27 -16 54.5 -19.5t40 -7.5t12.5 -24q2 -20 -12.5 -29.5t-41 -8.5 t-54.5 5t-62.5 9t-57 5t-60.5 -6t-67.5 -10t-57.5 -6t-43 4t-13 22q2 25 52 35t64 29q27 34 27 79q0 24 -8 50l-109 389h-684l-170 -369q-16 -37 -23.5 -81t1.5 -62q12 -23 40.5 -33t54 -9t44 -6t16.5 -24q-4 -24 -38 -24h-4q-34 0 -92 10q-62 10 -93 10q-27 0 -87 -12 q-55 -11 -89 -11h-5q-34 1 -34 27zM616 702h588l-233 697z" />
<glyph unicode="B" horiz-adv-x="1380" d="M215 0q0 20 12.5 28.5t32 13.5t27.5 11q23 18 35 46t14 43.5t6 58.5l111 1136q2 20 2 39q0 95 -60 152q-16 16 -51 21t-59.5 12.5t-22.5 27.5q0 23 26 25q3 0 5 -1q27 1 90 -7q57 -7 106 -7h23q53 2 146.5 9.5t158.5 9.5q19 1 38 1q73 -1 142 -13q86 -16 169 -53 t134.5 -117t55.5 -191v-11q0 -80 -28 -142q-30 -68 -75 -106t-90 -65.5t-75.5 -48t-30.5 -36.5q0 -4 32.5 -13.5t80 -30t93.5 -55.5t79.5 -107.5t33.5 -172.5q0 -143 -92 -255t-224 -166t-274 -56q-76 0 -192.5 10t-185.5 10q-18 0 -48 -4t-54 -8l-44 -8q-8 -1 -16 -1 q-10 -1 -18 3q-12 6 -13 18zM485 117q8 -14 22.5 -26.5t84.5 -30.5q58 -15 139 -16q18 0 37 1q156 6 285 97.5t145 275.5q2 21 2 40q0 150 -108 248q-122 110 -361 119l-137 4q-18 0 -31 -12q-8 -14 -8 -31zM569 940q0 -29 6 -39q10 -12 39 -12l273 -4h10q117 0 201 90 q88 94 92 215v21q0 153 -112 244q-109 88 -275 88q-17 0 -35 -1q-66 -4 -98.5 -20.5t-36.5 -57.5z" />
<glyph unicode="C" horiz-adv-x="1601" d="M176 797q20 369 248 606q226 235 569 235h6q150 -2 276 -45t194.5 -86t76.5 -43q12 -2 26.5 18.5t26.5 18.5q15 -1 19 -31q2 -14 2 -33q0 -21 -2 -49q-3 -35 -3 -58q0 -11 1 -19q2 -23 9 -58.5t12 -63.5q5 -29 9 -55q1 -10 1 -18q1 -12 -3 -22q-6 -14 -18 -15 q-25 0 -39 34t-30.5 89t-40.5 88l-17 23q-16 23 -25.5 33t-32 35.5t-44 41t-53 38t-67.5 36.5t-80 29.5t-97 22.5t-113 10h-16q-261 -1 -424 -189q-168 -194 -193 -532q-3 -40 -4 -79q0 -153 50 -296q62 -180 205 -302t335 -126q14 -1 28 -1q90 0 172 24q94 26 153 65 t105 84t66.5 73.5t26.5 41.5v2l39 90l9 21t12.5 15.5t19.5 6.5q20 -3 20 -28q0 -14 -6 -34l-65 -248q-88 -72 -255 -129t-337 -59h-6q-350 -1 -557 235q-191 217 -191 540q0 31 2 63z" />
<glyph unicode="D" horiz-adv-x="1648" d="M168 -4q2 27 46 44t54 34q29 45 35 92l139 1210q2 25 2 45q0 46 -12 72q-10 25 -44 37t-65.5 14t-54 13.5t-16.5 35.5q2 13 20 17q10 3 24 2q10 0 22 -1q28 -3 58 -8.5t66.5 -10.5t61.5 -4q76 2 189.5 12t178.5 12q33 2 64 2q172 0 312 -46q165 -54 260.5 -154.5 t142.5 -226.5q42 -112 42 -235q0 -16 -1 -32q-6 -121 -43 -247t-111 -249t-173 -219t-242.5 -157.5t-307.5 -67.5q-39 -2 -89 -2q-115 0 -284 10q-26 2 -50 2q-19 0 -37 -1q-42 -3 -75.5 -6t-59.5 -7q-11 -2 -20 -1q-10 1 -18 3q-14 4 -14 18zM469 166q-1 -10 -1 -19 q0 -41 15 -63q28 -41 168 -42q46 0 103 5q166 16 237 41q375 123 502 680q22 96 22 184q1 109 -33 205q-60 174 -219 275.5t-391 103.5q-10 0 -46 1q-18 0 -30 0.5t-20 -0.5q-14 -1 -44 -3t-44 -9t-32.5 -18.5t-28 -31t-11.5 -43.5z" />
<glyph unicode="E" horiz-adv-x="1441" d="M198 40q50 20 68 44q35 47 39 117l129 1188q5 22 5 41q0 14 -3 28q-6 30 -10 37.5t-18 26.5q-14 16 -41 22t-50.5 5t-41 6.5t-17.5 25.5q0 16 15.5 25.5t45 11.5t57 1t66.5 -4t60 -3h596q279 0 332 10h3q7 0 10 -7q3 -9 3 -27.5t-3 -38t-5 -44.5t-2 -39q0 -23 5 -84 q4 -44 4 -72q0 -12 -1 -21q-2 -32 -19 -32q-23 0 -26.5 39t-21 95.5t-66.5 89.5q-23 16 -89.5 28.5t-127.5 12.5h-392q-51 0 -71.5 -14.5t-24.5 -75.5l-67 -562h434q78 0 127 37q27 18 50.5 77.5t43.5 62.5q12 0 15 -14.5t-2 -42t-12 -55.5t-17.5 -66t-14.5 -62 q-5 -34 -5 -69q0 -22 2 -44q4 -42 4 -79q0 -15 -1 -28q-2 -48 -20 -48q-23 0 -27 29.5t-10 78.5t-29 78q-33 45 -108 45h-441l-59 -575q-1 -12 -1 -23q0 -59 19 -74q40 -32 92 -32h3h155q270 0 455 77q68 29 113 73t63 69.5t33 21.5q16 -2 16 -22q0 -29 -35 -97 q-61 -119 -139 -174q-53 -37 -149 -45q-39 -3 -90 -3q-74 0 -175 6q-170 12 -237 12h-197q-23 0 -62.5 -3.5t-69.5 -4.5t-59 -1q-28 1 -44 7q-15 6 -15 17q0 21 53 41z" />
<glyph unicode="F" horiz-adv-x="1261" d="M214 37q50 10 69 31q35 39 55 174l123 1122q2 21 2 39q0 76 -39 113q-18 16 -61.5 22t-74 14.5t-28.5 28.5q2 27 40 31q17 2 43 3q31 0 76 -3q81 -6 103 -6h457q45 0 136 2t144.5 2t61.5 -4q10 -6 12 -30t-1 -62.5t-1 -59.5q2 -18 6 -47t9 -53q6 -22 9 -44q1 -10 1 -18 q0 -9 -2 -16q-4 -12 -13 -12q-25 0 -33 23.5t-23 73.5t-50 93q-55 68 -252 68h-260q-51 0 -72 -17q-18 -14 -26 -73l-68 -570l391 2q98 0 142 29q25 18 41 70.5t36 54.5q12 0 17.5 -10.5t3.5 -30t-5 -38.5t-9.5 -46t-8.5 -41l-14 -104q-4 -26 -4 -52q0 -18 2 -36 q2 -23 2 -43q0 -19 -2 -37q-4 -34 -21 -35q-18 0 -24 13t-5 34.5t-4 54.5t-22 60q-8 18 -44 32.5t-73 16.5l-403 14l-55 -561v-21q0 -75 26 -104q29 -31 80 -40t88 -13t37 -20.5t-12 -25t-42 -8.5t-63.5 3.5t-90 7.5t-107.5 4q-27 0 -67 -4t-70.5 -8.5t-59.5 -5.5h-7 q-24 0 -37 6t-13 18q0 28 54 39z" />
<glyph unicode="G" horiz-adv-x="1699" d="M176 809q0 356 227.5 593.5t589.5 237.5q119 0 222.5 -24.5t159 -54t108.5 -54t82 -26.5q14 0 33.5 22.5t36 18.5t18.5 -31q1 -8 1 -17q0 -23 -4 -57t-4 -55q0 -9 1 -16q2 -29 13 -100q9 -59 9 -95v-12q-2 -37 -24 -37q-14 0 -24.5 16.5t-20 49t-17.5 46.5 q-74 158 -254 254.5t-377 98.5q-119 0 -220 -37t-190 -119t-140.5 -234.5t-51.5 -361.5q0 -334 182 -558q179 -222 448 -222h5q307 0 389 158q39 78 47 172l21 247q1 10 1 19q0 50 -28 82q-20 23 -67.5 24.5t-80 4.5t-32.5 30q0 14 8 22.5t24.5 9.5t33 0t38 -3t33.5 -2h240 q16 0 53 9t57.5 8t20.5 -21q0 -14 -17.5 -21.5t-45 -18t-44.5 -26.5q-37 -33 -47 -174l-4 -45q-2 -45 -6 -108.5t-6 -102.5q-1 -20 -1 -47q0 -56 5 -143l-18 -7q-18 -4 -40 -9t-28 -5q-12 -2 -91 -38t-183.5 -65.5t-206.5 -29.5q-229 2 -395 69.5t-259.5 189.5t-136.5 268.5 t-43 326.5z" />
<glyph unicode="H" horiz-adv-x="1789" d="M193 -2q2 25 14 30t37.5 10t48.5 25q45 41 53 170l103 1131q5 45 5 72q0 12 -1 22q-4 26 -31 55q-16 20 -59.5 26.5t-75 13t-31.5 28.5q0 27 26 29h9q29 0 96 -8.5t129 -8.5h23q43 2 84 6.5t65.5 9.5t44 7t28.5 -1.5t11 -15.5q4 -18 -14.5 -28t-51 -18.5t-49.5 -20.5 q-39 -27 -45 -111l-59 -549h860l47 441q8 36 8 70q0 29 -6 58q-12 62 -71 91q-16 8 -52 13t-55.5 12.5t-17.5 25.5q6 27 32 28h5q28 -1 99 -11q66 -10 127 -9h21q43 0 87 6.5t73 12.5q30 6 54 10q14 2 24 2q8 0 14 -1q14 -3 15 -17v-6q1 -19 -11 -27q-14 -10 -55 -17.5 t-51 -11.5q-35 -14 -54.5 -55t-21.5 -72l-113 -1177q0 -139 29 -162q29 -25 77 -32t77.5 -11t29.5 -23q0 -26 -34 -28q-4 0 -9 -1q-35 0 -108 10q-82 11 -141 11q-37 0 -78 -4t-67.5 -9t-48 -6t-31 4t-7.5 19q4 20 17.5 24.5t40 10.5t51.5 31q8 8 15 17t12 21.5t8.5 19.5 t5.5 24.5t3 23.5t3 28.5t2 26.5l57 551h-872l-56 -546q0 -131 39 -160q29 -23 64 -32t55.5 -9t34.5 -7t12 -26q-2 -23 -30 -25h-12q-31 0 -99 6.5t-128 6.5h-28q-35 -2 -72.5 -6t-59 -7.5t-39.5 -4.5h-5q-15 0 -21 6q-5 5 -6 12q0 3 1 6z" />
<glyph unicode="I" d="M168 4q0 31 51 44t64 30q10 14 17 28.5t11 32t6 27.5t4.5 34.5t4.5 32.5l120 1127q3 31 3 56q0 34 -6 58q-11 40 -56 62q-14 8 -39.5 12t-45 6t-34 10.5t-12.5 22.5q2 29 26 31h8q27 0 91 -10q76 -12 145 -11q41 0 81 5.5t62.5 9.5t42.5 7q8 1 14 1q8 0 14 -2 q10 -4 14 -14q3 -8 3 -14q1 -12 -11 -18q-16 -9 -45 -14.5t-42 -15.5q-37 -31 -49 -123l-135 -1181q0 -125 33 -154q27 -23 57.5 -34t49 -12t31.5 -8t13 -26q-1 -20 -35 -21h-8q-35 0 -101 7q-75 8 -122 8q-45 0 -111 -9q-54 -7 -79 -7h-11q-24 2 -24 22z" />
<glyph unicode="J" horiz-adv-x="757" d="M72 -127q-5 12 -5 30q0 29 13 73q22 71 41 77q14 6 28.5 -10t25.5 -41t32.5 -46.5t48.5 -21.5h3q70 0 121 92q52 93 62 203l115 1090q8 44 8 84q0 21 -2 40q-6 58 -49 81q-20 10 -61 17t-64.5 16.5t-21.5 31.5q2 27 27 28h4q26 0 94 -9q63 -9 124 -9h23q41 0 83 4.5 t66.5 8.5t45.5 5h7q15 0 23 -3q11 -5 13 -17q1 -4 1 -7q0 -14 -14 -21q-18 -8 -47 -13.5t-41 -15.5q-33 -29 -45 -113l-104 -981q0 -12 -10.5 -70.5t-43 -158.5t-77.5 -168q-151 -221 -327 -221h-3q-74 0 -94 45z" />
<glyph unicode="K" horiz-adv-x="1718" d="M164 4q-1 4 -1 9q0 11 9 19q12 10 42 20.5t46 23.5q55 35 72 166l112 1079q2 24 2 46q0 123 -77 161q-14 8 -45 15t-47.5 15.5t-16.5 24.5q2 19 12 27q9 7 29 7h5q24 -1 51.5 -5t76.5 -8q29 -3 59 -3l39 1q39 0 83 4t69 7q26 3 48 4h6q18 0 25 -5q9 -6 9 -19 q0 -23 -16.5 -34t-41 -18t-36.5 -17q-55 -47 -68 -131l-57 -516q-4 -37 6 -46q12 -4 45 23l692 553q2 2 9.5 8t12.5 10.5t11 11.5t11.5 13t9.5 13t6 14.5t2 15.5t-4 16q-6 16 -31 27.5t-44 20t-17 24.5q2 12 5 19.5t9 9.5t15 1t25.5 -3t36 -5.5t52.5 -5.5t70 -2q55 1 135 11 q70 9 104 9q6 -1 10 -1q34 -2 33 -21q0 -27 -15.5 -36t-61.5 -19t-81 -27q-53 -23 -190 -122l-612 -482q-4 -4 -15.5 -11t-16.5 -11t-9 -11.5t-4 -15.5q0 -27 20 -53l526 -621q14 -20 105 -80q29 -18 66.5 -31.5t69.5 -19.5t59.5 -13t41 -16.5t9.5 -25.5t-36 -17h-8 q-31 0 -81 6q-56 7 -82 7q-46 0 -102 -6q-42 -4 -63 -4h-11q-8 2 -16.5 5t-16.5 12t-13.5 13t-16.5 17.5t-13 17.5l-524 660q-4 4 -8.5 9t-6.5 9t-7 8t-9 6t-11.5 4.5t-17.5 2.5q-35 0 -51 -9.5t-18 -36.5l-52 -454q0 -133 25 -160q27 -29 71 -40t69.5 -20.5t23.5 -31.5 q-2 -16 -18 -20q-8 -2 -20 -2t-26 2q-28 4 -60 10t-75 13t-76 7q-35 0 -73.5 -5t-63 -11t-48.5 -9.5t-36 2t-14 21.5z" />
<glyph unicode="L" horiz-adv-x="1400" d="M156 -14q0 27 15 36t44 16t47 19q63 39 74 158l119 1098q7 50 7 88q0 28 -4 48q-9 48 -52 71q-16 8 -44 14t-48.5 9t-35 11.5t-14.5 22.5q0 29 26 32q6 1 13 1q29 0 91 -8q66 -9 126 -9h23q43 1 113 11q63 9 93 9h5q30 -1 32 -22q4 -25 -16 -36t-53 -19t-47 -23 q-33 -33 -49 -151l-123 -1143q0 -92 12 -108q27 -37 106 -37h125q322 0 451 71q43 25 84 68t61.5 67.5t30.5 16.5q11 -12 11 -33q-1 -43 -45 -126q-66 -124 -146 -152q-83 -20 -172 -20q-25 0 -50 2q-116 6 -287 22q-136 12 -203 13q-17 0 -30 -1q-35 -2 -79.5 -8t-79.5 -10 t-66 -7.5t-48 -1.5t-17 11z" />
<glyph unicode="M" horiz-adv-x="2150" d="M201 12q0 23 15 31t46 14t49 19q53 41 74 180l141 844q9 53 9 107q0 63 -13 129q-24 120 -92 177q-27 20 -61.5 28.5t-59 5.5t-41 1t-16.5 21q2 39 60 44q19 2 42 2q47 0 111 -7q16 -2 62 7q17 3 29 3q22 0 30 -10q12 -8 21 -24.5t13.5 -28t4.5 -15.5l505 -1196 q25 -57 46 -57q12 2 21 11t13 18.5t11.5 27.5t9.5 25l553 1179q2 2 11 25.5t16.5 32t15.5 8.5q31 -4 61 -4q26 0 50 3q37 5 65 5q13 0 23 -2q34 -3 32 -25q-2 -18 -19.5 -26.5t-44 -12.5t-38.5 -12q-39 -23 -55.5 -71t-16.5 -85v-1159q0 -12 2 -36.5t13.5 -63.5t29.5 -51 q20 -14 50 -19.5t50.5 -4.5t35 -5.5t14.5 -26.5q0 -28 -29 -30q-3 0 -8 -1q-30 0 -96 10q-74 11 -134 11q-41 0 -83.5 -4t-69.5 -9t-49.5 -6t-31.5 4t-7 19q0 23 14 31t43 14t47 19q59 41 60 151l-2 873q0 6 1 18t1 18.5t-3 13.5t-12 9q-20 8 -37 -26q-2 -4 -2 -7 l-491 -1050q-4 -10 -11.5 -34t-15.5 -35t-22 -11q-16 0 -29.5 18.5t-17.5 28.5l-430 999q-4 12 -11.5 35t-12.5 30t-15 5q-23 -8 -27 -43l-129 -817q-4 -10 -8 -40q-2 -13 -2 -29q0 -20 3 -43q5 -42 27 -58q31 -20 77 -25.5t71 -11.5t23 -31q-4 -24 -36 -27q-8 -1 -17 -1 q-33 0 -91 8q-76 10 -117 10q-35 0 -70.5 -4t-56 -8t-38.5 -5h-6q-14 0 -20 5q-7 6 -7 20z" />
<glyph unicode="N" horiz-adv-x="1822" d="M225 -6q0 27 12.5 35t44 15t54.5 22q61 35 82 167l139 984v2q6 31 6 61q0 95 -65 180q-35 44 -78 62q-33 14 -60 14q-8 0 -15 -1q-32 -5 -56.5 -2t-28.5 23q-2 23 11.5 35.5t39 14.5t50 2t56.5 -3t44 -3q16 0 33.5 1t38 3t32.5 2q33 0 78 -68l844 -1249q23 -35 41 -35 q4 0 8 2t7 7t4 10.5t2 13.5t1 13t1 14.5t1 13.5l134 1005q6 25 6 48q0 22 -6 42q-12 41 -19.5 53.5t-30.5 39.5q-16 16 -54 25t-64.5 15.5t-26.5 22.5q2 18 9 24.5t27.5 5.5t44.5 -7q26 -5 72 -10q33 -4 67 -4q14 0 28 1q41 0 78.5 5.5t58 9.5t36.5 6h7q13 0 19 -6 q13 -11 12 -28q0 -10 -12 -16q-14 -6 -31 -7t-39.5 -7t-34.5 -16q-47 -43 -64 -162l-188 -1325q0 -78 -35 -78q-20 0 -33.5 13.5t-28 41t-20.5 37.5l-772 1147q-2 2 -6 9.5t-7 11.5t-7 9t-9.5 7t-11.5 0q-14 -4 -18 -51l-125 -959v-8q-2 -10 -2 -20v-25.5t1 -31t5 -30 t10 -25.5t17 -17q31 -18 71.5 -28.5t59 -19t14.5 -30.5q-2 -12 -14.5 -16.5t-36 -1t-49 7.5t-64.5 9t-71 5q-27 0 -53.5 -2t-48 -5t-41 -7t-34 -6t-25.5 -2t-16.5 3t-5.5 11z" />
<glyph unicode="O" horiz-adv-x="1767" d="M174 799q20 236 131 429t305 307q176 104 387 104q20 0 41 -1q348 -16 566 -241q214 -221 213 -541v-12q-2 -244 -111 -448q-108 -203 -310 -324q-195 -117 -440 -117h-16q-377 7 -588 243q-182 204 -182 505q0 47 4 96zM348 864q-10 -73 -10 -142q0 -138 40 -262 q62 -188 212.5 -305.5t361.5 -123.5h18q136 0 252 56q124 60 206.5 169t134 253t65.5 312q4 41 4 81q0 251 -148 437q-171 215 -470 224h-21q-147 1 -262 -51q-123 -56 -198.5 -158.5t-119.5 -222t-65 -267.5z" />
<glyph unicode="P" horiz-adv-x="1249" d="M174 -2q-1 5 -1 9q1 15 11 21q14 10 47 18.5t54 19.5q47 25 65 198l117 1108q2 21 2 39q0 75 -27 109q-14 18 -45.5 26t-61.5 8t-51.5 8.5t-17.5 28.5q6 31 58 32h7q51 1 123 -13q78 -14 99 -15q41 0 80 4.5t86 10.5t80 8q56 6 106 6q201 0 307 -94q120 -106 120 -298 q0 -20 -1 -42q-15 -199 -165 -331q-140 -123 -313 -123q-13 0 -26 1q-8 0 -31.5 1t-37 2t-33.5 3t-31.5 5.5t-24 8.5t-16.5 12t-2 17q2 8 32 10q18 1 38 0h29h14q30 0 63 3q160 20 240 125.5t94 251.5q2 21 2 41q-1 77 -31 139q-38 78 -102 116q-63 38 -134 56 q-67 18 -121 17h-6q-56 -1 -77 -13q-41 -27 -53 -197l-121 -1095q-3 -27 -3 -51q0 -79 32 -109q18 -16 54 -24.5t64.5 -9.5t49 -10t16.5 -30q-4 -18 -20.5 -23.5t-47 -2t-65.5 9.5t-85 10q-33 3 -64 3q-15 0 -29 -1q-48 -2 -116 -16q-63 -13 -92 -12h-4q-28 1 -34 24z" />
<glyph unicode="Q" horiz-adv-x="1712" d="M160 813q14 166 75.5 313.5t166 262t260 184t342.5 74.5h28q160 0 296 -63q147 -68 240 -186t140 -270q39 -126 39 -258q0 -29 -2 -57q-10 -160 -52 -292t-98.5 -216t-126 -146.5t-135 -95t-129 -53t-103.5 -25.5t-61 -8h-8l-12 -2q-12 -2 -24.5 -8t-14.5 -14 q-4 -33 29 -47l309 -156q144 -72 238 -72q19 0 36 3q33 6 60.5 23t42 35.5t28 36t19.5 23.5t18 -2q7 -8 7 -21q0 -23 -22 -60q-36 -58 -102.5 -108t-123.5 -52h-16q-202 0 -431 143l-547 344q-66 37 -132 37t-105 -51q-55 -80 -55 -144q0 -13 2 -25q14 -73 34 -128 q9 -27 9 -43q0 -15 -9 -19q-4 -1 -8 -1q-22 0 -48 35q-32 42 -46 122q-5 27 -5 57q0 62 19 140q14 53 57.5 97t75 60.5t37.5 16.5q-8 12 -23.5 32.5t-51 87t-62.5 134t-45 167.5q-12 70 -12 137q0 29 2 58zM346 899q-9 -70 -9 -137q0 -145 41 -278q58 -193 198.5 -318 t332.5 -133q15 -1 29 -1q271 0 446 212q183 223 191 573v33q0 327 -151 521q-158 204 -482 206q-162 0 -294 -100.5t-206.5 -252t-95.5 -325.5z" />
<glyph unicode="R" horiz-adv-x="1484" d="M182 -10q-1 3 -1 6q-1 16 17 26q20 12 52.5 23.5t44.5 30.5q8 10 14 23.5t9.5 23.5t6.5 28.5t4 26.5t3 31.5t2 32.5l115 1079q6 32 6 63q1 30 -5 58q-12 58 -61 90q-14 10 -38.5 13t-43 2t-33 6.5t-14.5 23.5t8 23.5t29.5 8.5t47.5 -2t73 -7.5t90 -4.5h24q75 1 153 11 q91 12 138 14q19 1 37 1q202 1 320 -101q114 -98 114 -263q0 -22 -2 -45q-6 -82 -47 -151.5t-91 -110.5t-104.5 -70.5t-87 -41t-38.5 -11.5l233 -571q37 -119 137 -193q33 -25 82.5 -28t55.5 -21q6 -31 -80 -44q-36 -5 -65 -5q-40 0 -66 10q-82 29 -128 87.5t-83 152.5 l-228 580h-237l-53 -549l-3 -17q-2 -16 -2 -34.5t1 -41t7.5 -41t16.5 -26.5q33 -29 73 -38t63.5 -14t27.5 -26q2 -16 -12.5 -23.5t-45 -6t-62.5 5.5t-76 9t-77 5q-35 0 -71.5 -6t-60 -12.5t-43.5 -10.5q-9 -2 -15 -2q-9 0 -15 3q-12 5 -16 20zM553 870h229q133 0 224.5 72 t109.5 215q5 37 5 70q0 165 -111 253q-85 68 -200 67q-64 0 -138 -21q-23 -4 -44.5 -48t-23.5 -73z" />
<glyph unicode="S" horiz-adv-x="1028" d="M113 274q-1 5 -1 10q0 14 5 23q6 12 22 17q8 2 17.5 -16.5t19.5 -48.5t37 -65.5t64.5 -68.5t108.5 -58.5t163 -31.5h12q29 0 68 7q47 9 101 32.5t95 74t47 119.5q1 10 1 21q1 55 -27 115q-32 70 -89 137t-126.5 137t-140 142.5t-130 146t-95.5 159.5q-34 81 -34 163v9 q1 146 107 244q101 95 237 94h11q59 -2 116.5 -17t118 -39t80.5 -30q14 -2 32.5 18.5t29.5 18.5q16 -1 20 -27q3 -17 3 -44q0 -13 -1 -28q-1 -23 -1 -39.5t1 -26.5q2 -20 8 -52.5t11.5 -56t9.5 -47.5q2 -12 2 -21t-2 -15q-4 -13 -17 -16q-8 -2 -15 3.5t-12 14.5t-8.5 16 t-7.5 18l-2 12l-39 82q-31 70 -123 141.5t-200 73.5h-6q-83 -1 -153 -53q-71 -53 -71 -164v-6q2 -98 69 -199.5t161 -190t187 -180.5t157 -206q63 -110 63 -223v-7q-2 -147 -119.5 -254.5t-322.5 -120.5q-53 -2 -96 -2t-82 4t-68.5 9.5t-54.5 11.5t-40 11t-26 9l-10 4 q-14 41 -33 125q-4 16 -12 45t-13 47.5t-7 38.5z" />
<glyph unicode="T" horiz-adv-x="1548" d="M250 1278q-20 2 -20 35q0 41 30 129q4 12 12 33q8 25 13 36q2 6 6 21.5t7 23l7 17.5t10.5 18t14.5 15q6 6 18 8t31.5 3t37 1t42 -1t39.5 -1h1034q10 0 28 3q14 2 25 2h7q12 -1 24 -9q10 -6 12 -27.5t-1 -63t-3 -57.5q0 -18 3 -46.5t5 -51.5t2 -45.5t-5 -33.5t-15 -11 q-20 0 -30.5 21.5t-12.5 49t-12.5 62.5t-30.5 57q-37 39 -139 39h-355l-133 -1249q0 -162 47 -184q35 -18 76 -25.5t58.5 -13.5t15.5 -27q-4 -27 -41 -29h-13q-36 1 -100 9q-76 10 -119 10q-35 0 -75.5 -4t-70.5 -8q-29 -4 -55 -6q-9 -1 -17 -1q-13 1 -21 3q-12 4 -11 18 q4 27 12.5 34t37 12t55.5 17q57 25 68 158q2 8 2 29q2 10 2 16l122 1241h-311q-131 0 -194 -51q-31 -25 -48.5 -58.5t-22.5 -59t-16.5 -43t-31.5 -15.5z" />
<glyph unicode="U" horiz-adv-x="1783" d="M264 1591q4 18 9.5 25.5t20.5 7.5t33.5 -4t62.5 -8t91 -6q12 -1 24 -1q31 0 61 4q42 5 67.5 11t48.5 9q12 2 20.5 1.5t14.5 -1.5q12 -3 18 -17q10 -27 -6 -37t-48 -14.5t-44 -14.5q-47 -43 -55 -100l-82 -821q0 -2 -2 -11q-8 -66 -8 -125q0 -244 137 -364 q106 -90 286 -90h23q555 14 631 555l100 727q6 44 6 80q0 41 -8 71q-14 56 -66 78q-10 4 -40.5 10.5t-43 15.5t-4.5 32q4 18 18.5 18t70.5 -6q42 -4 87 -4h31q41 0 79 4t56.5 7t34 4t20.5 -4q7 -7 7 -23q-1 -12 -15 -19q-16 -8 -49.5 -19.5t-56.5 -27.5q-31 -23 -41 -158 l-96 -739q-4 -39 -9.5 -69.5t-28 -106.5t-52 -134.5t-88 -132t-132 -122.5t-187 -84t-251.5 -35q-180 0 -303 46t-182 131q-58 84 -78 184q-13 66 -13 144q0 40 3 83l72 798q2 30 2 56q0 104 -33 129q-14 10 -47 20q-34 10 -52 20q-15 9 -15 21q0 3 1 6z" />
<glyph unicode="V" horiz-adv-x="1728" d="M264 1589q0 23 40 24h8q39 -1 108 -9q63 -8 103 -7h16q27 -1 89 9q51 8 83 8h13q34 -2 36 -21q0 -12 -12.5 -19t-30 -10t-35.5 -12.5t-29 -25.5q-23 -36 -23 -82q0 -28 9 -60l303 -1097q8 -37 32.5 -39t35.5 26q4 2 51 91.5t114.5 221.5t114.5 230t109.5 233.5 t104.5 227.5t42 96q21 49 21 87q0 30 -13 52q-8 18 -32.5 28.5t-49 12.5t-41 11.5t-14.5 27.5q2 12 17.5 16.5t40 1.5t53 -7.5t63.5 -8.5q23 -3 44 -3q10 0 20 1q27 2 59.5 5.5t52 6.5t39 4t29.5 -2.5t12 -11.5q1 -3 1 -6q0 -13 -15 -21q-18 -9 -49 -18.5t-45 -21.5 q-57 -53 -101 -144l-18 -41q-18 -41 -49 -108.5t-67 -144t-77 -162.5t-73 -152q-109 -219 -256.5 -490.5t-163.5 -285.5q-23 -45 -45 -45q-27 2 -35 47l-389 1419q-18 57 -57 97q-18 16 -56.5 25t-63 18.5t-24.5 27.5z" />
<glyph unicode="W" horiz-adv-x="2385" d="M260 1595q2 20 34 20q2 0 4 1q32 0 92 -8q48 -6 85 -7q13 0 25 1q26 2 98 10q58 6 92 6h16q36 -2 35.5 -18.5t-27 -24.5t-60 -20.5t-44.5 -34.5q-18 -36 -18 -84q0 -35 10 -76l287 -1081q0 -8 13 -25.5t26 -17.5q18 0 41 45l266 469l-180 659q-27 90 -80 123 q-14 10 -48 15t-52.5 15.5t-14.5 34.5q4 18 41 18q2 0 4 1q37 0 103 -8q52 -6 91 -7q13 0 25 1q20 0 50 4t54 8t46 6q11 1 20 1q8 0 16 -1q14 -2 17 -12q4 -16 -6 -26.5t-27.5 -15.5t-37 -14.5t-27.5 -21.5q-20 -30 -20 -63q0 -16 5 -33l97 -404q8 -43 28 -43q16 0 31 43 l170 350q21 42 21 88q0 44 -25 68q-12 14 -36.5 19.5t-44 5.5t-33 7t-11.5 25q4 19 35 23q10 1 24 2q26 0 64 -5q57 -7 80 -7q34 0 102 7q52 5 84 5h16q32 -2 31 -21q0 -14 -14 -24t-32.5 -13.5t-42 -13.5t-38.5 -24q-14 -12 -26.5 -28.5t-18.5 -28t-17 -34t-18 -34.5 l-288 -541l176 -575q6 -18 16 -35t23 -15q25 2 41 37l536 1053q49 97 49 155q0 27 -10 46q-14 31 -91 39t-75 38q0 19 39 21q10 1 23 0q35 0 89 -5q73 -7 103 -7q27 0 65 3t64.5 5t52 2t37.5 -6q10 -6 9 -17q-1 -21 -19 -27q-16 -5 -46 -8.5t-50 -13.5q-23 -12 -54.5 -62 t-56.5 -100l-24 -47l-709 -1341q-27 -49 -49 -51h-3q-12 0 -20 12q-8 14 -12 35l-176 633q0 8 -8 15t-19 5q-6 0 -16 -16l-342 -621q-6 -14 -8 -18t-9.5 -15.5t-14.5 -14.5t-15 -3q-6 0 -11.5 3t-8.5 6t-7 11.5t-5 12.5t-4 14t-3 14l-365 1399q-12 53 -61 107 q-12 14 -34.5 22t-42 12.5t-33 13.5t-13.5 23z" />
<glyph unicode="X" horiz-adv-x="1871" d="M229 1333v11q0 112 78 192q80 82 199 82h6q236 -4 379 -277q25 -49 78 -174l88 -213l309 414q10 14 24.5 39t28 60.5t4.5 52.5q-12 20 -38.5 30.5t-49 11.5t-39 8t-16.5 21q0 18 7 25.5t29 8.5h10q18 0 36 -2q24 -3 73.5 -7t96.5 -4q32 0 100 6q51 4 82 4h18 q32 -2 35 -20q2 -12 -4 -18.5t-21.5 -9.5t-33.5 -7t-45 -16.5t-51 -30.5q-90 -84 -123 -129l-395 -523l256 -540l8 -17q8 -14 18 -34.5t27.5 -48t36 -52t42 -47.5t48.5 -35q70 -37 127 -39q6 0 11 -1q48 0 72 16q26 18 52.5 25t30.5 -7q5 -8 5 -16q0 -26 -54 -50 q-68 -32 -142 -36q-33 -2 -62 -2q-155 0 -216 45q-80 55 -187 303l-172 403l-340 -473q-6 -8 -15 -24.5t-26.5 -51t-19.5 -56t6 -42.5q33 -37 79 -45t72.5 -9t26.5 -24q0 -25 -30 -29q-10 -1 -25 -1q-32 0 -87 6q-81 8 -116 10h-19q-45 0 -105 -7q-74 -9 -111 -9t-37 22 q2 23 25.5 33t62.5 24.5t65 38.5q98 90 166 187l387 520l-143 336q-160 362 -322 364h-7q-91 0 -140 -51t-49 -129v-6q2 -57 17.5 -93t35 -47.5t35.5 -2.5q14 6 25.5 -10.5t9.5 -35.5q-2 -14 -13.5 -24t-23.5 -10q-74 0 -111 71.5t-39 165.5z" />
<glyph unicode="Y" horiz-adv-x="1568" d="M268 1581q2 29 32 33q9 1 23 1q32 0 92 -7q85 -9 150 -9q39 2 83 5.5t68.5 6.5t47 3t32 -6t9.5 -19q0 -18 -10.5 -26.5t-25.5 -8.5t-34.5 -8t-34.5 -24q-10 -21 -10 -47q0 -9 1 -19q5 -37 18 -63l256 -543q16 -37 34 -37q4 0 9.5 3t7.5 6l7 10.5t7 11.5l332 506l10 18 q8 16 13.5 27.5t14.5 34t9 34v29.5q-10 35 -49 44t-73 12t-34 26q0 18 9.5 27.5t35 9.5t54 -2t87 -6.5t113.5 -4.5q27 0 52.5 3.5t38 6.5t23.5 3t16.5 -5.5t7.5 -17.5q1 -3 1 -6q0 -14 -17 -23q-21 -10 -58 -21t-53 -23q-14 -10 -37 -42t-41.5 -63t-36.5 -63.5t-21 -36.5 l-407 -592l-39 -494q0 -127 29 -149q25 -20 61.5 -30.5t64 -11.5t47 -9.5t17.5 -26.5q-2 -25 -42 -26h-7q-40 0 -115 10q-82 12 -125 12q-35 0 -75.5 -4t-68.5 -8.5t-52.5 -7.5t-36.5 2.5t-12 19.5q0 23 16 29t45 13t49 28q31 31 43 145l53 489l-360 717q-31 57 -49.5 78 t-52.5 39q-16 8 -44 12t-48.5 5t-36 8.5t-13.5 21.5z" />
<glyph unicode="Z" horiz-adv-x="1316" d="M178 16q-2 6 -2 12t2 10q4 10 13.5 21t13.5 17l882 1321q20 27 13 55q-8 16 -41 16l-424 23q-14 1 -27 1q-129 0 -215 -54q-119 -68 -119 -199q0 -47 18.5 -73.5t38 -32t31 -12.5t0.5 -19q-21 -27 -48 -27q-16 0 -35 10q-23 10 -43 74q-15 46 -15 81q0 14 2 26 q25 184 142.5 278t289.5 96q72 0 205 -15t154 -15h180q14 0 37.5 9t35 11t27.5 -12q4 -6 6 -12q2 -4 2 -9v-5q-2 -7 -4 -12t-7 -14.5t-7 -13.5t-9 -13t-9 -13l-860 -1313q-2 -2 -9.5 -10t-8.5 -11.5t-4 -12.5t3 -13q10 -14 39 -14h567h25h40t43.5 2t47 6t39 11t30 20.5 t9.5 29.5q0 20 -19.5 32.5t-42 17.5t-41 22.5t-16.5 50.5q2 36 30 60q24 21 54 21q5 0 10 -1q41 -4 67.5 -38t26.5 -79v-13q0 -82 -46 -152q-50 -74 -138 -113q-68 -29 -119 -29h-776q-2 0 -11 -1q-4 0 -8 -1q-2 0 -4 1q-4 1 -9 5t-7 12z" />
<glyph unicode="[" horiz-adv-x="538" d="M43 -317l227 1919h396l-7 -68h-170q-39 0 -67 -23q-20 -23 -27 -67l-186 -1596q-6 -59 22 -86q27 -23 80 -22h133l-6 -57h-395z" />
<glyph unicode="\" horiz-adv-x="1087" d="M268 1597h97l651 -1697h-94z" />
<glyph unicode="]" horiz-adv-x="538" d="M41 -317l4 63h174q39 0 66 27q23 23 26 63l187 1598q6 57 -25 88q-25 23 -76 22h-135l4 58h400l-230 -1919h-395z" />
<glyph unicode="^" horiz-adv-x="659" d="M209 1073l289 236l239 -244l-254 80z" />
<glyph unicode="_" horiz-adv-x="1413" d="M-49 -356l4 100h1515l-4 -100h-1515z" />
<glyph unicode="`" horiz-adv-x="528" d="M203 1108l145 127l242 -170l-37 -41z" />
<glyph unicode="a" horiz-adv-x="1120" d="M109 223q10 186 90 362.5t218 288.5q131 106 276 105h16q29 -1 80 -17q45 -15 66 -14h5q26 4 62 70q32 58 51 58q3 0 6 -1q8 -2 10 -15t-3 -36t-9 -42t-13.5 -49t-13.5 -44q-27 -117 -47 -231q-21 -113 -35 -237q-8 -67 -7 -120q-1 -46 5 -84q12 -80 54 -88q4 -1 8 -1 q36 0 80 75l36 69q26 43 48 43q4 0 8 -2q12 -6 12 -24q0 -26 -26 -78q-44 -86 -118 -160q-63 -63 -110 -63q-8 0 -16 2q-43 12 -64.5 52t-22.5 82t-7.5 73.5t-22.5 29.5q-8 0 -43 -41t-78 -89t-124 -88t-173 -40q-99 0 -151 78q-47 71 -47 159v17zM250 305q-1 -12 0 -24 q0 -75 33 -131q39 -66 112 -66q63 0 120.5 28.5t96.5 69.5t69 84t43 71t13 30q8 141 31 256q8 41 22.5 100t24.5 100l10 39q-82 51 -123 58q-18 3 -35 3q-91 0 -177 -79q-103 -94 -166.5 -241.5t-73.5 -297.5z" />
<glyph unicode="b" horiz-adv-x="1019" d="M186 178l191 1387q1 9 1 17q0 37 -16 46q-12 10 -45 6l-51 -6q-18 -4 -38.5 -2t-22.5 18.5t9 25.5t32.5 13.5t44 6.5t52.5 5t48.5 7t50.5 18q32 13 46 15h6q13 0 32 -6q6 -4 7.5 -12.5t0 -22t-3.5 -24.5t-6 -29.5t-6 -26.5q-31 -164 -58.5 -380t-40.5 -345t-13 -137 q2 12 46 64t136 111.5t186 59.5h6q126 0 192 -87q66 -86 66 -211v-7q-6 -166 -78.5 -327.5t-213 -276.5t-310.5 -115q-110 -1 -186 61q-66 53 -66 130q0 12 2 24zM324 156q0 -55 38 -92q36 -35 95 -35h6q119 2 219 93t154.5 220t54.5 256q0 109 -51.5 187.5t-151.5 78.5h-7 q-77 0 -139 -41q-64 -43 -102.5 -112.5t-64 -142t-35.5 -148.5t-13 -113t-3 -51v-100z" />
<glyph unicode="c" horiz-adv-x="894" d="M125 336v9q-1 125 55 265q58 144 177.5 257.5t269.5 119.5q12 1 23 1q106 0 187 -50q67 -41 67 -102q0 -20 -7 -41q-10 -33 -44 -42.5t-52 3.5q-12 6 -46 46t-80 74.5t-100 34.5h-3q-107 0 -201 -126q-95 -128 -105 -359q-1 -15 -1 -30q0 -284 261 -308q10 -1 20 -1 q61 0 126 32q76 37 122 70.5t54 29.5q10 -6 10 -19q0 -22 -32 -62q-52 -62 -160 -116q-98 -49 -196 -50q-11 0 -21 1q-322 14 -324 363z" />
<glyph unicode="d" horiz-adv-x="1171" d="M113 307q10 229 155.5 437t364.5 241q18 3 35 3q31 0 61 -9q47 -14 63.5 -26.5t24.5 -20.5l72 598q2 41 2 61q0 15 -1 19q-3 8 -22 18q-27 12 -60.5 5t-64 -7t-36.5 21q-8 25 15 35t81.5 15t85.5 11q23 6 67.5 19.5t52 13.5t29.5 -2q10 -6 12.5 -24.5t-0.5 -34t-9.5 -37 t-6.5 -27.5l-153 -1309v-8q-2 -10 -3 -22.5t-1 -30t1 -33.5t4 -33.5t8 -30t14 -20.5t22 -10h5q48 0 84 41q38 43 63 85q23 38 44 38h4q19 -3 19 -24q0 -25 -27 -77q-59 -117 -155 -174q-43 -26 -83 -26h-3q-51 0 -80 33.5t-34 74.5t-10 75t-14 34q-10 0 -38.5 -36t-65.5 -79 t-103 -77q-63 -32 -136 -32h-9q-127 4 -203 88q-72 80 -71 228v16zM254 356v-18q0 -32 5 -64q7 -41 25 -85q19 -43 60 -71q38 -26 92 -26h8q63 2 117.5 30t87.5 63.5t55.5 75.5t30.5 64.5t8 30.5l56 396l4 26q2 14 2 27q0 9 -1 17q-3 20 -12.5 45.5t-40 43t-77.5 23.5 q-10 1 -21 1q-138 1 -259 -175q-130 -188 -140 -404z" />
<glyph unicode="e" horiz-adv-x="909" d="M129 330q-1 10 -1 21q0 115 60 253q66 152 192 269.5t267 121.5h16q36 0 70 -7q41 -9 87.5 -52t56.5 -115q2 -13 2 -26q0 -81 -75 -151q-87 -81 -175 -118q-137 -59 -361 -59v-123q0 -109 81 -182.5t194 -77.5q12 -1 23 -1q58 -1 108 17q59 20 89 47t54.5 43.5t38.5 8.5 q14 -9 14 -23q0 -27 -51 -76q-104 -100 -254 -133q-40 -9 -77 -9q-12 0 -25 1q-162 14 -245 99t-89 272zM287 504h4q13 0 63 8q60 10 150 44t143 83q59 51 80 116q7 23 7 45q0 42 -25 83q-40 40 -99 40q-13 1 -26 -1q-76 -10 -135 -66q-72 -68 -113 -161t-45 -131t-4 -60z " />
<glyph unicode="f" horiz-adv-x="579" d="M-53 -367q6 57 23 105q17 45 38 45h4q23 -2 30 -57.5t52 -63.5q29 -4 48.5 31t30.5 103.5t17.5 136t13.5 159.5t13 146l80 628q0 -2 -56.5 -5t-106.5 -4t-60 5q-6 8 -3 47t9 45q12 5 51 5h13q51 -1 107 -5t56 -6q0 16 15.5 107.5t55.5 234t91 223.5q72 113 141 167 q68 53 175 53h8q68 0 67 -88v-86q0 -31 -14 -37q-10 -4 -34 21.5t-64 54.5q-36 26 -80 26h-6q-74 -2 -125.5 -149.5t-73.5 -335.5l-27 -195q0 2 117 8t127 6t11 -46t-9 -50q-6 -4 -25 -4l-231 10l-70 -667q0 -10 -6 -69.5t-21.5 -160t-33.5 -168.5q-25 -86 -101.5 -163.5 t-177.5 -83.5h-5q-28 0 -47 20q-18 19 -18 46q0 6 1 11z" />
<glyph unicode="g" horiz-adv-x="999" d="M55 -207v10q0 53 19 95q22 47 52 71.5t63.5 41t53 21.5t23.5 5l-4 4q-2 6 -7 17.5t-9 24.5t-6 34.5t0 44.5q2 37 22.5 72.5t37.5 53t19 17.5l-6 6q-6 4 -15 14.5t-19.5 23.5t-21.5 33.5t-20.5 45.5t-15.5 57.5t-8 69.5v9q0 72 32 164q34 97 113 178q73 74 166 74 q10 0 19 -1q59 -4 131 -33q59 -23 115 -23q12 0 24 1q29 4 76 22.5t69.5 25.5t51.5 -7q23 -22 23 -46q0 -18 -14 -38q-31 -43 -77 -43h-4q-23 0 -57.5 12t-51 17t-34.5 -3q-8 -20 -2 -37.5t21 -74t17 -109.5q1 -13 1 -26q0 -120 -85 -240q-93 -131 -229 -131h-4 q-27 0 -64.5 8t-61 16.5t-28.5 10.5q-2 0 -13 -7.5t-23.5 -30t-14.5 -50.5q-1 -6 -1 -12q0 -38 24 -61q28 -26 82 -44l288 -105q86 -31 142 -87q55 -54 55 -123q0 -228 -367 -246q-19 -1 -39 -1q-50 0 -103 7q-75 10 -152.5 37.5t-129 88t-53.5 146.5zM158 -186 q0 -114 106 -184q103 -66 221 -66h13q68 2 123 13t99 46t44 90q0 61 -60.5 103.5t-174 80t-142.5 52.5q-84 47 -86 53l-6 -2q-6 -2 -13.5 -4t-18.5 -7t-22.5 -12.5t-23.5 -17.5t-22.5 -24.5t-18.5 -31t-13 -39t-5 -50.5zM344 578q-2 -23 -2 -45q0 -204 139 -230q15 -3 30 -3 q83 0 136 98q62 116 66 278q0 92 -51 170q-51 76 -119 76h-4q-70 0 -116 -60.5t-60.5 -130t-18.5 -153.5z" />
<glyph unicode="h" horiz-adv-x="1243" d="M186 49l201 1505q8 33 4 51.5t-4 22.5t-9 7t-11 5q-20 16 -55.5 11.5t-69 -4.5t-35.5 18q-2 23 23.5 31t88 12t87.5 8q29 6 67.5 15.5t44.5 10.5h3q7 0 22 -3q6 -4 6 -11.5t-4 -27t-4 -25.5l-109 -817q-4 -49 10 -53q6 -2 11.5 0t9.5 6l9 9t9 7t50.5 48.5t108.5 82.5 q59 35 121 35h7q206 -5 205 -287q0 -32 -2 -67l-31 -330l-2 -16q-2 -16 -3 -34.5t0 -42t5 -42t15.5 -31t27.5 -12.5q47 2 86 32t57.5 63.5t38 54t35.5 6.5q9 -6 9 -20q0 -23 -25 -69q-39 -73 -116 -141.5t-148 -68.5q-49 0 -79 33.5t-38 76.5q-5 29 -5 61q0 16 1 34l28 403 q0 6 2 36t3.5 44t0 44t-5.5 46t-12 38.5t-20.5 35t-33 20.5t-46.5 6q-119 -4 -214 -85t-106 -191l-67 -570q0 -6 -4.5 -14t-22.5 -16t-45 -8q-26 0 -50 22q-20 18 -21 38q0 4 1 7z" />
<glyph unicode="i" horiz-adv-x="573" d="M102 938q0 23 33 31t105.5 9t93.5 3q31 4 59.5 11t31.5 7t24 -8q8 -12 6 -26.5t-10.5 -41t-8.5 -34.5l-112 -602v-11q-2 -10 -2 -22t-1.5 -27.5t1 -32t6.5 -29.5t12 -22.5t18 -11.5q6 -1 13 -2q34 0 61 37l57 88q23 22 37 8q11 -8 11 -23q0 -17 -15 -44l-47 -78 q-37 -59 -107 -103q-61 -39 -97 -40q-5 0 -9 1q-69 9 -69 187q0 167 61 481l27 137q11 63 11 88q0 28 -22 39q-17 5 -39 5q-11 0 -25 -1q-19 -2 -37 -2t-35 2q-34 4 -32 27zM344 1382q0 25 37 69t63 44q18 0 45 -43t27 -63q0 -35 -35 -85q-34 -49 -63 -49h-2q-20 3 -48 51 q-24 42 -24 69v7z" />
<glyph unicode="j" horiz-adv-x="432" d="M-52 -376q-5 26 -5 46q0 47 26 56q25 10 40.5 -14.5t37 -55.5t57.5 -31q25 0 43.5 25.5t29.5 80t16.5 99.5t12.5 123t11 110l90 723q5 45 5 71q0 13 -1 21q-4 25 -26 35q-25 8 -61 4q-17 -2 -33 -2q-18 0 -35 3q-31 4 -29 26.5t35 30.5t104.5 9t91.5 3q25 2 46.5 6 t28.5 6t14.5 0t17.5 -8q6 -4 7 -12t0 -20.5t-3 -23.5t-5 -24.5t-3 -19.5l-137 -1059q0 -8 -14.5 -53t-26.5 -66q-106 -168 -269 -176h-2q-49 0 -64 87zM390 1457q38 44 65 44q18 0 44.5 -43t26.5 -63q0 -35 -36 -85q-34 -48 -62 -48h-2q-23 2 -50 49q-26 44 -26 71 q0 29 40 75z" />
<glyph unicode="k" horiz-adv-x="1159" d="M215 1659q0 14 13.5 24.5t40 14.5t52 7t62.5 5t57 4q35 4 61.5 13.5t30.5 10.5q5 0 23 -7q8 -14 7 -28.5t-8 -43.5t-7 -37l-135 -1087q-6 -23 8 -33q7 -3 15 -3q23 0 54 25q41 16 160 130t142 171q37 96 73 144q25 29 60 29h1q36 0 52 -17q23 -18 23 -48q0 -26 -17 -63 q-20 -47 -68.5 -95t-133.5 -108.5t-87 -62.5q-8 -8 -17 -19.5t-15.5 -19.5t-6.5 -10t11.5 -18.5t27 -41t25.5 -40.5q31 -51 78 -133l80 -144q18 -41 69 -41q35 2 66.5 44t56.5 79t43 33q17 -4 17 -27q0 -29 -27 -90q-59 -129 -141 -180q-25 -16 -48 -19h-8q-63 0 -131 121 l-182 322q-4 6 -12.5 24.5t-15.5 27.5t-15 9q-29 4 -45 -6l-74 -39q-14 -4 -31 -28q-8 -12 -12 -39l-33 -324q-6 -63 -73 -63q-39 -2 -53.5 17t-10.5 50l180 1464q10 63 10 86q0 24 -20 35q-25 8 -63 4q-21 -2 -42 -2q-16 0 -31 1q-36 3 -36 22z" />
<glyph unicode="l" horiz-adv-x="673" d="M207 1647q0 14 13 24t41 15.5t52.5 7.5t63.5 4t57 4q33 4 59.5 13t29.5 10h1q4 0 23 -7q8 -14 7 -27.5t-8 -42t-7 -36.5l-164 -1331l-2 -15q-2 -16 -3 -35.5t-2 -43t1 -42t9 -32t19 -13.5q74 0 133 93l62 81q22 27 45 13q8 -8 8 -20q0 -19 -20 -50l-45 -80 q-47 -78 -127 -131q-74 -49 -133 -49h-9q-89 4 -89 214q0 89 16 216l151 1114q9 62 9 86q0 27 -21 35q-25 10 -61 6q-21 -2 -42 -2q-16 0 -31 1q-36 3 -36 20z" />
<glyph unicode="m" horiz-adv-x="1808" d="M180 782q8 48 81 136q64 77 115 77q8 0 15 -2q23 -6 38 -21.5t23.5 -36t13.5 -45t8 -46t5 -40t6 -28.5t11 -8q6 0 32.5 31.5t61.5 70.5t99.5 75t137.5 44q22 3 42 3q57 0 91 -22q46 -28 53 -68t12 -81t17 -49q6 -4 22.5 15.5t42.5 52t60.5 66.5t88 59.5t114.5 31.5 q10 1 19 1q79 0 125 -60q50 -68 55 -169q2 -50 2 -103.5t-2 -110.5l-19 -254l-2 -14q-2 -16 -5 -35t-3 -41.5t4 -39.5t14.5 -29.5t26.5 -10.5q37 2 66.5 27.5t44 51.5t31 41t34.5 3q7 -6 7 -18q0 -20 -22 -62q-36 -64 -109.5 -125t-145.5 -61q-53 0 -75 62q-18 49 -18 103 q0 15 1 29l35 408q2 37 2 69q0 234 -127 234h-2q-123 -2 -198 -173t-91 -388l-23 -305q0 -6 -3 -14.5t-17 -18.5t-39 -10q-37 0 -54.5 11t-20.5 24.5t-1 39.5l58 523q5 22 5 54q0 16 -1 34q-4 55 -12.5 108t-47.5 88q-32 28 -81 28q-11 0 -23 -1q-106 -10 -177 -148.5 t-87 -277.5l-54 -453q0 -4 -4 -12t-21.5 -17.5t-43.5 -9.5q-31 0 -53.5 21.5t-20.5 48.5l82 571q9 57 9 99q0 114 -69 116h-2q-35 -1 -67 -73q-34 -74 -53 -74q-24 1 -24 42q0 22 7 56z" />
<glyph unicode="n" horiz-adv-x="1255" d="M175 710q0 4 -0.5 8.5t0.5 10.5q1 12 3 18.5t5 20.5t3 18q10 46 84 132q66 76 116 76q7 0 13 -1q20 -4 36 -18t23 -35.5t12 -45.5t7 -46.5t4 -42t6.5 -29.5t10.5 -8q8 0 34.5 33t61.5 72.5t100.5 74.5t141.5 41q9 1 18 1q81 0 128 -66q52 -72 56 -172q2 -40 2 -79 q0 -59 -4 -118l-26 -254l-2 -14q-2 -16 -5.5 -35t-3.5 -41.5t4.5 -39.5t14.5 -29.5t26 -10.5q47 4 82 44t55 67.5t40 11.5q10 -9 10 -24q1 -24 -23 -62q-38 -62 -115 -119t-149 -61q-37 0 -54.5 33.5t-17.5 77.5v87l29 404q4 20 4 46q0 18 -2 39q-4 52 -12 101t-41 84 q-31 33 -79 33h-5q-74 -2 -134.5 -80t-91 -170t-40.5 -176l-54 -453q0 -4 -4 -12t-21.5 -17.5t-43.5 -9.5q-29 0 -51.5 21.5t-20.5 48.5l82 571q9 23 9 64q0 27 -4 61q-9 88 -64 90q-23 0 -42.5 -23.5t-28.5 -53t-23.5 -54t-28.5 -22.5q-10 0 -16.5 4t-9.5 12t-4 16z" />
<glyph unicode="o" horiz-adv-x="985" d="M133 389q8 254 137 432t346 185q49 0 105.5 -20.5t115 -64.5t94.5 -130q32 -77 32 -178v-23q-12 -285 -142.5 -455t-357.5 -172h-5q-126 -1 -228 107q-97 102 -98 290q0 14 1 29zM299 526q-9 -86 -10 -156q0 -323 192 -337q8 -1 16 -1q69 0 127 48q64 53 102 142 t58.5 183.5t24.5 186.5q1 23 1 44q0 131 -52 207q-62 89 -144 93h-12q-116 0 -198 -114q-87 -120 -105 -296z" />
<glyph unicode="p" horiz-adv-x="1046" d="M82 -426q0 33 49 41t51 12q27 35 33 109l123 1093q4 41 -16 52q-8 4 -39 -17l-70 -33q-25 -6 -31 21q-1 5 -1 9q0 27 50 46l88 33l33 16q4 0 8.5 19.5t9.5 62.5t7 55.5t7 74t22 87.5q23 37 60 51q17 6 32 6q16 0 28 -7q12 -6 14.5 -17.5t-4 -33t-15.5 -47t-20.5 -70.5 t-17.5 -95q-4 -23 -4 -40t-2 -29q118 24 161 24h9q199 -10 304.5 -88t107.5 -260v-8q0 -139 -69 -285q-70 -149 -195 -252q-123 -102 -260 -102h-5q-27 0 -51 3t-41.5 5t-31 5t-21.5 5l-6 3l-27 -318v-10q0 -50 35 -76q12 -10 50 -13t68 -8.5t30 -23.5q2 -18 -13 -28 q-15 -8 -40 -8h-6q-30 1 -60.5 4t-70.5 8.5t-62.5 5.5t-80.5 -10q-39 -6 -65 -6q-14 0 -25 2q-30 5 -30 32zM387 136.5q0 -15.5 1 -25t6 -16.5t7 -8t11.5 -6t11.5 -5q39 -19 82 -19q59 0 126 35q116 62 196 202q77 133 77 289v15q-4 172 -83 247t-222 87q-20 2 -38.5 2 t-31 -1t-22.5 -2t-16.5 -4t-11.5 -5t-7 -5.5t-3 -6.5t-1 -5t-2 -4v-2l-78 -727q-2 -20 -2 -35.5z" />
<glyph unicode="q" horiz-adv-x="1026" d="M115 248q2 78 44 197.5t113.5 243.5t189.5 213t247 91q57 0 97 -9t53 -20.5t25.5 -18.5t22.5 -3q25 12 40.5 48t22.5 71t25 59q14 20 37 20q6 0 12 -1q12 -2 14 -25v-7q0 -21 -6 -50q-8 -35 -17 -71t-18 -74t-11 -60l-132 -1135q-6 -23 -3 -50t26 -48q16 -12 43 -15 t46.5 -1t34.5 -6.5t15 -30.5q0 -25 -32 -26h-6q-32 0 -94 8q-70 10 -111 10q-39 -2 -108 -14q-59 -9 -88 -9h-9q-29 2 -29 29q0 18 22.5 29.5t58.5 21.5t52 23q39 23 43 90l58 469q6 37 -2 39q-6 2 -10.5 -2.5t-9.5 -10.5t-9 -8q-2 0 -37 -43t-76 -84t-120.5 -77t-170.5 -36 q-129 2 -187 91q-56 85 -56 176v6zM262 307v-14q0 -78 42 -143q41 -63 123 -63q9 0 19 1q76 6 141.5 47t106.5 94.5t70 104.5t41 88l12 35l51 360q4 31 -53 73q-54 40 -105 40h-5q-102 -6 -188.5 -76t-138.5 -169t-82 -198.5t-34 -179.5z" />
<glyph unicode="r" horiz-adv-x="835" d="M172 683q-2 19 -1 34q0 28 5 47q14 86 78.5 158.5t122.5 72.5q35 0 60.5 -35.5t35.5 -78.5t23.5 -78t26 -35t32.5 34t44 76t75 80.5t119 47.5h13q82 0 81 -60q1 -16 -11 -38q-14 -26 -16 -40q-2 -8 -2 -37.5t-6 -43t-23 -17.5h-3q-22 0 -54 54q-29 51 -60 51q-5 0 -10 -1 q-51 -10 -87.5 -95t-49.5 -187l-67 -526q-8 -80 -70 -80q-41 0 -60.5 22.5t-15.5 57.5l15 112q4 37 27.5 193.5t27.5 259.5q2 18 2 37q0 14 -1 28q-3 34 -9 64.5t-24.5 49.5t-47.5 19q-43 -2 -65.5 -31.5t-26.5 -66.5t-17 -66.5t-36 -31.5q-21 -2 -25 50z" />
<glyph unicode="s" d="M104 88q-10 22 -10 42q0 30 22 54q25 28 53 28q14 0 28 -7q23 -10 41 -51t42.5 -76t65.5 -35h7q81 0 143 43q58 41 58 116q0 7 -1 15q-10 90 -94 176l-164 170q-68 74 -68 179v6q4 116 73 186q66 68 193 67h11q150 0 188 -53q28 -40 28 -69q0 -21 -15 -37 q-26 -32 -60 -32q-25 0 -53 17q-6 6 -23.5 37t-46 54.5t-74 23.5t-74 -31.5t-30.5 -79.5q-1 -7 -1 -15q0 -70 85 -154l139 -148q59 -60 86 -116q25 -52 26 -122q0 -5 -1 -10q-2 -131 -95.5 -206.5t-234.5 -77.5q-72 0 -146.5 30.5t-97.5 75.5z" />
<glyph unicode="t" horiz-adv-x="729" d="M198 912q-2 5 -2 10q0 12 16 24q22 16 69 42t75 48q45 37 76 84q32 46 46 66q9 12 19 13q6 0 13 -5q25 -12 6 -57l-33 -93q-8 -18 -8 -44.5t4 -30.5q8 -10 35 -6l154 14q5 0 10 1q61 0 61 -46q0 -49 -58 -49h-9l-148 12q-43 4 -55 -6q-16 -16 -25 -78l-71 -582 q0 -117 88 -125q11 -2 22 -1q58 0 105 44l49 43q2 2 10 10.5t12.5 10.5t12.5 7t14 -1q16 -12 10 -33.5t-22 -42.5l-58 -61q-115 -115 -235 -115h-8q-74 5 -110 95q-25 64 -25 131q0 28 4 57l88 592q4 31 -15 45q-12 8 -60.5 8.5t-56.5 18.5z" />
<glyph unicode="u" horiz-adv-x="1226" d="M178 668q-13 8 -13 32q0 25 14 66q27 82 95 156q61 66 126 66q7 0 14 -1q44 -6 64 -92q11 -49 12 -97q0 -37 -7 -75l-63 -389q-14 -94 -14 -146q0 -39 8 -53q10 -18 28 -16q98 10 267.5 268t193.5 361l45 184q0 6 4 15t21.5 20.5t44.5 11.5q23 0 39 -19.5t12 -39.5 l-45 -195q-75 -345 -75 -491q0 -107 40 -109h5q36 -1 68 27q34 30 53.5 65t39 63.5t33.5 26.5q22 -2 22 -25q0 -28 -32 -89q-40 -66 -134 -146q-75 -63 -138 -63q-17 0 -32 4q-51 14 -51 128q-1 115 17 228q11 72 12 100q0 16 -4 19q-12 6 -28.5 -16.5t-47.5 -75t-55 -84.5 q-87 -121 -197 -213q-95 -80 -159 -80q-10 0 -19 2q-74 17 -74 162q0 88 27 223l59 283l2 14q2 14 5.5 32.5t3.5 40t-2.5 39t-11.5 28.5t-23 11q-35 -2 -59.5 -31.5t-35.5 -63.5t-24.5 -55.5t-30.5 -10.5z" />
<glyph unicode="v" horiz-adv-x="989" d="M160 598q4 143 99 273q82 113 166 112q13 0 26 -2q61 -12 67 -126q1 -22 1 -47q1 -100 -19 -228q-24 -160 -25 -181q0 -111 23.5 -192.5t74.5 -83.5q3 0 7 -1q106 0 216 176q114 181 134 429q1 9 1 18q-1 51 -21 85q-24 40 -23 75q-2 31 13 56.5t40 27.5h8q19 0 32 -8 q15 -10 22.5 -24.5t9.5 -38.5q1 -16 1 -31v-13q-1 -20 -3 -50t-2 -44q-10 -156 -60.5 -295t-117 -229t-138.5 -156q-70 -66 -124 -92q-46 -23 -68 -23q-3 0 -6 1q-70 14 -95.5 98t-27.5 168t-15 92q-6 4 -31.5 7t-53 13.5t-55.5 33t-44 73.5q-13 41 -13 98q0 14 1 29z M217 567q4 -55 19.5 -91t29.5 -49t38 -15q16 -1 24 -1h6q6 1 18 7h2q0 4 3 25.5t8.5 64.5t9.5 80q2 27 13 86q10 54 10 89v6q-1 36 -23 56q-5 4 -12 4q-19 1 -47 -29q-40 -42 -72 -110q-28 -61 -28 -111q1 -6 1 -12z" />
<glyph unicode="w" horiz-adv-x="1542" d="M152 592q2 92 50 194t118 160q48 40 88 39q19 0 36 -8q56 -27 56 -215q0 -140 -31 -369q-5 -41 -5 -77q0 -72 20 -127q28 -73 70 -73q5 0 11 1q66 10 141.5 107.5t135 238.5t78.5 274l28 195q2 23 22 37q18 12 40 12h6q23 -2 40 -14.5t15 -30.5l-33 -248 q-14 -100 -20 -278v-24q0 -88 26 -178q29 -99 71 -99h3q111 4 239 189t132 425q0 51 -4 72.5t-14.5 42t-16.5 51.5q-8 31 10.5 60.5t46.5 29.5q29 2 45.5 -9.5t21.5 -39t5 -45t-5 -58.5t-5 -51q-12 -160 -65.5 -300t-121 -227t-138.5 -149q-72 -64 -124 -90q-48 -25 -68 -24 h-3q-61 4 -96 66.5t-42.5 136t-12.5 137t-15 67.5h-1q-11 -1 -46 -57q-37 -60 -83 -136.5t-120 -142t-148 -67.5h-4q-55 0 -85 51q-32 53 -37 116.5t-11 123t-16 67.5q-6 4 -29.5 9t-49.5 15.5t-51.5 32t-40.5 69.5q-13 42 -13 102v16zM209 561q8 -77 42 -113q32 -34 61 -34 h3l31 4q3 12 21 166q7 63 7 109q0 100 -34 118q-3 1 -6 1q-16 0 -43 -30q-33 -36 -59 -100q-23 -55 -23 -106q-1 -8 0 -15z" />
<glyph unicode="x" horiz-adv-x="1077" d="M86 78q0 31 21.5 52.5t54.5 23.5q25 2 50.5 -11.5t41.5 -13.5q3 0 6 -1q22 0 56 28q38 30 59 69l123 215q4 6 12 15.5t12 18.5t4 19.5t-14 49.5l-100 245q-22 56 -69 56h-5q-43 -2 -63.5 -41t-29.5 -77t-22 -38q-31 1 -31 49q0 22 7 54q23 117 94 176q32 28 63 28h6 q45 -2 85 -37.5t63 -89.5l74 -176q10 -35 28 -35q4 0 9.5 3.5t8.5 8.5t7 11t6 8l55 105q55 104 125 153t121 49h5q29 -1 49 -23q22 -24 22 -57q0 -66 -49 -73q-25 -6 -58.5 8t-50.5 10q-57 -10 -88 -55l-121 -187q-23 -37 -22 -51q0 -16 12 -41l125 -307q41 -98 82 -121 q29 -18 70 -21t62.5 2t31.5 -3q7 -9 7 -18q0 -26 -65 -40q-2 0 -67 -12q-8 -2 -18 -2q-27 0 -73 12q-64 16 -87 29q-41 29 -78 148l-45 137q-14 65 -32 65h-1q-8 0 -14 -6t-10.5 -11t-10.5 -17.5t-8 -16.5l-102 -176q-43 -72 -121 -125q-66 -45 -109 -45q-8 0 -16 2 q-78 16 -78 78z" />
<glyph unicode="y" horiz-adv-x="991" d="M164 727q14 123 88 199q43 41 94 45h5q41 0 85 -33q47 -35 88 -94.5t81 -130t73 -142t59.5 -130t45 -94.5t26.5 -34q23 4 55 163q31 150 31 259v13q-2 39 -26.5 76.5t-26.5 70.5v10q0 68 53 74q6 1 12 1q39 0 63 -34t24 -82q0 -7 -1 -14q-16 -213 -71.5 -439.5 t-138.5 -420t-199 -314.5q-108 -112 -223 -112h-15q-47 0 -105.5 31.5t-56.5 82.5q4 61 58 72q6 2 14 2q28 0 67 -33q48 -41 80 -43q7 -1 14 -1q44 0 91 34q53 39 92 96.5t68.5 117t46 100t14.5 43.5l-33 114q-18 63 -77.5 207.5t-149.5 288.5q-85 137 -144 137h-6 q-43 -6 -65.5 -34.5t-25.5 -59.5t-10 -56.5t-21 -25.5h-2q-32 0 -32 62q0 13 1 28z" />
<glyph unicode="z" horiz-adv-x="899" d="M121 28.5q0 22.5 14 39.5l125 129q115 117 260 297q12 16 38 45.5t42 50t33.5 44t25 40t0.5 26.5q-4 6 -16 8.5t-41 8.5t-59 20q-33 16 -89 53q-57 38 -97 56q-28 13 -50 12q-10 0 -18 -2q-27 -8 -40 -40q-10 -24 -10 -50q0 -8 1 -16q4 -29 23.5 -50.5t26.5 -27.5t-1 -29 q-6 -11 -16 -11q-15 0 -40 25q-56 56 -56 140q0 11 1 22q4 63 50 113.5t100 54.5h7q71 -1 223 -75q146 -71 226 -71q8 0 15 1q16 0 23 16t12.5 42t13.5 40q22 39 54 39q8 0 16 -2q21 -8 21 -41q0 -30 -30 -72l-489 -577q-29 -37 -31 -58q-2 -16 16.5 -29.5t50 -29.5 t46.5 -29q49 -41 105.5 -128t96.5 -142q34 -47 62 -47q5 0 10 2q29 8 45.5 27.5t27.5 47t17 33.5q16 18 41 19.5t35 -12.5q19 -21 19 -42q-1 -29 -35 -59q-60 -52 -142 -71q-18 -5 -37 -5q-34 0 -70 16q-56 25 -106.5 74.5t-96.5 101.5t-95 96t-88 52q-25 8 -53 -28l-56 -76 q-14 -20 -45 -4q-16 10 -16 32.5z" />
<glyph unicode="{" horiz-adv-x="763" d="M178 635l31 12q76 25 119 64q45 45 59 104l8 25l94 514q18 106 97 168q86 76 223 75h94l-47 -16q-66 -23 -111 -70q-51 -55 -67 -147l-88 -467l-4 -37q-2 -23 -24.5 -72t-55.5 -79q-55 -47 -119 -66l-37 -12l37 -15q63 -29 88 -65q33 -47 25 -100l-86 -555 q-16 -109 28 -168q35 -43 88 -60l43 -12h-75q-152 0 -234 84q-18 18 -26.5 48t-6.5 75t4.5 72.5t11.5 81t9 59.5l59 370l4 29q8 57 -30 98q-20 25 -82 50z" />
<glyph unicode="|" horiz-adv-x="487" d="M276 -449v2042h93v-2042h-93z" />
<glyph unicode="}" horiz-adv-x="677" d="M-35 -344l47 12q57 16 107 60q66 59 82 168l86 555q10 51 59 100q31 35 107 65l43 15l-33 12q-61 18 -98 66q-25 31 -31 81t0 70l6 37l59 467q12 92 -22 147q-33 49 -88 70l-43 16h96q133 0 201 -75q53 -59 41 -168l-66 -514l-2 -25q-2 -59 27 -104q27 -37 98 -64l29 -12 l-33 -12q-70 -25 -100 -50q-51 -43 -60 -98l-6 -29l-57 -370l-4 -35q-6 -35 -7.5 -46t-8.5 -45t-11 -51.5t-13.5 -46t-18.5 -46t-23.5 -36t-28.5 -30.5q-104 -84 -258 -84h-76z" />
<glyph unicode="~" horiz-adv-x="675" d="M207 1116q53 135 211 152q43 4 105.5 -55.5t103.5 -47.5q45 14 67 56l56 -21q-43 -143 -203 -164q-45 -6 -107.5 54.5t-107.5 52.5q-31 -4 -70 -47z" />
<glyph unicode="&#xa1;" horiz-adv-x="409" d="M102.5 -530.5q-2.5 16.5 4 47t6.5 41.5l137 905q0 6 1 19.5t2 21.5t4 17t9 13.5t17 6.5q14 2 20 -15t6 -37l-33 -884q-4 -98 -12 -131q-8 -41 -67.5 -49.5t-79.5 16.5q-12 12 -14.5 28.5zM186 864q0 14 12.5 23.5t31 17.5t26.5 17q10 10 20.5 32.5t19.5 36t19 13.5 q14 0 26.5 -9.5t27 -29t22.5 -27.5q6 -6 26.5 -22.5t30 -29t5.5 -24.5t-15.5 -22.5t-30 -22.5t-28.5 -20q-10 -10 -27.5 -31t-30 -33t-22.5 -12q-12 0 -20.5 12t-16.5 32.5t-14 31.5q-8 10 -25.5 20t-27 20.5t-9.5 26.5z" />
<glyph unicode="&#xa2;" horiz-adv-x="882" d="M195 983q0 109 38.5 213t94 176t102.5 117t76 59q80 39 127 49l14 152q2 37 37 33q33 0 29 -33l-13 -147q10 2 34 3t69 -7.5t80 -22.5q47 -20 78.5 -75.5t-5.5 -100.5q-70 -63 -127 28q-18 31 -37.5 53.5t-36 34t-29.5 17.5t-22.5 9t-9.5 5l-84 -837q35 0 140 39 q41 16 76.5 43.5t52 40t28.5 -0.5q18 -16 -33 -70t-104 -83q-45 -23 -98.5 -38t-69.5 -15l-27 -297q0 -14 -10 -26.5t-24.5 -12.5t-26.5 11t-10 26l28 290q-76 0 -94 5q-197 33 -235 253q-8 51 -8 109zM338 1053q-4 -63 4 -114.5t26.5 -84.5t40 -57.5t45 -38t43 -20.5 t33.5 -9l15 -4l82 807q-170 -35 -244 -244q-37 -100 -45 -235z" />
<glyph unicode="&#xa3;" horiz-adv-x="1200" d="M100 4q-23 43 3 72.5t74 59.5t60.5 52.5t25.5 86t19.5 110.5t6.5 53l18 88q10 66 2 74q-12 8 -43 8h-57q-35 0 -35 27q-2 18 10.5 29.5t30.5 11.5h107q0 12 5 81.5t21.5 191.5t38.5 208q49 195 156.5 323t261.5 132q113 0 170 -60q16 -16 22.5 -47.5t-14.5 -58.5 q-16 -18 -45 -23.5t-53 11.5q-23 14 -40.5 48t-35.5 55.5t-49 18.5q-76 -4 -136.5 -97t-93 -222t-53 -258t-28 -218t-5.5 -89l224 6q45 4 51 -27q4 -14 -5 -28.5t-24 -14.5l-254 6q-10 -106 -43 -213q-14 -45 -40.5 -100t-43 -89t-10.5 -44q6 -8 43 7t100.5 36.5t116.5 21.5 q72 0 155 -35.5t151.5 -69.5t107.5 -34q59 2 97 45t3 101q-2 6 -26.5 12t-46 21.5t-21.5 43.5q0 31 23.5 53.5t54.5 22.5q43 2 72.5 -46t31.5 -105q2 -84 -57.5 -156t-134.5 -78q-92 -8 -214 52.5t-249 66.5q-88 4 -219 -29q0 -4 -8.5 -19.5t-32 -43t-56.5 -45.5 q-68 -31 -90 14z" />
<glyph unicode="&#xa5;" horiz-adv-x="1478" d="M262 1577q0 20 32 23.5t96.5 -4t90.5 -7.5q43 0 110.5 7.5t96.5 5t31 -20.5q2 -20 -17.5 -31.5t-45 -15.5t-47 -17.5t-21.5 -38t136 -303t159 -317.5q16 -39 41 -10q27 29 167 233.5t183 282.5q47 86 29.5 125t-58.5 43t-78 13t-30 38q4 16 44 17.5t111.5 -4t104.5 -5.5 q18 0 51 2t58.5 4t51 2t40 -4t14.5 -12q0 -20 -16.5 -30.5t-41 -13.5t-56.5 -21.5t-54 -51.5q-377 -561 -492 -708q-20 -31 -26 -96l-6 -29l221 -2l-13 -105h-223l-16 -157h233l-18 -105h-221v-12q0 -76 4 -94q12 -63 45 -88t66.5 -21t60 0t28.5 -31q0 -14 -10 -20t-37.5 -7 t-57.5 1t-83 6t-98 4q-47 0 -117 -9t-100.5 -7t-30.5 22.5t16.5 28.5t38 10t47 23.5t37.5 64.5q18 49 19 113v16h-230l17 105h231l14 157h-231l14 105l230 2l2 14q0 70 -8 94q-10 33 -184.5 393.5t-203.5 383.5q-14 10 -40.5 19t-43 17.5t-16.5 22.5z" />
<glyph unicode="&#xa7;" horiz-adv-x="946" d="M78 -153.5q-33 73.5 31 176.5q23 33 73.5 38t89.5 -26t31 -86q-6 -43 -55 -84t-47 -49q6 -59 101 -70.5t192.5 45.5t109.5 164q2 25 -4 51.5t-12 44t-27.5 47t-30 38.5t-37 43t-32.5 38q-20 25 -79.5 84t-92.5 97t-70 99.5t-49 123.5q-39 190 117 325q53 45 134 50 t128 -21l-62 74q-43 53 -68.5 116.5t-26.5 138t36 136.5q94 160 313 170q150 8 231 -73t36 -194q-18 -43 -71.5 -63t-97.5 4.5t-40 91.5q4 49 46 83t38 50q-12 53 -94 59.5t-167 -44.5t-98 -144q-16 -106 127 -268q16 -18 79 -82.5t95.5 -102.5t70.5 -96.5t48 -105.5 q45 -203 -94 -336q-45 -41 -119 -60.5t-139 -2.5l55 -70q70 -90 84 -169t-31 -179q-41 -86 -135 -141.5t-215 -63.5q-80 -8 -159.5 31t-112.5 112.5zM315 870q-47 -80 12.5 -204.5t164 -212.5t174.5 -84q47 4 87 33.5t54 70.5q31 76 -29.5 203t-168 214t-191.5 58 q-74 -27 -103 -78z" />
<glyph unicode="&#xa8;" horiz-adv-x="634" d="M225 1143q4 45 36 77.5t75 32.5q39 0 64.5 -34.5t21.5 -75.5q-2 -41 -34 -70t-73 -29q-39 0 -66.5 31t-23.5 68zM516 1143q4 45 36 77.5t75 32.5q39 0 63.5 -34.5t20.5 -75.5q-2 -41 -33 -70t-72 -29q-39 0 -66.5 31t-23.5 68z" />
<glyph unicode="&#xa9;" horiz-adv-x="1626" d="M182 838q43 299 256 497q225 211 559 211q373 0 551 -260q150 -217 107 -514q-43 -299 -256 -498q-225 -211 -557 -211q-373 0 -553 261q-150 217 -107 514zM254 733q-2 -274 172 -438q160 -152 424 -152q350 0 561 254q172 207 174 477q2 274 -172 439 q-160 151 -424 151q-350 0 -561 -254q-172 -207 -174 -477zM483 745q0 203 118 324t271 150q125 18 228 -7q115 -25 149 -36l17 -5l-43 -174h-33l4 72l2 12q2 25 -43 50.5t-88 33.5q-113 16 -164 4q-152 -31 -222.5 -144.5t-68.5 -266.5q2 -135 88 -225.5t217 -96.5 q133 -4 248 58l31 12l6 -10l-24 -52l-29 -12q-113 -57 -246 -55q-193 4 -304.5 102.5t-113.5 265.5z" />
<glyph unicode="&#xaa;" horiz-adv-x="729" d="M154 797l10 82h569l-10 -82h-569zM178 1124q10 174 115.5 315.5t245.5 139.5q16 0 46.5 -11.5t45 -9t37 42t34.5 35.5q4 -2 5.5 -10t-2 -21.5t-6.5 -25.5t-8 -29.5t-7 -27.5q-16 -70 -28.5 -137.5t-21.5 -141.5t-1 -123t33 -53q29 -6 51 45l22 41q21 33 33 25 q18 -10 -7.5 -61.5t-70.5 -96.5t-76 -37q-33 10 -43 46t-12 67.5t-14 31.5q-6 -2 -26.5 -26.5t-46 -53t-75 -52t-104.5 -23.5q-59 0 -90 46t-29 105zM262 1174q-4 -55 19.5 -94.5t68.5 -39.5q59 0 111.5 44t74 82t21.5 44q2 84 18 154l33 143q-43 29 -73 35 q-98 16 -179.5 -105.5t-93.5 -262.5z" />
<glyph unicode="&#xab;" horiz-adv-x="1112" d="M129 479l21 213l466 318l-22 -209l-330 -219l279 -213l-23 -222zM672 479l20 213l467 318l-22 -209l-332 -219l278 -213l-22 -222z" />
<glyph unicode="&#xac;" horiz-adv-x="1632" d="M143 518l13 115h1484l-67 -633h-121l53 518h-1362z" />
<glyph unicode="&#xad;" horiz-adv-x="569" d="M143 525.5q-2 52.5 19 76.5q16 25 65 35l277 55q51 18 63 19q16 -2 19 -56.5t-13 -74.5q-12 -16 -59 -29l-246 -53q-14 -2 -51 -16.5t-49 -12.5q-23 4 -25 56.5z" />
<glyph unicode="&#xae;" horiz-adv-x="1632" d="M186 838q43 299 256 497q225 211 559 211q371 0 551 -260q150 -217 107 -514q-45 -299 -258 -498q-225 -211 -557 -211q-373 0 -551 261q-150 217 -107 514zM256 733q-2 -274 174 -440q160 -150 424 -150q350 0 559 254q172 207 174 477q2 274 -172 441 q-160 149 -424 149q-350 0 -561 -254q-172 -207 -174 -477zM537 399l4 35l34 2q41 0 60 17q18 20 20 45l66 610q2 33 -12 51q-12 18 -76 19h-15l5 34h20q2 0 27.5 -2t60.5 -3t60 -1q37 0 88 1t88 2t41 1l18 2q70 4 133.5 -24.5t79.5 -89.5q18 -70 -15.5 -135.5 t-107.5 -110.5q-35 -20 -112 -43l-11 -4l226 -342q18 -18 28 -25q12 -6 29 -6h6l-2 -35h-10q-53 4 -68 4q-16 0 -65 -4l-15 -2l-282 420l8 19l41 -3q84 -4 159.5 49.5t77.5 131.5q0 133 -116 149q-72 12 -154 -6l-20 -6l-68 -651q0 -31 10 -45q14 -16 64 -17l26 -4l-4 -33 h-16q-4 0 -57.5 4.5t-86 4.5t-87 -4.5t-60.5 -4.5h-20z" />
<glyph unicode="&#xb0;" horiz-adv-x="616" d="M244 1375q0 87 62.5 160t172.5 73q88 0 148.5 -48.5t75 -116t0 -136t-75 -116.5t-148.5 -48q-111 0 -173 72.5t-62 159.5zM352 1445q-33 -71 6 -139.5t127 -68.5q88 2 121 72.5t-6 140.5t-127 68t-121 -73z" />
<glyph unicode="&#xb1;" horiz-adv-x="882" d="M72 -4l4 72h751l-6 -72h-749zM141 551l13 94h325l35 330h88l-35 -332h328l-8 -92h-332l-35 -328h-84l33 328h-328z" />
<glyph unicode="&#xb4;" horiz-adv-x="538" d="M213 1036l291 228l114 -109l-376 -158z" />
<glyph unicode="&#xb6;" horiz-adv-x="1280" d="M213 958q-14 127 27 266.5t116 231.5q125 145 430 146h625l-6 -80h-143l-258 -1710h120l-12 -91h-799l13 91h204l127 835q-66 -2 -117 2t-111 21.5t-102 50.5t-74 93t-40 144zM467 997q-8 -96 8.5 -160.5t47 -88t61 -31.5t57.5 -6l27 2l120 813q-2 0 -26.5 1t-48 -4 t-54 -18.5t-61.5 -47.5t-53 -87q-59 -137 -78 -373zM655 -193h228l254 1715h-228z" />
<glyph unicode="&#xb7;" horiz-adv-x="403" d="M178 821.5q2 16.5 35 30.5t43 25q12 12 23.5 32.5t19.5 28.5t18 8q14 0 24.5 -13t21 -32.5t18.5 -28.5q10 -10 26.5 -19t23.5 -17.5t7 -24.5q0 -14 -9 -21.5t-27.5 -16.5t-32.5 -23q-6 -6 -21.5 -28t-26 -31t-16.5 -9q-10 0 -20.5 7t-14.5 12.5t-13 20.5t-11 17 q-10 16 -40 41t-28 41.5z" />
<glyph unicode="&#xba;" horiz-adv-x="616" d="M166 799l8 82h496l-11 -82h-493zM205 1243q6 152 83 259.5t208 109.5q72 0 142.5 -60.5t66.5 -187.5q-10 -172 -88 -273.5t-214 -103.5q-78 -2 -141 63.5t-57 192.5zM305 1323q-33 -285 109 -295q90 -6 140 101.5t58 234.5q4 96 -31.5 150.5t-84.5 56.5 q-74 2 -127.5 -69.5t-63.5 -178.5z" />
<glyph unicode="&#xbb;" horiz-adv-x="1112" d="M102 147l23 222l321 213l-282 219l22 209l400 -318l-25 -213zM645 147l23 222l321 213l-282 219l22 209l399 -318l-24 -213z" />
<glyph unicode="&#xbf;" horiz-adv-x="638" d="M45 -287q10 88 60.5 176t106.5 150.5t112.5 143.5t76.5 151q14 57 12.5 102t-7 53.5t9.5 26.5q25 12 47 -19.5t21 -110.5t-44 -177q-31 -72 -98.5 -174.5t-106 -181t-32.5 -150.5q8 -78 62 -121t136 -43q29 0 49.5 11.5t27.5 23.5t19.5 19t24.5 -3q37 -23 -35 -79 q-92 -70 -174 -68q-100 6 -191 87t-77 183zM342 856q2 14 11 21.5t26.5 17.5t32.5 25q8 8 19 26.5t21.5 30.5t24.5 12q8 0 15.5 -2t15.5 -9t12 -11t13.5 -15.5t11.5 -15.5q12 -14 31.5 -29.5t27.5 -26t6 -24.5q-2 -12 -11 -23.5t-17.5 -17.5t-25.5 -17.5t-21 -15.5 q-14 -10 -31 -30.5t-28 -31.5t-23 -11q-14 0 -21.5 13t-13.5 32.5t-15 27.5q-10 12 -27.5 24.5t-26.5 23t-7 26.5z" />
<glyph unicode="&#xc0;" horiz-adv-x="1736" d="M0 14q0 23 9 30t43 16.5t61 21.5q29 12 69.5 84t44.5 88l670 1356q27 51 53 47q18 -6 29.5 -43t11.5 -51l430 -1344q10 -39 16.5 -56.5t23 -41t38.5 -39.5q27 -16 54.5 -19.5t40 -7.5t12.5 -24q2 -20 -12.5 -29.5t-41 -8.5t-55.5 5t-63.5 9t-57 5t-60.5 -6t-67.5 -10 t-57.5 -6t-43 4t-13 22q2 25 52 35t64 29q41 53 21 129l-111 389h-682l-170 -369q-16 -37 -23 -81t1 -62q12 -23 39.5 -33t54.5 -9t45 -6t14 -24q-4 -23 -37.5 -23.5t-95 9.5t-92.5 10q-27 0 -87 -12t-94 -11t-34 27zM535 702h587l-233 697zM825 1825l146 127l241 -170 l-38 -41z" />
<glyph unicode="&#xc1;" horiz-adv-x="1615" d="M82 14q0 23 9 30t43 16.5t63 21.5q27 12 65.5 77.5t48.5 94.5l668 1356q27 51 55 47q18 -6 28.5 -43t10.5 -51l430 -1344q0 -2 7.5 -22.5t8.5 -24.5t7 -19.5t10 -21.5t11 -17.5t15.5 -18.5t18.5 -13q27 -16 54.5 -19.5t40 -7.5t12.5 -24q2 -20 -12.5 -29.5t-41 -8.5 t-54.5 5t-62.5 9t-57 5t-60.5 -6t-67.5 -10t-57.5 -6t-43 4t-13 22q2 25 52 35t64 29q41 53 19 129l-109 389h-684l-170 -369q-16 -37 -23.5 -81t1.5 -62q12 -23 40.5 -33t54 -9t44 -6t16.5 -24q-4 -23 -38.5 -23.5t-96 9.5t-92.5 10q-27 0 -87 -12t-94 -11t-34 27zM616 702 h588l-233 697zM891 1784l291 228l114 -109l-376 -158z" />
<glyph unicode="&#xc2;" horiz-adv-x="1650" d="M82 14q0 23 9 30t43 16.5t63 21.5q27 12 65.5 77.5t48.5 94.5l668 1356q27 51 55 47q18 -6 28.5 -43t10.5 -51l430 -1344q0 -2 7.5 -22.5t8.5 -24.5t7 -19.5t10 -21.5t11 -17.5t15.5 -18.5t18.5 -13q27 -16 54.5 -19.5t40 -7.5t12.5 -24q2 -20 -12.5 -29.5t-41 -8.5 t-54.5 5t-62.5 9t-57 5t-60.5 -6t-67.5 -10t-57.5 -6t-43 4t-13 22q2 25 52 35t64 29q41 53 19 129l-109 389h-684l-170 -369q-16 -37 -23.5 -81t1.5 -62q12 -23 40.5 -33t54 -9t44 -6t16.5 -24q-4 -23 -38.5 -23.5t-96 9.5t-92.5 10q-27 0 -87 -12t-94 -11t-34 27zM616 702 h588l-233 697zM807 1751l289 236l239 -244l-254 80z" />
<glyph unicode="&#xc3;" horiz-adv-x="1751" d="M29 14q0 23 9 30t43 16.5t60 21.5q29 12 70 84t45 88l670 1356q27 51 53 47q18 -6 29.5 -43t11.5 -51l430 -1344q10 -39 16.5 -56.5t22.5 -41t39 -39.5q27 -16 54.5 -19.5t39.5 -7.5t12 -24q2 -20 -12 -29.5t-41 -8.5t-55.5 5t-63.5 9t-57 5q-29 0 -99.5 -12t-107.5 -11 t-35 27q2 25 52.5 35t64.5 29q41 53 20 129l-110 389h-682l-170 -369q-16 -37 -23.5 -81t0.5 -62q12 -23 40 -33t54.5 -9t45 -6t14.5 -24q-4 -23 -38 -23.5t-95.5 9.5t-91.5 10q-27 0 -87.5 -12t-94 -11t-33.5 27zM563 702h588l-233 697zM741 1831q53 135 211 151 q43 4 105.5 -55t103.5 -45q41 10 68 53l55 -20q-43 -145 -203 -164q-45 -6 -107.5 54.5t-107.5 52.5q-33 -4 -67 -48z" />
<glyph unicode="&#xc4;" horiz-adv-x="1742" d="M82 14q0 23 9 30t43 16.5t63 21.5q27 12 65.5 77.5t48.5 94.5l668 1356q27 51 55 47q18 -6 28.5 -43t10.5 -51l430 -1344q0 -2 7.5 -22.5t8.5 -24.5t7 -19.5t10 -21.5t11 -17.5t15.5 -18.5t18.5 -13q27 -16 54.5 -19.5t40 -7.5t12.5 -24q2 -20 -12.5 -29.5t-41 -8.5 t-54.5 5t-62.5 9t-57 5t-60.5 -6t-67.5 -10t-57.5 -6t-43 4t-13 22q2 25 52 35t64 29q41 53 19 129l-109 389h-684l-170 -369q-16 -37 -23.5 -81t1.5 -62q12 -23 40.5 -33t54 -9t44 -6t16.5 -24q-4 -23 -38.5 -23.5t-96 9.5t-92.5 10q-27 0 -87 -12t-94 -11t-34 27zM616 702 h588l-233 697zM788 1850q4 45 36 77.5t75 32.5q39 0 64.5 -34.5t21.5 -75.5q-2 -41 -34 -70t-73 -29q-39 0 -66.5 31t-23.5 68zM1079 1850q4 45 36 77.5t75 32.5q39 0 63.5 -34.5t20.5 -75.5q-2 -41 -33 -70t-72 -29q-39 0 -66.5 31t-23.5 68z" />
<glyph unicode="&#xc5;" horiz-adv-x="1736" d="M80 8q0 23 9 31t44 16t61.5 20.5t65.5 78t49 94.5l670 1356q0 8 18.5 28.5t34.5 18.5q18 -6 28.5 -43t10.5 -52l430 -1343q2 -6 6 -18.5t6.5 -18.5t5.5 -17.5t6 -16.5t8 -14t9 -15.5t10.5 -13.5t13.5 -12t15 -11q20 -12 42 -17.5t34 -5.5t20.5 -6t8.5 -22 q2 -20 -12.5 -29.5t-41 -7.5t-54.5 6t-62.5 8t-57 4t-60.5 -5t-68 -10t-57.5 -6t-43 5t-12.5 22q2 23 52 34t64 30q41 51 19 127l-109 389h-684l-170 -367q-16 -39 -23.5 -83t1.5 -62q12 -23 40.5 -32t54 -9t44 -7t16.5 -24q-4 -23 -38.5 -23.5t-96 9.5t-92.5 10 q-27 0 -87.5 -11t-94 -10t-33.5 25zM616 696h586l-233 697zM901 1903q0 55 40 96t97 41q55 0 97.5 -41t42.5 -96q0 -57 -41 -99.5t-98.5 -42.5t-97.5 41t-40 101zM952 1902.5q0 -32.5 26 -56t60 -23.5q33 0 58.5 23.5t25.5 56t-25.5 56t-58.5 23.5q-35 0 -60.5 -23.5 t-25.5 -56z" />
<glyph unicode="&#xc6;" horiz-adv-x="2572" d="M72 0q-2 6 2 14q10 23 22.5 30t48 16.5t68.5 21.5t99.5 78.5t86.5 93.5l1131 1208q6 6 9 22.5t-3 37.5q-8 14 -18.5 20t-29 7t-28.5 5q-16 6 -31.5 3t-29 1.5t-13.5 24.5q-2 18 13.5 27.5t45.5 11.5t58.5 1t67.5 -4t59 -3h594q270 0 332 12q10 2 15 -7t4 -27.5t-3 -38 t-4 -45.5t-2 -40q0 -18 2 -51t3 -57.5t1 -48t-5 -36.5t-15 -13q-23 0 -27 38.5t-20.5 95t-65.5 89.5q-61 39 -219 39h-389q-53 0 -72 -13q-23 -18 -26 -75l-64 -561h430q80 0 129 34q23 14 37 50t27.5 64t31.5 28q10 0 13.5 -14.5t-1.5 -42t-12.5 -55.5t-17.5 -65.5 t-14 -62.5q-10 -55 -5 -114.5t4 -106.5t-20 -47q-23 0 -26.5 29.5t-9 77.5t-29.5 79q-35 43 -109 43h-440l-60 -575q-8 -76 17 -95q45 -33 94 -32h158q276 0 454 78q68 29 112 71.5t62.5 68t32.5 23.5q39 -8 -16 -116q-61 -121 -141 -179q-51 -37 -152.5 -39t-252 10.5 t-241.5 8.5l-202 -10q-20 0 -63.5 -2t-73 -2t-62.5 2t-50.5 9t-17.5 21q2 16 61.5 31.5t78.5 40.5q33 49 39 117l45 393h-678l-332 -369q-88 -102 -82 -143q2 -18 18.5 -28.5t37 -11.5t40 -4t27.5 -7t0 -21q-12 -23 -47 -23.5t-92.5 9.5t-86 10t-100.5 -12q-109 -20 -112 2z M893 702h590l71 697z" />
<glyph unicode="&#xc7;" horiz-adv-x="1591" d="M178 797q18 369 245.5 606t575.5 235q150 -2 276 -45t194.5 -86t76.5 -43q12 -2 26.5 18.5t26.5 18.5q16 -2 19.5 -31.5t-0.5 -83t-2 -76t9 -58t12 -63.5t8.5 -55.5t-2 -42t-17.5 -12.5q-18 2 -24.5 8.5t-14.5 26.5l-22 57q-31 80 -37 93q-125 246 -438 286q-49 6 -103 9 q-272 6 -439 -188.5t-194 -532.5q-16 -195 46.5 -375t205 -302t334.5 -126q111 -4 207 24.5t155.5 69.5t105.5 87t63.5 72.5t19.5 35.5l39 90q0 2 5 12t7 13t7 9.5t10.5 8.5t11.5 0q31 -4 14 -62l-63 -248q-33 -25 -60.5 -43t-58.5 -31.5t-50.5 -20.5t-60.5 -20.5t-63 -21.5 q-27 -10 -53.5 -17t-45 -10t-51 -8.5t-53.5 -9.5l-29 -6l-86 -133q92 27 173 -23.5t63 -156.5q-23 -152 -275 -160q-125 -6 -182 33l-22 16l41 57l16 -10q20 -12 65.5 -18t93.5 -1t80.5 35.5t26.5 84.5q-6 49 -75.5 67.5t-116.5 -10.5l-15 24l127 193l-59 4 q-303 12 -498.5 246.5t-175.5 589.5z" />
<glyph unicode="&#xc8;" horiz-adv-x="1339" d="M145 2q2 18 52.5 37.5t68.5 44.5q35 47 39 117l129 1188q8 39 2 68.5t-10 37.5t-18 27q-14 16 -41 22t-50.5 5t-41 6.5t-17.5 25.5q0 16 15.5 25.5t45 11.5t57 1t66.5 -4t60 -3h596q279 0 332 10q10 2 13 -7t3 -27.5t-3 -38t-5 -44.5t-2 -39q0 -23 5 -84t3 -93t-19 -32 q-23 0 -26.5 39t-21 95.5t-66.5 89.5q-23 16 -89.5 28.5t-127.5 12.5h-392q-51 0 -71.5 -14.5t-24.5 -75.5l-67 -562h434q78 0 127 37q27 18 50.5 77.5t43.5 62.5q12 0 15 -14.5t-2 -42t-12 -55.5t-17.5 -66t-14.5 -62q-8 -55 -3 -113.5t3 -106.5t-20 -48q-23 0 -27 29.5 t-10 78.5t-29 78q-33 45 -108 45h-441l-59 -575q-4 -80 18 -97q41 -33 95 -32h155q270 0 455 77q68 29 113 73t63 69.5t33 21.5q39 -6 -19 -119q-61 -119 -139 -174q-53 -37 -148.5 -45t-265.5 3.5t-237 11.5h-197q-23 0 -62.5 -3.5t-69.5 -4.5t-58.5 -1t-45 6.5t-14.5 20.5 zM813 1845l145 127l242 -170l-37 -41z" />
<glyph unicode="&#xc9;" horiz-adv-x="1431" d="M143 2q2 18 52.5 37.5t68.5 44.5q35 47 39 117l129 1188q8 39 2 68.5t-10 37.5t-18 27q-14 16 -41 22t-50.5 5t-41 6.5t-17.5 25.5q0 16 15.5 25.5t45 11.5t57 1t66.5 -4t60 -3h596q279 0 331 10q10 2 13.5 -7t3.5 -27.5t-3 -38t-5 -44.5t-2 -39q0 -23 5 -84t3 -93 t-19 -32q-23 0 -26.5 39t-20 95.5t-65.5 89.5q-25 16 -91.5 28.5t-127.5 12.5h-392q-51 0 -71.5 -14.5t-24.5 -75.5l-67 -562h434q78 0 129 37q25 18 48 77.5t44 62.5q12 0 15 -14.5t-2 -42t-12 -55.5t-17.5 -66t-14.5 -62q-8 -55 -3 -113.5t3 -106.5t-20 -48 q-23 0 -27 29.5t-10 78.5t-29 78q-33 45 -108 45h-441l-59 -575q-4 -80 18 -97q41 -33 95 -32h157q268 0 453 77q68 29 113 73t63 69.5t33 21.5q39 -6 -19 -119q-61 -119 -139 -174q-53 -37 -148.5 -45t-265.5 3.5t-237 11.5h-197q-23 0 -62.5 -3.5t-69.5 -4.5t-58.5 -1 t-45 6.5t-14.5 20.5zM788 1786l291 227l115 -108l-377 -158z" />
<glyph unicode="&#xca;" horiz-adv-x="1353" d="M145 2q2 18 52.5 37.5t68.5 44.5q35 47 39 117l129 1188q8 39 2 68.5t-10 37.5t-18 27q-14 16 -41 22t-50.5 5t-41 6.5t-17.5 25.5q0 16 15.5 25.5t45 11.5t57 1t66.5 -4t60 -3h596q279 0 332 10q10 2 13 -7t3 -27.5t-3 -38t-5 -44.5t-2 -39q0 -23 5 -84t3 -93t-19 -32 q-23 0 -26.5 39t-21 95.5t-66.5 89.5q-23 16 -89.5 28.5t-127.5 12.5h-392q-51 0 -71.5 -14.5t-24.5 -75.5l-67 -562h434q78 0 127 37q27 18 50.5 77.5t43.5 62.5q12 0 15 -14.5t-2 -42t-12 -55.5t-17.5 -66t-14.5 -62q-8 -55 -3 -113.5t3 -106.5t-20 -48q-23 0 -27 29.5 t-10 78.5t-29 78q-33 45 -108 45h-441l-59 -575q-4 -80 18 -97q41 -33 95 -32h155q270 0 455 77q68 29 113 73t63 69.5t33 21.5q39 -6 -19 -119q-61 -119 -139 -174q-53 -37 -148.5 -45t-265.5 3.5t-237 11.5h-197q-23 0 -62.5 -3.5t-69.5 -4.5t-58.5 -1t-45 6.5t-14.5 20.5 zM772 1751l289 236l239 -244l-254 80z" />
<glyph unicode="&#xcb;" horiz-adv-x="1339" d="M145 2q2 18 52.5 37.5t68.5 44.5q35 47 39 117l129 1188q8 39 2 68.5t-10 37.5t-18 27q-14 16 -41 22t-50.5 5t-41 6.5t-17.5 25.5q0 16 15.5 25.5t45 11.5t57 1t66.5 -4t60 -3h596q279 0 332 10q10 2 13 -7t3 -27.5t-3 -38t-5 -44.5t-2 -39q0 -23 5 -84t3 -93t-19 -32 q-23 0 -26.5 39t-21 95.5t-66.5 89.5q-23 16 -89.5 28.5t-127.5 12.5h-392q-51 0 -71.5 -14.5t-24.5 -75.5l-67 -562h434q78 0 127 37q27 18 50.5 77.5t43.5 62.5q12 0 15 -14.5t-2 -42t-12 -55.5t-17.5 -66t-14.5 -62q-8 -55 -3 -113.5t3 -106.5t-20 -48q-23 0 -27 29.5 t-10 78.5t-29 78q-33 45 -108 45h-441l-59 -575q-4 -80 18 -97q41 -33 95 -32h155q270 0 455 77q68 29 113 73t63 69.5t33 21.5q39 -6 -19 -119q-61 -119 -139 -174q-53 -37 -148.5 -45t-265.5 3.5t-237 11.5h-197q-23 0 -62.5 -3.5t-69.5 -4.5t-58.5 -1t-45 6.5t-14.5 20.5 zM778 1845q4 45 36 77.5t75 32.5q39 0 64.5 -34.5t21.5 -75.5q-2 -41 -34 -70t-73 -29q-39 0 -66.5 31t-23.5 68zM1069 1845q4 45 36 77.5t75 32.5q39 0 63.5 -34.5t20.5 -75.5q-2 -41 -33 -70t-72 -29q-39 0 -66.5 31t-23.5 68z" />
<glyph unicode="&#xcc;" d="M168 4q0 31 51 44t64 30q10 14 17 28.5t11 32t6 27.5t4.5 34.5t4.5 32.5l120 1127q8 74 -3 113.5t-56 62.5q-14 8 -39.5 12t-45 6t-34 10.5t-12.5 22.5q2 29 25.5 31t99.5 -9.5t145 -11.5q41 0 81 5.5t62.5 9.5t42 7t29 -1t13.5 -14q8 -23 -8.5 -32t-45 -14.5 t-41.5 -15.5q-37 -31 -49 -123l-135 -1181q0 -125 33 -154q27 -23 57.5 -34t49 -12t31.5 -8t13 -26q0 -20 -34.5 -21t-109.5 7t-122 8q-45 0 -110.5 -9t-90 -7t-24.5 22zM387 1833l145 127l242 -170l-37 -41z" />
<glyph unicode="&#xcd;" d="M168 4q0 31 51 44t64 30q10 14 17 28.5t11 32t6 27.5t4.5 34.5t4.5 32.5l120 1127q8 74 -3 113.5t-56 62.5q-14 8 -39.5 12t-45 6t-34 10.5t-12.5 22.5q2 29 25.5 31t99.5 -9.5t145 -11.5q41 0 81 5.5t62.5 9.5t42 7t29 -1t13.5 -14q8 -23 -8.5 -32t-45 -14.5 t-41.5 -15.5q-37 -31 -49 -123l-135 -1181q0 -125 33 -154q27 -23 57.5 -34t49 -12t31.5 -8t13 -26q0 -20 -34.5 -21t-109.5 7t-122 8q-45 0 -110.5 -9t-90 -7t-24.5 22zM410 1784l291 228l114 -109l-376 -158z" />
<glyph unicode="&#xce;" d="M168 4q0 31 51 44t64 30q10 14 17 28.5t11 32t6 27.5t4.5 34.5t4.5 32.5l120 1127q8 74 -3 113.5t-56 62.5q-14 8 -39.5 12t-45 6t-34 10.5t-12.5 22.5q2 29 25.5 31t99.5 -9.5t145 -11.5q41 0 81 5.5t62.5 9.5t42 7t29 -1t13.5 -14q8 -23 -8.5 -32t-45 -14.5 t-41.5 -15.5q-37 -31 -49 -123l-135 -1181q0 -125 33 -154q27 -23 57.5 -34t49 -12t31.5 -8t13 -26q0 -20 -34.5 -21t-109.5 7t-122 8q-45 0 -110.5 -9t-90 -7t-24.5 22zM313 1751l289 236l239 -244l-254 80z" />
<glyph unicode="&#xcf;" d="M168 4q0 31 51 44t64 30q10 14 17 28.5t11 32t6 27.5t4.5 34.5t4.5 32.5l120 1127q8 74 -3 113.5t-56 62.5q-14 8 -39.5 12t-45 6t-34 10.5t-12.5 22.5q2 29 25.5 31t99.5 -9.5t145 -11.5q41 0 81 5.5t62.5 9.5t42 7t29 -1t13.5 -14q8 -23 -8.5 -32t-45 -14.5 t-41.5 -15.5q-37 -31 -49 -123l-135 -1181q0 -125 33 -154q27 -23 57.5 -34t49 -12t31.5 -8t13 -26q0 -20 -34.5 -21t-109.5 7t-122 8q-45 0 -110.5 -9t-90 -7t-24.5 22zM340 1845q4 45 36 77.5t75 32.5q39 0 64.5 -34.5t21.5 -75.5q-2 -41 -34 -70t-73 -29q-39 0 -66.5 31 t-23.5 68zM631 1845q4 45 36 77.5t75 32.5q39 0 63.5 -34.5t20.5 -75.5q-2 -41 -33 -70t-72 -29q-39 0 -66.5 31t-23.5 68z" />
<glyph unicode="&#xd1;" horiz-adv-x="1835" d="M225 -6q0 27 12.5 35t44 15t54.5 22q61 35 82 167l139 984v2q27 129 -59 241q-35 45 -78 62.5t-75 12.5t-56.5 -2t-28.5 23q-2 23 11.5 35.5t39 14.5t50 2t56.5 -3t44 -3q16 0 33.5 1t38 3t32.5 2q33 0 78 -68l844 -1249q23 -35 41 -35q4 0 8 2t7 7t4 10.5t2 13.5t1 13 t1 14.5t1 13.5l134 1005q12 49 0.5 90t-19.5 53.5t-31 39.5q-16 16 -54 25t-64.5 15.5t-26.5 22.5q2 18 9 24.5t27.5 5.5t45 -6.5t71 -10.5t95.5 -3q41 0 78.5 5.5t58 9.5t37 6t25 -5.5t12.5 -25.5q2 -12 -11.5 -18.5t-31 -7.5t-40 -7t-34.5 -16q-47 -43 -64 -162 l-188 -1325q0 -78 -35 -78q-20 0 -33.5 13.5t-28 41t-20.5 37.5l-772 1147q-2 2 -6 9.5t-7 11.5t-7 9t-9.5 7t-11.5 0q-14 -4 -18 -51l-125 -959v-8q-2 -10 -2 -20v-25.5t1 -31t5 -30t10 -25.5t17 -17q31 -18 71.5 -28.5t59 -19t14.5 -30.5q-2 -12 -14.5 -16.5t-36 -1 t-49 7.5t-64.5 9t-71 5q-27 0 -53.5 -2t-48 -5t-41 -7t-34 -6t-25.5 -2t-16.5 3t-5.5 11zM895 1827q53 135 211 152q43 4 105.5 -55.5t103.5 -47.5q45 14 67 56l56 -21q-43 -143 -203 -164q-45 -6 -107.5 54.5t-107.5 52.5q-31 -4 -70 -47z" />
<glyph unicode="&#xd2;" horiz-adv-x="1722" d="M174 799q20 236 131 429t304.5 307t428.5 103q348 -16 565.5 -241t213.5 -553q-2 -244 -111 -447.5t-310.5 -324.5t-455.5 -117q-377 8 -588 243.5t-178 600.5zM348 864q-31 -217 30.5 -404.5t212 -305t361.5 -123.5q147 -4 270.5 56t206 169t134 253t65.5 312 q27 303 -144 518t-470 224q-160 4 -283 -51.5t-198.5 -158t-119.5 -222t-65 -267.5zM928 1833l145 127l242 -170l-37 -41z" />
<glyph unicode="&#xd3;" horiz-adv-x="1724" d="M174 799q20 236 131 429t304.5 307t428.5 103q348 -16 565.5 -241t213.5 -553q-2 -244 -111 -447.5t-310.5 -324.5t-455.5 -117q-377 8 -588 243.5t-178 600.5zM348 864q-31 -217 30.5 -404.5t212 -305t361.5 -123.5q147 -4 270.5 56t206 169t134 253t65.5 312 q27 303 -144 518t-470 224q-160 4 -283 -51.5t-198.5 -158t-119.5 -222t-65 -267.5zM1008 1784l291 228l114 -109l-376 -158z" />
<glyph unicode="&#xd4;" horiz-adv-x="1724" d="M174 799q20 236 131 429t304.5 307t428.5 103q348 -16 565.5 -241t213.5 -553q-2 -244 -111 -447.5t-310.5 -324.5t-455.5 -117q-377 8 -588 243.5t-178 600.5zM348 864q-31 -217 30.5 -404.5t212 -305t361.5 -123.5q147 -4 270.5 56t206 169t134 253t65.5 312 q27 303 -144 518t-470 224q-160 4 -283 -51.5t-198.5 -158t-119.5 -222t-65 -267.5zM899 1763l289 236l239 -244l-254 80z" />
<glyph unicode="&#xd5;" horiz-adv-x="1771" d="M92 799q33 365 271.5 610.5t592.5 228.5q348 -16 564.5 -241t212.5 -553q-2 -244 -109.5 -447.5t-309.5 -324.5t-456 -117q-379 8 -590 243.5t-176 600.5zM266 864q-31 -217 30.5 -404.5t212 -305t361.5 -123.5q147 -4 270.5 56t206.5 169t134 253t65 312 q27 303 -144 518t-470 224q-160 4 -283 -51.5t-199.5 -158t-119.5 -222t-64 -267.5zM883 1829q55 139 211 151q43 4 105.5 -55t103.5 -45q37 10 67 53l55 -20q-43 -143 -204 -164q-45 -6 -106.5 54.5t-106.5 51.5q-35 -4 -70 -47z" />
<glyph unicode="&#xd6;" horiz-adv-x="1785" d="M166 799q20 236 131 429t304.5 307t430.5 103q346 -16 563 -241t213 -553q-2 -182 -65.5 -345t-176 -285t-277.5 -192.5t-357 -66.5q-377 8 -588 243.5t-178 600.5zM342 864q-31 -217 30.5 -403.5t211 -305t362.5 -124.5q289 -8 467 216t207 574q27 303 -144 518 t-468 224q-162 4 -285 -51.5t-198.5 -158t-119 -222t-63.5 -267.5zM829 1851q4 45 37 78t76 33q39 0 64.5 -35t21.5 -76q-2 -43 -33.5 -70.5t-74.5 -27.5q-39 0 -66 29.5t-25 68.5zM1122 1851q4 45 36 78t75 33q39 0 63.5 -35t20.5 -76q-2 -43 -32 -70.5t-73 -27.5 q-39 0 -66.5 29.5t-23.5 68.5z" />
<glyph unicode="&#xd8;" horiz-adv-x="1679" d="M184 801q33 365 271.5 610.5t593.5 228.5q238 -12 426 -129l120 177h105l-156 -228q135 -111 209 -269.5t72 -344.5q-2 -244 -109.5 -447.5t-310.5 -324.5t-457 -117q-211 2 -373 86l-73 -106h-103l99 147q-170 111 -252 297t-62 420zM358 866q-29 -205 26.5 -386 t182.5 -298l846 1241q-158 135 -389 142q-160 4 -283 -51.5t-199.5 -158t-119.5 -222t-64 -267.5zM635 131q139 -92 328 -98q291 -8 468.5 216t206.5 574q25 324 -161 539z" />
<glyph unicode="&#xd9;" horiz-adv-x="1855" d="M264 1591q4 18 9.5 25.5t20.5 7.5t33.5 -4t62.5 -8t91 -6q43 -2 85 3t67.5 11t48.5 9t35 0t18 -17q10 -27 -6 -37t-48 -14.5t-44 -14.5q-47 -43 -55 -100l-82 -821q0 -2 -2 -11q-41 -340 129 -489q113 -96 309 -90q555 14 631 555l100 727q12 96 -2 151.5t-66 77.5 q-10 4 -40.5 10.5t-43 15.5t-4.5 32q4 18 18.5 18t70 -6t118.5 -4q41 0 79 4t56.5 7t34 4t20.5 -4t7 -19.5t-14.5 -22.5t-50 -19.5t-56.5 -27.5q-31 -23 -41 -158l-96 -739q-4 -39 -9.5 -69.5t-28 -106.5t-52 -134.5t-88 -132t-132 -122.5t-187 -84t-251.5 -35 q-180 0 -303 46t-182 131t-78.5 184.5t-9.5 226.5l72 798q10 154 -31 185q-14 10 -47 20t-51.5 20.5t-14.5 26.5zM998 1833l145 127l242 -170l-37 -41z" />
<glyph unicode="&#xda;" horiz-adv-x="1855" d="M264 1591q4 18 9.5 25.5t20.5 7.5t33.5 -4t62.5 -8t91 -6q43 -2 85 3t67.5 11t48.5 9t35 0t18 -17q10 -27 -6 -37t-48 -14.5t-44 -14.5q-47 -43 -55 -100l-82 -821q0 -2 -2 -11q-41 -340 129 -489q113 -96 309 -90q555 14 631 555l100 727q12 96 -2 151.5t-66 77.5 q-10 4 -40.5 10.5t-43 15.5t-4.5 32q4 18 18.5 18t70 -6t118.5 -4q41 0 79 4t56.5 7t34 4t20.5 -4t7 -19.5t-14.5 -22.5t-50 -19.5t-56.5 -27.5q-31 -23 -41 -158l-96 -739q-4 -39 -9.5 -69.5t-28 -106.5t-52 -134.5t-88 -132t-132 -122.5t-187 -84t-251.5 -35 q-180 0 -303 46t-182 131t-78.5 184.5t-9.5 226.5l72 798q10 154 -31 185q-14 10 -47 20t-51.5 20.5t-14.5 26.5zM1040 1784l291 228l114 -109l-376 -158z" />
<glyph unicode="&#xdb;" horiz-adv-x="1855" d="M264 1591q4 18 9.5 25.5t20.5 7.5t33.5 -4t62.5 -8t91 -6q43 -2 85 3t67.5 11t48.5 9t35 0t18 -17q10 -27 -6 -37t-48 -14.5t-44 -14.5q-47 -43 -55 -100l-82 -821q0 -2 -2 -11q-41 -340 129 -489q113 -96 309 -90q555 14 631 555l100 727q12 96 -2 151.5t-66 77.5 q-10 4 -40.5 10.5t-43 15.5t-4.5 32q4 18 18.5 18t70 -6t118.5 -4q41 0 79 4t56.5 7t34 4t20.5 -4t7 -19.5t-14.5 -22.5t-50 -19.5t-56.5 -27.5q-31 -23 -41 -158l-96 -739q-4 -39 -9.5 -69.5t-28 -106.5t-52 -134.5t-88 -132t-132 -122.5t-187 -84t-251.5 -35 q-180 0 -303 46t-182 131t-78.5 184.5t-9.5 226.5l72 798q10 154 -31 185q-14 10 -47 20t-51.5 20.5t-14.5 26.5zM979 1751l289 236l239 -244l-254 80z" />
<glyph unicode="&#xdc;" horiz-adv-x="1785" d="M264 1585q4 18 9.5 25.5t20.5 7.5t33.5 -4t62.5 -8t91 -7q43 -2 85 3.5t67.5 11.5t48.5 9t35 0t18 -17q10 -27 -6 -37t-48 -14.5t-44 -14.5q-18 -16 -34.5 -47t-20.5 -53l-82 -822q0 -2 -2 -10q-41 -342 131 -489q113 -96 307 -90q555 16 631 557l100 725q12 96 -2 151.5 t-66 77.5q-10 4 -40.5 10t-43 16.5t-4.5 30.5q4 18 18.5 19.5t70 -5.5t118.5 -5q41 0 79 4t56.5 8t34 4t20.5 -5t7 -19.5t-14.5 -22.5t-50 -19.5t-56.5 -27.5q-33 -23 -41 -158l-96 -739q-4 -39 -9.5 -70t-28 -106.5t-52 -134t-88 -132t-132 -123t-187 -84t-251.5 -34.5 q-180 0 -303 46t-182 131t-78.5 184.5t-9.5 226.5l72 800q10 152 -31 185q-16 10 -48 20t-50.5 20.5t-14.5 24.5zM881 1849q4 45 35.5 78t74.5 33q39 0 64.5 -35t21.5 -76q-2 -43 -33.5 -70.5t-72.5 -27.5q-39 0 -66.5 29.5t-23.5 68.5zM1171 1849q4 45 36 78t75 33 q39 0 63.5 -34t22.5 -77t-32.5 -70.5t-73.5 -27.5q-39 0 -67 29.5t-24 68.5z" />
<glyph unicode="&#xdf;" horiz-adv-x="958" d="M-138 -311q17 82 44 82q23 -2 40 -56.5t38 -58.5q31 -8 53 15.5t33.5 70.5t16.5 84t9 78q12 195 46 485.5t59 407.5q8 45 25.5 146t28.5 162.5t35.5 149.5t55.5 143.5t81 106.5t116 74q88 37 192.5 27.5t163.5 -74.5q84 -94 92 -223t-56.5 -238.5t-176.5 -150.5l-80 -31 l55 -23q180 -61 215 -239q25 -123 -15 -286t-183 -282q-74 -61 -194 -71.5t-150 39.5q-16 20 -1 100t41 78q31 -2 53.5 -64.5t41.5 -68.5q94 -39 159.5 45t79.5 202q0 6 7.5 50.5t12.5 81t7 93t-4 99.5t-24.5 85t-51.5 67q-41 31 -104.5 42t-103.5 18t-40 26q0 16 46 24 t110.5 24.5t99.5 49.5q61 59 92 147t27 166t-20 146q-29 86 -123.5 104.5t-165.5 -51.5q-29 -29 -50.5 -65.5t-36 -68.5t-29.5 -99.5t-23.5 -114.5t-29 -163t-34.5 -198q-29 -154 -45 -275.5t-34.5 -297.5t-31.5 -272q-20 -188 -118 -283q-33 -33 -80 -59.5t-94.5 -35 t-73.5 24.5q-20 23 -3 105z" />
<glyph unicode="&#xe0;" horiz-adv-x="1120" d="M109 223q10 186 90 362.5t218 288t292 105.5q29 0 80 -16.5t71 -14.5q25 4 61.5 70.5t57.5 56.5q8 -2 10 -15t-3 -36t-9 -42t-13.5 -49t-13.5 -44q-27 -117 -47 -230.5t-34.5 -237.5t-2 -204t53.5 -88q39 -10 88 74l36 69q31 51 56 41q29 -16 -14.5 -102t-118 -160 t-125.5 -61q-43 12 -64.5 52t-22.5 82t-7.5 73.5t-22.5 29.5q-8 0 -43 -41t-78 -89t-124 -88t-173 -40q-100 0 -151.5 78t-46.5 176zM250 305q-6 -90 33 -155.5t112 -65.5q63 0 120.5 28.5t96.5 69.5t69 84t43 71t13 30q8 141 31 256q8 41 22.5 100t24.5 100l10 39 q-82 51 -123 58q-109 18 -212 -76t-166.5 -241.5t-73.5 -297.5zM639 1200l145 127l242 -170l-37 -41z" />
<glyph unicode="&#xe1;" horiz-adv-x="1128" d="M109 223q10 186 90 362.5t218 288t292 105.5q29 0 80 -16.5t71 -14.5q25 4 61.5 70.5t57.5 56.5q8 -2 10 -15t-3 -36t-9 -42t-13.5 -49t-13.5 -44q-27 -117 -47 -230.5t-34.5 -237.5t-2 -204t53.5 -88q39 -10 88 74l36 69q31 51 56 41q29 -16 -14.5 -102t-118 -160 t-125.5 -61q-43 12 -64.5 52t-22.5 82t-7.5 73.5t-22.5 29.5q-8 0 -43 -41t-78 -89t-124 -88t-173 -40q-100 0 -151.5 78t-46.5 176zM250 305q-6 -90 33 -155.5t112 -65.5q63 0 120.5 28.5t96.5 69.5t69 84t43 71t13 30q8 141 31 256q8 41 22.5 100t24.5 100l10 39 q-82 51 -123 58q-109 18 -212 -76t-166.5 -241.5t-73.5 -297.5zM662 1153l291 228l114 -109l-376 -158z" />
<glyph unicode="&#xe2;" horiz-adv-x="1132" d="M109 223q10 186 90 362.5t218 288t292 105.5q29 0 80 -16.5t71 -14.5q25 4 61.5 70.5t57.5 56.5q8 -2 10 -15t-3 -36t-9 -42t-13.5 -49t-13.5 -44q-27 -117 -47 -230.5t-34.5 -237.5t-2 -204t53.5 -88q39 -10 88 74l36 69q31 51 56 41q29 -16 -14.5 -102t-118 -160 t-125.5 -61q-43 12 -64.5 52t-22.5 82t-7.5 73.5t-22.5 29.5q-8 0 -43 -41t-78 -89t-124 -88t-173 -40q-100 0 -151.5 78t-46.5 176zM250 305q-6 -90 33 -155.5t112 -65.5q63 0 120.5 28.5t96.5 69.5t69 84t43 71t13 30q8 141 31 256q8 41 22.5 100t24.5 100l10 39 q-82 51 -123 58q-109 18 -212 -76t-166.5 -241.5t-73.5 -297.5zM510 1124l289 236l239 -244l-254 80z" />
<glyph unicode="&#xe3;" horiz-adv-x="1128" d="M109 223q10 186 90 362.5t218 288t292 105.5q29 0 80 -16.5t71 -14.5q25 4 61.5 70.5t57.5 56.5q8 -2 10 -15t-3 -36t-9 -42t-13.5 -49t-13.5 -44q-27 -117 -47 -230.5t-34.5 -237.5t-2 -204t53.5 -88q39 -10 88 74l36 69q31 51 56 41q29 -16 -14.5 -102t-118 -160 t-125.5 -61q-43 12 -64.5 52t-22.5 82t-7.5 73.5t-22.5 29.5q-8 0 -43 -41t-78 -89t-124 -88t-173 -40q-100 0 -151.5 78t-46.5 176zM250 305q-6 -90 33 -155.5t112 -65.5q63 0 120.5 28.5t96.5 69.5t69 84t43 71t13 30q8 141 31 256q8 41 22.5 100t24.5 100l10 39 q-82 51 -123 58q-109 18 -212 -76t-166.5 -241.5t-73.5 -297.5zM551 1198q53 135 211 152q43 4 105.5 -55.5t103.5 -47.5q45 14 67 56l56 -21q-43 -143 -203 -164q-45 -6 -107.5 54.5t-107.5 52.5q-31 -4 -70 -47z" />
<glyph unicode="&#xe4;" horiz-adv-x="1120" d="M109 223q10 186 90 362.5t218 288t292 105.5q29 0 80 -16.5t71 -14.5q25 4 61.5 70.5t57.5 56.5q8 -2 10 -15t-3 -36t-9 -42t-13.5 -49t-13.5 -44q-27 -117 -47 -230.5t-34.5 -237.5t-2 -204t53.5 -88q39 -10 88 74l36 69q31 51 56 41q29 -16 -14.5 -102t-118 -160 t-125.5 -61q-43 12 -64.5 52t-22.5 82t-7.5 73.5t-22.5 29.5q-8 0 -43 -41t-78 -89t-124 -88t-173 -40q-100 0 -151.5 78t-46.5 176zM250 305q-6 -90 33 -155.5t112 -65.5q63 0 120.5 28.5t96.5 69.5t69 84t43 71t13 30q8 141 31 256q8 41 22.5 100t24.5 100l10 39 q-82 51 -123 58q-109 18 -212 -76t-166.5 -241.5t-73.5 -297.5zM540 1209q4 45 36 77.5t75 32.5q39 0 64.5 -34.5t21.5 -75.5q-2 -41 -34 -70t-73 -29q-39 0 -66.5 31t-23.5 68zM831 1209q4 45 36 77.5t75 32.5q39 0 63.5 -34.5t20.5 -75.5q-2 -41 -33 -70t-72 -29 q-39 0 -66.5 31t-23.5 68z" />
<glyph unicode="&#xe5;" horiz-adv-x="1122" d="M109 223q10 186 90 362.5t218 288t292 105.5q29 0 80 -16.5t71 -14.5q25 4 61.5 70.5t57.5 56.5q8 -2 10 -15t-3 -36t-9 -42t-13.5 -49t-13.5 -44q-27 -117 -47 -230.5t-34.5 -237.5t-2 -204t53.5 -88q39 -10 88 74l36 69q31 51 56 41q29 -16 -14.5 -102t-118 -160 t-125.5 -61q-43 12 -64.5 52t-22.5 82t-7.5 73.5t-22.5 29.5q-8 0 -43 -41t-78 -89t-124 -88t-173 -40q-100 0 -151.5 78t-46.5 176zM250 305q-6 -90 33 -155.5t112 -65.5q63 0 120.5 28.5t96.5 69.5t69 84t43 71t13 30q8 141 31 256q8 41 22.5 100t24.5 100l10 39 q-82 51 -123 58q-109 18 -212 -76t-166.5 -241.5t-73.5 -297.5zM719 1268q0 55 40 96t97 41t98 -40t41 -97.5t-41 -98.5t-98 -41t-97 41t-40 99zM772 1268q0 -31 25.5 -54.5t58.5 -23.5t59.5 22.5t26.5 55t-25.5 57.5t-60.5 25q-33 0 -58.5 -25t-25.5 -57z" />
<glyph unicode="&#xe6;" horiz-adv-x="1527" d="M115 223q14 291 191 527.5t409 228.5q31 0 82 -16.5t69 -14.5q20 4 43 40t41.5 65.5t34.5 21.5q6 -2 7 -12t-1 -28.5t-5 -37t-10 -45t-11 -44t-11.5 -43t-9.5 -34.5q145 158 313 164q45 2 86 -7t86.5 -52t57.5 -115q10 -68 -40 -135.5t-104.5 -103t-103.5 -56.5 q-61 -27 -150.5 -43t-144.5 -19t-65 -1v-119q0 -109 80.5 -182.5t193.5 -77.5q92 -6 161.5 30t101.5 65.5t48 19.5q43 -23 -34 -99q-102 -102 -246 -135q-57 -14 -109 -10q-305 25 -327 299l-23 -41q-33 -53 -52.5 -80t-69.5 -74t-121.5 -68.5t-166.5 -21.5q-104 0 -155 78 t-45 176zM256 305q-4 -90 34 -155.5t113 -65.5q63 0 121 29.5t95.5 69.5t66.5 83t42 71t13 30q10 131 35 256q8 41 21.5 100t21.5 100l10 39q-72 49 -120 58q-109 18 -212.5 -76t-167 -241.5t-73.5 -297.5zM891 516q10 -2 70.5 5t151.5 38t144 80q59 51 80 116t-20 128 q-49 51 -125 38.5t-133 -65.5q-72 -68 -114 -157t-48 -126.5t-6 -56.5z" />
<glyph unicode="&#xe7;" horiz-adv-x="884" d="M113 342q0 131 57 274.5t177 256t269 120.5q121 6 210.5 -50t60.5 -144q-10 -33 -45 -42t-51 5q-12 6 -46 46t-81.5 75t-100.5 35q-109 2 -203 -126t-104 -360q-10 -319 260 -338q70 -6 144.5 31t121.5 70.5t56 29.5q27 -18 -10 -66t-115 -96.5t-156 -68.5l-55 -10 l-90 -131q94 27 175 -23.5t60 -157.5q-27 -152 -272 -159q-125 -4 -185 34l-22 17l41 55l16 -10q33 -18 96.5 -23.5t121 23.5t51.5 100q-6 49 -76 67.5t-119 -9.5l-12 24l125 184l-43 11q-117 25 -185.5 103.5t-70.5 252.5z" />
<glyph unicode="&#xe8;" horiz-adv-x="899" d="M129 330q-6 123 59.5 274.5t191.5 269t267 121.5q45 2 86 -7t87.5 -52t56.5 -115q14 -96 -73 -177t-175 -118q-137 -59 -361 -59v-123q0 -109 81 -182.5t194 -77.5q72 -4 131 16.5t89 47t54.5 43t38.5 8.5q41 -25 -37 -99q-104 -100 -254 -133q-53 -12 -102 -8 q-162 14 -245 99t-89 272zM287 504q8 -2 67.5 8t149.5 44t143 83q59 51 80 116t-18 128q-49 49 -125 38.5t-135 -65.5q-72 -68 -113 -161t-45 -131t-4 -60zM520 1202l145 127l242 -170l-37 -41z" />
<glyph unicode="&#xe9;" horiz-adv-x="899" d="M129 330q-6 123 59.5 274.5t191.5 269t267 121.5q45 2 86 -7t87.5 -52t56.5 -115q14 -96 -73 -177t-175 -118q-137 -59 -361 -59v-123q0 -109 81 -182.5t194 -77.5q72 -4 131 16.5t89 47t54.5 43t38.5 8.5q41 -25 -37 -99q-104 -100 -254 -133q-53 -12 -102 -8 q-162 14 -245 99t-89 272zM287 504q8 -2 67.5 8t149.5 44t143 83q59 51 80 116t-18 128q-49 49 -125 38.5t-135 -65.5q-72 -68 -113 -161t-45 -131t-4 -60zM512 1159l291 228l114 -109l-376 -158z" />
<glyph unicode="&#xea;" horiz-adv-x="907" d="M129 330q-6 123 59.5 274.5t191.5 269t267 121.5q45 2 86 -7t87.5 -52t56.5 -115q14 -96 -73 -177t-175 -118q-137 -59 -361 -59v-123q0 -109 81 -182.5t194 -77.5q72 -4 131 16.5t89 47t54.5 43t38.5 8.5q41 -25 -37 -99q-104 -100 -254 -133q-53 -12 -102 -8 q-162 14 -245 99t-89 272zM287 504q8 -2 67.5 8t149.5 44t143 83q59 51 80 116t-18 128q-49 49 -125 38.5t-135 -65.5q-72 -68 -113 -161t-45 -131t-4 -60zM432 1141l289 236l239 -244l-254 80z" />
<glyph unicode="&#xeb;" horiz-adv-x="899" d="M129 330q-6 123 59.5 274.5t191.5 269t267 121.5q45 2 86 -7t87.5 -52t56.5 -115q14 -96 -73 -177t-175 -118q-137 -59 -361 -59v-123q0 -109 81 -182.5t194 -77.5q72 -4 131 16.5t89 47t54.5 43t38.5 8.5q41 -25 -37 -99q-104 -100 -254 -133q-53 -12 -102 -8 q-162 14 -245 99t-89 272zM287 504q8 -2 67.5 8t149.5 44t143 83q59 51 80 116t-18 128q-49 49 -125 38.5t-135 -65.5q-72 -68 -113 -161t-45 -131t-4 -60zM493 1209q4 45 36 77.5t75 32.5q39 0 64.5 -34.5t21.5 -75.5q-2 -41 -34 -70t-73 -29q-39 0 -66.5 31t-23.5 68z M784 1209q4 45 36 77.5t75 32.5q39 0 63.5 -34.5t20.5 -75.5q-2 -41 -33 -70t-72 -29q-39 0 -66.5 31t-23.5 68z" />
<glyph unicode="&#xec;" horiz-adv-x="579" d="M108.5 938q2.5 23 35 31t105.5 9t93 3q31 4 60.5 11t32.5 7t24 -8q6 -16 5 -26.5t-10.5 -40t-11.5 -35.5l-108 -602l-2 -11v-22t-1 -27.5t1 -32t6 -29.5t12 -22.5t19 -11.5q18 -4 38.5 6t30.5 29l60 88q18 26 34 8q29 -18 -2 -67l-47 -78q-35 -59 -105.5 -103.5 t-107.5 -38.5q-127 18 -8 668l27 137q14 68 13 92.5t-23 34.5q-25 8 -64 4t-74 0t-32.5 27zM211 1202l145 127l242 -170l-39 -41z" />
<glyph unicode="&#xed;" horiz-adv-x="587" d="M135 938q2 23 35 31t105.5 9t93.5 3q33 4 61.5 11t30.5 7t22 -8q6 -14 5 -26.5t-9 -40t-10 -35.5l-109 -602q-8 -4 -4 -77t37 -79q41 -8 74 35l57 88q19 24 35 8q25 -16 -2 -67l-47 -78q-37 -59 -106.5 -103.5t-106.5 -38.5q-133 18 -8 668l26 137q12 68 11.5 92.5 t-21.5 34.5q-12 4 -34.5 4t-45 -1t-44 0t-34 7.5t-12.5 20.5zM225 1153l291 227l115 -108l-377 -158z" />
<glyph unicode="&#xee;" horiz-adv-x="606" d="M133 938q0 23 33 31t105.5 9t93.5 3q31 4 60.5 11t32.5 7t23 -8q6 -14 5 -26.5t-9 -40t-10 -35.5l-111 -602v-11q-2 -10 -2 -22t-1 -27.5t1 -32t6.5 -29.5t12.5 -22.5t18 -11.5q43 -8 72 35l59 88q15 28 35 8q25 -18 -2 -67l-49 -78q-35 -59 -105.5 -103.5t-107.5 -38.5 q-131 18 -6 668l26 137q12 68 11.5 92.5t-23.5 34.5q-25 8 -62.5 4t-72.5 0t-33 27zM162 1124l287 234l239 -244l-252 80z" />
<glyph unicode="&#xef;" horiz-adv-x="598" d="M113 938q2 23 34.5 31t105.5 9t93 3q31 4 59.5 11t31.5 7t24 -8q6 -14 5 -26.5t-9 -40t-11 -35.5l-110 -602v-11q-2 -10 -3 -22t-1 -27.5t2 -32t6 -29.5t11 -22.5t20 -11.5q43 -8 71 35l58 88q23 22 37 8q27 -18 -5 -67l-45 -78q-37 -59 -106.5 -103.5t-106.5 -38.5 q-129 18 -10 668l27 137q14 68 13 92.5t-21 34.5q-25 8 -64 4t-73.5 0t-32.5 27zM168 1208q4 45 37 78t76 33q39 0 64.5 -35t21 -76t-35 -69.5t-73.5 -28.5q-37 0 -64.5 30.5t-25.5 67.5zM461 1208q4 45 35.5 78t74.5 33q39 0 63.5 -35t20.5 -76q-2 -41 -32.5 -69.5 t-71.5 -28.5q-39 0 -66.5 30.5t-23.5 67.5z" />
<glyph unicode="&#xf1;" horiz-adv-x="1220" d="M159 706.5q-1 14.5 0 24.5t5 29.5t4 25.5q10 47 84 132.5t129 74.5q20 -4 35.5 -18t24 -35.5t13.5 -45.5t7 -46.5t4 -42t6 -29.5t10 -8q6 0 34 33t62.5 72.5t100 74.5t141.5 41q92 8 144.5 -64.5t56.5 -172t-2 -197.5l-27 -254l-2 -14q-2 -16 -5 -35t-2 -41.5t4 -39.5 t13.5 -29.5t28.5 -10.5q37 2 66.5 27.5t44 52.5t31 41t32.5 2q25 -23 -13 -85.5t-115 -119.5t-148 -61q-49 -2 -61.5 55t-8.5 143l29 404q6 33 1 85t-13.5 101t-41 84t-83.5 33q-74 -2 -134.5 -80t-91 -170t-39.5 -176l-53 -453q0 -4 -4 -12t-21.5 -17.5t-46 -9.5t-51 21.5 t-20.5 48.5l84 571q27 213 -60 215q-31 0 -52 -38.5t-37.5 -77.5t-33.5 -37q-14 2 -21 8t-8 20.5zM516 1198q53 135 211 152q43 4 105.5 -55.5t103.5 -45.5q37 10 68 54l55 -21q-43 -143 -203 -164q-45 -6 -107.5 54.5t-107.5 52.5q-35 -4 -70 -47z" />
<glyph unicode="&#xf2;" horiz-adv-x="954" d="M133 389q8 254 137 432t346 185q49 0 105.5 -20.5t115 -64.5t94.5 -130t32 -201q-12 -285 -142.5 -455t-357.5 -172q-129 -2 -233.5 107.5t-96.5 318.5zM299 526q-51 -477 182 -493q80 -6 143.5 47t101.5 142t58.5 183.5t24.5 186.5q10 162 -51.5 251t-143.5 93 q-123 6 -210 -114t-105 -296zM492 1190l145 127l242 -170l-37 -41z" />
<glyph unicode="&#xf3;" horiz-adv-x="948" d="M133 389q8 254 137 432t346 185q49 0 105.5 -20.5t115 -64.5t94.5 -130t32 -201q-12 -285 -142.5 -455t-357.5 -172q-129 -2 -233.5 107.5t-96.5 318.5zM299 526q-51 -477 182 -493q80 -6 143.5 47t101.5 142t58.5 183.5t24.5 186.5q10 162 -51.5 251t-143.5 93 q-123 6 -210 -114t-105 -296zM496 1165l291 228l114 -109l-376 -158z" />
<glyph unicode="&#xf4;" horiz-adv-x="948" d="M133 389q8 254 137 432t346 185q49 0 105.5 -20.5t115 -64.5t94.5 -130t32 -201q-12 -285 -142.5 -455t-357.5 -172q-129 -2 -233.5 107.5t-96.5 318.5zM299 526q-51 -477 182 -493q80 -6 143.5 47t101.5 142t58.5 183.5t24.5 186.5q10 162 -51.5 251t-143.5 93 q-123 6 -210 -114t-105 -296zM402 1122l289 236l239 -244l-254 80z" />
<glyph unicode="&#xf5;" horiz-adv-x="948" d="M127 389q8 254 137 432t346 185q49 0 105.5 -20.5t115 -64.5t94 -130t31.5 -201q-12 -285 -142 -455t-357 -172q-129 -2 -233.5 107.5t-96.5 318.5zM293 526q-51 -477 182 -493q80 -6 143.5 47t101.5 142t58.5 183.5t24.5 186.5q10 162 -51.5 251t-143.5 93 q-123 6 -210 -114t-105 -296zM418 1198q53 135 211 152q43 4 105.5 -55.5t103.5 -45.5q41 10 67 54l56 -21q-43 -145 -203 -164q-45 -6 -107.5 54.5t-107.5 52.5q-31 -4 -70 -47z" />
<glyph unicode="&#xf6;" horiz-adv-x="948" d="M125 383q8 254 137 432t346 184q49 0 105.5 -20.5t115 -64.5t94 -129.5t31.5 -198.5q-12 -287 -141 -457t-358 -172q-129 -2 -233.5 107.5t-96.5 318.5zM291 520q-51 -477 182 -493q80 -4 143.5 49t101.5 142t58.5 183.5t24.5 186.5q10 160 -51.5 249t-143.5 93 q-123 6 -210 -114t-105 -296zM444 1214q4 45 37 78t76 33q39 0 64.5 -35t21.5 -76q-2 -41 -35 -69.5t-73 -28.5q-39 0 -67 30t-24 68zM737 1214q4 45 36 78t75 33q39 0 63.5 -35t20.5 -76q-2 -41 -33 -69.5t-72 -28.5q-39 0 -66.5 30t-23.5 68z" />
<glyph unicode="&#xf7;" horiz-adv-x="1271" d="M129 422l12 121h1137l-12 -121h-1137zM504 135q-16 78 45 135q41 39 102 37q82 -4 104.5 -70.5t-21.5 -130t-124 -59.5q-90 6 -106 88zM563 754q-16 78 43 133q44 41 105 37q82 -4 104.5 -71t-21.5 -129t-124 -58q-92 6 -107 88z" />
<glyph unicode="&#xf8;" horiz-adv-x="944" d="M76 -45l90 125q-92 121 -86 305q10 256 139 433t350 183q111 0 207 -73l78 108h66l-103 -145q111 -110 103 -303q-12 -287 -143.5 -457t-362.5 -172q-115 0 -209 82l-62 -86h-67zM250 522q-25 -207 6 -321l455 637q-55 90 -144 94q-123 6 -211 -114t-106 -296zM276 137 q45 -100 158 -108q80 -4 143.5 49t102.5 141t60.5 182.5t25.5 186.5q4 125 -29 196z" />
<glyph unicode="&#xf9;" horiz-adv-x="1230" d="M178 668q-27 16 1 98t95.5 155.5t139.5 65.5q45 -6 64.5 -92t4.5 -172l-63 -389q-25 -166 -6 -199q10 -18 28 -16q98 10 267.5 268t193.5 361l45 184q0 6 4 15t21.5 20.5t44.5 11.5q23 0 39 -19.5t12 -39.5l-45 -195q-129 -596 -35 -600q39 -2 73 27.5t53.5 64.5t39 63.5 t33.5 26.5q49 -4 -10 -114q-39 -66 -133.5 -146t-170.5 -59q-51 14 -51 128.5t17.5 227.5t7.5 119q-12 6 -28.5 -16.5t-47.5 -75t-55 -84.5q-88 -121 -197.5 -213t-177.5 -78q-119 27 -47 385l59 283l2 14q2 14 5.5 32.5t3.5 40t-2.5 39t-11.5 28.5t-23 11 q-35 -2 -59.5 -31.5t-36 -63.5t-24.5 -55.5t-30 -10.5zM645 1202l145 127l242 -170l-37 -41z" />
<glyph unicode="&#xfa;" horiz-adv-x="1245" d="M178 668q-27 16 1 98t95.5 155.5t139.5 65.5q45 -6 64.5 -92t4.5 -172l-63 -389q-25 -166 -6 -199q10 -18 28 -16q98 10 267.5 268t193.5 361l45 184q0 6 4 15t21.5 20.5t44.5 11.5q23 0 39 -19.5t12 -39.5l-45 -195q-129 -596 -35 -600q39 -2 73 27.5t53.5 64.5t39 63.5 t33.5 26.5q49 -4 -10 -114q-39 -66 -133.5 -146t-170.5 -59q-51 14 -51 128.5t17.5 227.5t7.5 119q-12 6 -28.5 -16.5t-47.5 -75t-55 -84.5q-88 -121 -197.5 -213t-177.5 -78q-119 27 -47 385l59 283l2 14q2 14 5.5 32.5t3.5 40t-2.5 39t-11.5 28.5t-23 11 q-35 -2 -59.5 -31.5t-36 -63.5t-24.5 -55.5t-30 -10.5zM643 1153l291 228l114 -109l-376 -158z" />
<glyph unicode="&#xfb;" horiz-adv-x="1224" d="M176 668q-27 16 1 98t95.5 155.5t139.5 65.5q45 -6 64.5 -92t4.5 -172l-63 -389q-25 -166 -6 -199q10 -18 28 -16q98 10 267.5 268t193.5 361l45 184q16 47 70 47q23 0 39 -19.5t12 -39.5l-45 -195q-129 -596 -35 -600q39 -2 73 27.5t53.5 64.5t39 63.5t33.5 26.5 q49 -4 -10 -114q-39 -66 -133.5 -146t-170.5 -59q-51 14 -51 128.5t17.5 227.5t7.5 119q-12 6 -28.5 -16.5t-47.5 -75t-55 -84.5q-88 -121 -197.5 -213t-177.5 -78q-119 27 -47 385l59 283l2 14q2 14 5 32.5t3 40t-2 39t-11 28.5t-23 11q-33 -2 -58.5 -31.5t-36 -63.5 t-24.5 -55.5t-31 -10.5zM555 1124l287 234l239 -244l-254 80z" />
<glyph unicode="&#xfc;" horiz-adv-x="1245" d="M178 668q-27 16 1 98t95.5 155.5t139.5 65.5q45 -6 64.5 -92t4.5 -172l-63 -389q-25 -166 -6 -199q10 -18 28 -16q98 10 267.5 268t193.5 361l45 184q0 6 4 15t21.5 20.5t44.5 11.5q23 0 39 -19.5t12 -39.5l-45 -195q-129 -596 -35 -600q39 -2 73 27.5t53.5 64.5t39 63.5 t33.5 26.5q49 -4 -10 -114q-39 -66 -133.5 -146t-170.5 -59q-51 14 -51 128.5t17.5 227.5t7.5 119q-12 6 -28.5 -16.5t-47.5 -75t-55 -84.5q-88 -121 -197.5 -213t-177.5 -78q-119 27 -47 385l59 283l2 14q2 14 5.5 32.5t3.5 40t-2.5 39t-11.5 28.5t-23 11 q-35 -2 -59.5 -31.5t-36 -63.5t-24.5 -55.5t-30 -10.5zM612 1209q4 45 36 77.5t75 32.5q39 0 64.5 -34.5t21.5 -75.5q-2 -41 -34 -70t-73 -29q-39 0 -66.5 31t-23.5 68zM903 1209q4 45 36 77.5t75 32.5q39 0 63.5 -34.5t20.5 -75.5q-2 -41 -33 -70t-72 -29q-39 0 -66.5 31 t-23.5 68z" />
<glyph unicode="&#xff;" horiz-adv-x="1087" d="M154 729q14 123 88 199q43 41 94 45q43 2 90 -33t88 -94.5t81 -130t72.5 -142t59.5 -130t45.5 -94.5t26.5 -34q23 4 56.5 162t31.5 273q-2 39 -27.5 76.5t-28.5 70.5q-4 78 56 84q45 6 72.5 -33t23.5 -96q-16 -213 -71.5 -439.5t-137.5 -420t-198.5 -315t-239.5 -113.5 q-49 2 -106.5 33.5t-55.5 83.5q2 57 57 71q33 10 81 -30.5t81 -43.5q84 -8 165 90.5t123 194.5t38 105l-33 114q-18 63 -77.5 208t-149.5 289t-148 136q-43 -6 -66.5 -34.5t-26.5 -59.5t-10 -56.5t-22 -25.5q-41 -2 -32 90zM528 1210q4 45 37 78t76 33q39 0 64.5 -35 t21.5 -76t-34.5 -69.5t-74.5 -28.5q-39 0 -65.5 29.5t-24.5 68.5zM821 1210q4 45 36 78t75 33q39 0 63.5 -35t20.5 -76q-2 -41 -33 -69.5t-72 -28.5q-39 0 -66.5 29.5t-23.5 68.5z" />
<glyph unicode="&#x152;" horiz-adv-x="2656" d="M174 799q33 362 269.5 609t584.5 230h10l52 -6q256 -39 401 -45q188 -8 500 8l313 17q279 0 332 10q10 2 13 -7t3 -27.5t-3 -38t-5 -44.5t-2 -39q0 -23 5 -84t3 -93t-18 -32q-23 0 -27 39t-21.5 95.5t-66.5 89.5q-66 41 -217 41h-391q-53 0 -72 -15q-20 -16 -25 -75 l-67 -562h434q78 0 127 37q27 18 50.5 77.5t43.5 62.5q12 0 15.5 -14.5t-2 -42t-12.5 -55.5t-17 -66t-14 -62q-8 -55 -3 -113.5t2.5 -106.5t-20.5 -48q-23 0 -27 29.5t-10 78.5t-28 78q-33 45 -109 45h-440l-60 -575q-8 -76 19 -97q41 -33 94 -32h156q266 0 454 77 q68 29 113 73t62.5 69.5t31.5 21.5q41 -6 -16 -119q-61 -119 -140 -174q-51 -37 -151 -43t-261 4.5t-243 8.5q-35 0 -155.5 7t-190.5 7q-94 0 -410 -45q-49 -6 -47 -4q0 2 10 6h-61q-377 8 -588 243.5t-178 600.5zM348 864q-31 -217 30.5 -404.5t212 -305t361.5 -123.5 q147 -4 258 55t180.5 171t107.5 251t52 313q29 313 -110.5 523t-429.5 219q-162 4 -284 -51.5t-196.5 -158t-117.5 -221t-64 -268.5z" />
<glyph unicode="&#x153;" horiz-adv-x="1579" d="M68 389q8 254 137 432t346 185q92 2 196.5 -67t139.5 -212q166 250 383 256q45 2 86 -7t86 -52t55 -115q8 -51 -17.5 -102.5t-70.5 -89t-85 -62.5t-75 -41q-61 -27 -150 -41t-143.5 -16t-66.5 0v-125q0 -106 82 -180t192 -78q72 -4 131.5 15.5t89 46t54 44t39.5 8.5 q43 -25 -35 -98q-104 -100 -254 -133q-55 -12 -105 -8q-125 10 -200.5 60t-108.5 155q-133 -199 -377 -201q-129 -2 -233.5 107.5t-95.5 318.5zM233 526q-51 -477 183 -493q80 -6 143.5 47t101 142t58 183.5t24.5 186.5q10 162 -51 251t-143 93q-123 6 -210 -114t-106 -296z M909 494q8 -2 67.5 8t150 44t143.5 81q59 51 79.5 116.5t-20.5 126.5q-49 51 -125 40t-135 -66q-72 -68 -111.5 -161t-44 -130t-4.5 -59z" />
<glyph unicode="&#x178;" horiz-adv-x="1640" d="M268 1581q2 29 32 33t115 -5.5t150 -9.5q39 2 83 5.5t68.5 6.5t47 3t32 -6t9.5 -19q0 -18 -10.5 -26.5t-25.5 -8.5t-34.5 -8t-34.5 -24q-14 -29 -9 -66t18 -63l256 -543q16 -37 34 -37q4 0 9.5 3t7.5 6l7 10.5t7 11.5l332 506l10 18q8 16 13.5 27.5t14.5 34t9 34v29.5 q-10 35 -49 44t-73 12t-34 26q0 18 9.5 27.5t35 9.5t54 -2t87 -6.5t113.5 -4.5q27 0 52.5 3.5t38 6.5t23.5 3t16.5 -5.5t7.5 -17.5q4 -18 -16.5 -28.5t-57.5 -21.5t-53 -23q-14 -10 -37 -42t-41.5 -63t-36.5 -63.5t-21 -36.5l-407 -592l-39 -494q0 -127 29 -149 q25 -20 61.5 -30.5t64 -11.5t47 -9.5t17.5 -26.5q-2 -25 -42 -26t-122 10.5t-125 11.5q-35 0 -75.5 -4t-68.5 -8.5t-52.5 -7.5t-36.5 2.5t-12 19.5q0 23 16 29t45 13t49 28q31 31 43 145l53 489l-360 717q-31 57 -49.5 78t-52.5 39q-16 8 -44 12t-48.5 5t-36 8.5t-13.5 21.5 zM870 1856q4 45 36 77.5t75 32.5q39 0 64.5 -34.5t21.5 -75.5q-2 -41 -34 -70t-73 -29q-39 0 -66.5 31t-23.5 68zM1161 1856q4 45 36 77.5t75 32.5q39 0 63.5 -34.5t20.5 -75.5q-2 -41 -33 -70t-72 -29q-39 0 -66.5 31t-23.5 68z" />
<glyph unicode="&#x2000;" horiz-adv-x="1020" />
<glyph unicode="&#x2001;" horiz-adv-x="2040" />
<glyph unicode="&#x2002;" horiz-adv-x="1020" />
<glyph unicode="&#x2003;" horiz-adv-x="2040" />
<glyph unicode="&#x2004;" horiz-adv-x="680" />
<glyph unicode="&#x2005;" horiz-adv-x="510" />
<glyph unicode="&#x2006;" horiz-adv-x="340" />
<glyph unicode="&#x2007;" horiz-adv-x="340" />
<glyph unicode="&#x2008;" horiz-adv-x="255" />
<glyph unicode="&#x2009;" horiz-adv-x="408" />
<glyph unicode="&#x200a;" horiz-adv-x="113" />
<glyph unicode="&#x2010;" horiz-adv-x="569" d="M143 525.5q-2 52.5 19 76.5q16 25 65 35l277 55q51 18 63 19q16 -2 19 -56.5t-13 -74.5q-12 -16 -59 -29l-246 -53q-14 -2 -51 -16.5t-49 -12.5q-23 4 -25 56.5z" />
<glyph unicode="&#x2011;" horiz-adv-x="569" d="M143 525.5q-2 52.5 19 76.5q16 25 65 35l277 55q51 18 63 19q16 -2 19 -56.5t-13 -74.5q-12 -16 -59 -29l-246 -53q-14 -2 -51 -16.5t-49 -12.5q-23 4 -25 56.5z" />
<glyph unicode="&#x2012;" horiz-adv-x="569" d="M143 525.5q-2 52.5 19 76.5q16 25 65 35l277 55q51 18 63 19q16 -2 19 -56.5t-13 -74.5q-12 -16 -59 -29l-246 -53q-14 -2 -51 -16.5t-49 -12.5q-23 4 -25 56.5z" />
<glyph unicode="&#x2013;" horiz-adv-x="886" d="M142 519q-5 48 14 75q23 33 67 39l592 123q8 2 29.5 9t36.5 5q8 0 14 -25.5t3 -57.5t-13 -44q-14 -20 -58 -29l-561 -118q-14 -4 -49 -16.5t-45 -12.5q-25 4 -30 52z" />
<glyph unicode="&#x2014;" horiz-adv-x="1712" d="M146 515q-5 50 14 73q18 31 65 41l1444 315q6 2 26.5 8t37.5 6q10 0 15 -25.5t3 -57.5t-14 -46q-12 -16 -58 -28l-1415 -305q-16 -2 -47 -18.5t-41 -14.5q-25 2 -30 52z" />
<glyph unicode="&#x2018;" horiz-adv-x="407" d="M229 1251q2 156 136 316q88 102 137 100q14 -2 20 -14q4 -14 -34.5 -58.5t-82 -109t-43.5 -121.5q0 -55 18.5 -95t40 -56.5t40 -31t18.5 -24.5q0 -18 -7 -30.5t-21.5 -27t-20.5 -24.5q-37 -51 -72 -57q-14 -4 -44.5 27.5t-57.5 90t-27 115.5z" />
<glyph unicode="&#x2019;" horiz-adv-x="407" d="M219 1010q-6 12 33 57t82 109.5t43 121.5q0 55 -18.5 95.5t-40 56.5t-40 30.5t-18.5 24.5q0 18 7 30.5t24.5 26t24 21.5t16.5 21.5t17 21.5t17.5 16.5t20.5 10.5q14 2 43 -31t54.5 -93.5t25.5 -119.5q-2 -154 -133 -311q-88 -104 -137 -103q-14 2 -21 15z" />
<glyph unicode="&#x201a;" horiz-adv-x="407" d="M72 -373q-6 14 32.5 59.5t81.5 110t43 121.5q0 53 -18 93t-39.5 56.5t-40 32t-18.5 25.5q0 18 7 30.5t24.5 26t23.5 21.5t16.5 21.5t17.5 21.5t17 16t21 10q14 2 42.5 -30.5t54 -93t25.5 -119.5q-2 -156 -135 -314q-86 -102 -135 -100q-14 0 -20 12z" />
<glyph unicode="&#x201c;" horiz-adv-x="782" d="M229 1249q0 156 133 314q86 102 138 100q14 0 20 -14q4 -12 -33.5 -56.5t-81 -110t-43.5 -122.5q0 -70 29 -113t58.5 -62.5t29.5 -31.5q0 -16 -7 -29.5t-21.5 -28t-20.5 -24.5q-37 -49 -74 -57q-14 -2 -43.5 28.5t-56.5 89t-27 117.5zM592 1249q0 156 135 314 q86 102 137 100q15 0 21 -14q6 -12 -35 -56.5t-85 -109t-44 -123.5q0 -53 19.5 -93t43 -56.5t43 -32t19.5 -25.5q0 -14 -8.5 -26.5t-24.5 -29t-22 -22.5q-6 -8 -18.5 -28.5t-23 -29.5t-24.5 -9q-33 -2 -83 75.5t-50 165.5z" />
<glyph unicode="&#x201d;" horiz-adv-x="772" d="M223 1010q-6 12 33 57t81 109.5t42 121.5q0 55 -17.5 95.5t-39 56.5t-40 30.5t-18.5 24.5q-2 18 6.5 30.5t25.5 26t23.5 21.5t16.5 21.5t17 21.5t17.5 16.5t20.5 10.5q14 2 43 -31t54.5 -93.5t25.5 -119.5q-2 -154 -133 -311q-88 -104 -137 -103q-14 2 -21 15zM590 1010 q-4 12 35 57t81 109.5t42 121.5q0 55 -17.5 95.5t-39 56.5t-40 30.5t-18.5 24.5q-2 18 6 30.5t24.5 26t22.5 21.5q6 6 17.5 20.5t17.5 22.5t16.5 16.5t22.5 10.5q14 2 41.5 -31t53.5 -93.5t26 -119.5q0 -154 -133 -311q-86 -102 -138 -103q-14 0 -20 15z" />
<glyph unicode="&#x201e;" horiz-adv-x="772" d="M47 -373q-4 14 35 59.5t81 110t42 121.5q0 53 -17.5 93t-39 56.5t-40 32t-18.5 25.5q-2 18 6 30.5t25.5 26t23.5 21.5q4 6 12.5 17t13.5 17.5t13.5 14.5t16.5 13t16 7q14 2 43 -30.5t54.5 -93t25.5 -119.5q-2 -156 -135 -314q-88 -102 -137 -100q-14 0 -21 12zM416 -373 q-4 14 34.5 59.5t80.5 110t42 121.5q0 53 -17 93t-38.5 56.5t-40 32t-18.5 25.5q-2 18 6 30.5t24.5 26t22.5 21.5q6 6 17.5 20.5t17.5 22.5t16 16t23 10q14 2 41.5 -30.5t53.5 -93t26 -119.5q0 -154 -136 -314q-88 -102 -137 -100q-14 0 -18 12z" />
<glyph unicode="&#x2022;" horiz-adv-x="589" d="M178 788q4 90 67.5 153t151.5 65q92 0 158 -64t66 -154q0 -94 -62.5 -162.5t-155.5 -68.5q-94 0 -160.5 68.5t-64.5 162.5z" />
<glyph unicode="&#x2026;" horiz-adv-x="1304" d="M92 131q2 16 35 30.5t41 24.5q10 10 20.5 24.5t15.5 24t12 15.5t15 6q14 0 24.5 -13.5t21 -33t18.5 -27.5q10 -10 26.5 -19t23.5 -17.5t7 -24.5q0 -18 -27.5 -31.5t-41.5 -30.5q-8 -8 -22.5 -27.5t-25 -29.5t-16.5 -10q-10 0 -20.5 7t-14.5 12t-13 20.5t-11 17.5 q-10 16 -40 41t-28 41zM539 131q2 16 34.5 31.5t42.5 23.5q12 12 23.5 32t20 29t18.5 9q14 0 23.5 -13.5t19.5 -33t18 -27.5q10 -10 27.5 -19t25 -17.5t7.5 -24.5q0 -14 -9.5 -21.5t-28 -16.5t-32.5 -24q-6 -6 -21.5 -27.5t-25.5 -30.5t-16 -9q-12 0 -21.5 7t-13.5 12 t-13.5 19.5t-11.5 18.5q-10 16 -29.5 31.5t-29.5 26t-8 24.5zM997 131q2 16 35 30.5t41 24.5q10 10 20.5 24.5t15.5 24t12 15.5t16 6q18 -2 36.5 -35t24.5 -39q10 -10 27.5 -19t24.5 -17.5t7 -24.5q0 -18 -27.5 -31.5t-41.5 -30.5q-8 -8 -22.5 -27.5t-25 -29.5t-16.5 -10 q-10 0 -20 7t-14.5 12t-13.5 20.5t-11 17.5q-10 16 -29.5 31.5t-30 26t-8.5 24.5z" />
<glyph unicode="&#x202f;" horiz-adv-x="408" />
<glyph unicode="&#x205f;" horiz-adv-x="510" />
<glyph unicode="&#x2122;" horiz-adv-x="1742" d="M266 1436l13 172h16l49 -2q51 0 117.5 -1t116.5 -1q256 0 280 4l19 2l-25 -174h-31l-2 67q0 23 -8 37q-8 10 -27 10l-166 2l-61 -585q0 -29 8 -41q12 -14 56 -15l26 -4l-2 -28h-18q-2 0 -50.5 3t-78.5 3q-29 0 -76 -3t-53 -3h-21l4 30l31 2q45 6 53 15q18 18 21 41 l61 585l-164 -4q-14 0 -20 -6q-12 -12 -19 -31l-18 -75h-31zM838 879l2 30l30 2q45 6 54 15q16 14 20 41l57 546q4 31 -10 46q-10 16 -69 16h-11l4 31h17q4 0 29.5 -2t39.5 -2q16 0 40 1t42.5 2t20.5 1h12l213 -582l131 223q125 211 156 266q16 29 37 74l10 19h12q4 0 37 -2 t51.5 -2t51 2t34.5 2h13l-4 -31h-13q-59 0 -73 -16q-16 -16 -19 -46l-57 -546q-2 -25 8 -41q12 -14 57 -15l25 -4l-4 -28h-17q-2 0 -50 3t-76.5 3t-78 -3t-55.5 -3h-16l2 30l31 2q45 6 53 15q18 18 20 41l54 510l-353 -611h-20l-223 607l-52 -506q-2 -25 9 -41 q12 -14 57 -15l25 -4l-5 -28h-16q-2 0 -50 3t-77 3q-18 0 -49 -3t-39 -3h-18z" />
<glyph unicode="&#xe000;" horiz-adv-x="993" d="M0 0v993h993v-993h-993z" />
</font>
</defs>
</svg>
