<?xml version="1.0" standalone="no"?>
<!DOCTYPE svg PUBLIC "-//W3C//DTD SVG 1.1//EN" "http://www.w3.org/Graphics/SVG/1.1/DTD/svg11.dtd" >
<svg xmlns="http://www.w3.org/2000/svg">
<metadata></metadata>
<defs>
<font id="goudyroman" horiz-adv-x="1024" >
<font-face units-per-em="2048" ascent="1638" descent="-410" />
<missing-glyph horiz-adv-x="512" />
<glyph horiz-adv-x="2048" />
<glyph horiz-adv-x="2048" />
<glyph unicode="&#xd;" horiz-adv-x="2048" />
<glyph unicode=" "  horiz-adv-x="512" />
<glyph unicode="&#x09;" horiz-adv-x="512" />
<glyph unicode="&#xa0;" horiz-adv-x="512" />
<glyph unicode="!" horiz-adv-x="681" d="M209 131q0 12 7 18t25.5 17.5t34.5 28.5q13 15 23.5 30.5t14.5 22t10 10.5t16 4t16.5 -4t10 -10.5t14.5 -22t25 -30.5q16 -17 33.5 -28.5t24.5 -17.5t7 -18t-7 -19t-25 -20t-33 -31q-18 -16 -29.5 -33t-17.5 -22.5t-19 -5.5q-12 0 -18 5.5t-17.5 22.5t-28.5 33 q-16 18 -34.5 31t-25.5 20t-7 19zM258 1311q-3 48 16 64t66 16t66 -16t16 -64l-55 -826q-7 -59 -27 -59t-27 59z" />
<glyph unicode="&#x22;" horiz-adv-x="759" d="M131 1276q-20 166 66 166q85 0 65 -166l-43 -418q0 -3 -0.5 -12.5t-1 -17t-2.5 -15.5t-6.5 -13t-11.5 -5t-11.5 5t-6.5 13t-3 15.5t-1.5 17t-0.5 12.5zM424 1276q-20 166 65 166q86 0 66 -166l-43 -418q0 -3 -0.5 -12.5t-1.5 -17t-3 -15.5t-6.5 -13t-11.5 -5t-11.5 5 t-6.5 13t-2.5 15.5t-1 17t-0.5 12.5z" />
<glyph unicode="#" d="M-49 446q0 9 12 37q4 9 9 23q8 20 12.5 23t25.5 3h13h200q36 0 40 2.5t16 34.5l61 150q12 24 12 37q0 10 -9.5 12t-35.5 2h-176q-38 0 -43 5q-2 2 -2 7q0 9 12 37q3 7 6.5 16t5.5 12.5t3.5 8.5t4 6t3.5 3.5t6.5 2.5t7.5 0.5t11 0t14 -0.5h200q35 0 39.5 3t16.5 36l80 197 q3 7 6.5 18t5 13.5t7 5t15.5 2.5q27 0 27 -15q0 -7 -12 -34l-72 -174q-12 -30 -12 -37q0 -3 0.5 -5.5t2 -4t3 -2.5t4.5 -1.5t5.5 -1t6.5 -0.5h7h8.5h9.5h180q35 0 39 4q2 2 16 35l82 197q2 4 5 12.5t4 10.5t4 7t5.5 6t6.5 2t10 1q29 0 29 -15q0 -2 -2.5 -9t-5.5 -15t-4 -10 l-72 -174q0 -2 -6 -16.5t-6 -20.5q0 -4 1 -7t3.5 -4.5t5 -2.5t7 -1.5t8.5 0t10.5 0.5h11.5h186h11h10.5h8t7.5 -0.5t5.5 -2t3.5 -4t1 -5.5q0 -7 -12 -37q-3 -7 -6.5 -16t-5.5 -12.5t-3.5 -8.5t-4 -6t-3.5 -3.5t-6.5 -2.5t-7.5 -0.5t-11 0t-14 0.5h-213q-35 0 -39 -3t-18 -36 l-59 -149q-1 -2 -4.5 -9.5t-6 -14.5t-2.5 -11q0 -3 0.5 -5.5t2 -4t3 -2.5t4.5 -1.5t5 -1t6 -0.5h7h8.5h8.5h189h10h9.5h8t7 -1t5.5 -2.5t4 -4t1 -6.5t-2.5 -11t-5.5 -14.5t-4 -9.5q-3 -7 -6 -14.5t-4 -11.5t-4 -8.5t-3 -6.5t-3.5 -4t-4 -2.5t-6 -1t-7.5 -0.5h-10.5h-13.5 h-213q-35 0 -39 -3t-16 -36l-90 -223q-2 -6 -5.5 -15t-4.5 -11.5t-4.5 -6.5t-8.5 -5t-14 -1q-29 0 -29 14q0 4 2.5 12t6 15.5t4.5 9.5l81 199q1 2 7 17t6 20q0 6 -4 9.5t-10.5 4.5t-12 1t-12.5 -0.5t-8 -0.5h-181q-35 0 -39 -4q-2 -2 -16 -35l-90 -223q-2 -6 -5.5 -15 t-4.5 -11.5t-4.5 -6.5t-8.5 -5t-14 -1q-24 0 -24 14q0 1 12 37l80 199q12 30 12 37q0 14 -45 14h-174h-8h-15.5t-10.5 1t-8.5 4t-2.5 7zM324 545q0 -3 0.5 -5.5t2.5 -4t3.5 -2.5t5 -1.5t6 -1t6.5 -0.5h7h8h8h180q35 0 39 2.5t16 34.5l62 152q12 24 12 35q0 10 -8.5 12 t-29.5 2h-9h-180q-34 0 -38.5 -2.5t-17.5 -34.5l-61 -151q-2 -7 -5.5 -15t-5 -12t-1.5 -8z" />
<glyph unicode="$" d="M68 174q0 164 36 164q9 0 19 -26t37.5 -74t70.5 -88q94 -87 209 -87v646q-150 39 -244 130.5t-94 235.5q0 92 45.5 176.5t124.5 137.5t168 53v160h76v-160q34 0 81.5 -11t97.5 -31.5t85 -57.5t35 -82q0 -32 -16 -74.5t-33 -42.5q-7 0 -11 5t-8 15.5t-8.5 24t-15.5 34.5 t-25 42q-81 118 -182 118v-516q182 -44 281.5 -151t99.5 -273q0 -78 -28.5 -157t-77 -142.5t-121.5 -103t-154 -39.5v-254h-76v254q-86 0 -173.5 26.5t-143 67.5t-55.5 80zM197 1128q0 -51 20 -93.5t55 -72.5t77 -50t91 -31v501q-101 0 -172 -76t-71 -178zM516 63 q104 0 189.5 97t85.5 217q0 224 -275 309v-623z" />
<glyph unicode="%" horiz-adv-x="1705" d="M117 1067q0 93 35 175.5t108 137t168 54.5q157 0 251.5 -108.5t94.5 -268.5q0 -161 -85.5 -265t-242.5 -104q-76 0 -139 32t-104 85.5t-63.5 121t-22.5 140.5zM250 1128q0 -44 5 -91.5t20 -103.5t37.5 -99.5t61.5 -73t89 -29.5q178 0 178 264q0 51 -4.5 99t-19.5 104.5 t-38.5 97t-66 68t-98.5 27.5q-49 0 -83.5 -24.5t-51 -66.5t-23 -83t-6.5 -89zM410 -12l796 1454h82l-796 -1454h-82zM932 379q0 69 21 134t59.5 117t98.5 83.5t132 31.5q157 0 251.5 -108t94.5 -268q0 -161 -85 -265t-242 -104q-100 0 -177 55t-115 140.5t-38 183.5z M1065 440q0 -44 5 -91.5t20 -103.5t37.5 -99.5t61.5 -73t89 -29.5q178 0 178 264q0 51 -4.5 99t-19.5 104t-38.5 96.5t-66 68t-98.5 27.5q-49 0 -83.5 -24.5t-51 -66t-23 -82.5t-6.5 -89z" />
<glyph unicode="&#x26;" horiz-adv-x="1705" d="M84 496q0 169 84 284.5t244 149.5q-95 118 -95 233q0 89 49 154t123 95t160 30q58 0 110 -14t80 -28t29 -14q4 0 15.5 9.5t21.5 9.5q6 0 10.5 -2t7 -6.5t4.5 -8t2.5 -10.5t0.5 -10.5v-11v-8.5l6 -195q0 -7 -7 -11.5t-14 -4.5q-6 0 -11.5 4.5t-8 9t-6 13t-4.5 10.5 q-40 88 -116.5 151.5t-164.5 63.5q-72 0 -121 -47t-49 -119q0 -97 194 -318t552 -553q35 39 47 91t12 126q0 56 -14 95t-35.5 55.5t-46.5 26.5t-46.5 13t-35.5 11t-14 23q0 7 3 11t9.5 5.5t10.5 2t13.5 0t10.5 -0.5q44 0 106 -4t72 -4q8 0 49.5 4t81.5 4q29 0 29 -25 q0 -10 -12.5 -17t-28 -11.5t-30.5 -22.5t-18 -49q-9 -82 -16.5 -132.5t-28 -120t-51.5 -124.5q13 -10 99.5 -88t154.5 -125t109 -47q24 0 48 5t28 5q16 0 16 -16q0 -25 -57.5 -45.5t-112.5 -20.5q-44 0 -85 11t-85.5 38.5t-68 44t-75.5 59.5t-65 54q-112 -105 -234 -156 t-270 -51q-152 0 -279.5 62t-206.5 182t-79 275zM195 600q0 -132 75.5 -249t196.5 -185t252 -68q100 0 196 34t170 97q-120 103 -229 210.5t-175 181.5t-120.5 135.5t-88 92t-54.5 30.5q-91 0 -157 -91t-66 -188z" />
<glyph unicode="'" horiz-adv-x="454" d="M129 1276q-20 166 66 166q85 0 65 -166l-43 -418q0 -3 -0.5 -12.5t-1 -17t-2.5 -15.5t-6.5 -13t-11.5 -5t-11.5 5t-6.5 13t-3 15.5t-1.5 17t-0.5 12.5z" />
<glyph unicode="(" horiz-adv-x="796" d="M170 602q0 133 36 275t90.5 254t115 203.5t112.5 141.5t80 50q23 0 23 -25q0 -8 -30.5 -45.5t-73.5 -102t-86.5 -151t-74 -218.5t-30.5 -279q0 -164 28 -319.5t68 -264.5t80 -194.5t68 -139.5t28 -70q0 -20 -24 -20t-71.5 44.5t-105.5 130.5t-110.5 193.5t-87.5 251 t-35 285.5z" />
<glyph unicode=")" horiz-adv-x="796" d="M170 -279q0 8 22 37t54.5 70t71 110t71 148.5t54.5 193.5t22 238q0 164 -28 319.5t-68 264t-80 194t-68 139.5t-28 70q0 21 24 21t71.5 -44.5t105.5 -130.5t110.5 -193.5t87.5 -251t35 -285.5q0 -133 -36 -275t-90.5 -254t-115 -203.5t-112.5 -141.5t-80 -50 q-23 0 -23 24z" />
<glyph unicode="*" d="M141 852q0 39 31 59t74.5 26t111 27t121.5 56q-44 31 -97.5 50t-93 27t-75 17.5t-54 29.5t-18.5 56q0 33 23 52.5t55 19.5q23 0 52.5 -25t56.5 -58.5t72.5 -73t93.5 -62.5q3 75 -10 133.5t-27.5 100t-14.5 73.5q0 33 20 57.5t52 24.5q34 0 55 -25t21 -59 q0 -22 -16.5 -69.5t-30.5 -110.5t-11 -125q61 34 109 76.5t70 72t45.5 50t46.5 20.5q37 0 58.5 -21t21.5 -59q0 -40 -32.5 -60.5t-77 -26t-110 -27t-114.5 -58.5q52 -37 118.5 -58t110 -26.5t74.5 -25.5t31 -60q0 -35 -21.5 -55.5t-56.5 -20.5q-24 0 -45.5 16t-42.5 42 t-44.5 54t-60.5 57.5t-80 47.5q0 -79 9 -134t20 -76t20 -45t9 -48q0 -35 -23 -61.5t-59 -26.5q-33 0 -51.5 26t-18.5 60q0 27 9 49.5t19 41t19 74t9 140.5q-61 -36 -108.5 -79t-69 -71t-47.5 -47.5t-54 -19.5q-35 0 -54.5 21t-19.5 57z" />
<glyph unicode="+" horiz-adv-x="1241" d="M166 578v110h399v397h111v-397h397v-110h-397v-400h-111v400h-399z" />
<glyph unicode="," horiz-adv-x="512" d="M127 135q0 24 49 72.5t76 48.5q38 0 85.5 -63t47.5 -154q0 -71 -25 -137t-60 -108t-70 -67.5t-58 -25.5q-18 0 -18 20q0 9 17 26t38 36.5t38 58.5t17 86q0 38 -14 70t-34 52.5t-40.5 36t-34.5 27.5t-14 21z" />
<glyph unicode="-" horiz-adv-x="681" d="M112 352l1 8v19q0 44 7 54t48 24l311 110q9 3 25.5 10.5t27.5 11t17 3.5q7 0 11 -3.5t5.5 -11t2 -12t0.5 -13.5l-1 -9v-18q0 -42 -6.5 -51t-48.5 -23l-311 -111q-9 -3 -25.5 -10.5t-27.5 -11t-17 -3.5q-7 0 -11 3t-5.5 9.5t-2 11t-0.5 13.5z" />
<glyph unicode="." horiz-adv-x="512" d="M125 131q0 12 7.5 18t26 17.5t34.5 28.5q14 15 24 30.5t14 22t9.5 10.5t15.5 4t16.5 -4t10 -10.5t14.5 -22t25 -30.5q16 -17 33.5 -28.5t24.5 -17.5t7 -18t-7 -19t-25 -20t-33 -31q-18 -16 -29.5 -33t-17.5 -22.5t-19 -5.5q-12 0 -17.5 5.5t-17 22.5t-28.5 33 q-16 18 -34.5 31t-26 20t-7.5 19z" />
<glyph unicode="/" horiz-adv-x="569" d="M0 -303l463 1829h112l-464 -1829h-111z" />
<glyph unicode="0" d="M63 647q0 162 29.5 297.5t77.5 225.5t111.5 153t130 91t133.5 28q52 0 105.5 -20t109.5 -69t99.5 -122.5t71 -191t27.5 -263.5q0 -156 -29 -290t-76.5 -226t-109.5 -157t-127 -95.5t-129 -30.5q-63 0 -121 20.5t-114 70.5t-97.5 125t-66.5 191.5t-25 262.5zM172 799 q0 -139 23 -258t61 -200t87 -138.5t100.5 -84t101.5 -26.5q26 0 53.5 6.5t58.5 24t59 44.5t54 71t44.5 99.5t30 134t11.5 171.5q0 147 -28.5 268.5t-71.5 197t-97 127.5t-101.5 73.5t-88.5 21.5q-70 0 -124.5 -38.5t-86 -95.5t-52 -132t-27.5 -139.5t-7 -126.5z" />
<glyph unicode="1" d="M217 1235q0 11 4.5 18t18 14t27 12t43 15t55.5 21q54 22 105.5 53.5t78.5 52.5t29 21q20 0 20 -31q0 -13 -7 -53t-7 -82v-1067q0 -56 16.5 -91.5t41.5 -48.5t54.5 -19.5t54.5 -6.5t41.5 -6.5t16.5 -22.5q0 -8 -5.5 -13t-19 -6.5t-21 -2t-26.5 -0.5q-31 0 -101 4t-110 4 t-130.5 -4t-116.5 -4q-24 0 -33.5 4t-9.5 20q0 15 20.5 21t49.5 9.5t58 12.5t49.5 38t20.5 79v942q0 76 -9 97q-15 32 -65 32q-19 0 -67.5 -16.5t-54.5 -16.5q-7 0 -14 6.5t-7 14.5z" />
<glyph unicode="2" d="M104 18q0 10 17 35.5t41.5 56t27.5 35.5q237 313 349 556t112 389q0 116 -57 178.5t-172 62.5q-58 0 -111 -21t-82.5 -45.5t-54.5 -45.5t-35 -21q-8 0 -12 4.5t-4.5 8.5t-0.5 13l1 9q0 19 31.5 53.5t80.5 69.5t121 60.5t142 25.5q135 0 219 -80.5t84 -214.5 q0 -84 -50.5 -210t-122.5 -248.5t-144 -234t-122.5 -190.5t-50.5 -94q0 -9 9.5 -15.5t28 -10t39.5 -5.5t51 -2t55 0.5t59 1t55 0.5q71 0 122 15t75.5 36t40 42t28 36t27.5 15q5 0 11 -6.5t6 -10.5q0 -5 -1.5 -9t-6 -12t-10 -17t-17.5 -29.5t-25 -42.5l-88 -156h-618 q-2 0 -10.5 -0.5t-13.5 -0.5t-11.5 1.5t-9.5 6t-3 11.5z" />
<glyph unicode="3" d="M33 111q0 20 22 20q15 0 39 -15.5t49 -33.5t71.5 -33.5t100.5 -15.5q109 0 197.5 63t135 160t46.5 205q0 85 -27 146.5t-73 94t-98 47.5t-111 15h-13.5h-12.5h-10t-9 1t-6.5 3t-4.5 5t-1 7q0 12 31 32t74.5 48t87.5 63.5t75 91t31 118.5q0 95 -55.5 149.5t-149.5 54.5 q-55 0 -100.5 -17.5t-69 -38.5t-43.5 -38.5t-29 -17.5q-11 0 -17.5 5.5t-6.5 12.5q0 19 28.5 52t73.5 66t112.5 57t135.5 24q112 0 189 -65.5t77 -176.5q0 -99 -65.5 -192t-155.5 -142l4 -4q134 1 217.5 -96t83.5 -240q0 -142 -72 -268.5t-196 -203.5t-266 -77 q-59 0 -128 23t-115 55t-46 56z" />
<glyph unicode="4" d="M41 467q0 29 74 147.5t184.5 273.5t184.5 256.5t128 172.5q14 18 34 45t27.5 37t19.5 22.5t20 16.5t18 4q17 0 17 -60v-807h88q25 0 49 15t39 30t18 15q12 0 12 -14q0 -17 -15.5 -85.5t-27.5 -93.5q-3 -8 -8 -9q-4 -1 -155 -1v-543q0 -16 -51 -29.5t-79 -13.5 q-16 0 -18 12q-2 7 -2 107v467h-473q-9 0 -23 -0.5t-19.5 -0.5t-15 1t-12.5 3t-7.5 6t-5.5 10.5t-1 15.5zM180 575h418v607h-4z" />
<glyph unicode="5" d="M59 66q0 20 17 20q3 0 26.5 -11t69.5 -21.5t104 -10.5q114 0 209.5 49t156 150.5t60.5 238.5q0 44 -5.5 82.5t-26 88t-55 84t-100 59t-153.5 24.5q-30 0 -85.5 -9t-69.5 -9q-9 0 -16.5 6.5t-6.5 15.5l95 512q1 5 3.5 18.5t3 17t3 14t4.5 13t5.5 10t7.5 9.5t10.5 6.5 t14 5.5t17 2.5t21.5 2.5h344q34 0 59 10.5t36 23t21.5 23t18.5 10.5q16 0 16 -12t-31 -82t-45 -94q-6 -9 -13 -15t-13 -9t-19 -4.5t-21 -1.5t-29 0.5t-34 0.5h-225q-27 0 -39.5 -1t-29.5 -6t-25 -16.5t-12 -31.5l-58 -293q101 22 168 22q187 0 302.5 -113t115.5 -298 q0 -64 -14.5 -133.5t-52.5 -147t-95.5 -138t-153.5 -100.5t-216 -40q-50 0 -95.5 6.5t-75 16t-52 20.5t-32.5 20t-10 15z" />
<glyph unicode="6" d="M80 537q0 163 71.5 332t182.5 297.5t254 211t278 82.5q29 0 29 -18v-6t-0.5 -4.5t-2.5 -4l-4 -3t-6.5 -3.5t-9.5 -3.5t-13 -4.5t-16.5 -5.5t-22 -7t-27.5 -9.5q-132 -46 -241.5 -145t-175.5 -216t-97 -244q81 58 149 91.5t143 33.5q84 0 155.5 -38.5t118 -101.5 t72 -140.5t25.5 -157.5q0 -60 -12 -123.5t-42.5 -131.5t-75.5 -120.5t-119 -86.5t-165 -34q-56 0 -114 17t-119 59t-108 104t-77 160.5t-30 219.5zM246 498q0 -70 18 -146t53.5 -147.5t97.5 -117.5t140 -46q64 0 114 29t79 76.5t44 103.5t15 115q0 64 -10 126t-34.5 123 t-60.5 106.5t-92.5 74t-126.5 28.5q-67 0 -115 -28t-73.5 -76.5t-37 -103t-11.5 -117.5z" />
<glyph unicode="7" d="M145.5 1135q-4.5 29 4.5 61l38 180q9 45 16 53q11 13 46 13q28 0 83 -4t81 -4h395q3 0 15 1t17.5 0.5t15.5 -4.5t14.5 -12.5t7.5 -26t2 -42.5q-3 -72 -38 -187t-83.5 -239.5t-96.5 -254.5t-81 -265t-33 -238q0 -68 19.5 -139t19.5 -76q0 -20 -48 -31.5t-79 -11.5 q-25 0 -37 3.5t-25 19t-17.5 50t-4.5 93.5q0 112 42 253t102 271.5t120 255t102 240t43 190.5h-370q-62 0 -105 -13t-62 -33t-31 -43t-15 -43t-11 -33t-22 -13q-20 0 -24.5 29z" />
<glyph unicode="8" d="M92 387q0 132 70 230t194 161q-90 40 -146 123t-56 180q0 152 109.5 256.5t262.5 104.5q163 0 259 -86t96 -246q0 -99 -67 -179.5t-165 -123.5q283 -127 283 -397q0 -191 -123.5 -312t-314.5 -121q-108 0 -199 48.5t-147 143.5t-56 218zM193 422q0 -90 40 -177.5 t116.5 -147.5t168.5 -60q137 0 217 86t80 223q0 60 -28 117t-71 98t-92.5 75.5t-94.5 56t-74 33t-35 11.5q-70 0 -148.5 -98.5t-78.5 -216.5zM264 1147q0 -65 29 -120.5t74 -91t98 -55.5t104 -20q98 0 155.5 70t57.5 180q0 117 -78 195.5t-196 78.5q-105 0 -174.5 -66 t-69.5 -171z" />
<glyph unicode="9" d="M72 946q0 108 31.5 197t78.5 143t105 90.5t107.5 51t90.5 14.5q56 0 114 -17t119 -59t108.5 -103.5t77.5 -160t30 -219.5q0 -119 -43.5 -248.5t-121 -245t-175 -209t-215.5 -148.5t-232 -55q-28 0 -28 19q0 13 5.5 16.5t40.5 11.5q10 3 16 4.5l18 4.5l24 6 q119 37 227.5 132.5t181.5 216.5t103 245q-164 -119 -293 -119q-84 0 -155.5 37.5t-117.5 99.5t-71.5 138.5t-25.5 156.5zM207 1055q0 -81 17 -157t53 -144.5t101.5 -110t151.5 -41.5q67 0 115.5 27.5t74 75t37 101t11.5 116.5q0 70 -18 146t-53.5 147t-97.5 117t-140 46 q-64 0 -114 -28.5t-79 -76t-44 -103.5t-15 -115z" />
<glyph unicode=":" horiz-adv-x="512" d="M125 131q0 12 7.5 18t26 17.5t34.5 28.5q14 15 24 30.5t14 22t9.5 10.5t15.5 4t16.5 -4t10 -10.5t14.5 -22t25 -30.5q16 -17 33.5 -28.5t24.5 -17.5t7 -18t-7 -19t-25 -20t-33 -31q-18 -16 -29.5 -33t-17.5 -22.5t-19 -5.5q-12 0 -17.5 5.5t-17 22.5t-28.5 33 q-16 18 -34.5 31t-26 20t-7.5 19zM125 715q0 12 7.5 18t26 17t34.5 28q14 15 24 30.5t14 22.5t9.5 11t15.5 4t16.5 -4t10 -11t14.5 -22.5t25 -30.5q16 -17 33.5 -28t24.5 -17t7 -18t-7 -19t-25 -20t-33 -31q-18 -16 -29.5 -33t-17.5 -22.5t-19 -5.5q-12 0 -17.5 5.5 t-17 22.5t-28.5 33q-16 18 -34.5 31t-26 20t-7.5 19z" />
<glyph unicode=";" horiz-adv-x="512" d="M125 715q0 12 7.5 18t26 17t34.5 28q14 15 24 30.5t14 22.5t9.5 11t15.5 4t16.5 -4t10 -11t14.5 -22.5t25 -30.5q16 -17 33.5 -28t24.5 -17t7 -18t-7 -19t-25 -20t-33 -31q-18 -16 -29.5 -33t-17.5 -22.5t-19 -5.5q-12 0 -17.5 5.5t-17 22.5t-28.5 33q-16 18 -34.5 31 t-26 20t-7.5 19zM127 135q0 24 49 72.5t76 48.5q38 0 85.5 -63t47.5 -154q0 -71 -25 -137t-60 -108t-70 -67.5t-58 -25.5q-18 0 -18 20q0 9 17 26t38 36.5t38 58.5t17 86q0 38 -14 70t-34 52.5t-40.5 36t-34.5 27.5t-14 21z" />
<glyph unicode="&#x3c;" horiz-adv-x="1241" d="M98 584v102l967 444v-112l-842 -385l842 -377v-113z" />
<glyph unicode="=" horiz-adv-x="1241" d="M166 410v110h907v-110h-907zM166 713v110h907v-110h-907z" />
<glyph unicode="&#x3e;" horiz-adv-x="1241" d="M176 143v113l840 377l-840 385v112l967 -444v-102z" />
<glyph unicode="?" horiz-adv-x="681" d="M213 1276q0 38 56 76.5t161 38.5q96 0 165 -67.5t69 -162.5q0 -59 -28 -119t-68 -114t-79.5 -110.5t-67.5 -129.5t-28 -151q0 -13 3 -39.5t3 -40.5q0 -20 -4 -26.5t-22 -6.5q-39 0 -39 160q0 60 28 141.5t61 149t61 145t28 129.5q0 67 -46 115.5t-114 48.5 q-35 0 -59.5 -13.5t-39.5 -26.5t-26 -13q-6 0 -10 5t-4 11zM250 131q0 12 7 18t25.5 17.5t34.5 28.5q13 15 23.5 30.5t14.5 22t10 10.5t16 4q13 0 18.5 -5t17.5 -24t29 -38q16 -17 33.5 -28.5t25 -17.5t7.5 -18t-7.5 -19t-25.5 -20t-33 -31q-14 -13 -24.5 -26.5t-14 -20 t-10 -10.5t-16.5 -4q-12 0 -18 5.5t-17.5 22.5t-28.5 33q-16 18 -34.5 31t-25.5 20t-7 19z" />
<glyph unicode="@" horiz-adv-x="1529" d="M76 723q0 147 56 283t151 235.5t228 159t280 59.5q132 0 252 -44.5t210.5 -123.5t144.5 -196t54 -254q0 -114 -33.5 -211t-85 -159.5t-116 -107t-125.5 -64t-113 -19.5q-144 0 -162 114q-4 -4 -19 -20t-19.5 -20t-18 -17t-21 -16.5t-22 -12.5t-27 -11.5t-30.5 -7t-38 -6 t-44 -1.5q-109 0 -171.5 81.5t-62.5 194.5q0 96 32 199.5t88 192.5t144 146.5t189 57.5q89 0 135 -28t61 -91h4l27 92h164l-184 -546q-4 -18 -17.5 -59t-23 -74t-9.5 -43q0 -41 50 -41q95 0 180 71t134.5 182.5t49.5 229.5q0 148 -81 270.5t-211 190t-275 67.5 q-174 0 -321.5 -86t-233.5 -235t-86 -326q0 -183 82 -336t228.5 -242.5t326.5 -89.5q169 0 321.5 92t231.5 242h86q-72 -189 -254 -303.5t-387 -114.5q-200 0 -365.5 100t-259.5 271t-94 375zM494 461q0 -54 31 -87.5t83 -33.5q41 0 80 25t68.5 65.5t51.5 84t36 87.5l96 287 q16 37 16 65q0 56 -34.5 100t-81.5 44q-73 0 -140.5 -75.5t-110.5 -181.5t-69 -210t-26 -170z" />
<glyph unicode="A" horiz-adv-x="1593" d="M20 14q0 14 16.5 22t38.5 13t49.5 28t45.5 62l489 1045q30 65 72 155q42 93 54.5 114.5t27.5 21.5q6 0 12.5 -6t11 -16.5t8 -19.5t7 -20t4.5 -14l426 -1055q7 -18 27 -72t37 -91.5t38 -69.5q20 -32 53.5 -48.5t60.5 -18.5t47 -9.5t20 -24.5q0 -18 -29 -18q-42 0 -126 4 t-126 4q-28 0 -83 -4t-83 -4q-45 0 -45 20q0 16 19 26.5t42.5 16t42.5 22t19 42.5q0 20 -10 52t-30 83t-23 59l-66 168q-10 23 -15 33t-15.5 23t-24.5 17.5t-35 4.5h-451q-19 0 -29.5 -1t-25 -4.5t-24.5 -13t-17 -24.5l-131 -287q-14 -33 -14 -71q0 -34 10.5 -56t27 -31 t35 -14.5t35 -7t27 -8t10.5 -18.5q0 -9 -2.5 -15t-5 -9.5t-10 -5t-10.5 -1.5h-14h-13q-29 0 -86 4t-86 4q-28 0 -83 -4t-81 -4q-19 0 -19 22zM514 686q-5 -11 -5 -18q0 -19 32 -19h405q31 1 37 11q2 4 2 9q0 9 -6 21l-201 494q-8 19 -16 19t-17 -19z" />
<glyph unicode="B" horiz-adv-x="1251" d="M78 1413q0 11 4 17.5t15 8.5t16 2.5t20 0.5t66.5 -4t97.5 -4q31 0 133.5 4t194.5 4q104 0 185 -22t129.5 -56.5t80 -81.5t43.5 -93t12 -95q0 -58 -20 -108.5t-48 -81t-56 -52.5t-48 -34t-20 -15q0 -6 24 -15t59.5 -20.5t77 -37.5t77 -61.5t59.5 -99t24 -143.5 q0 -45 -12.5 -97t-48 -113.5t-88.5 -110t-143.5 -81t-204.5 -32.5q-37 0 -135 4t-132 4q-47 0 -142 -4t-142 -4q-14 0 -33 5t-19 17q0 7 3.5 12.5t15 10.5t17.5 7t26 9q40 10 59 34q35 44 35 142v1008q0 43 -18.5 73.5t-45.5 44.5t-54 23t-45.5 16.5t-18.5 18.5zM421 846.5 q0 -4.5 2 -12.5t5 -10t11.5 -6.5t19 -5.5t29 -3t40.5 -2h54q70 0 125 7.5t91.5 19t63 30.5t40 36.5t21.5 42t9.5 42.5t1.5 43q0 159 -115 252.5t-278 93.5q-23 0 -39.5 -1.5t-29.5 -4.5t-21.5 -8.5t-14.5 -13t-8.5 -17t-4 -22t-1.5 -28v-34.5v-24v-338q0 -7 -0.5 -19.5 t-0.5 -17zM422 223q0 -62 4 -86.5t30.5 -50.5t83 -32.5t162.5 -6.5q78 0 140 20t100 51t63 72.5t34.5 80.5t9.5 79q0 38 -1.5 64t-11.5 70.5t-27.5 76t-53 68.5t-85 60t-127 38.5t-174.5 15.5q-45 0 -75.5 -4t-44.5 -7t-20.5 -12.5t-6.5 -11v-12.5v-458v-15z" />
<glyph unicode="C" horiz-adv-x="1478" d="M51 690q0 157 55 298.5t151 245.5t234 165t297 61q108 0 198.5 -16t146 -39t96.5 -46.5t68 -39.5t42 -16q7 0 23 10t27 10q15 0 18.5 -21.5t7.5 -109.5q1 -7 1 -11t0.5 -11t0.5 -13q1 -26 3.5 -59t4 -50.5t0.5 -35t-5.5 -24.5t-14.5 -7q-11 0 -20.5 13t-17.5 33t-9 22 q-102 177 -225.5 264.5t-311.5 87.5q-147 0 -260.5 -47.5t-185.5 -133.5t-109 -204t-37 -262q0 -108 24 -211t73.5 -194t119.5 -159.5t168.5 -108.5t212.5 -40q113 0 216.5 33t171 82t110 97t55.5 87q3 11 11.5 19t17.5 8q7 0 13.5 -7.5t5.5 -15.5l-48 -205q-1 -5 -18.5 -20 t-64.5 -40t-111.5 -47.5t-174.5 -38.5t-239 -16q-208 0 -372 89t-256.5 252t-92.5 372z" />
<glyph unicode="D" horiz-adv-x="1478" d="M68 1421q0 10 9 15.5t19 5.5q32 0 93.5 -4t91.5 -4q62 0 206.5 4t237.5 4q108 0 213.5 -31t196 -90.5t160.5 -138.5t109.5 -181t39.5 -213q0 -181 -44.5 -324t-137.5 -250t-247 -164.5t-362 -57.5q-52 0 -156.5 4t-156.5 4q-10 0 -116 -4t-113 -4q-21 0 -21 20 q0 12 15 18t36.5 13.5t43 21t36.5 49t15 89.5v1020q0 49 -12.5 83t-31 49t-40.5 24.5t-40.5 12.5t-31 10t-12.5 19zM396 226q0 -15 1.5 -35t4.5 -33.5t8 -18.5q46 -46 139 -69t176 -23q91 0 171 19.5t154 66t126.5 117t84 179.5t31.5 247q0 167 -53.5 303t-147 225 t-219.5 137.5t-272 49.5q-59 0 -96 -5t-59.5 -12.5t-32.5 -25.5t-12.5 -35t-2.5 -51v-973q-1 -4 -1 -26v-20v-17z" />
<glyph unicode="E" horiz-adv-x="1138" d="M41 1417q0 13 15 19t57 6q231 0 402.5 -4t176.5 -4q18 0 138.5 4t154.5 4q21 0 21 -45q0 -244 -41 -244q-17 0 -24 16.5t-7 38t-4 48.5t-15 42q-11 14 -31 25t-48 17t-53.5 10t-61.5 5t-57.5 1.5t-55 0t-41.5 -0.5q-129 0 -152 -6q-31 -8 -37 -39q-3 -17 -3 -84v-381 q0 -53 8.5 -61.5t69.5 -8.5h221q50 0 85.5 12t52 30.5t27.5 39.5t14.5 39.5t10 30.5t17.5 12t16.5 -12.5t4.5 -26.5q0 -37 -1.5 -106t-1.5 -101q0 -26 2 -80t1 -82q0 -26 -21 -26q-17 0 -24.5 18.5t-12 45t-14 53t-38.5 45t-77 18.5h-303q-9 0 -15.5 -1.5t-10.5 -6t-6.5 -8 t-3.5 -11.5t-1 -11v-14v-13v-377q0 -89 3 -104q9 -43 56 -57q33 -9 96 -9q112 0 204.5 15.5t148 39t99 51t64.5 51t35 39t19 15.5q16 0 16 -25q0 -89 -102 -199q-42 -48 -78 -58.5t-107 -10.5h-16q-62 0 -221 5q-114 4 -190 4q-31 0 -56 -1q-27 -1 -115 -4.5t-135 -3.5 q-30 0 -30 20q1 9 7 14.5t14 9.5t28.5 12t40.5 18q37 17 47 56.5t10 121.5v934q0 31 -0.5 47t-3.5 43t-10 42.5t-19 33t-31.5 27t-46.5 13.5q-2 1 -12 2.5t-16.5 3.5t-15 5.5t-13 9t-4.5 12.5z" />
<glyph unicode="F" d="M41 1417q0 13 15 19t57 6q231 0 402.5 -4t176.5 -4q18 0 138.5 4t154.5 4q21 0 21 -45q0 -244 -41 -244q-17 0 -24 16.5t-7 38t-4 48.5t-15 42q-11 14 -31 25t-48 17t-53.5 10t-61.5 5t-57.5 1.5t-55 0t-41.5 -0.5q-129 0 -152 -6q-31 -8 -37 -39q-3 -17 -3 -84v-381 q0 -53 8.5 -61.5t69.5 -8.5h221q50 0 85.5 12t52 30.5t27.5 39.5t14.5 39.5t10 30.5t17.5 12t16.5 -12.5t4.5 -26.5q0 -37 -1.5 -106t-1.5 -101q0 -26 2 -80t1 -82q0 -26 -21 -26q-17 0 -24.5 18.5t-12 45t-14 53t-38.5 45t-77 18.5h-303q-14 0 -22 -3t-11.5 -11.5t-4 -13 t0 -19.5t0.5 -18v-414q0 -54 20 -89.5t48 -48.5t56 -19.5t48 -13t20 -18.5q0 -28 -45 -28q-1 0 -19 2.5t-70 5t-136 2.5q-60 0 -131.5 -5t-81.5 -5t-15.5 6.5t-5.5 11.5q0 13 11 21t28 12t36 16t36 29.5t28 55.5t11 91v945q0 31 -0.5 47t-3.5 43t-10 42.5t-19 33t-31.5 27 t-46.5 13.5q-2 1 -12 2.5t-16.5 3.5t-15 5.5t-13 9t-4.5 12.5z" />
<glyph unicode="G" horiz-adv-x="1593" d="M51 713q0 163 59 303t161 237t243.5 152t302.5 55q99 0 183 -14.5t136 -35t90.5 -40.5t64.5 -34.5t40 -14.5q11 0 26 18.5t27 18.5q10 0 15.5 -5t6 -12.5t1 -15.5t0.5 -14l20 -269q0 -36 -22 -36q-10 0 -25.5 22t-38 56.5t-53.5 77t-79 84.5t-106 76.5t-143.5 56.5 t-183.5 22q-108 0 -199 -35t-155.5 -96t-110 -143.5t-67 -177t-21.5 -197.5q0 -110 24.5 -213t75 -193t121 -157.5t169.5 -106.5t214 -39q98 0 193 29t164 92t69 145v318q0 32 -28 49t-61 20t-61 10.5t-28 24.5q0 6 1.5 10t5 6.5t6 4t8.5 2t8.5 0.5h9.5h8h342q2 0 11.5 0.5 t15.5 0.5t13.5 -1.5t11.5 -6t4 -12.5q0 -10 -8 -15.5t-19.5 -7.5t-25 -8.5t-25 -16t-19.5 -31.5t-8 -54v-418q-54 -18 -109.5 -47.5t-100 -55.5t-100.5 -50.5t-137 -39t-184 -14.5q-340 0 -536.5 197.5t-196.5 538.5z" />
<glyph unicode="H" horiz-adv-x="1593" d="M53 1419q0 23 33 23q38 0 112.5 -4t112.5 -4q31 0 95 4t96 4q39 0 39 -21q0 -9 -11 -15t-27.5 -9t-35.5 -11t-35.5 -20t-27.5 -38t-11 -62v-443q0 -24 4.5 -30.5t26.5 -6.5h750q16 0 16 60v420q0 33 -11.5 57t-28.5 35t-37 19.5t-37 12.5t-28.5 11t-11.5 18q0 23 35 23 q38 0 117.5 -4t95.5 -4q42 0 87 4t61 4q57 0 57 -33q0 -11 -21.5 -18.5t-47 -14t-47 -34.5t-21.5 -76v-1086q0 -42 19 -69.5t46.5 -39t55 -18.5t46.5 -15t19 -22q0 -6 -6.5 -15t-15.5 -9q-25 0 -89.5 4t-103.5 4q-77 0 -148 -4t-79 -4h-12h-8h-6q-4 0 -10.5 2.5t-9.5 8.5 t-3 15q0 13 14.5 21.5t35.5 15.5t42.5 18t36 35t14.5 60v491q0 7 0.5 17.5t1 15.5t-1 10t-5.5 7t-11 2h-756q-17 0 -21 -7.5t-4 -27.5v-510q0 -47 30.5 -74t67 -33.5t67 -18.5t30.5 -32q0 -16 -33 -16q-3 0 -111.5 4t-173.5 4q-41 0 -73 -1t-49.5 -2t-29 -2t-17 -2t-7.5 -1 q-22 0 -22 31q0 16 16.5 23t40 13t46.5 18.5t39.5 47.5t16.5 92v1049q-1 42 -19.5 69t-44.5 37.5t-52 16t-44 12t-18 18.5z" />
<glyph unicode="I" horiz-adv-x="681" d="M86 1419q0 14 4 18.5t16 4.5q38 0 113 -4t113 -4q32 0 95 4t95 4q24 0 31.5 -4.5t7.5 -16.5q0 -15 -23 -23.5t-50.5 -14.5t-50.5 -35.5t-23 -81.5v-1100q0 -39 18.5 -63t45.5 -34t54 -16t45.5 -15.5t18.5 -25.5q0 -11 -8 -15.5t-33 -4.5q-18 0 -96 4t-127 4 q-75 0 -134.5 -4t-62.5 -4q-26 0 -34.5 7.5t-8.5 23.5t16.5 23t40 13t47 18.5t40 47.5t16.5 92v1049q-1 42 -18 69t-41.5 37.5t-48.5 16t-41 12t-17 18.5z" />
<glyph unicode="J" horiz-adv-x="681" d="M-45 -317q0 30 13 72t32 42q12 0 32 -20.5t45.5 -41t49.5 -20.5q65 0 104 81t39 216v1209q0 48 -14.5 81.5t-36.5 48.5t-48 25t-48 13t-36.5 10.5t-14.5 19.5q0 23 30 23q42 0 108.5 -4t113.5 -4q54 0 113.5 4t76.5 4q39 0 39 -29q0 -12 -12.5 -17t-30 -9t-35.5 -13 t-30.5 -36t-12.5 -72v-1088q0 -157 -53 -288t-144 -206t-200 -75q-47 0 -63.5 15t-16.5 59z" />
<glyph unicode="K" horiz-adv-x="1366" d="M37 1419q0 23 26 23q33 0 99 -4t100 -4q46 0 115 4t96 4q16 0 16 -19q0 -12 -12 -20.5t-29.5 -17.5t-35 -22t-29.5 -41.5t-12 -68.5v-460q0 -21 10 -21q12 0 22 10l412 373q6 5 29.5 25t39.5 35t36 35t30.5 38.5t10.5 32.5q0 22 -18 37.5t-39.5 21.5t-39.5 15.5t-18 21.5 q0 25 26 25q34 0 96.5 -4t121.5 -4q58 0 109 4t79 4q37 0 37 -17q0 -22 -13 -30t-38.5 -12t-88.5 -38.5t-141 -97.5l-479 -426q-31 -28 -31 -39q0 -13 23 -39l569 -596q46 -48 92 -71t72.5 -24t43.5 -7t17 -27q0 -26 -24 -26q-21 0 -63 4t-62 4q-22 0 -64 -4t-63 -4 q-12 0 -22.5 8t-22.5 23.5t-16 19.5l-578 602q-18 21 -37 21q-18 0 -18 -21v-428q0 -63 20.5 -100.5t50 -49t59 -16t50 -12t20.5 -27.5t-55 -20q-1 0 -7.5 1t-20.5 2t-35 2t-57.5 2t-80.5 1q-61 0 -126.5 -4t-73.5 -4q-52 0 -52 33q0 7 11 12t27 9t35 13t35 23.5t27 44 t11 70.5v1048q0 47 -17.5 77.5t-43 42.5t-51 18.5t-43 14t-17.5 21.5z" />
<glyph unicode="L" horiz-adv-x="1138" d="M37 1415q0 16 9.5 21.5t31.5 5.5q14 0 82 -4t125 -4q69 0 130 4t66 4q22 0 30.5 -5.5t8.5 -23.5q0 -12 -15.5 -18.5t-37 -12.5t-43.5 -18t-37.5 -43.5t-15.5 -81.5v-995q0 -89 3 -104q9 -43 56 -57q33 -9 96 -9q112 0 204.5 15.5t148 39t99 51t64.5 51t35 39t19 15.5 q16 0 16 -25q0 -89 -102 -199q-42 -48 -78 -58.5t-107 -10.5h-16q-62 0 -221 5q-114 4 -190 4q-31 0 -56 -1q-27 -1 -115 -4.5t-135 -3.5q-31 0 -31 20q1 9 7 14.5t14.5 9.5t29 12t40.5 18q37 17 47 56.5t10 121.5v1038q0 36 -27 59.5t-59 31.5t-59 18.5t-27 23.5z" />
<glyph unicode="M" horiz-adv-x="1820" d="M59 16q0 19 13.5 26.5t34 13t41 17t37 47.5t20.5 95q7 87 18 224.5t16.5 208.5t10 164.5t4.5 170.5q0 98 -11 171.5t-28 113.5t-37.5 66t-41.5 36t-38 15.5t-28 13t-11 20.5q0 23 35 23q18 0 55.5 -4t57.5 -4q19 0 55 4t55 4q10 0 17.5 -6.5t11 -13t8 -20t6.5 -18.5 l488 -1040q28 -52 36 -58q4 -3 9 -3q10 0 63 110l488 979q2 4 7.5 15.5t9.5 20t10 16.5q7 9 13 14q5 4 11 4h2q11 0 51.5 -4t44.5 -4q25 0 54.5 4t44.5 4q9 0 14.5 -7.5t5.5 -17.5q0 -15 -12 -22.5t-30 -9.5t-39 -12t-39 -26t-28 -55q-9 -33 -8 -78v-18l29 -1016 q3 -48 20.5 -76t41 -37t46.5 -13.5t38.5 -13.5t15.5 -28q0 -20 -49 -20q-14 0 -80.5 4t-112.5 4q-33 0 -94.5 -4t-85.5 -4q-22 0 -22 18q0 19 20 30.5t44 19t44 37t19 81.5l-21 795q0 37 -7 58.5t-16 21.5q-24 0 -53 -62l-424 -864q-1 -1 -15 -31.5t-26.5 -50.5t-21.5 -20 q-5 0 -10 3.5t-8.5 8.5t-7.5 12.5t-6 12.5t-5 13t-4 9l-436 913q-9 23 -25 23q-11 0 -14 -31l-25 -719v-17q1 -53 11 -91q12 -44 32.5 -63t45 -31t45.5 -15.5t35.5 -12.5t14.5 -26q0 -22 -51 -22q-9 0 -77 4t-103 4q-62 0 -115 -4t-63 -4q-21 0 -21 24z" />
<glyph unicode="N" horiz-adv-x="1593" d="M-12 1421q0 8 10.5 14.5t19.5 6.5q16 0 48 -4t49 -4q15 0 47 4t47 4q8 0 16.5 -6t14 -12t13 -16t9.5 -13l977 -1088q19 -22 25 -22t6 22v856q0 63 -17 107t-42 64t-55 33t-55 17t-42 13t-17 24q0 21 23 21q30 0 91 -4t95 -4q38 0 111.5 4t95.5 4q21 0 21 -19 q0 -14 -12.5 -22.5t-30.5 -16t-35.5 -19t-30 -39t-12.5 -69.5v-1185q0 -48 -4 -68t-15 -20q-25 0 -77 57l-881 991q-1 1 -6.5 8t-11.5 13.5t-13 12t-12 5.5q-14 0 -14 -47v-838q0 -43 13.5 -72t33.5 -41t43 -19t43 -9t33.5 -8.5t13.5 -18.5q0 -26 -23 -26q-18 0 -84.5 4 t-122.5 4q-32 0 -76.5 -2t-78 -4t-37.5 -2q-27 0 -27 22q0 16 13.5 25t33.5 13t43.5 16.5t43.5 33t33.5 67t13.5 114.5v755q0 87 -13.5 151t-35.5 98.5t-48.5 56t-53 29.5t-48.5 13t-35.5 12.5t-13.5 22.5z" />
<glyph unicode="O" horiz-adv-x="1593" d="M51 725q0 209 100 378t272 263t380 94q155 0 291.5 -54t235 -149t155.5 -230.5t57 -291.5q0 -227 -98 -400t-273.5 -265.5t-402.5 -92.5q-164 0 -299 56t-226.5 155.5t-141.5 237.5t-50 299zM201 784q0 -114 28.5 -223t85 -203t134 -165.5t182 -112.5t223.5 -41 q112 0 210.5 44t171.5 122.5t115 195.5t42 256q0 112 -29 219.5t-86 200.5t-134.5 164t-181.5 111.5t-221 40.5q-125 0 -228.5 -49.5t-171 -133.5t-104 -194t-36.5 -232z" />
<glyph unicode="P" horiz-adv-x="1138" d="M78 1411q0 13 7 22t19 9q5 0 33 -2t76 -4t100 -2q51 0 118 4t116 4q82 0 157 -11.5t148 -40t126 -72.5t85.5 -113.5t32.5 -157.5q0 -21 -4.5 -48t-18.5 -66t-35.5 -76t-60.5 -74.5t-89 -66t-125 -46t-165 -17.5q-33 0 -86 11.5t-53 35.5q0 19 20 19q1 0 45 -6t88 -6 q158 0 245 73.5t87 210.5q0 179 -120.5 279t-305.5 100q-32 0 -46.5 -1t-32 -6.5t-24.5 -18.5t-7 -35v-1035q0 -69 16 -116t40 -66.5t51.5 -30.5t51.5 -12.5t40 -9t16 -23.5q0 -24 -60 -24q-29 0 -91.5 4t-129.5 4q-53 0 -125.5 -4t-97.5 -4q-12 0 -22.5 6t-10.5 18t12 19.5 t29.5 11t38.5 15t38.5 28.5t29.5 55t12 91v981q0 58 -12.5 94.5t-31 49t-40.5 18t-40.5 4t-31 5t-12.5 23.5z" />
<glyph unicode="Q" horiz-adv-x="1593" d="M51 725q0 209 100 378t272 263t380 94q155 0 291.5 -54t235 -149t155.5 -230.5t57 -291.5q0 -314 -178.5 -514t-476.5 -237v-4q22 -1 37.5 -6t92.5 -49.5t216 -137.5q92 -61 182 -61q32 0 81 22.5t52 22.5q21 0 21 -25q1 -15 -19 -34t-56.5 -37.5t-97 -31t-130.5 -12.5 q-51 0 -121.5 28t-140 70.5t-149.5 92t-149.5 92t-141 70.5t-124.5 28q-52 0 -87 -21.5t-50 -52t-24 -61.5t-17.5 -52.5t-21.5 -21.5q-37 0 -37 43q0 76 50 147t114 99q-151 91 -233.5 256.5t-82.5 376.5zM201 784q0 -114 28.5 -223t85 -203t134 -165.5t182 -112.5 t223.5 -41q112 0 210.5 44t171.5 122.5t115 195.5t42 256q0 112 -29 219.5t-86 200.5t-134.5 164t-181.5 111.5t-221 40.5q-125 0 -228.5 -49.5t-171 -133.5t-104 -194t-36.5 -232z" />
<glyph unicode="R" horiz-adv-x="1366" d="M27 1417q0 10 11.5 17.5t29.5 7.5q10 0 40.5 -4t90.5 -4q61 0 176 4t166 4h9q21 1 42 1q236 0 349 -118q85 -89 85 -238q0 -116 -73.5 -213t-184.5 -141l342 -518q41 -62 82 -101.5t69.5 -52t51.5 -18t34 -10t11 -17.5q0 -24 -133 -24q-54 0 -99 16.5t-83 51.5t-64 67.5 t-61 85.5l-228 358q-8 12 -21 33q-14 23 -19.5 32.5t-20.5 21t-21.5 14t-35.5 5.5t-48 3h-74h-32q-19 0 -31 -3.5t-16.5 -12t-6 -12.5t-0.5 -16l1 -13v-433q0 -49 22 -79t53.5 -41.5t62.5 -17.5t53 -15.5t22 -28.5q0 -5 -1.5 -8t-3.5 -5t-6.5 -2.5t-7 -0.5h-8.5h-8 q-3 0 -28 2t-79 4t-129 2q-39 0 -116.5 -4t-116.5 -4q-9 0 -15 6.5t-6 15.5q0 16 23.5 28t51.5 22t51.5 43t23.5 86v1042q0 46 -13 76.5t-32.5 42.5t-42.5 19.5t-42.5 9t-32.5 10t-13 24.5zM365 778q0 -11 12.5 -18t40.5 -9q26 -3 48 -3h17q19 0 47 1q42 1 58 1q32 0 64 5.5 t73.5 24t72.5 48.5t52.5 85t21.5 127q0 73 -21.5 130.5t-58 95t-87.5 62.5t-106 35.5t-118 10.5h-10q-32 0 -46.5 -1t-31 -8t-22.5 -23t-6 -44v-520z" />
<glyph unicode="S" horiz-adv-x="1138" d="M72 354q-3 14 -3 26q-1 12 3 21q6 17 22 17q6 0 10.5 -1.5t8 -5t6 -6.5t4.5 -10.5t3 -12t3 -15t4 -17.5q8 -32 26.5 -68.5t54.5 -80t82 -78t116 -57.5t151 -23q101 0 186.5 35t142 110.5t56.5 178.5q0 63 -28.5 110.5t-76.5 77t-110.5 52.5t-131.5 42t-137.5 40 t-131 52.5t-110.5 73.5t-76.5 108t-28.5 152q0 94 37.5 169t101.5 121.5t144.5 70.5t170.5 24q85 0 153.5 -11.5t101.5 -25.5t57.5 -25.5t31.5 -11.5q9 0 21 11.5t22 11.5q22 0 25 -29l31 -278q4 -31 -23 -31q-22 0 -43 62q-45 129 -149 197.5t-242 68.5q-63 0 -121 -15.5 t-106.5 -46.5t-77.5 -83.5t-29 -120.5q0 -61 28.5 -107t76.5 -75t110.5 -51.5t131.5 -42t138 -41t131.5 -55t110.5 -78t76.5 -115t28.5 -160.5q0 -56 -15.5 -111.5t-57.5 -114.5t-105.5 -103.5t-169 -73t-238.5 -28.5q-107 0 -223 41.5t-123 71.5z" />
<glyph unicode="T" horiz-adv-x="1366" d="M20 1163l23 199q0 3 0.5 12t1 15t2 15t4 14.5t6.5 11.5t9.5 9t13.5 3q67 0 252 -4t330 -4q164 0 303 2t214 4t83 2q35 0 46 -12t13 -48l10 -163q2 -17 2 -23q0 -9 -6 -15q-6 -7 -18 -7q-17 0 -24.5 11.5t-7.5 28.5t-5 37.5t-15.5 37.5t-41.5 28.5t-80 11.5h-293h-19 q-48 0 -56 -8.5t-7 -62.5v-29v-1045q0 -48 17 -77t41.5 -39t49 -15t41.5 -13t17 -24q0 -24 -19 -24q-23 0 -79 4t-87 4q-64 0 -115 -1t-79.5 -2t-47 -2t-27.5 -2t-11 -1q-14 0 -19.5 5.5t-5.5 20.5q0 16 25.5 27.5t55.5 20.5t55.5 35.5t25.5 68.5v1065q0 1 0.5 14.5 t0.5 24.5t-1.5 24.5t-6.5 21.5t-13 9h-334q-86 0 -111 -22.5t-52 -106.5q-3 -9 -5 -14q-1 -2 -3.5 -12t-4 -13.5t-5 -10t-9 -9t-13.5 -2.5t-14.5 8t-6.5 16z" />
<glyph unicode="U" horiz-adv-x="1593" d="M18 1421q0 9 17 15t28 6q26 0 79 -4t81 -4q33 0 98.5 4t96.5 4q65 0 65 -21q0 -18 -21.5 -26.5t-47 -13t-47 -31t-21.5 -76.5v-735q0 -120 37.5 -212.5t104.5 -150t155 -86.5t193 -29q111 0 196.5 29t137 75.5t83.5 113t44 133.5t12 145v664q0 43 -10.5 73t-27.5 45 t-37 24t-40.5 12.5t-37.5 8t-27.5 13t-10.5 24.5q0 7 8 14t13 7q40 0 119.5 -4t119.5 -4q20 0 57.5 4t55.5 4q8 0 17.5 -7.5t9.5 -15.5q0 -15 -12.5 -24t-30 -17.5t-35.5 -23t-30.5 -49t-12.5 -86.5v-635v-11q0 -32 -0.5 -53.5t-5 -70.5t-14 -85.5t-29 -88.5t-47 -90.5 t-72 -79.5t-99.5 -67.5t-133.5 -43.5t-171.5 -17q-113 0 -205 18t-158 49t-115.5 77t-80 97.5t-49.5 116t-26 126t-7 133.5v690q0 41 -26 63t-57 26.5t-57 15.5t-26 32z" />
<glyph unicode="V" horiz-adv-x="1478" d="M16 1413q0 29 29 29q32 0 95 -4t93 -4q31 0 91 4t71 4q10 0 19.5 -6.5t9.5 -14.5q1 -9 -12 -18t-29 -17t-29.5 -26t-13.5 -43q0 -39 18 -80l359 -844q8 -18 20 -49q14 -35 20 -49.5t14.5 -30.5t14.5 -21t13 -5q6 0 10.5 3t8.5 10t6.5 12.5t6 16t5.5 15.5l356 879 q30 79 30 122q0 9 -1 17q0 32 -20.5 49t-45 20t-45 10.5t-20.5 22.5q0 27 30 27q22 0 67 -4t68 -4q58 0 105 4t53 4q35 0 35 -27q0 -14 -10.5 -20.5t-25.5 -10t-37.5 -29t-41.5 -71.5l-510 -1206q-6 -12 -19 -49.5t-23.5 -53.5t-24.5 -16q-9 0 -18.5 8.5t-18 25t-14.5 30.5 t-14 35.5t-11 29.5l-506 1196q-17 42 -46 65.5t-52.5 28.5t-41.5 13t-18 22z" />
<glyph unicode="W" horiz-adv-x="2048" d="M18 1409q0 17 15 25t33 8q30 0 90 -4t90 -4q24 0 73 4t74 4q17 0 17 -25q0 -10 -14 -19t-30 -16t-30 -24t-14 -41t12 -51l389 -963q18 -53 35 -53q15 0 28 37l152 360q25 64 25 84q0 7 -21 64l-205 493q-19 45 -54 67t-66 23t-54.5 9.5t-23.5 31.5t30 23q40 0 119 -4 t88 -4q56 0 119.5 4t79.5 4q12 0 12 -25q0 -11 -13 -19.5t-29 -14.5t-29 -21.5t-13 -38.5q0 -24 15 -61l106 -271q22 -53 27 -53q7 0 28 51l101 240q18 45 18 74q1 30 -17.5 49.5t-41 27t-41.5 18t-19 25.5q0 19 41 19q22 0 66 -4t67 -4q52 0 95.5 4t54.5 4q5 0 9.5 -4 t4.5 -8q0 -18 -9.5 -25t-25.5 -12.5t-45.5 -45.5t-60.5 -112l-146 -336q-18 -46 -18 -78q0 -28 27 -98l172 -424q27 -63 45 -63q15 0 45 75l373 918q14 32 14 67q0 30 -21 49.5t-45.5 26t-45.5 16.5t-21 23t6 22t16 9q23 0 71 -4t73 -4q32 0 90 4t80 4q9 0 13 -1t7.5 -6 t3.5 -16q0 -14 -9.5 -20.5t-24 -11t-38.5 -34.5t-47 -85l-526 -1241q-9 -21 -14.5 -32t-18 -23.5t-26.5 -12.5t-24 14.5t-32 63.5l-225 538q-8 19 -14 19q-13 0 -19 -14l-229 -570q-10 -30 -21.5 -40.5t-29.5 -10.5q-7 0 -12.5 3.5t-11.5 12.5t-11.5 18.5t-13 28.5t-14 36 t-18.5 47l-22 55l-448 1114q-17 41 -43.5 66t-49 32t-39 15.5t-16.5 21.5z" />
<glyph unicode="X" horiz-adv-x="1366" d="M20 1417q0 11 7 18t18 7q7 0 63.5 -4t161.5 -4q32 0 97 4t96 4q35 0 35 -27q0 -9 -14 -16t-31 -11.5t-31 -17.5t-14 -33q0 -16 20 -51.5t80 -128.5l145 -227q5 -8 11.5 -18t10 -15.5t8 -12.5t7.5 -10.5l6 -7t5.5 -5t5.5 -1.5t7 3t10 10t11 14.5t15 22t18 26.5l184 264 l11 16q11 16 14 20.5t12 19t12.5 22t9 19t7.5 20t2 16.5q0 20 -17.5 32t-39 16.5t-39 15t-17.5 26.5q0 19 27 19h8q20 0 58 -4q46 -4 122 -4q47 0 80 1t44.5 3t20 3t11.5 1q16 0 16 -21q0 -14 -15.5 -21t-40 -14t-65 -40t-79.5 -89l-312 -440q-16 -21 -16 -39q0 -12 25 -53 l356 -561q29 -47 59 -74t51 -33.5t38 -9.5t25.5 -9t8.5 -24q0 -22 -37 -22q-8 0 -73 4t-113 4q-45 0 -109.5 -4t-72.5 -4q-15 0 -21 4t-6 16q0 14 13.5 24.5t29.5 16t29.5 17.5t13.5 30q0 22 -8 41t-37 64l-256 403q-11 19 -20 19q-14 0 -29 -23l-223 -332 q-68 -101 -80 -131q-8 -20 -8 -35q0 -25 20 -39t44.5 -17.5t44.5 -12.5t20 -25q0 -20 -31 -20q-22 0 -85.5 4t-113.5 4q-29 0 -87 -4t-87 -4q-24 0 -24 18q0 19 31.5 30t79.5 32.5t77 62.5l377 541q20 28 20 35q0 9 -20 39l-318 475q-42 62 -84 100.5t-70.5 49.5t-51 15 t-33.5 8t-11 19z" />
<glyph unicode="Y" horiz-adv-x="1251" d="M16 1411q0 11 8.5 21t18.5 10q17 0 85 -4t148 -4q40 0 90 4t54 4q39 0 39 -21q0 -11 -15 -21.5t-33.5 -17.5t-33.5 -22t-15 -35q0 -29 37 -84l248 -395q24 -37 41 -37q15 0 39 41l211 342q1 2 9.5 14.5t12 20t10 21t9 27.5t2.5 30q0 34 -24 51.5t-53 20.5t-53 10.5 t-24 23.5q0 31 43 31q24 0 75 -4t75 -4q30 0 89 4t89 4q9 0 16 -8.5t7 -16.5q0 -10 -8 -17.5t-24 -14t-18 -7.5q-19 -12 -37 -30.5t-27 -31.5t-27 -42t-23 -37l-287 -446q-9 -14 -21 -31t-16.5 -24t-8 -17t-3.5 -21v-501q0 -50 17.5 -81t42 -43t49 -19t42 -16t17.5 -26 q0 -12 -11 -16t-36 -4q-10 0 -96 4t-130 4q-40 0 -82 -2t-69.5 -4t-32.5 -2q-16 0 -23.5 4t-7.5 20q0 15 16.5 23t39.5 13t46 14.5t39.5 34.5t16.5 65v496q0 11 -3 22.5t-9.5 24.5t-10.5 20t-13.5 21t-10.5 16l-342 547q-23 38 -62 55t-65.5 23t-26.5 20z" />
<glyph unicode="Z" horiz-adv-x="1138" d="M59 31q0 14 15 39l723 1206q34 56 34 61q0 13 -16 13h-430q-67 0 -114.5 -16t-70 -40t-37 -51.5t-19.5 -51.5t-14 -40t-24 -16q-13 0 -20.5 8t-7.5 16l28 211q6 44 17 54t61 10h797q59 0 59 -33q0 -30 -20 -62l-692 -1159q-31 -50 -31 -67q0 -29 80 -29h381 q74 0 128.5 14t83 34t48 40.5t37 34.5t37.5 14q8 1 12 -11q2 -5 3 -12q0 -6 -3 -12l-72 -135q-17 -31 -40 -41t-62 -10h-836q-15 0 -25 8t-10 23z" />
<glyph unicode="[" horiz-adv-x="569" d="M166 -303v1829h373v-64h-113h-33t-24 -1.5t-18 -1.5t-11.5 -5.5t-7.5 -7t-3 -12t-1.5 -15t0.5 -21.5v-26v-1522q0 -62 2 -68q6 -18 41 -21q15 -1 55 -1h113v-63h-373z" />
<glyph unicode="\" horiz-adv-x="1241" d="M293 1526h123l532 -1526h-119z" />
<glyph unicode="]" horiz-adv-x="569" d="M31 -240h112h33t24 2t18 1.5t11.5 5.5t8 7t3.5 12t1.5 14.5t-0.5 21.5v26v1522q0 9 0.5 24t0 19.5t-0.5 14.5t-3 12t-4.5 7.5t-8.5 6t-12.5 3t-18 2.5t-22.5 0.5t-30 0.5h-112v64h372v-1829h-372v63z" />
<glyph unicode="^" horiz-adv-x="1241" d="M88 475l440 967h101l444 -967h-110l-385 836l-379 -836h-111z" />
<glyph unicode="_" d="M0 -178h1024v-105h-1024v105z" />
<glyph unicode="`" horiz-adv-x="681" d="M43 1247q0 29 19 52.5t47 23.5q17 0 33 -7.5t25.5 -15.5t25.5 -24l301 -299h-72l-266 166q-6 4 -31 18.5t-39.5 24.5t-28.5 27t-14 34z" />
<glyph unicode="a" horiz-adv-x="909" d="M80 647q1 37 23.5 77t63.5 76t109 58q62 21 135 21h13q42 0 82.5 -5t86 -19.5t78.5 -37t55 -61t22 -88.5v-424q0 -8 -0.5 -32t-0.5 -37t2 -35t8 -34.5t15.5 -26t25.5 -20t38 -6.5q4 0 17 2t17 2q27 0 27 -14q0 -28 -41 -39.5t-78 -11.5q-119 0 -160 104 q-138 -119 -313 -119q-221 0 -221 195q0 27 3 48t15 48.5t33 49t59.5 47t92 46t132.5 41t179 37.5v158q0 80 -58 129t-153 49q-34 0 -56.5 -2t-47.5 -9t-40 -20t-24.5 -36t-9.5 -56q0 -16 6 -45t6 -39q0 -19 -9 -28.5t-36 -9.5q-29 0 -62.5 20.5t-33.5 46.5zM217 199 q0 -86 42 -124t126 -38q41 0 88.5 18t86 57.5t38.5 90.5v237q-10 -2 -53 -11t-63 -13.5t-61 -16.5t-63.5 -23t-53.5 -29.5t-47 -38.5t-28 -48t-12 -61z" />
<glyph unicode="b" d="M25 1401q0 18 18 22q68 16 120 42t80 43.5t46 17.5q9 0 16.5 -9.5t7.5 -23.5v-750q143 136 295 136q44 0 89.5 -12.5t92.5 -43.5t83.5 -77t59.5 -118t23 -161q0 -98 -25.5 -184t-75.5 -155.5t-133.5 -110t-191.5 -40.5q-51 0 -103 17.5t-84 39t-58.5 39t-32.5 17.5 t-32.5 -56.5t-43.5 -56.5q-18 0 -18 25q0 6 3 44.5t3 66.5v1175q0 34 -14.5 54.5t-35 26.5t-40.5 8.5t-34.5 7.5t-14.5 16zM313 217q0 -55 46 -102t102.5 -69.5t101.5 -22.5q136 0 213.5 96.5t77.5 236.5q0 101 -38 197t-118 163.5t-184 67.5q-39 0 -86.5 -22.5t-77.5 -47.5 t-33 -36q-4 -16 -4 -78v-383z" />
<glyph unicode="c" horiz-adv-x="909" d="M59 412q0 126 61 233.5t167 170.5t233 63q85 0 164.5 -21.5t83.5 -54.5q2 -23 2 -121q0 -43 -16 -43q-6 0 -12 4t-12 10.5t-10.5 12t-9 12.5t-5.5 8q-93 125 -254 125q-62 0 -110.5 -30t-76 -79.5t-41.5 -105t-14 -113.5q0 -172 97 -287.5t265 -115.5q55 0 107 18.5 t82.5 41t56.5 41t35 18.5q5 0 10.5 -4.5t5.5 -8.5q0 -11 -14.5 -34t-47 -53.5t-77.5 -57.5t-115 -45.5t-149 -18.5q-115 0 -209 61.5t-145.5 161t-51.5 212.5z" />
<glyph unicode="d" d="M49 395q0 122 52 232t152 181t224 71q133 0 240 -72v481q0 34 -16.5 54.5t-40.5 26.5t-48 8.5t-40.5 7.5t-16.5 16q0 18 18 22q67 16 125.5 42t91.5 43.5t52 17.5q9 0 16.5 -9.5t7.5 -23.5v-1401q0 -35 109 -51q18 -3 21 -9q1 -4 1 -9q0 -11 -37 -20t-92 -9 q-31 0 -77.5 -8.5t-51.5 -8.5q-22 0 -22 31v113h-4q-53 -67 -133 -105.5t-168 -38.5q-108 0 -192.5 61t-127.5 155.5t-43 201.5zM168 481q0 -51 14 -108t42 -111.5t65 -98.5t88.5 -70.5t107.5 -26.5q61 0 107.5 17t72.5 44.5t39 57t13 59.5v350q0 110 -78 173.5t-193 63.5 q-70 0 -124.5 -30.5t-87 -81t-49.5 -111.5t-17 -127z" />
<glyph unicode="e" horiz-adv-x="909" d="M68 397q0 133 46 241t138.5 174.5t216.5 66.5q72 0 134 -26t102.5 -65t70 -85t42.5 -84.5t13 -65.5q0 -24 -12.5 -29.5t-49.5 -5.5h-7h-545q0 -97 22.5 -175t57.5 -126t80 -80t87.5 -44.5t82.5 -12.5q60 0 112.5 16.5t81.5 36.5t55 36.5t40 16.5q8 0 8 -14 q0 -18 -31.5 -50.5t-80 -64.5t-117.5 -56t-134 -24q-88 0 -160.5 31t-118 78t-77 105t-44.5 110t-13 96zM217 573h404q22 0 31.5 9t9.5 32q0 85 -71 151t-157 66q-90 0 -153.5 -83.5t-63.5 -174.5z" />
<glyph unicode="f" horiz-adv-x="569" d="M27 768l12 84h127q0 239 121 432q28 43 74 90t118 88t139 41q29 0 56.5 -10t27.5 -33q0 -44 -7.5 -94.5t-22.5 -50.5q-7 0 -12.5 9t-12.5 21.5t-18 25t-36 21.5t-61 9q-76 0 -130.5 -65.5t-69.5 -145.5q-4 -23 -7 -46t-5 -50t-3 -46.5t-1.5 -51.5t-0.5 -46.5v-50.5v-47 h158q23 0 41 8.5t28 17.5t11 9q14 0 14 -17q0 -8 -12 -28l-41 -74h-199v-623q0 -45 23 -68.5t50 -27.5t50 -10.5t23 -20.5q0 -7 -2.5 -11.5t-8 -6t-10 -1.5t-12 0.5t-10.5 0.5h-318q-1 0 -7 -0.5t-9 0t-7.5 1.5t-6.5 3.5t-2 7.5q0 14 15.5 23t33.5 14.5t33.5 26t15.5 53.5 v639h-139z" />
<glyph unicode="g" horiz-adv-x="909" d="M49 -199q0 58 44.5 103.5t105.5 68.5q-40 16 -59 60.5t-19 101.5q0 37 26.5 78t51.5 64.5t28 23.5v4q-62 37 -96.5 106t-34.5 146q0 138 96 230t234 92q74 0 134.5 -20.5t99 -41t59.5 -20.5q33 0 58 20.5t36.5 45t22.5 45t20 20.5q16 0 16 -33q0 -55 -4 -88t-18.5 -55.5 t-27 -32.5t-43.5 -29q-2 -2 -4 -3t-4.5 -2.5t-4.5 -2.5q14 -61 14 -109q0 -142 -98 -227.5t-242 -85.5q-62 0 -99.5 8t-41.5 8q-36 0 -67 -37.5t-31 -74.5q0 -30 14 -46q47 -52 227 -52q155 0 190 -3q166 -15 202 -110q12 -31 12 -70q0 -41 -13.5 -81t-47 -80t-83.5 -70 t-129 -49t-178 -19q-54 0 -110 11t-111 34t-90 68t-35 104zM150 -197q0 -39 16 -70t42 -50t61 -31t68.5 -16.5t70.5 -4.5q99 0 170.5 20.5t106 54t49 65t14.5 63.5q0 60 -54.5 75.5t-228.5 20.5q-76 3 -125.5 8t-68 9t-21.5 4q-43 0 -71.5 -50.5t-28.5 -97.5zM238 582 q0 -70 19.5 -130t68 -103.5t120.5 -43.5q101 0 151 68.5t50 175.5q0 51 -11.5 99.5t-35 91t-65.5 68.5t-97 26t-95 -20t-62.5 -56.5t-32.5 -79.5t-10 -96z" />
<glyph unicode="h" horiz-adv-x="1138" d="M12 1401q0 19 17 22q64 12 121.5 38.5t92 45.5t52.5 19q9 0 16.5 -9.5t7.5 -23.5v-760q154 146 295 146q75 0 135.5 -25.5t98.5 -66t63 -94.5t35 -108t10 -110v-342q0 -36 25.5 -55.5t56.5 -23t56.5 -12t25.5 -24.5q0 -26 -41 -26q-13 0 -70.5 4t-101.5 4 q-47 0 -105.5 -4t-62.5 -4q-32 0 -32 22q0 12 25 23t50 30.5t25 51.5v375q0 72 -19 128.5t-47 88t-64 51.5t-64.5 26.5t-53.5 6.5q-76 0 -158 -56t-82 -129v-432q0 -49 18.5 -79.5t45 -41t53.5 -15t45.5 -8.5t18.5 -14q0 -18 -7.5 -23t-27.5 -5q-19 0 -97 4t-112 4 q-35 0 -104 -4t-82 -4q-21 0 -21 20q0 13 19 22t41.5 15t41.5 27t19 55v1157q0 29 -11.5 48t-29.5 26.5t-38 12t-38 5.5t-29.5 6t-11.5 15z" />
<glyph unicode="i" horiz-adv-x="569" d="M104 770q0 19 19 23q56 16 101.5 42t72 43t45.5 17q10 0 17.5 -9.5t7.5 -23.5v-735q0 -29 16.5 -46.5t40.5 -23.5t47.5 -10t40 -11.5t16.5 -21.5q0 -22 -39 -22q-16 0 -79.5 4t-110.5 4q-38 0 -86.5 -4t-54.5 -4q-29 0 -31 22q0 12 6.5 17t16.5 5t22 7t22 18t16.5 40 t6.5 73v483q0 34 -11.5 54.5t-28.5 26.5t-33.5 8.5t-28 7.5t-11.5 16zM205 1192q0 18 34 63t52 45q19 0 52.5 -44t33.5 -64t-33.5 -63.5t-52.5 -43.5q-18 0 -52 44.5t-34 62.5z" />
<glyph unicode="j" horiz-adv-x="569" d="M16 -324q0 82 41 82q23 0 58 -42t61 -42q7 0 16 9.5t17 35t8 60.5v878q0 29 -11.5 48t-28.5 26.5t-37 12t-37 5.5t-28.5 6t-11.5 15q0 9 7 13.5t26 9.5q68 16 120 42t80 43t46 17q10 0 17.5 -9.5t7.5 -23.5v-850q0 -65 -15 -134t-45 -135t-84.5 -108.5t-124.5 -42.5 q-44 0 -63 21t-19 63zM205 1192q0 18 34 63t52 45q19 0 52.5 -44t33.5 -64t-33.5 -63.5t-52.5 -43.5q-18 0 -52 44.5t-34 62.5z" />
<glyph unicode="k" d="M16 1401q0 18 19 22q74 16 129.5 42t84 43.5t46.5 17.5q9 0 16.5 -9.5t7.5 -23.5v-1057l261 236q7 6 18.5 16t17.5 15t15 13t13.5 13.5t9 12t6.5 12.5t2 12q0 14 -15 23t-32.5 11.5t-32.5 9.5t-15 19q0 23 19 23q8 0 54 -4t85 -4q27 0 75 4t74 4q6 0 15.5 0.5t15 0 t13 -0.5t12 -1.5t8.5 -4t6 -7t2 -10.5q0 -15 -20.5 -19.5t-64 -15.5t-81.5 -36q-62 -41 -161.5 -133t-133.5 -119q90 -128 326 -395q28 -31 67 -47.5t69 -18.5t51.5 -8.5t21.5 -20.5q0 -24 -21 -24q-5 0 -50 4t-97 4q-30 0 -73 -4t-52 -4q-36 44 -152 175t-194 245l-62 -56 v-198q0 -48 26.5 -73t58.5 -28.5t58.5 -11.5t26.5 -25q0 -18 -10.5 -23t-36.5 -5q-3 0 -60 4t-128 4q-56 0 -106 -4t-54 -4q-24 0 -24 26q0 10 15.5 18t34.5 16t34.5 28.5t15.5 50.5v1157q0 29 -11.5 48t-28.5 26.5t-37 12t-37 5.5t-28.5 6t-11.5 15z" />
<glyph unicode="l" horiz-adv-x="569" d="M74 1401q0 18 18 22q68 16 120 42t80 43.5t46 17.5q9 0 16.5 -9.5t7.5 -23.5v-1335q0 -48 26.5 -73t58.5 -28.5t58.5 -11.5t26.5 -25q0 -18 -10.5 -23t-36.5 -5q-6 0 -69 4t-119 4q-60 0 -110 -4l-50 -4q-24 0 -24 26q0 10 15.5 18t34.5 16t34.5 28.5t15.5 50.5v1157 q0 34 -14.5 54.5t-34.5 26.5t-40.5 8.5t-35 7.5t-14.5 16z" />
<glyph unicode="m" horiz-adv-x="1593" d="M51 770q0 19 19 23q63 16 112.5 42t76.5 43t46 17q10 0 17.5 -9.5t7.5 -23.5v-119q119 136 243 136q95 0 156.5 -34.5t108.5 -115.5q50 74 117 112t167 38q293 0 293 -366v-9v-346q0 -39 16.5 -62.5t39.5 -31.5t46 -12t39.5 -10t16.5 -22q0 -17 -8.5 -22.5t-26.5 -5.5 q-6 0 -68 4t-112 4q-49 0 -98 -4t-54 -4q-24 0 -24 26q0 10 13 18.5t29 16t29 28t13 50.5v397q0 51 -10.5 96.5t-33.5 87.5t-66.5 66.5t-102.5 24.5q-65 0 -123 -43.5t-58 -71.5v-530q0 -39 16.5 -62.5t39.5 -31.5t46 -12t39.5 -10t16.5 -22q0 -17 -8.5 -22.5t-26.5 -5.5 q-6 0 -68 4t-112 4q-49 0 -97.5 -4t-53.5 -4q-25 0 -25 26q0 10 13 18.5t29 16t29 28t13 50.5v432q0 115 -58 177.5t-141 62.5q-19 0 -42 -4.5t-50.5 -17.5t-49.5 -32.5t-37 -52t-15 -73.5v-465q0 -48 24.5 -73t54 -28.5t54 -11.5t24.5 -25t-8.5 -22.5t-25.5 -5.5 q-6 0 -68.5 4t-112.5 4q-49 0 -97.5 -4t-53.5 -4q-25 0 -25 26q0 10 13 18.5t29 16t29 28t13 50.5v526q0 34 -13.5 54.5t-32.5 26.5t-37.5 8.5t-32 7.5t-13.5 16z" />
<glyph unicode="n" horiz-adv-x="1138" d="M29 770q0 19 18 23q73 16 128 42t83.5 43t46.5 17q10 0 17.5 -9.5t7.5 -23.5v-135q-1 -5 5 0q2 3 10 11q117 127 251 140q15 1 31 1q79 0 140 -25.5t96.5 -64t58.5 -91.5t31 -101.5t8 -100.5v-338q0 -48 25 -73t54.5 -28.5t54.5 -11.5t25 -25t-8.5 -22.5t-26.5 -5.5 q-4 0 -61.5 4t-116.5 4q-45 0 -92.5 -4t-54.5 -4q-21 0 -29 4.5t-8 19.5q0 11 9 16.5t22 10.5t26 14t22 32.5t9 60.5v382q0 40 -14.5 83t-42.5 82.5t-76 65t-107 25.5q-60 0 -110 -20t-76.5 -47.5t-41 -52.5t-13.5 -39v-471q0 -39 18.5 -62.5t45 -31.5t53 -12t45 -10.5 t18.5 -21.5q0 -18 -10 -23t-35 -5q-7 0 -66 4t-129 4q-65 0 -118.5 -4t-55.5 -4q-21 0 -29 4.5t-8 19.5q0 11 12.5 16.5t30.5 10.5t35.5 14t30 32.5t12.5 60.5v507q0 34 -15.5 54.5t-37.5 26.5t-44.5 8.5t-38 7.5t-15.5 16z" />
<glyph unicode="o" d="M61 412q0 125 60 232t165.5 171t231.5 64q53 0 107 -10.5t116.5 -41.5t110 -79t79.5 -132.5t32 -193.5q0 -189 -127 -317t-316 -128q-204 0 -331.5 116t-127.5 319zM205 483q0 -63 11.5 -125.5t37.5 -124t63.5 -108.5t95 -76t126.5 -29q133 0 206.5 92.5t73.5 278.5 q0 66 -11 127.5t-36 119.5t-62.5 101t-94.5 69t-128 26q-72 0 -128 -30t-88.5 -80.5t-49 -111.5t-16.5 -129z" />
<glyph unicode="p" d="M16 770q0 19 19 23q68 16 120 42t80 43t46 17q9 0 16.5 -9.5t7.5 -23.5v-119q145 136 281 136q117 0 201.5 -58t124.5 -150.5t40 -207.5q0 -59 -14.5 -122.5t-48 -129.5t-82.5 -117.5t-124.5 -84t-166.5 -32.5q-99 0 -211 56v-297q0 -46 29.5 -70.5t65 -28.5t65 -11.5 t29.5 -22.5q0 -17 -9 -22t-30 -5q-8 0 -33.5 2t-72.5 4t-107 2q-47 0 -102.5 -4t-59.5 -4q-31 0 -31 23q0 14 11 23t26.5 15.5t31.5 16.5t27 32.5t11 57.5v913q0 34 -14.5 54.5t-35 26.5t-41 8.5t-35 7.5t-14.5 16zM305 213q0 -81 79 -133.5t187 -52.5q68 0 121 30.5 t84.5 80.5t47.5 109t16 122q0 73 -19 143.5t-55 132t-98 99.5t-140 38q-59 0 -103.5 -16.5t-66.5 -39t-35 -47t-16 -40t-2 -18.5v-408z" />
<glyph unicode="q" d="M51 387q0 124 56.5 236t161.5 184t231 72q54 0 100.5 -10t75 -24.5t49.5 -28.5t32.5 -24t14.5 -10q5 0 39 56.5t49 56.5q19 0 19 -25v-1149q0 -33 21.5 -53t47 -26t47 -15.5t21.5 -23.5q0 -27 -35 -27q-5 0 -56 4t-108 4q-45 0 -82 -2t-58 -4t-26 -2q-30 0 -30 21 q0 13 16 21t35.5 13t37 22t19.5 46v430h-4q-54 -71 -137 -111.5t-174 -40.5q-107 0 -191 59t-128 151.5t-44 199.5zM176 479q0 -51 9.5 -104t33.5 -109.5t60.5 -100t96 -71.5t134.5 -28q72 0 145.5 54t73.5 111v441q0 13 -18 38.5t-49.5 54t-85 50t-113.5 21.5 q-66 0 -122 -33.5t-91 -86.5t-54.5 -115t-19.5 -122z" />
<glyph unicode="r" horiz-adv-x="681" d="M35 770q0 8 8.5 14.5t17.5 8.5q68 16 120 42t80 43t46 17q10 0 17.5 -9.5t7.5 -23.5v-153h4q63 87 96 118q57 51 107 52q34 0 84.5 -32.5t50.5 -60.5q0 -23 -27.5 -57.5t-46.5 -34.5q-15 0 -54.5 23.5t-80.5 23.5q-55 0 -94 -45.5t-39 -74.5v-449q0 -45 13.5 -73 t33.5 -38t44 -14.5t44 -4.5t33.5 -6.5t13.5 -21.5q0 -13 -7.5 -17.5t-25.5 -4.5q-4 0 -64 4t-128 4q-60 0 -103.5 -2t-63.5 -4t-22 -2q-22 0 -22 18q0 14 16 25t36 19t36 27.5t16 47.5v528q0 34 -15 54.5t-37 26.5t-43.5 8.5t-36.5 7.5t-15 16z" />
<glyph unicode="s" horiz-adv-x="681" d="M66 224v17v11q0 8 2 22.5t7.5 20.5t14.5 6q11 0 20.5 -28t22 -67.5t32.5 -79t63.5 -67.5t105.5 -28q78 0 130 45.5t52 122.5q0 23 -5.5 42t-18 35t-23 27t-32.5 23.5t-33.5 18.5t-38 18t-35.5 16q-7 4 -33 16.5t-35.5 17.5t-33.5 17.5t-34 20t-29 21.5t-28 25t-22 27.5 t-18.5 32t-10 35.5t-4.5 41q0 118 78.5 182t197.5 64q39 0 112 -14t89 -34q10 -13 10 -100q0 -10 0.5 -21.5t0.5 -18.5v-14.5t-1.5 -11.5t-4 -7.5t-6.5 -5t-11 -1.5q-5 0 -13 18.5t-22 44.5t-35.5 52t-62 44.5t-92.5 18.5q-62 0 -103 -35t-41 -96q0 -52 54.5 -92t213.5 -104 q90 -38 130 -93t40 -151q0 -116 -81 -198.5t-195 -82.5q-62 0 -108.5 15t-74.5 30t-46 15q-34 0 -39.5 21t-5.5 143v23z" />
<glyph unicode="t" horiz-adv-x="681" d="M66 782q0 7 14.5 22t56.5 56t84 88q15 18 33 44t28 38t17 12q20 0 23.5 -32t3.5 -158h225q23 0 41 8.5t28 17.5t11 9q14 0 14 -17q0 -8 -12 -28l-41 -74h-266v-596q3 -61 41 -92t102 -31q47 0 83 11.5t57 23.5t34 12q16 0 16 -18q0 -12 -20 -29t-52.5 -33t-81 -27.5 t-99.5 -11.5q-230 0 -230 238v553q-76 0 -93 2t-17 12z" />
<glyph unicode="u" d="M39 807q0 18 37 18q60 0 110 13q57 10 74 10q10 0 23.5 -12t13.5 -37v-518v-6q-1 -57 17 -101q18 -46 43.5 -69t57 -36.5t50 -16.5t31.5 -3q83 0 151.5 49t71.5 97v534q0 26 -17 38t-37.5 12t-37.5 6t-17 22q0 18 37 18q61 0 111 13q58 10 73 10q10 0 23.5 -12t13.5 -37 v-709q0 -22 32 -30.5t64.5 -15.5t32.5 -26q0 -18 -75 -18q-49 0 -111 -10q-50 -13 -70 -13q-18 0 -18 31v113h-4q-46 -71 -117.5 -107.5t-155.5 -36.5q-128 0 -213.5 74t-85.5 201v477q0 26 -17 38t-37 12t-37 6t-17 22z" />
<glyph unicode="v" d="M37 831q0 9 2 13.5t12 8t29 3.5q8 0 51 -4t123 -4q44 0 82.5 4t44.5 4h26t14 -5.5t7 -16.5q0 -13 -18.5 -20.5t-40 -10t-40 -13.5t-18.5 -32q0 -16 35 -101l201 -491l137 295q5 10 23.5 47.5t26 55t19.5 48t16.5 57t4.5 52.5q0 39 -20 58t-43.5 20t-43.5 7.5t-20 22.5 q0 17 12 22t37 5q21 0 62.5 -4t64.5 -4q17 0 53 4t54 4q55 0 55 -31q0 -9 -12 -15t-28 -10t-34 -16.5t-28 -33.5l-314 -664q-9 -20 -18.5 -43t-13.5 -32.5t-10 -19t-12 -12t-15 -2.5q-8 0 -14 3.5t-10.5 10.5t-7 12t-5.5 13.5t-4 10.5l-309 706q-13 31 -34 48.5t-37.5 21 t-29 10t-12.5 18.5z" />
<glyph unicode="w" horiz-adv-x="1366" d="M25 836q0 20 24 20q25 0 65 -4t64 -4q22 0 77 4t93 4q19 0 19 -27q0 -9 -11 -16t-24 -12.5t-24 -18.5t-11 -32q0 -44 35 -144l147 -430l195 408l-68 168q-9 24 -35.5 37t-48.5 20t-22 18q0 14 12.5 21.5t26.5 7.5q21 0 65 -4t66 -4q21 0 65 4t66 4q51 0 51 -29 q0 -11 -18.5 -19.5t-37 -21t-18.5 -32.5q0 -31 41 -152l144 -426l180 449q16 42 16 98q0 27 -18.5 44.5t-41 24t-41 15.5t-18.5 22q0 10 9 17t18 8.5t16 1.5q78 -8 119 -8q18 0 53 4t52 4q32 0 32 -25q0 -10 -9 -17.5t-21 -13.5t-27 -22t-25 -39l-270 -643q-2 -5 -8.5 -23 t-12.5 -32t-14.5 -30t-18.5 -25t-20 -9q-11 0 -19.5 5.5t-14.5 17.5t-10 22.5t-9.5 30.5t-9.5 31l-152 422l-198 -426q-2 -4 -12 -29.5t-16.5 -37t-19.5 -24t-28 -12.5q-9 0 -16.5 6t-15.5 23.5t-13 30.5t-15.5 45.5t-17.5 50.5l-188 539q-19 55 -40.5 88.5t-37 43 t-28.5 12.5t-20 6t-7 14z" />
<glyph unicode="x" d="M45 18q0 11 14 18t35.5 14t58 33t72.5 69l215 251l-237 322q-22 31 -62.5 49t-68 28t-27.5 25q0 19 9.5 24t31.5 5q4 0 49 -4t92 -4q54 0 106.5 4t59.5 4q8 0 16.5 -5.5t8.5 -14.5q0 -14 -17.5 -21.5l-35 -15t-17.5 -21.5q0 -8 1.5 -13.5t6.5 -15t12 -19.5t22.5 -30 t32.5 -42t46.5 -61.5t60.5 -82.5l156 197q16 21 16 51q0 16 -15 25t-33 11.5t-33 10t-15 20.5q0 27 35 27q5 0 20.5 -2t48 -4t78.5 -2q41 0 81 4t44 4q29 0 29 -27q0 -12 -18.5 -16.5t-60 -26t-83.5 -69.5l-217 -250l273 -356q24 -32 60.5 -48.5t59.5 -24t23 -22.5 q0 -24 -31 -24q-5 0 -52.5 4t-104.5 4q-56 0 -103.5 -4t-50.5 -4q-37 0 -37 20q0 10 10.5 17.5t22.5 11.5t22.5 14.5t10.5 26.5q0 25 -35 70l-158 206l-162 -200q-18 -24 -18 -47q0 -26 16.5 -41.5t35.5 -19.5t35.5 -12t16.5 -22q0 -24 -32 -24q-2 0 -51 4t-109 4 q-48 0 -91 -4l-44 -4q-25 0 -25 26z" />
<glyph unicode="y" horiz-adv-x="909" d="M23 831q0 15 9 20t31 5q20 0 67.5 -4t76.5 -4q41 0 90 4t61 4q24 0 33.5 -5t9.5 -22q0 -14 -18 -20t-40 -7.5t-40 -15t-18 -41.5q0 -33 13 -49q1 -2 1.5 -1t-0.5 5l-4 -4l219 -557l158 463q24 71 24 107q0 38 -20.5 60t-45 27.5t-45 14.5t-20.5 23t15 18t47 4q9 0 45 -4 t69 -4q27 0 62.5 4t42.5 4q39 0 39 -25q0 -15 -12 -21.5t-28 -9t-36.5 -24t-34.5 -63.5l-389 -1123q-2 -6 -68 -6q-75 0 -75 15q0 14 29 53t64 82.5t64 105.5t29 117q0 14 -2 27.5t-8 30.5t-8.5 25t-12 29.5t-10.5 24.5l-268 662q-6 15 -22.5 26.5t-32.5 17t-28.5 13.5 t-12.5 18z" />
<glyph unicode="z" horiz-adv-x="681" d="M59 27q0 11 19 43l416 653h-281q-34 0 -54.5 -11.5t-28 -28t-12.5 -33.5t-13.5 -28.5t-24.5 -11.5q-19 0 -19 25q0 28 23.5 120.5t44.5 92.5h449q20 0 29 -7t9 -26q0 -10 -14.5 -35.5t-36 -56.5t-24.5 -35l-363 -567h291q44 0 70.5 22.5t34 50t17.5 50t25 22.5 q21 0 21 -18t-27.5 -101.5t-27.5 -95.5q0 -20 -12 -35.5t-42 -15.5h-438q-31 0 -31 27z" />
<glyph unicode="{" horiz-adv-x="569" d="M12 608v4q193 29 193 215v451q0 45 6.5 78t28.5 67t60 55t103 34.5t156 13.5v-4q-111 -30 -151.5 -85t-40.5 -161v-391q0 -122 -42 -186t-167 -87v-4q65 -11 107.5 -33.5t64 -58.5t29.5 -76.5t8 -99.5v-393q0 -106 40.5 -161t151.5 -85v-4q-91 0 -156 13.5t-103 34.5 t-60 55t-28.5 67t-6.5 78v450q0 100 -53 151.5t-140 61.5z" />
<glyph unicode="|" horiz-adv-x="1241" d="M565 0v1526h111v-1526h-111z" />
<glyph unicode="}" horiz-adv-x="569" d="M10 -299q112 30 152.5 85.5t40.5 160.5v393q0 59 8 99.5t29.5 76.5t64 58.5t107.5 33.5v4q-125 23 -167 87t-42 186v391q0 105 -40.5 160.5t-152.5 85.5v4q76 0 134 -8.5t96.5 -26t63.5 -38.5t38 -51t18 -58.5t5 -65.5v-451q0 -186 192 -215v-4q-87 -10 -139.5 -61.5 t-52.5 -151.5v-450q0 -37 -5 -65.5t-18 -58.5t-38 -51t-63.5 -38.5t-96.5 -26t-134 -8.5v4z" />
<glyph unicode="~" horiz-adv-x="1241" d="M96 563q62 95 124 145t155 50q71 0 227 -62q149 -63 205 -63q40 0 75.5 20.5t55.5 43t47 61.5l84 -47q-25 -36 -40.5 -56.5t-42.5 -48.5t-50.5 -43t-56.5 -26t-70 -11q-32 0 -72 10.5t-68.5 20.5t-123.5 47q-10 3 -40 14t-47 16.5t-42 11t-45 5.5q-65 0 -107 -36.5 t-86 -106.5z" />
<glyph unicode="&#xa1;" horiz-adv-x="681" d="M209 831q0 12 7 18t25.5 17.5t34.5 28.5q14 15 24 30.5t14 22.5t10 11t16 4t16.5 -4t10 -11t14.5 -22.5t25 -30.5q16 -17 33.5 -28.5t24.5 -17.5t7 -18t-7 -19t-25 -19.5t-33 -30.5q-18 -16 -29.5 -33t-17.5 -23t-19 -6q-12 0 -18 6t-17.5 23t-28.5 33q-13 14 -27.5 25.5 t-22 16t-12.5 11.5t-5 16zM258 -346l55 825q7 60 27 60t27 -60l55 -825q3 -48 -16 -64t-66 -16t-66 16t-16 64z" />
<glyph unicode="&#xa2;" d="M109 412q0 193 134 330t326 137q49 0 66 -5l88 269h78l-92 -281q38 -6 72.5 -21.5t35.5 -37.5q2 -23 2 -121q0 -43 -16 -43q-6 0 -12 4t-12 10.5t-10.5 12t-9 12.5t-5.5 8q-46 58 -78 76l-213 -647q63 -35 158 -35q55 0 106.5 18.5t82 41t56.5 41t35 18.5q5 0 11 -4.5 t6 -8.5q0 -11 -14.5 -34t-47.5 -53.5t-78 -57.5t-115 -45.5t-149 -18.5q-45 0 -92 13l-100 -303h-76l104 329q-109 47 -175 156.5t-66 239.5zM258 483q0 -100 35.5 -190t105.5 -137l211 639q-59 16 -110 16q-62 0 -110.5 -30t-76 -79.5t-41.5 -105t-14 -113.5z" />
<glyph unicode="&#xa3;" d="M16 117q0 64 43.5 103.5t108.5 39.5q60 0 160 -45q20 48 20 139q0 156 -88 346h-174q-31 0 -31 31q0 33 31 33h158q-33 109 -33 231q0 118 40.5 217.5t127.5 164.5t207 65q61 0 118 -18.5t93.5 -44.5t58 -53.5t21.5 -47.5q0 -26 -42 -77.5t-69 -51.5q-23 0 -23 102 q0 14 -11.5 36.5t-32 46.5t-55.5 41.5t-75 17.5q-110 0 -167.5 -78.5t-57.5 -192.5q0 -55 11 -111.5t34.5 -138.5t30.5 -108h180q31 0 31 -33q0 -31 -31 -31h-164q1 -6 13 -52t15 -62t8 -49.5t5 -61.5q0 -137 -80 -297q130 -53 236 -53q78 0 134.5 13t94.5 55q32 35 49 81 t19.5 78t10.5 55t26 23q12 0 18 -7.5t6 -14.5q0 -100 -30 -183t-80 -136.5t-113 -82.5t-131 -29q-135 0 -287 123q-66 -123 -188 -123q-60 0 -103 40t-43 100zM76 117q0 -35 22 -57.5t56 -22.5q81 0 141 98q-81 66 -131 66q-39 0 -63.5 -22.5t-24.5 -61.5z" />
<glyph unicode="&#xa4;" d="M78 256l102 102q-100 125 -100 277q0 74 26.5 147.5t73.5 130.5l-102 101l55 55l100 -100q121 100 281 100q76 0 150.5 -26t128.5 -74l100 100l55 -55l-100 -101q98 -121 98 -280t-98 -275l100 -102l-55 -53l-100 100q-123 -102 -285 -102q-145 0 -275 102l-100 -100z M182 637q0 -136 97 -235t233 -99q137 0 234.5 96.5t97.5 233.5q0 140 -95.5 237t-234.5 97q-137 0 -234.5 -97t-97.5 -233z" />
<glyph unicode="&#xa5;" d="M4 1411q0 11 7 21t16 10q22 0 82.5 -4t107.5 -4q21 0 60.5 4t58.5 4q29 0 29 -21q0 -14 -19 -26t-38 -28.5t-19 -41.5q0 -28 33 -92l155 -299q5 -8 14 -25.5t14 -27t13.5 -23.5t14.5 -22t14 -16t16 -11.5t17 -3.5q8 0 21.5 21.5t29.5 54.5t16 34l154 295q22 45 22 95 q0 34 -19.5 51.5t-43 20.5t-43 10.5t-19.5 23.5q0 31 35 31q21 0 62 -4t61 -4q24 0 72 4t73 4q7 0 13 -8.5t6 -16.5q0 -15 -13.5 -24t-33.5 -22t-31 -32l-291 -548q-3 -6 -12 -22.5t-14 -27.5t-10 -30t-5 -39h183v-90h-183v-121h183v-90h-183v-174q0 -50 17.5 -81t42 -43 t49 -19t42 -16t17.5 -26q0 -12 -11 -16t-36 -4q-10 0 -95.5 4t-129.5 4q-40 0 -82 -2t-69.5 -4t-32.5 -2q-16 0 -23.5 4t-7.5 20q0 15 16.5 23t39.5 13t46 14.5t39.5 34.5t16.5 65v205h-181v90h181v121h-181v90h181q0 13 -6 29t-18.5 38.5t-14.5 26.5l-287 561 q-14 28 -44 42.5t-52.5 22t-22.5 19.5z" />
<glyph unicode="&#xa6;" horiz-adv-x="1241" d="M565 0v610h111v-610h-111zM565 915v611h111v-611h-111z" />
<glyph unicode="&#xa7;" d="M150 655q0 122 77 191.5t195 56.5l4 4q-90 67 -144.5 140t-54.5 165q0 116 85.5 182t205.5 66q62 0 119 -23t97 -72t40 -112q0 -45 -32.5 -74.5t-77.5 -29.5q-36 0 -62.5 28t-26.5 64q0 25 17 47.5t34 39t17 26.5q0 32 -45 47.5t-84 15.5q-84 0 -128 -44.5t-44 -102.5 q0 -15 2 -28.5t9 -27.5t10.5 -23.5t16 -24.5t16.5 -20.5t21 -21t19.5 -18.5t22 -20t20.5 -17l164 -135q41 -35 66 -57.5t60 -60.5t55 -70.5t35 -75.5t15 -86q0 -120 -75 -192.5t-191 -59.5l-4 -4q189 -141 189 -299q0 -119 -85 -187.5t-212 -68.5q-44 0 -91.5 12.5t-90.5 36 t-71 63t-28 86.5q0 45 30 81t74 36q43 0 74 -26.5t31 -69.5q0 -20 -17.5 -42.5t-35 -39t-17.5 -23.5q0 -33 52.5 -52t99.5 -19q68 0 120 40.5t52 106.5q0 51 -29 99.5t-75.5 88.5t-103 81t-113 85t-103 92.5t-75.5 111.5t-29 134zM252 717q0 -40 24 -82.5t47.5 -66.5 t63.5 -60q2 -2 27 -24t31.5 -27t29.5 -23.5t35.5 -24.5t32.5 -16.5t38 -14t37 -3.5q69 0 111.5 41t42.5 110q2 19 -5.5 40.5t-16.5 37t-30.5 38.5t-32 32.5t-37 32.5t-29.5 26q-45 41 -69 60.5t-70 43t-87 23.5q-61 0 -102 -41.5t-41 -101.5z" />
<glyph unicode="&#xa8;" horiz-adv-x="681" d="M78 1110q0 19 34 64t52 45q19 0 52.5 -44.5t33.5 -64.5t-33.5 -63t-52.5 -43q-18 0 -52 44t-34 62zM434 1110q0 20 33.5 64.5t52.5 44.5q18 0 51 -44.5t33 -64.5t-33 -63t-51 -43q-19 0 -52.5 43t-33.5 63z" />
<glyph unicode="&#xa9;" horiz-adv-x="1529" d="M23 715q0 151 57 288t155 237.5t236.5 160t292.5 59.5q151 0 287.5 -57.5t236 -155t158.5 -234t59 -288.5q0 -154 -58 -292.5t-157 -238.5t-236 -158.5t-290 -58.5q-151 0 -289 59.5t-236.5 159.5t-157 236t-58.5 283zM100 717q0 -177 87.5 -329t240.5 -242.5t336 -90.5 q136 0 258.5 51.5t211 139.5t141 211t52.5 260q0 183 -87 335.5t-239.5 241t-336.5 88.5t-337 -88.5t-240 -241t-87 -335.5zM326 717q0 204 123.5 331.5t324.5 127.5q135 0 309 -62v-235h-63q-5 105 -64.5 167t-162.5 62q-100 0 -169 -54.5t-98.5 -135t-29.5 -177.5 q0 -74 19.5 -143t57 -125.5t98.5 -90.5t136 -34q87 0 139.5 36.5t108.5 117.5l53 -17q-38 -100 -141.5 -157.5t-216.5 -57.5q-190 0 -307 127t-117 320z" />
<glyph unicode="&#xaa;" horiz-adv-x="806" d="M51 1309q0 7 6 20t27.5 33.5t55 37.5t98 29.5t147.5 12.5q103 0 173.5 -38.5t70.5 -100.5v-248v-13.5v-15t0.5 -15t2 -15.5t4 -14t6.5 -14t9.5 -11t13 -9t18 -5.5t22.5 -2.5q8 0 24.5 2t18.5 2q8 0 8 -14q0 -11 -28.5 -20t-76.5 -9q-28 0 -55.5 17.5t-44.5 46.5 q-68 -33 -123.5 -48.5t-138.5 -15.5q-121 0 -178.5 26.5t-57.5 90.5q0 16 2.5 28.5t26 39t66.5 46.5t133.5 41.5t216.5 34.5q4 106 -30 142t-128 36q-89 0 -126.5 -13.5t-37.5 -47.5q0 -9 4 -28t4 -25q0 -10 -39 -10q-38 0 -66 11t-28 36zM74 711v75h606v-75h-606zM184 1032 q0 -38 44 -57t114 -19q45 0 100.5 29.5t55.5 54.5v117q-12 -2 -50.5 -8.5t-68 -11.5t-68.5 -15.5t-64.5 -21.5t-44 -29t-18.5 -39z" />
<glyph unicode="&#xab;" d="M170 465q0 16 14 29t52 39t69 53q37 32 89.5 84t82.5 79t41 27q12 0 12 -18q0 -24 -63 -116.5t-145 -176.5q82 -84 145 -176.5t63 -116.5q0 -18 -12 -18q-11 0 -41 27t-82.5 79t-89.5 84q-31 27 -69 53t-52 39t-14 29zM492 465q0 16 14 29t52 39t69 53q37 32 89.5 84 t82.5 79t41 27q12 0 12 -18q0 -24 -63.5 -116t-145.5 -177q82 -85 145.5 -177t63.5 -116q0 -18 -12 -18q-11 0 -41 27t-82.5 79t-89.5 84q-31 27 -69 53t-52 39t-14 29z" />
<glyph unicode="&#xac;" horiz-adv-x="1241" d="M166 713v110h907v-551h-110v441h-797z" />
<glyph unicode="&#xad;" horiz-adv-x="681" d="M112 352l1 8v19q0 44 7 54t48 24l311 110q9 3 25.5 10.5t27.5 11t17 3.5q7 0 11 -3.5t5.5 -11t2 -12t0.5 -13.5l-1 -9v-18q0 -42 -6.5 -51t-48.5 -23l-311 -111q-9 -3 -25.5 -10.5t-27.5 -11t-17 -3.5q-7 0 -11 3t-5.5 9.5t-2 11t-0.5 13.5z" />
<glyph unicode="&#xae;" horiz-adv-x="1529" d="M23 715q0 151 57 288t155 237.5t236.5 160t292.5 59.5q151 0 287.5 -57.5t236 -155t158.5 -234t59 -288.5q0 -154 -58 -292.5t-157 -238.5t-236 -158.5t-290 -58.5q-151 0 -289 59.5t-236.5 159.5t-157 236t-58.5 283zM100 717q0 -177 87.5 -329t240.5 -242.5t336 -90.5 q136 0 258.5 51.5t211 139.5t141 211t52.5 260q0 183 -87 335.5t-239.5 241t-336.5 88.5t-337 -88.5t-240 -241t-87 -335.5zM385 315v39q61 0 80.5 10t19.5 54v665q-1 9 -3.5 16t-4.5 12.5t-7.5 9.5t-8 6.5t-10.5 4.5t-11 3t-13.5 1.5t-13 0.5h-14.5h-14v45h346 q52 0 92.5 -3.5t89 -16.5t80.5 -35t54 -63t22 -97q0 -92 -70 -158t-163 -72v-4q52 -9 90 -51.5t61.5 -96.5t46 -106.5t56 -88.5t79.5 -36v-39h-57q-45 0 -64 0.5t-44.5 7.5t-35.5 15.5t-27.5 33.5t-29.5 52.5t-34 79.5q-7 16 -18 45t-16.5 42t-16 34.5t-19 31t-23 22.5 t-31 18.5t-39 9.5t-50.5 4h-37v-240q0 -82 11 -98t64 -18q17 0 27 -1v-39h-344zM627 760h32q48 0 81.5 3t71.5 14t61.5 31t39 56t15.5 86q0 183 -199 183q-68 0 -85 -13t-17 -78v-282z" />
<glyph unicode="&#xaf;" horiz-adv-x="681" d="M31 1059v102h620v-102h-620z" />
<glyph unicode="&#xb0;" horiz-adv-x="819" d="M115 1147q-1 121 85.5 208t209.5 87q122 0 208.5 -87t86.5 -208q0 -123 -86.5 -209t-208.5 -86q-123 0 -209 86t-86 209zM215 1147q0 -82 56.5 -138.5t138.5 -56.5q80 0 137 57t57 138q0 79 -57.5 136.5t-138.5 57.5q-79 0 -137 -58t-56 -136z" />
<glyph unicode="&#xb1;" horiz-adv-x="1241" d="M166 0v111h907v-111h-907zM166 608v111h399v366h111v-366h397v-111h-397v-366h-111v366h-399z" />
<glyph unicode="&#xb2;" horiz-adv-x="614" d="M43 588q0 6 12.5 24t44 61.5t60.5 88.5q106 166 162.5 281t56.5 188q0 72 -29 108.5t-100 36.5q-31 0 -60.5 -12.5t-48 -27.5t-37 -27.5t-28.5 -12.5q-6 0 -10 1.5t-6.5 2.5t-3.5 4t-1 4.5v5.5v3q0 16 33 45t92.5 54.5t118.5 25.5q89 0 148 -49t59 -127q0 -62 -49.5 -161 t-109.5 -181.5t-109.5 -150.5t-49.5 -75q0 -6 5.5 -9.5t16.5 -5.5t24 -3t31 -1h33.5t37 0.5t35.5 0.5q53 0 88 10t47 22.5t23 22.5t22 10q20 0 20 -14q0 -7 -34 -59l-62 -94h-401q-2 0 -7 -0.5t-8.5 0t-7.5 1t-6 3t-2 6.5z" />
<glyph unicode="&#xb3;" horiz-adv-x="614" d="M31 645q0 9 5.5 16t12.5 7q6 0 26 -13t56.5 -26t83.5 -13q106 0 165.5 68t59.5 170q0 60 -22.5 98t-54 51.5t-63.5 19t-54.5 9t-22.5 12.5q0 11 27 32t60 43.5t60 59.5t27 76q0 52 -26.5 77.5t-85.5 25.5q-46 0 -80.5 -14.5t-53 -29t-24.5 -14.5q-7 0 -11.5 8.5 t-4.5 14.5q0 28 68.5 73.5t152.5 45.5q79 0 134.5 -40t55.5 -106q0 -68 -44.5 -123.5t-108.5 -74.5l4 -4q86 1 139 -57t53 -144q0 -132 -100 -231t-246 -99q-66 0 -127 29t-61 53z" />
<glyph unicode="&#xb4;" horiz-adv-x="681" d="M195 977l301 299q16 16 25.5 24t25.5 15.5t33 7.5q28 0 46.5 -23.5t18.5 -52.5q0 -17 -14 -34t-28.5 -27t-39.5 -24.5t-31 -18.5l-266 -166h-71z" />
<glyph unicode="&#xb6;" horiz-adv-x="1286" d="M37 1075q0 171 114.5 265t340.5 94h630q28 0 42 -2t27 -16t13 -42q0 -19 -6 -30.5t-20 -16t-24.5 -5.5t-31.5 -1h-131v-1395q0 -27 -1.5 -41.5t-13.5 -29.5t-36 -15q-25 0 -37.5 15t-14 29.5t-1.5 41.5v1411h-135v-1411q0 -19 -1 -30.5t-5.5 -26.5t-16 -22t-29.5 -7 q-25 0 -37.5 15t-14 29.5t-1.5 41.5v676q-86 9 -167 28.5t-163 57.5t-143 89t-99 128t-38 170zM199 1065q0 -67 31 -132t86.5 -118.5t141.5 -89.5t189 -43v657h-61q-387 0 -387 -274z" />
<glyph unicode="&#xb7;" horiz-adv-x="512" d="M125 633q0 12 7.5 18t26 17t34.5 28q14 15 24 30.5t14 22.5t9.5 11t15.5 4t16.5 -4t10 -11t14.5 -22.5t25 -30.5q16 -17 33.5 -28t24.5 -17t7 -18t-7 -19t-25 -20t-33 -31q-18 -16 -29.5 -33t-17.5 -22.5t-19 -5.5q-12 0 -17.5 5.5t-17 22.5t-28.5 33q-16 18 -34.5 31 t-26 20t-7.5 19z" />
<glyph unicode="&#xb8;" horiz-adv-x="681" d="M117 -406l28 62q85 -25 127 -25q44 0 80.5 22.5t36.5 63.5q0 36 -27 59t-63 23q-34 0 -51 -12l-47 10l90 203h71l-61 -135q46 12 70 12q64 0 111.5 -39.5t47.5 -101.5q0 -48 -22.5 -83.5t-60 -53.5t-78.5 -26.5t-86 -8.5q-90 0 -166 30z" />
<glyph unicode="&#xb9;" horiz-adv-x="614" d="M106 1313q0 10 4 16t14 11t20.5 8.5t31 10t37.5 13.5q33 13 67 29.5t52 26.5t20 10q13 0 13 -19q0 -7 -5.5 -31.5t-5.5 -50.5v-628q0 -39 15 -62t37 -29.5t44 -9t37 -7.5t15 -19q0 -15 -47 -15q-21 0 -66.5 2t-71.5 2t-84 -2t-75 -2q-39 0 -39 15q0 10 9 16t22 8 t28.5 6.5t28.5 11t22 23t9 41.5v555q0 78 -37 78q-13 0 -45 -10.5t-35 -10.5q-5 0 -10 4.5t-5 8.5z" />
<glyph unicode="&#xba;" horiz-adv-x="870" d="M121 1159q0 115 91.5 199t223.5 84t219.5 -76.5t87.5 -200.5q0 -118 -88.5 -191t-216.5 -73q-137 0 -227 66t-90 192zM129 711v75h606v-75h-606zM252 1200q0 -43 12 -84.5t35 -77.5t62 -58t88 -22q163 0 163 193q0 61 -18 112t-63 87t-111 36q-82 0 -125 -55t-43 -131z " />
<glyph unicode="&#xbb;" d="M170 172q0 24 63.5 116t145.5 177q-82 85 -145.5 177t-63.5 116q0 18 12 18q11 0 41 -27t82.5 -79t89.5 -84q31 -27 69 -53t52 -39t14 -29t-14 -29t-52 -39t-69 -53q-37 -32 -89.5 -84t-82.5 -79t-41 -27q-12 0 -12 18zM492 172q0 24 63 116.5t145 176.5 q-82 84 -145 176.5t-63 116.5q0 18 12 18q11 0 41 -27t82.5 -79t89.5 -84q31 -27 69 -53t52 -39t14 -29t-14 -29t-52 -39t-69 -53q-37 -32 -89.5 -84t-82.5 -79t-41 -27q-12 0 -12 18z" />
<glyph unicode="&#xbc;" horiz-adv-x="1536" d="M106 1313q0 10 4 16t14 11t20.5 8.5t31 10t37.5 13.5q33 13 67 29.5t52 26.5t20 10q13 0 13 -19q0 -7 -5.5 -31.5t-5.5 -50.5v-628q0 -39 15 -62t37 -29.5t44 -9t37 -7.5t15 -19q0 -15 -47 -15q-21 0 -66.5 2t-71.5 2t-84 -2t-75 -2q-39 0 -39 15q0 10 9 16t22 8 t28.5 6.5t28.5 11t22 23t9 41.5v555q0 78 -37 78q-13 0 -45 -10.5t-35 -10.5q-5 0 -10 4.5t-5 8.5zM285 0l936 1442h90l-936 -1442h-90zM799 219q0 24 103 169t214.5 280t130.5 135q15 0 22.5 -6t8 -11t0.5 -18v-483q43 0 67.5 5.5t29 11.5t11 11.5t17.5 5.5q8 0 8 -8 q0 -19 -9 -60t-16 -54q-2 -5 -8 -7.5t-17.5 -3t-22 0t-29 1t-31.5 0.5v-315q0 -8 -30.5 -17.5t-51.5 -9.5q-35 0 -35 37v305h-307q-55 0 -55 31zM911 285h250v329h-4z" />
<glyph unicode="&#xbd;" horiz-adv-x="1536" d="M106 1313q0 10 4 16t14 11t20.5 8.5t31 10t37.5 13.5q33 13 67 29.5t52 26.5t20 10q13 0 13 -19q0 -7 -5.5 -31.5t-5.5 -50.5v-628q0 -39 15 -62t37 -29.5t44 -9t37 -7.5t15 -19q0 -15 -47 -15q-21 0 -66.5 2t-71.5 2t-84 -2t-75 -2q-39 0 -39 15q0 10 9 16t22 8 t28.5 6.5t28.5 11t22 23t9 41.5v555q0 78 -37 78q-13 0 -45 -10.5t-35 -10.5q-5 0 -10 4.5t-5 8.5zM244 0l936 1442h90l-936 -1442h-90zM907 10q0 6 12.5 24t44 61.5t60.5 88.5q106 166 162.5 281t56.5 188q0 72 -29 109t-100 37q-31 0 -60.5 -12.5t-48 -27.5t-37 -27.5 t-28.5 -12.5q-6 0 -10 1t-6 2.5t-3 4t-1 4.5v4.5v3.5q0 16 32.5 45t92 54.5t118.5 25.5q89 0 148 -49t59 -127q0 -62 -49.5 -161t-109 -181.5t-109 -150t-49.5 -74.5q0 -8 10 -12.5t32 -6t39.5 -1.5t51.5 0.5t49 0.5q53 0 88 10.5t47 22.5t23 22.5t22 10.5q21 0 21 -14 q0 -7 -35 -60l-62 -94h-401q-2 0 -7 -0.5t-8.5 0t-7.5 1t-6 3t-2 6.5z" />
<glyph unicode="&#xbe;" horiz-adv-x="1536" d="M31 645q0 9 5.5 16t12.5 7q6 0 26 -13t56.5 -26t83.5 -13q106 0 165.5 68t59.5 170q0 60 -22.5 98t-54 51.5t-63.5 19t-54.5 9t-22.5 12.5q0 11 27 32t60 43.5t60 59.5t27 76q0 52 -26.5 77.5t-85.5 25.5q-46 0 -80.5 -14.5t-53 -29t-24.5 -14.5q-7 0 -11.5 8.5 t-4.5 14.5q0 28 68.5 73.5t152.5 45.5q79 0 134.5 -40t55.5 -106q0 -68 -44.5 -123.5t-108.5 -74.5l4 -4q86 1 139 -57t53 -144q0 -132 -100 -231t-246 -99q-66 0 -127 29t-61 53zM285 0l936 1442h90l-936 -1442h-90zM799 219q0 24 103 169t214.5 280t130.5 135 q15 0 22.5 -6t8 -11t0.5 -18v-483q43 0 67.5 5.5t29 11.5t11 11.5t17.5 5.5q8 0 8 -8q0 -19 -9 -60t-16 -54q-2 -5 -8 -7.5t-17.5 -3t-22 0t-29 1t-31.5 0.5v-315q0 -8 -30.5 -17.5t-51.5 -9.5q-35 0 -35 37v305h-307q-55 0 -55 31zM911 285h250v329h-4z" />
<glyph unicode="&#xbf;" horiz-adv-x="681" d="M125 -174q0 59 28 119.5t67.5 114t79 110.5t67.5 130t28 151q0 13 -3 39t-3 40q0 20 4.5 26.5t22.5 6.5q39 0 39 -160q0 -60 -28 -141.5t-61.5 -149t-61.5 -145t-28 -129.5q0 -67 46 -115.5t114 -48.5q35 0 59.5 13.5t39.5 27t26 13.5q6 0 10 -5.5t4 -11.5q0 -38 -56 -76 t-161 -38q-96 0 -164.5 67t-68.5 162zM276 831q0 12 7.5 18t26 17.5t34.5 28.5q14 15 24 30.5t14 22.5t10 11t16 4q13 0 18.5 -5.5t17.5 -24.5t29 -38q16 -17 33.5 -28.5t25 -17.5t7.5 -18t-7.5 -19t-25 -19.5t-33.5 -30.5q-14 -13 -24.5 -26.5t-14 -20t-10 -11t-16.5 -4.5 q-12 0 -18 6t-17.5 23t-28.5 33q-16 18 -34.5 30.5t-26 19.5t-7.5 19z" />
<glyph unicode="&#xc0;" horiz-adv-x="1593" d="M20 14q0 14 16.5 21.5t38.5 13t49.5 28.5t45.5 62l489 1045q30 65 72 155q42 93 54.5 114.5t27.5 21.5q6 0 12.5 -6t11 -16.5t8 -19.5t7 -20t4.5 -14l426 -1055q7 -18 27 -72t37 -91.5t38 -69.5q20 -32 53.5 -48.5t60.5 -18.5t47 -9.5t20 -24.5q0 -18 -29 -18 q-42 0 -126 4t-126 4q-28 0 -83 -4t-83 -4q-45 0 -45 20q0 16 19 26.5t42.5 16t42.5 22t19 42.5q0 20 -10 52t-30 83t-23 59l-66 168q-10 23 -15 33t-15.5 23t-24.5 17.5t-35 4.5h-451q-19 0 -29.5 -1t-25 -4.5t-24.5 -13t-17 -24.5l-131 -287q-14 -33 -14 -71 q0 -34 10.5 -56t27 -31t35 -14.5t35 -7t27 -8t10.5 -18.5q0 -9 -2.5 -15t-5 -9.5t-10 -5t-10.5 -1.5h-14h-13q-29 0 -86 4t-86 4q-28 0 -83 -4t-81 -4q-19 0 -19 22zM500 1833q0 29 18.5 52.5t46.5 23.5q17 0 33 -7.5t25.5 -15.5t25.5 -24l301 -299h-71l-267 166 q-7 5 -24.5 15t-30.5 18t-27 19.5t-22 24.5t-8 27zM514 686q-18 -37 27 -37h405q31 0 37 10.5t-4 30.5l-201 494q-15 38 -33 0z" />
<glyph unicode="&#xc1;" horiz-adv-x="1593" d="M20 14q0 14 16.5 21.5t38.5 13t49.5 28.5t45.5 62l489 1045q30 65 72 155q42 93 54.5 114.5t27.5 21.5q6 0 12.5 -6t11 -16.5t8 -19.5t7 -20t4.5 -14l426 -1055q7 -18 27 -72t37 -91.5t38 -69.5q20 -32 53.5 -48.5t60.5 -18.5t47 -9.5t20 -24.5q0 -18 -29 -18 q-42 0 -126 4t-126 4q-28 0 -83 -4t-83 -4q-45 0 -45 20q0 16 19 26.5t42.5 16t42.5 22t19 42.5q0 20 -10 52t-30 83t-23 59l-66 168q-10 23 -15 33t-15.5 23t-24.5 17.5t-35 4.5h-451q-19 0 -29.5 -1t-25 -4.5t-24.5 -13t-17 -24.5l-131 -287q-14 -33 -14 -71 q0 -34 10.5 -56t27 -31t35 -14.5t35 -7t27 -8t10.5 -18.5q0 -9 -2.5 -15t-5 -9.5t-10 -5t-10.5 -1.5h-14h-13q-29 0 -86 4t-86 4q-28 0 -83 -4t-81 -4q-19 0 -19 22zM514 686q-18 -37 27 -37h405q31 0 37 10.5t-4 30.5l-201 494q-15 38 -33 0zM651 1563l301 299 q16 16 25.5 24t25.5 15.5t33 7.5q28 0 47 -23.5t19 -52.5q0 -17 -14 -34t-28.5 -27t-39.5 -24.5t-31 -18.5l-266 -166h-72z" />
<glyph unicode="&#xc2;" horiz-adv-x="1593" d="M20 14q0 14 16.5 21.5t38.5 13t49.5 28.5t45.5 62l489 1045q30 65 72 155q42 93 54.5 114.5t27.5 21.5q6 0 12.5 -6t11 -16.5t8 -19.5t7 -20t4.5 -14l426 -1055q7 -18 27 -72t37 -91.5t38 -69.5q20 -32 53.5 -48.5t60.5 -18.5t47 -9.5t20 -24.5q0 -18 -29 -18 q-42 0 -126 4t-126 4q-28 0 -83 -4t-83 -4q-45 0 -45 20q0 16 19 26.5t42.5 16t42.5 22t19 42.5q0 20 -10 52t-30 83t-23 59l-66 168q-10 23 -15 33t-15.5 23t-24.5 17.5t-35 4.5h-451q-19 0 -29.5 -1t-25 -4.5t-24.5 -13t-17 -24.5l-131 -287q-14 -33 -14 -71 q0 -34 10.5 -56t27 -31t35 -14.5t35 -7t27 -8t10.5 -18.5q0 -9 -2.5 -15t-5 -9.5t-10 -5t-10.5 -1.5h-14h-13q-29 0 -86 4t-86 4q-28 0 -83 -4t-81 -4q-19 0 -19 22zM492 1563l251 342h115l250 -342h-70l-237 215l-242 -215h-67zM514 686q-18 -37 27 -37h405q31 0 37 10.5 t-4 30.5l-201 494q-15 38 -33 0z" />
<glyph unicode="&#xc3;" horiz-adv-x="1593" d="M20 14q0 14 16.5 21.5t38.5 13t49.5 28.5t45.5 62l489 1045q30 65 72 155q42 93 54.5 114.5t27.5 21.5q6 0 12.5 -6t11 -16.5t8 -19.5t7 -20t4.5 -14l426 -1055q7 -18 27 -72t37 -91.5t38 -69.5q20 -32 53.5 -48.5t60.5 -18.5t47 -9.5t20 -24.5q0 -18 -29 -18 q-42 0 -126 4t-126 4q-28 0 -83 -4t-83 -4q-45 0 -45 20q0 16 19 26.5t42.5 16t42.5 22t19 42.5q0 20 -10 52t-30 83t-23 59l-66 168q-10 23 -15 33t-15.5 23t-24.5 17.5t-35 4.5h-451q-19 0 -29.5 -1t-25 -4.5t-24.5 -13t-17 -24.5l-131 -287q-14 -33 -14 -71 q0 -34 10.5 -56t27 -31t35 -14.5t35 -7t27 -8t10.5 -18.5q0 -9 -2.5 -15t-5 -9.5t-10 -5t-10.5 -1.5h-14h-13q-29 0 -86 4t-86 4q-28 0 -83 -4t-81 -4q-19 0 -19 22zM463 1612q11 84 73.5 143.5t145.5 59.5q43 0 137 -48q92 -49 133 -49q43 0 73.5 29.5t45.5 73.5h59 q-21 -86 -79 -147.5t-140 -61.5q-27 0 -57.5 9t-48 16.5t-53.5 25.5q-4 2 -19 10t-20.5 10.5t-18.5 8t-21 8t-19.5 4.5t-22.5 2q-42 0 -73 -26.5t-40 -67.5h-55zM514 686q-18 -37 27 -37h405q31 0 37 10.5t-4 30.5l-201 494q-15 38 -33 0z" />
<glyph unicode="&#xc4;" horiz-adv-x="1593" d="M20 14q0 14 16.5 21.5t38.5 13t49.5 28.5t45.5 62l489 1045q30 65 72 155q42 93 54.5 114.5t27.5 21.5q6 0 12.5 -6t11 -16.5t8 -19.5t7 -20t4.5 -14l426 -1055q7 -18 27 -72t37 -91.5t38 -69.5q20 -32 53.5 -48.5t60.5 -18.5t47 -9.5t20 -24.5q0 -18 -29 -18 q-42 0 -126 4t-126 4q-28 0 -83 -4t-83 -4q-45 0 -45 20q0 16 19 26.5t42.5 16t42.5 22t19 42.5q0 20 -10 52t-30 83t-23 59l-66 168q-10 23 -15 33t-15.5 23t-24.5 17.5t-35 4.5h-451q-19 0 -29.5 -1t-25 -4.5t-24.5 -13t-17 -24.5l-131 -287q-14 -33 -14 -71 q0 -34 10.5 -56t27 -31t35 -14.5t35 -7t27 -8t10.5 -18.5q0 -9 -2.5 -15t-5 -9.5t-10 -5t-10.5 -1.5h-14h-13q-29 0 -86 4t-86 4q-28 0 -83 -4t-81 -4q-19 0 -19 22zM514 686q-18 -37 27 -37h405q31 0 37 10.5t-4 30.5l-201 494q-15 38 -33 0zM535 1696q0 18 34 63t52 45 q19 0 52.5 -44t33.5 -64t-33.5 -63.5t-52.5 -43.5q-18 0 -52 44.5t-34 62.5zM891 1696q0 20 33.5 64t52.5 44q18 0 51 -44t33 -64t-33 -63.5t-51 -43.5q-19 0 -52.5 43.5t-33.5 63.5z" />
<glyph unicode="&#xc5;" horiz-adv-x="1593" d="M20 14q0 14 16.5 21.5t38.5 13t49.5 28.5t45.5 62l489 1045q30 65 72 155q42 93 54.5 114.5t27.5 21.5q6 0 12.5 -6t11 -16.5t8 -19.5t7 -20t4.5 -14l426 -1055q7 -18 27 -72t37 -91.5t38 -69.5q20 -32 53.5 -48.5t60.5 -18.5t47 -9.5t20 -24.5q0 -18 -29 -18 q-42 0 -126 4t-126 4q-28 0 -83 -4t-83 -4q-45 0 -45 20q0 16 19 26.5t42.5 16t42.5 22t19 42.5q0 20 -10 52t-30 83t-23 59l-66 168q-10 23 -15 33t-15.5 23t-24.5 17.5t-35 4.5h-451q-19 0 -29.5 -1t-25 -4.5t-24.5 -13t-17 -24.5l-131 -287q-14 -33 -14 -71 q0 -34 10.5 -56t27 -31t35 -14.5t35 -7t27 -8t10.5 -18.5q0 -9 -2.5 -15t-5 -9.5t-10 -5t-10.5 -1.5h-14h-13q-29 0 -86 4t-86 4q-28 0 -83 -4t-81 -4q-19 0 -19 22zM514 686q-18 -37 27 -37h405q31 0 37 10.5t-4 30.5l-201 494q-15 38 -33 0zM580 1759q0 88 65 154.5 t154 66.5t155 -66t66 -155t-66 -155t-155 -66t-154 66t-65 155zM662 1759q0 -57 40 -97t97 -40t97 40t40 97t-40 97t-97 40t-97 -40t-40 -97z" />
<glyph unicode="&#xc6;" horiz-adv-x="2048" d="M4 14q0 10 11 16.5t27 12.5t42.5 27t50.5 55l832 1145q49 66 49 82q0 21 -20 29t-43.5 7t-43.5 5t-20 24q0 13 14 19t58 6q197 0 337 -2t209 -4t95 -2q18 0 138 4t154 4q21 0 21 -45q0 -244 -41 -244q-21 0 -26 25.5t-7.5 63t-15.5 56.5q-11 14 -31 25t-48 17t-53.5 10 t-61.5 5t-57.5 1.5t-55 0t-41.5 -0.5q-129 0 -152 -6q-31 -7 -37 -38q-4 -19 -4 -85v-381q0 -53 8.5 -61.5t69.5 -8.5h221q50 0 85.5 12t52 30.5t27.5 39.5t14.5 39.5t10 30.5t17.5 12t16.5 -12.5t5.5 -26.5q0 -37 -2 -106t-2 -101q0 -26 2 -80t2 -82q0 -26 -22 -26 q-17 0 -24.5 18.5t-12 45t-14 53t-38.5 45t-77 18.5h-303q-9 0 -15.5 -1.5t-10.5 -6t-6.5 -8t-3.5 -11.5t-1 -11v-14v-13v-377v-28q-1 -32 0 -46.5t5 -34.5t13.5 -28.5t26.5 -17.5t44.5 -12t66.5 -3q112 0 204 15.5t148 39t99 51t64 51t35 39t19 15.5q16 0 16 -25 q0 -89 -102 -199q-42 -48 -78 -58.5t-107 -10.5h-8.5h-7.5q-62 0 -221 5t-246 3q-27 -1 -114.5 -4.5t-134.5 -3.5q-31 0 -31 20q1 9 7 14.5t14 9t28.5 12t40.5 18.5q37 17 47 56.5t10 121.5v250v11.5v12t-0.5 10.5t-2 10.5t-4 8t-6.5 7t-10 4t-14 1.5h-473 q-40 0 -66.5 -18.5t-66.5 -73.5l-155 -209q0 -1 -10 -14.5t-16 -23.5t-14.5 -26t-13 -32t-4.5 -31q0 -35 39.5 -56t79 -31.5t39.5 -20.5q0 -8 -2.5 -13.5t-8 -9t-10.5 -5.5t-12.5 -2.5t-12 -0.5h-12h-8.5q-28 0 -86 4t-86 4t-82.5 -4t-80.5 -4q-19 0 -19 22zM633 666 q0 -17 41 -17h370q59 0 68.5 7.5t9.5 53.5v9v532q0 64 -12 64q-10 0 -61 -66l-381 -520q-4 -7 -12.5 -18.5t-12 -17t-7 -13.5t-3.5 -14z" />
<glyph unicode="&#xc7;" horiz-adv-x="1478" d="M51 690q0 157 55 298.5t151 245.5t234 165t297 61q108 0 198.5 -16t146 -39t96.5 -46.5t68 -39.5t42 -16q7 0 23 10t27 10q15 0 18.5 -21.5t7.5 -109.5q1 -7 1 -11t0.5 -11t0.5 -13q1 -26 3.5 -59t4 -50.5t1 -35t-5.5 -24.5t-15 -7q-11 0 -20.5 13t-17.5 33t-9 22 q-102 177 -225.5 264.5t-311.5 87.5q-147 0 -260.5 -47.5t-185.5 -133.5t-109 -204t-37 -262q0 -108 24 -211t73.5 -194t119.5 -159.5t168.5 -108.5t212.5 -40q113 0 216.5 33t171 82t110 97t55.5 87q3 11 11.5 19t17.5 8q7 0 13.5 -7.5t4.5 -15.5l-47 -205q-1 -5 -18.5 -20 t-64.5 -40t-111.5 -47.5t-174.5 -38.5t-239 -16q-208 0 -372 89t-256.5 252t-92.5 372zM516 -406l29 62q85 -25 127 -25q44 0 80 22.5t36 63.5q0 36 -27 59t-63 23q-34 0 -51 -12l-47 10l90 203h72l-62 -135q46 12 70 12q64 0 112 -39.5t48 -101.5q0 -48 -22.5 -83.5 t-60.5 -53.5t-79 -26.5t-86 -8.5q-90 0 -166 30z" />
<glyph unicode="&#xc8;" horiz-adv-x="1138" d="M41 1417q0 13 15 19t57 6q231 0 402.5 -4t176.5 -4q18 0 138.5 4t154.5 4q21 0 21 -45q0 -244 -41 -244q-17 0 -24 16.5t-7 38t-4 48.5t-15 42q-11 14 -31 25t-48 17t-53.5 10t-61.5 5t-57.5 1.5t-55 0t-41.5 -0.5q-129 0 -152 -6q-31 -8 -37 -39q-3 -17 -3 -84v-381 q0 -53 8.5 -61.5t69.5 -8.5h221q50 0 85.5 12t52 30.5t27.5 39.5t14.5 39.5t10 30.5t17.5 12t16.5 -12.5t5.5 -26.5q0 -37 -2 -106t-2 -101q0 -26 2 -80t2 -82q0 -26 -22 -26q-17 0 -24.5 18.5t-12 45t-14 53t-38.5 45t-77 18.5h-303q-9 0 -15.5 -1.5t-10.5 -6t-6.5 -8 t-3.5 -11.5t-1 -11v-14v-13v-377q0 -89 3 -104q9 -43 56 -57q33 -9 96 -9q112 0 204.5 15.5t148 39t99 51t64.5 51t35 39t19 15.5q16 0 16 -25q0 -89 -102 -199q-42 -48 -78 -58.5t-107 -10.5h-16q-62 0 -221 5t-246 3q-27 -1 -115 -4.5t-135 -3.5q-30 0 -30 20q1 9 7 14.5 t14 9t28.5 12t40.5 18.5q37 17 47 56.5t10 121.5v934q0 31 -0.5 47t-3.5 43t-10 42.5t-19 33t-31.5 27t-46.5 13.5q-2 1 -12 2.5t-16.5 3.5t-15 5.5t-13 9t-4.5 12.5zM272 1833q0 29 19 52.5t47 23.5q17 0 33 -7.5t25.5 -15.5t25.5 -24l301 -299h-72l-266 166q-6 4 -31 18.5 t-39.5 24.5t-28.5 27t-14 34z" />
<glyph unicode="&#xc9;" horiz-adv-x="1138" d="M41 1417q0 13 15 19t57 6q231 0 402.5 -4t176.5 -4q18 0 138.5 4t154.5 4q21 0 21 -45q0 -244 -41 -244q-17 0 -24 16.5t-7 38t-4 48.5t-15 42q-11 14 -31 25t-48 17t-53.5 10t-61.5 5t-57.5 1.5t-55 0t-41.5 -0.5q-129 0 -152 -6q-31 -8 -37 -39q-3 -17 -3 -84v-381 q0 -53 8.5 -61.5t69.5 -8.5h221q50 0 85.5 12t52 30.5t27.5 39.5t14.5 39.5t10 30.5t17.5 12t16.5 -12.5t5.5 -26.5q0 -37 -2 -106t-2 -101q0 -26 2 -80t2 -82q0 -26 -22 -26q-17 0 -24.5 18.5t-12 45t-14 53t-38.5 45t-77 18.5h-303q-9 0 -15.5 -1.5t-10.5 -6t-6.5 -8 t-3.5 -11.5t-1 -11v-14v-13v-377q0 -89 3 -104q9 -43 56 -57q33 -9 96 -9q112 0 204.5 15.5t148 39t99 51t64.5 51t35 39t19 15.5q16 0 16 -25q0 -89 -102 -199q-42 -48 -78 -58.5t-107 -10.5h-16q-62 0 -221 5t-246 3q-27 -1 -115 -4.5t-135 -3.5q-30 0 -30 20q1 9 7 14.5 t14 9t28.5 12t40.5 18.5q37 17 47 56.5t10 121.5v934q0 31 -0.5 47t-3.5 43t-10 42.5t-19 33t-31.5 27t-46.5 13.5q-2 1 -12 2.5t-16.5 3.5t-15 5.5t-13 9t-4.5 12.5zM424 1563l301 299q16 16 25.5 24t25.5 15.5t33 7.5q28 0 46.5 -23.5t18.5 -52.5q0 -14 -8 -27t-22 -24.5 t-27 -19.5t-30.5 -18t-24.5 -15l-266 -166h-72z" />
<glyph unicode="&#xca;" horiz-adv-x="1138" d="M41 1417q0 13 15 19t57 6q231 0 402.5 -4t176.5 -4q18 0 138.5 4t154.5 4q21 0 21 -45q0 -244 -41 -244q-17 0 -24 16.5t-7 38t-4 48.5t-15 42q-11 14 -31 25t-48 17t-53.5 10t-61.5 5t-57.5 1.5t-55 0t-41.5 -0.5q-129 0 -152 -6q-31 -8 -37 -39q-3 -17 -3 -84v-381 q0 -53 8.5 -61.5t69.5 -8.5h221q50 0 85.5 12t52 30.5t27.5 39.5t14.5 39.5t10 30.5t17.5 12t16.5 -12.5t5.5 -26.5q0 -37 -2 -106t-2 -101q0 -26 2 -80t2 -82q0 -26 -22 -26q-17 0 -24.5 18.5t-12 45t-14 53t-38.5 45t-77 18.5h-303q-9 0 -15.5 -1.5t-10.5 -6t-6.5 -8 t-3.5 -11.5t-1 -11v-14v-13v-377q0 -89 3 -104q9 -43 56 -57q33 -9 96 -9q112 0 204.5 15.5t148 39t99 51t64.5 51t35 39t19 15.5q16 0 16 -25q0 -89 -102 -199q-42 -48 -78 -58.5t-107 -10.5h-16q-62 0 -221 5t-246 3q-27 -1 -115 -4.5t-135 -3.5q-30 0 -30 20q1 9 7 14.5 t14 9t28.5 12t40.5 18.5q37 17 47 56.5t10 121.5v934q0 31 -0.5 47t-3.5 43t-10 42.5t-19 33t-31.5 27t-46.5 13.5q-2 1 -12 2.5t-16.5 3.5t-15 5.5t-13 9t-4.5 12.5zM264 1563l252 342h115l250 -342h-70l-238 215l-241 -215h-68z" />
<glyph unicode="&#xcb;" horiz-adv-x="1138" d="M41 1417q0 13 15 19t57 6q231 0 402.5 -4t176.5 -4q18 0 138.5 4t154.5 4q21 0 21 -45q0 -244 -41 -244q-17 0 -24 16.5t-7 38t-4 48.5t-15 42q-11 14 -31 25t-48 17t-53.5 10t-61.5 5t-57.5 1.5t-55 0t-41.5 -0.5q-129 0 -152 -6q-31 -8 -37 -39q-3 -17 -3 -84v-381 q0 -53 8.5 -61.5t69.5 -8.5h221q50 0 85.5 12t52 30.5t27.5 39.5t14.5 39.5t10 30.5t17.5 12t16.5 -12.5t5.5 -26.5q0 -37 -2 -106t-2 -101q0 -26 2 -80t2 -82q0 -26 -22 -26q-17 0 -24.5 18.5t-12 45t-14 53t-38.5 45t-77 18.5h-303q-9 0 -15.5 -1.5t-10.5 -6t-6.5 -8 t-3.5 -11.5t-1 -11v-14v-13v-377q0 -89 3 -104q9 -43 56 -57q33 -9 96 -9q112 0 204.5 15.5t148 39t99 51t64.5 51t35 39t19 15.5q16 0 16 -25q0 -89 -102 -199q-42 -48 -78 -58.5t-107 -10.5h-16q-62 0 -221 5t-246 3q-27 -1 -115 -4.5t-135 -3.5q-30 0 -30 20q1 9 7 14.5 t14 9t28.5 12t40.5 18.5q37 17 47 56.5t10 121.5v934q0 31 -0.5 47t-3.5 43t-10 42.5t-19 33t-31.5 27t-46.5 13.5q-2 1 -12 2.5t-16.5 3.5t-15 5.5t-13 9t-4.5 12.5zM307 1696q0 18 34 63t52 45q19 0 52.5 -44t33.5 -64t-33.5 -63.5t-52.5 -43.5q-18 0 -52 44.5t-34 62.5z M664 1696q0 20 33.5 64t52.5 44q18 0 51 -44t33 -64t-33 -63.5t-51 -43.5q-19 0 -52.5 43.5t-33.5 63.5z" />
<glyph unicode="&#xcc;" horiz-adv-x="681" d="M43 1833q0 29 19 52.5t47 23.5q17 0 33 -7.5t25.5 -15.5t25.5 -24l301 -299h-72l-266 166q-6 4 -31 18.5t-39.5 24.5t-28.5 27t-14 34zM86 1419q0 14 4 18.5t16 4.5q38 0 113 -4t113 -4q32 0 95 4t95 4q24 0 31.5 -4.5t7.5 -16.5q0 -15 -23 -23.5t-50.5 -14.5 t-50.5 -35.5t-23 -81.5v-1100q0 -39 18.5 -63t45.5 -34t54 -16t45.5 -15.5t18.5 -25.5q0 -11 -8 -15.5t-33 -4.5q-18 0 -96 4t-127 4q-75 0 -134.5 -4t-62.5 -4q-26 0 -34.5 7.5t-8.5 23.5t16.5 23t40 13t47 18.5t40 47.5t16.5 92v1049q-1 42 -18 69t-41.5 37.5t-48.5 16 t-41 12t-17 18.5z" />
<glyph unicode="&#xcd;" horiz-adv-x="681" d="M86 1419q0 14 4 18.5t16 4.5q38 0 113 -4t113 -4q32 0 95 4t95 4q24 0 31.5 -4.5t7.5 -16.5q0 -15 -23 -23.5t-50.5 -14.5t-50.5 -35.5t-23 -81.5v-1100q0 -39 18.5 -63t45.5 -34t54 -16t45.5 -15.5t18.5 -25.5q0 -11 -8 -15.5t-33 -4.5q-18 0 -96 4t-127 4 q-75 0 -134.5 -4t-62.5 -4q-26 0 -34.5 7.5t-8.5 23.5t16.5 23t40 13t47 18.5t40 47.5t16.5 92v1049q-1 42 -18 69t-41.5 37.5t-48.5 16t-41 12t-17 18.5zM195 1563l301 299q16 16 25.5 24t25.5 15.5t33 7.5q28 0 46.5 -23.5t18.5 -52.5q0 -17 -14 -34t-28.5 -27 t-39.5 -24.5t-31 -18.5l-266 -166h-71z" />
<glyph unicode="&#xce;" horiz-adv-x="681" d="M35 1563l252 342h114l250 -342h-69l-238 215l-242 -215h-67zM86 1419q0 14 4 18.5t16 4.5q38 0 113 -4t113 -4q32 0 95 4t95 4q24 0 31.5 -4.5t7.5 -16.5q0 -15 -23 -23.5t-50.5 -14.5t-50.5 -35.5t-23 -81.5v-1100q0 -39 18.5 -63t45.5 -34t54 -16t45.5 -15.5 t18.5 -25.5q0 -11 -8 -15.5t-33 -4.5q-18 0 -96 4t-127 4q-75 0 -134.5 -4t-62.5 -4q-26 0 -34.5 7.5t-8.5 23.5t16.5 23t40 13t47 18.5t40 47.5t16.5 92v1049q-1 42 -18 69t-41.5 37.5t-48.5 16t-41 12t-17 18.5z" />
<glyph unicode="&#xcf;" horiz-adv-x="681" d="M78 1696q0 18 34 63t52 45q19 0 52.5 -44t33.5 -64t-33.5 -63.5t-52.5 -43.5q-18 0 -52 44.5t-34 62.5zM86 1419q0 14 4 18.5t16 4.5q38 0 113 -4t113 -4q32 0 95 4t95 4q24 0 31.5 -4.5t7.5 -16.5q0 -15 -23 -23.5t-50.5 -14.5t-50.5 -35.5t-23 -81.5v-1100 q0 -39 18.5 -63t45.5 -34t54 -16t45.5 -15.5t18.5 -25.5q0 -11 -8 -15.5t-33 -4.5q-18 0 -96 4t-127 4q-75 0 -134.5 -4t-62.5 -4q-26 0 -34.5 7.5t-8.5 23.5t16.5 23t40 13t47 18.5t40 47.5t16.5 92v1049q-1 42 -18 69t-41.5 37.5t-48.5 16t-41 12t-17 18.5zM434 1696 q0 20 33.5 64t52.5 44q18 0 51 -44t33 -64t-33 -63.5t-51 -43.5q-19 0 -52.5 43.5t-33.5 63.5z" />
<glyph unicode="&#xd0;" horiz-adv-x="1478" d="M68 1421q0 10 9 15.5t19 5.5q32 0 93.5 -4t91.5 -4q62 0 206.5 4t237.5 4q108 0 213.5 -31t196 -90.5t160.5 -138.5t109.5 -181t39.5 -213q0 -181 -44.5 -324t-137.5 -250t-247 -164.5t-362 -57.5q-52 0 -156.5 4t-156.5 4q-10 0 -116 -4t-113 -4q-21 0 -21 20 q0 11 11 17.5t27 10.5t35 14t35 24.5t27 45.5t11 75v522h-150v86h150v428q0 44 -12.5 75t-31 45t-40.5 23.5t-40.5 13t-31 10.5t-12.5 19zM397 289q0 -89 2 -115t11 -35q46 -46 139 -69t176 -23q91 0 171 19.5t154 66t126.5 117t84 179.5t31.5 247q0 167 -54 303t-148 225.5 t-219.5 138t-270.5 48.5q-59 0 -96 -5t-59.5 -12.5t-32.5 -25.5t-12.5 -35t-2.5 -51v-455h471v-86h-471v-432z" />
<glyph unicode="&#xd1;" horiz-adv-x="1593" d="M-12 1421q0 8 10.5 14.5t19.5 6.5q16 0 48 -4t49 -4q15 0 47 4t47 4q8 0 16.5 -6t14 -12t13 -16t9.5 -13l977 -1088q19 -22 25 -22t6 22v856q0 63 -17 107t-42 64t-55 33t-55 17t-42 13t-17 24q0 21 23 21q30 0 91 -4t95 -4q38 0 111.5 4t95.5 4q21 0 21 -19 q0 -14 -12.5 -22.5t-30.5 -16t-35.5 -19t-30 -39t-12.5 -69.5v-1185q0 -48 -4 -68t-15 -20q-25 0 -77 57l-881 991q-1 1 -6.5 8t-11.5 13.5t-13 12t-12 5.5q-14 0 -14 -47v-838q0 -43 13.5 -72t33.5 -41t43 -19t43 -9t33.5 -8.5t13.5 -18.5q0 -26 -23 -26q-18 0 -84.5 4 t-122.5 4q-32 0 -76.5 -2t-78 -4t-37.5 -2q-27 0 -27 22q0 16 13.5 25t33.5 12.5t43.5 16.5t43.5 33.5t33.5 67t13.5 114.5v755q0 87 -13.5 151t-35.5 98.5t-48.5 56t-53 29.5t-48.5 13t-35.5 12.5t-13.5 22.5zM463 1612q11 84 73.5 143.5t145.5 59.5q43 0 137 -48 q92 -49 133 -49q43 0 73.5 29.5t45.5 73.5h59q-21 -86 -79 -147.5t-140 -61.5q-27 0 -57.5 9t-48 16.5t-53.5 25.5q-4 2 -19 10t-20.5 10.5t-18.5 8t-21 8t-19.5 4.5t-22.5 2q-42 0 -73 -26.5t-40 -67.5h-55z" />
<glyph unicode="&#xd2;" horiz-adv-x="1593" d="M51 725q0 209 100 378t272 263t380 94q155 0 291.5 -54t235 -149t155.5 -230.5t57 -291.5q0 -227 -98 -400t-273.5 -265.5t-402.5 -92.5q-164 0 -299 56t-226.5 155.5t-141.5 237.5t-50 299zM201 784q0 -114 28.5 -223t85 -203t134 -165.5t182 -112.5t223.5 -41 q112 0 210.5 44t171.5 122.5t115 195.5t42 256q0 112 -29 219.5t-86 200.5t-134.5 164t-181.5 111.5t-221 40.5q-125 0 -228.5 -49.5t-171 -133.5t-104 -194t-36.5 -232zM500 1833q0 29 18.5 52.5t46.5 23.5q17 0 33 -7.5t25.5 -15.5t25.5 -24l301 -299h-71l-267 166 q-7 5 -24.5 15t-30.5 18t-27 19.5t-22 24.5t-8 27z" />
<glyph unicode="&#xd3;" horiz-adv-x="1593" d="M51 725q0 209 100 378t272 263t380 94q155 0 291.5 -54t235 -149t155.5 -230.5t57 -291.5q0 -227 -98 -400t-273.5 -265.5t-402.5 -92.5q-164 0 -299 56t-226.5 155.5t-141.5 237.5t-50 299zM201 784q0 -114 28.5 -223t85 -203t134 -165.5t182 -112.5t223.5 -41 q112 0 210.5 44t171.5 122.5t115 195.5t42 256q0 112 -29 219.5t-86 200.5t-134.5 164t-181.5 111.5t-221 40.5q-125 0 -228.5 -49.5t-171 -133.5t-104 -194t-36.5 -232zM651 1563l301 299q16 16 25.5 24t25.5 15.5t33 7.5q28 0 47 -23.5t19 -52.5q0 -17 -14 -34t-28.5 -27 t-39.5 -24.5t-31 -18.5l-266 -166h-72z" />
<glyph unicode="&#xd4;" horiz-adv-x="1593" d="M51 725q0 209 100 378t272 263t380 94q155 0 291.5 -54t235 -149t155.5 -230.5t57 -291.5q0 -227 -98 -400t-273.5 -265.5t-402.5 -92.5q-164 0 -299 56t-226.5 155.5t-141.5 237.5t-50 299zM201 784q0 -114 28.5 -223t85 -203t134 -165.5t182 -112.5t223.5 -41 q112 0 210.5 44t171.5 122.5t115 195.5t42 256q0 112 -29 219.5t-86 200.5t-134.5 164t-181.5 111.5t-221 40.5q-125 0 -228.5 -49.5t-171 -133.5t-104 -194t-36.5 -232zM492 1563l251 342h115l250 -342h-70l-237 215l-242 -215h-67z" />
<glyph unicode="&#xd5;" horiz-adv-x="1593" d="M51 725q0 209 100 378t272 263t380 94q155 0 291.5 -54t235 -149t155.5 -230.5t57 -291.5q0 -227 -98 -400t-273.5 -265.5t-402.5 -92.5q-164 0 -299 56t-226.5 155.5t-141.5 237.5t-50 299zM201 784q0 -114 28.5 -223t85 -203t134 -165.5t182 -112.5t223.5 -41 q112 0 210.5 44t171.5 122.5t115 195.5t42 256q0 112 -29 219.5t-86 200.5t-134.5 164t-181.5 111.5t-221 40.5q-125 0 -228.5 -49.5t-171 -133.5t-104 -194t-36.5 -232zM463 1612q11 84 73.5 143.5t145.5 59.5q43 0 137 -48q92 -49 133 -49q43 0 73.5 29.5t45.5 73.5h59 q-21 -86 -79 -147.5t-140 -61.5q-27 0 -57.5 9t-48 16.5t-53.5 25.5q-4 2 -19 10t-20.5 10.5t-18.5 8t-21 8t-19.5 4.5t-22.5 2q-42 0 -73 -26.5t-40 -67.5h-55z" />
<glyph unicode="&#xd6;" horiz-adv-x="1593" d="M51 725q0 209 100 378t272 263t380 94q155 0 291.5 -54t235 -149t155.5 -230.5t57 -291.5q0 -227 -98 -400t-273.5 -265.5t-402.5 -92.5q-164 0 -299 56t-226.5 155.5t-141.5 237.5t-50 299zM201 784q0 -114 28.5 -223t85 -203t134 -165.5t182 -112.5t223.5 -41 q112 0 210.5 44t171.5 122.5t115 195.5t42 256q0 112 -29 219.5t-86 200.5t-134.5 164t-181.5 111.5t-221 40.5q-125 0 -228.5 -49.5t-171 -133.5t-104 -194t-36.5 -232zM535 1696q0 18 34 63t52 45q19 0 52.5 -44t33.5 -64t-33.5 -63.5t-52.5 -43.5q-18 0 -52 44.5 t-34 62.5zM891 1696q0 20 33.5 64t52.5 44q18 0 51 -44t33 -64t-33 -63.5t-51 -43.5q-19 0 -52.5 43.5t-33.5 63.5z" />
<glyph unicode="&#xd7;" horiz-adv-x="1241" d="M166 258l375 375l-375 375l80 79l375 -374l374 374l80 -79l-375 -375l375 -375l-80 -80l-374 375l-375 -375z" />
<glyph unicode="&#xd8;" horiz-adv-x="1593" d="M51 725q0 209 100 378t272 263t380 94q223 0 399 -106l150 207h98l-182 -252q130 -98 202 -246.5t72 -327.5q0 -227 -98 -400t-273.5 -265.5t-402.5 -92.5q-223 0 -391 105l-180 -250h-101l215 295q-125 99 -192.5 253.5t-67.5 344.5zM201 784q0 -150 50.5 -292 t145.5 -246l731 1005q-81 67 -181 104.5t-206 37.5q-126 0 -229.5 -49.5t-170.5 -133.5t-103.5 -194t-36.5 -232zM455 190q102 -83 188 -117t211 -34q112 0 210.5 44t171.5 122.5t115 195.5t42 256q0 156 -51.5 295t-153.5 246z" />
<glyph unicode="&#xd9;" horiz-adv-x="1593" d="M18 1421q0 9 17 15t28 6q26 0 79 -4t81 -4q33 0 98.5 4t96.5 4q65 0 65 -21q0 -18 -21.5 -26.5t-47 -13t-47 -31t-21.5 -76.5v-735q0 -120 37.5 -212.5t104.5 -150t155 -86.5t193 -29q111 0 196.5 29t137 75.5t83.5 113t44 133.5t12 145v664q0 43 -10.5 73t-27.5 45 t-37 24t-40.5 12.5t-37.5 8t-27.5 13t-10.5 24.5q0 7 8 14t13 7q40 0 119.5 -4t119.5 -4q20 0 57.5 4t55.5 4q8 0 17.5 -7.5t9.5 -15.5q0 -15 -12.5 -24t-30 -17.5t-35.5 -23t-30.5 -49t-12.5 -86.5v-635v-11q0 -32 -0.5 -53.5t-5 -70.5t-14 -85.5t-29 -88.5t-47 -90.5 t-72 -79.5t-99.5 -67.5t-133.5 -43.5t-171.5 -17q-113 0 -205 18t-158 49t-115.5 77t-80 97.5t-49.5 116t-26 126t-7 133.5v690q0 41 -26 63t-57 26.5t-57 15.5t-26 32zM500 1833q0 29 18.5 52.5t46.5 23.5q17 0 33 -7.5t25.5 -15.5t25.5 -24l301 -299h-71l-267 166 q-7 5 -24.5 15t-30.5 18t-27 19.5t-22 24.5t-8 27z" />
<glyph unicode="&#xda;" horiz-adv-x="1593" d="M18 1421q0 9 17 15t28 6q26 0 79 -4t81 -4q33 0 98.5 4t96.5 4q65 0 65 -21q0 -18 -21.5 -26.5t-47 -13t-47 -31t-21.5 -76.5v-735q0 -120 37.5 -212.5t104.5 -150t155 -86.5t193 -29q111 0 196.5 29t137 75.5t83.5 113t44 133.5t12 145v664q0 43 -10.5 73t-27.5 45 t-37 24t-40.5 12.5t-37.5 8t-27.5 13t-10.5 24.5q0 7 8 14t13 7q40 0 119.5 -4t119.5 -4q20 0 57.5 4t55.5 4q8 0 17.5 -7.5t9.5 -15.5q0 -15 -12.5 -24t-30 -17.5t-35.5 -23t-30.5 -49t-12.5 -86.5v-635v-11q0 -32 -0.5 -53.5t-5 -70.5t-14 -85.5t-29 -88.5t-47 -90.5 t-72 -79.5t-99.5 -67.5t-133.5 -43.5t-171.5 -17q-113 0 -205 18t-158 49t-115.5 77t-80 97.5t-49.5 116t-26 126t-7 133.5v690q0 41 -26 63t-57 26.5t-57 15.5t-26 32zM651 1563l301 299q16 16 25.5 24t25.5 15.5t33 7.5q28 0 47 -23.5t19 -52.5q0 -17 -14 -34t-28.5 -27 t-39.5 -24.5t-31 -18.5l-266 -166h-72z" />
<glyph unicode="&#xdb;" horiz-adv-x="1593" d="M18 1421q0 9 17 15t28 6q26 0 79 -4t81 -4q33 0 98.5 4t96.5 4q65 0 65 -21q0 -18 -21.5 -26.5t-47 -13t-47 -31t-21.5 -76.5v-735q0 -120 37.5 -212.5t104.5 -150t155 -86.5t193 -29q111 0 196.5 29t137 75.5t83.5 113t44 133.5t12 145v664q0 43 -10.5 73t-27.5 45 t-37 24t-40.5 12.5t-37.5 8t-27.5 13t-10.5 24.5q0 7 8 14t13 7q40 0 119.5 -4t119.5 -4q20 0 57.5 4t55.5 4q8 0 17.5 -7.5t9.5 -15.5q0 -15 -12.5 -24t-30 -17.5t-35.5 -23t-30.5 -49t-12.5 -86.5v-635v-11q0 -32 -0.5 -53.5t-5 -70.5t-14 -85.5t-29 -88.5t-47 -90.5 t-72 -79.5t-99.5 -67.5t-133.5 -43.5t-171.5 -17q-113 0 -205 18t-158 49t-115.5 77t-80 97.5t-49.5 116t-26 126t-7 133.5v690q0 41 -26 63t-57 26.5t-57 15.5t-26 32zM492 1563l251 342h115l250 -342h-70l-237 215l-242 -215h-67z" />
<glyph unicode="&#xdc;" horiz-adv-x="1593" d="M18 1421q0 9 17 15t28 6q26 0 79 -4t81 -4q33 0 98.5 4t96.5 4q65 0 65 -21q0 -18 -21.5 -26.5t-47 -13t-47 -31t-21.5 -76.5v-735q0 -120 37.5 -212.5t104.5 -150t155 -86.5t193 -29q111 0 196.5 29t137 75.5t83.5 113t44 133.5t12 145v664q0 43 -10.5 73t-27.5 45 t-37 24t-40.5 12.5t-37.5 8t-27.5 13t-10.5 24.5q0 7 8 14t13 7q40 0 119.5 -4t119.5 -4q20 0 57.5 4t55.5 4q8 0 17.5 -7.5t9.5 -15.5q0 -15 -12.5 -24t-30 -17.5t-35.5 -23t-30.5 -49t-12.5 -86.5v-635v-11q0 -32 -0.5 -53.5t-5 -70.5t-14 -85.5t-29 -88.5t-47 -90.5 t-72 -79.5t-99.5 -67.5t-133.5 -43.5t-171.5 -17q-113 0 -205 18t-158 49t-115.5 77t-80 97.5t-49.5 116t-26 126t-7 133.5v690q0 41 -26 63t-57 26.5t-57 15.5t-26 32zM535 1696q0 18 34 63t52 45q19 0 52.5 -44t33.5 -64t-33.5 -63.5t-52.5 -43.5q-18 0 -52 44.5t-34 62.5 zM891 1696q0 20 33.5 64t52.5 44q18 0 51 -44t33 -64t-33 -63.5t-51 -43.5q-19 0 -52.5 43.5t-33.5 63.5z" />
<glyph unicode="&#xdd;" horiz-adv-x="1251" d="M16 1411q0 11 8.5 21t18.5 10q17 0 85 -4t148 -4q40 0 90 4t54 4q39 0 39 -21q0 -11 -15 -21.5t-33.5 -17.5t-33.5 -22t-15 -35q0 -29 37 -84l248 -395q24 -37 41 -37q15 0 39 41l211 342q1 2 9.5 14.5t12 20t10 21t9 27.5t2.5 30q0 34 -24 51.5t-53 20.5t-53 10.5 t-24 23.5q0 31 43 31q24 0 75 -4t75 -4q30 0 89 4t89 4q9 0 16 -8.5t7 -16.5q0 -10 -8 -17.5t-24 -14t-18 -7.5q-19 -12 -37 -30.5t-27 -31.5t-27 -42t-23 -37l-287 -446q-9 -14 -21 -31t-16.5 -24t-8 -17t-3.5 -21v-501q0 -50 17.5 -81t42 -43t49 -19t42 -16t17.5 -26 q0 -12 -11 -16t-36 -4q-10 0 -96 4t-130 4q-40 0 -82 -2t-69.5 -4t-32.5 -2q-16 0 -23.5 4t-7.5 20q0 15 16.5 23t39.5 13t46 14.5t39.5 34.5t16.5 65v496q0 11 -3 22.5t-9.5 24.5t-10.5 20t-13.5 21t-10.5 16l-342 547q-23 38 -62 55t-65.5 23t-26.5 20zM479 1563l301 299 q16 16 25.5 24t25.5 15.5t33 7.5q28 0 47 -23.5t19 -52.5q0 -17 -14 -34t-28.5 -27t-39.5 -24.5t-31 -18.5l-266 -166h-72z" />
<glyph unicode="&#xde;" horiz-adv-x="1138" d="M78 1411q0 13 7 22t19 9q4 0 33 -2t80.5 -4t110.5 -2q58 0 108.5 2t79.5 4t33 2q12 0 19 -9t7 -22q0 -25 -47 -25q-60 0 -90 -37t-30 -120v-82l44 3q43 3 95 3q82 0 157 -11.5t148 -40t126 -72.5t85.5 -113.5t32.5 -157.5q0 -21 -4.5 -48t-18.5 -65.5t-35.5 -75.5 t-60.5 -75t-89 -66t-125 -45.5t-165 -17.5q-33 0 -86 11.5t-53 35.5q0 18 20 18q1 0 45 -6t88 -6q158 0 245 73.5t87 210.5q0 179 -120.5 279t-305.5 100q-67 0 -88.5 -11.5t-21.5 -49.5v-754q0 -59 16 -104.5t41 -69t50.5 -34.5t49.5 -11q25 0 41.5 -9t16.5 -22 q0 -24 -60 -24q-29 0 -91.5 4t-129.5 4q-53 0 -125.5 -4t-97.5 -4q-12 0 -22.5 6t-10.5 18q0 11 12 18.5t29.5 12t38.5 16t38.5 28.5t29.5 53t12 87v998q0 83 -30.5 120t-90.5 37q-47 0 -47 25z" />
<glyph unicode="&#xdf;" d="M43 20q0 5 11.5 8t28.5 9.5t33.5 19.5t28 43.5t11.5 75.5v838q0 43 1.5 76.5t9 87t20 94.5t38 86.5t60.5 75t89 49.5t122 20q166 0 263 -98.5t97 -267.5q0 -62 -24 -115.5t-64 -92t-86 -65t-96 -41.5v-4q179 -19 272.5 -133t93.5 -313q0 -105 -40 -194.5t-119 -145.5 t-181 -56q-35 0 -60.5 24.5t-25.5 59.5q0 93 33 93q20 0 37.5 -15t28.5 -32.5t29 -32.5t38 -15q115 0 115 318q0 65 -8.5 121t-30.5 110.5t-56 92.5t-89.5 61.5t-126.5 23.5h-8.5h-9.5t-8.5 1t-8.5 2.5t-5.5 4.5t-5 8t-1.5 11q0 18 21.5 26.5t41.5 8.5q82 0 143.5 83.5 t61.5 229.5q0 54 -12 103.5t-37 92.5t-69 69t-101 26q-47 0 -82.5 -18t-55.5 -48.5t-33.5 -69.5t-16.5 -81t-5 -84t0 -78v-973q0 -26 19 -39.5t42.5 -15.5t42.5 -8t19 -19q0 -7 -1 -11t-5 -5.5t-5.5 -2t-8.5 0t-9 0.5h-331q-11 0 -15 1t-7 5t-3 14z" />
<glyph unicode="&#xe0;" horiz-adv-x="909" d="M80 647q1 37 23.5 77t63.5 76t108.5 58.5t148.5 20.5q42 0 82.5 -5t86 -19.5t78.5 -37t55 -61t22 -88.5v-424q0 -8 -0.5 -32t-0.5 -37t2 -35t8 -34.5t15.5 -26t25.5 -20t38 -6.5q4 0 17 2t17 2q27 0 27 -14q0 -28 -41 -39.5t-78 -11.5q-119 0 -160 104 q-138 -119 -313 -119q-221 0 -221 195q0 27 3 48t15 48.5t33 49t59.5 47t92 46t132.5 41t179 37.5v158q0 80 -58 129t-153 49q-34 0 -56.5 -2t-47.5 -9t-40 -20t-24.5 -36t-9.5 -56q0 -16 6 -45t6 -39q0 -19 -9 -28.5t-36 -9.5q-29 0 -62.5 20.5t-33.5 46.5zM158 1247 q0 29 18.5 52.5t46.5 23.5q17 0 33 -7.5t25.5 -15.5t25.5 -24l301 -299h-71l-267 166q-7 5 -24.5 15t-30.5 18t-27 19.5t-22 24.5t-8 27zM217 199q0 -86 42 -124t126 -38q41 0 88.5 18t86 57.5t38.5 90.5v237q-10 -2 -53 -11t-63 -13.5t-61 -16.5t-63.5 -23t-53.5 -29.5 t-47 -38.5t-28 -48t-12 -61z" />
<glyph unicode="&#xe1;" horiz-adv-x="909" d="M80 647q1 37 23.5 77t63.5 76t108.5 58.5t148.5 20.5q42 0 82.5 -5t86 -19.5t78.5 -37t55 -61t22 -88.5v-424q0 -8 -0.5 -32t-0.5 -37t2 -35t8 -34.5t15.5 -26t25.5 -20t38 -6.5q4 0 17 2t17 2q27 0 27 -14q0 -28 -41 -39.5t-78 -11.5q-119 0 -160 104 q-138 -119 -313 -119q-221 0 -221 195q0 27 3 48t15 48.5t33 49t59.5 47t92 46t132.5 41t179 37.5v158q0 80 -58 129t-153 49q-34 0 -56.5 -2t-47.5 -9t-40 -20t-24.5 -36t-9.5 -56q0 -16 6 -45t6 -39q0 -19 -9 -28.5t-36 -9.5q-29 0 -62.5 20.5t-33.5 46.5zM217 199 q0 -86 42 -124t126 -38q41 0 88.5 18t86 57.5t38.5 90.5v237q-10 -2 -53 -11t-63 -13.5t-61 -16.5t-63.5 -23t-53.5 -29.5t-47 -38.5t-28 -48t-12 -61zM309 977l301 299q16 16 25.5 24t25.5 15.5t33 7.5q28 0 47 -23.5t19 -52.5q0 -17 -14 -34t-28.5 -27t-39.5 -24.5 t-31 -18.5l-266 -166h-72z" />
<glyph unicode="&#xe2;" horiz-adv-x="909" d="M80 647q1 37 23.5 77t63.5 76t108.5 58.5t148.5 20.5q42 0 82.5 -5t86 -19.5t78.5 -37t55 -61t22 -88.5v-424q0 -8 -0.5 -32t-0.5 -37t2 -35t8 -34.5t15.5 -26t25.5 -20t38 -6.5q4 0 17 2t17 2q27 0 27 -14q0 -28 -41 -39.5t-78 -11.5q-119 0 -160 104 q-138 -119 -313 -119q-221 0 -221 195q0 27 3 48t15 48.5t33 49t59.5 47t92 46t132.5 41t179 37.5v158q0 80 -58 129t-153 49q-34 0 -56.5 -2t-47.5 -9t-40 -20t-24.5 -36t-9.5 -56q0 -16 6 -45t6 -39q0 -19 -9 -28.5t-36 -9.5q-29 0 -62.5 20.5t-33.5 46.5zM150 977 l251 342h115l250 -342h-70l-237 215l-242 -215h-67zM217 199q0 -86 42 -124t126 -38q41 0 88.5 18t86 57.5t38.5 90.5v237q-10 -2 -53 -11t-63 -13.5t-61 -16.5t-63.5 -23t-53.5 -29.5t-47 -38.5t-28 -48t-12 -61z" />
<glyph unicode="&#xe3;" horiz-adv-x="909" d="M80 647q1 37 23.5 77t63.5 76t108.5 58.5t148.5 20.5q42 0 82.5 -5t86 -19.5t78.5 -37t55 -61t22 -88.5v-424q0 -8 -0.5 -32t-0.5 -37t2 -35t8 -34.5t15.5 -26t25.5 -20t38 -6.5q4 0 17 2t17 2q27 0 27 -14q0 -28 -41 -39.5t-78 -11.5q-119 0 -160 104 q-138 -119 -313 -119q-221 0 -221 195q0 27 3 48t15 48.5t33 49t59.5 47t92 46t132.5 41t179 37.5v158q0 80 -58 129t-153 49q-34 0 -56.5 -2t-47.5 -9t-40 -20t-24.5 -36t-9.5 -56q0 -16 6 -45t6 -39q0 -19 -9 -28.5t-36 -9.5q-29 0 -62.5 20.5t-33.5 46.5zM121 1026 q11 84 73.5 143.5t145.5 59.5q45 0 137 -47q92 -49 133 -49q43 0 73.5 29t45.5 73h59q-21 -86 -79 -147.5t-140 -61.5q-27 0 -57.5 9t-48 16.5t-53.5 25.5q-4 2 -19 10t-20.5 10.5t-18.5 8t-21 8t-19.5 4.5t-22.5 2q-42 0 -73 -26.5t-40 -67.5h-55zM217 199q0 -86 42 -124 t126 -38q41 0 88.5 18t86 57.5t38.5 90.5v237q-10 -2 -53 -11t-63 -13.5t-61 -16.5t-63.5 -23t-53.5 -29.5t-47 -38.5t-28 -48t-12 -61z" />
<glyph unicode="&#xe4;" horiz-adv-x="909" d="M80 647q1 37 23.5 77t63.5 76t108.5 58.5t148.5 20.5q42 0 82.5 -5t86 -19.5t78.5 -37t55 -61t22 -88.5v-424q0 -8 -0.5 -32t-0.5 -37t2 -35t8 -34.5t15.5 -26t25.5 -20t38 -6.5q4 0 17 2t17 2q27 0 27 -14q0 -28 -41 -39.5t-78 -11.5q-119 0 -160 104 q-138 -119 -313 -119q-221 0 -221 195q0 27 3 48t15 48.5t33 49t59.5 47t92 46t132.5 41t179 37.5v158q0 80 -58 129t-153 49q-34 0 -56.5 -2t-47.5 -9t-40 -20t-24.5 -36t-9.5 -56q0 -16 6 -45t6 -39q0 -19 -9 -28.5t-36 -9.5q-29 0 -62.5 20.5t-33.5 46.5zM193 1110 q0 19 34 64t52 45q19 0 52.5 -44.5t33.5 -64.5t-33.5 -63t-52.5 -43q-18 0 -52 44t-34 62zM217 199q0 -86 42 -124t126 -38q41 0 88.5 18t86 57.5t38.5 90.5v237q-10 -2 -53 -11t-63 -13.5t-61 -16.5t-63.5 -23t-53.5 -29.5t-47 -38.5t-28 -48t-12 -61zM549 1110 q0 20 33.5 64.5t52.5 44.5q18 0 51 -44.5t33 -64.5t-33 -63t-51 -43q-19 0 -52.5 43t-33.5 63z" />
<glyph unicode="&#xe5;" horiz-adv-x="909" d="M80 647q1 37 23.5 77t63.5 76t108.5 58.5t148.5 20.5q42 0 82.5 -5t86 -19.5t78.5 -37t55 -61t22 -88.5v-424q0 -8 -0.5 -32t-0.5 -37t2 -35t8 -34.5t15.5 -26t25.5 -20t38 -6.5q4 0 17 2t17 2q27 0 27 -14q0 -28 -41 -39.5t-78 -11.5q-119 0 -160 104 q-138 -119 -313 -119q-221 0 -221 195q0 27 3 48t15 48.5t33 49t59.5 47t92 46t132.5 41t179 37.5v158q0 80 -58 129t-153 49q-34 0 -56.5 -2t-47.5 -9t-40 -20t-24.5 -36t-9.5 -56q0 -16 6 -45t6 -39q0 -19 -9 -28.5t-36 -9.5q-29 0 -62.5 20.5t-33.5 46.5zM217 199 q0 -86 42 -124t126 -38q41 0 88.5 18t86 57.5t38.5 90.5v237q-10 -2 -53 -11t-63 -13.5t-61 -16.5t-63.5 -23t-53.5 -29.5t-47 -38.5t-28 -48t-12 -61zM238 1174q0 88 65 154.5t154 66.5t155 -66t66 -155t-66 -155.5t-155 -66.5t-154 66t-65 156zM319 1174q0 -57 40.5 -97.5 t97.5 -40.5t97 40.5t40 97.5t-40 97t-97 40t-97.5 -40t-40.5 -97z" />
<glyph unicode="&#xe6;" horiz-adv-x="1478" d="M106 647q1 37 23.5 77t63.5 76t109 58.5t149 20.5q114 -3 182 -27t125 -90q114 117 276 117q72 0 134.5 -26t103 -65t70 -85t42.5 -84.5t13 -65.5q0 -24 -13 -29.5t-50 -5.5h-7h-545q0 -97 22.5 -175t57.5 -126t80 -80t87.5 -44.5t82.5 -12.5q60 0 112.5 16.5t81.5 36.5 t55 36.5t40 16.5q8 0 8 -14q0 -25 -50.5 -70.5t-138.5 -85t-173 -39.5q-87 0 -153 25t-103.5 58t-92.5 96q-67 -84 -165.5 -131.5t-200.5 -47.5q-221 0 -221 195q0 27 3 48t15 48.5t33 49t59.5 47t92 46t132.5 41t179 37.5v158q0 80 -58 129t-153 49q-34 0 -56.5 -2 t-47.5 -9t-40 -20t-24.5 -36t-9.5 -56q0 -16 6 -45t6 -39q0 -19 -9 -28.5t-36 -9.5q-29 0 -63 20.5t-34 46.5zM244 199q0 -86 42 -124t126 -38q41 0 88.5 18t86 57.5t38.5 90.5v237q-10 -2 -53 -11t-63 -13.5t-61 -16.5t-63.5 -23t-53.5 -29.5t-47 -38.5t-28 -48t-12 -61z M782 573h404q22 0 31.5 9t9.5 32q0 85 -71 151t-157 66q-90 0 -153.5 -83.5t-63.5 -174.5z" />
<glyph unicode="&#xe7;" horiz-adv-x="909" d="M59 412q0 126 61 233.5t167 170.5t233 63q85 0 164.5 -21.5t83.5 -54.5q2 -23 2 -121q0 -43 -16 -43q-6 0 -12 4t-12 10.5t-10.5 12t-9 12.5t-5.5 8q-93 125 -254 125q-62 0 -110.5 -30t-76 -79.5t-41.5 -105t-14 -113.5q0 -172 97 -287.5t265 -115.5q55 0 107 18.5 t82.5 41t56.5 41t35 18.5q5 0 10.5 -4.5t5.5 -8.5q0 -11 -14.5 -34t-47 -53.5t-77.5 -57.5t-115 -45.5t-149 -18.5q-115 0 -209 61.5t-145.5 161t-51.5 212.5zM231 -406l29 62q85 -25 127 -25q44 0 80.5 22.5t36.5 63.5q0 36 -27 59t-63 23q-35 0 -52 -12l-47 10l91 203h71 l-61 -135q46 12 69 12q64 0 112 -39.5t48 -101.5q0 -48 -22.5 -83.5t-60.5 -53.5t-79 -26.5t-86 -8.5q-89 0 -166 30z" />
<glyph unicode="&#xe8;" horiz-adv-x="909" d="M68 397q0 133 46 241t138.5 174.5t216.5 66.5q72 0 134 -26t102.5 -65t70 -85t42.5 -84.5t13 -65.5q0 -24 -12.5 -29.5t-49.5 -5.5h-7h-545q0 -97 22.5 -175t57.5 -126t80 -80t87.5 -44.5t82.5 -12.5q60 0 112.5 16.5t81.5 36.5t55 36.5t40 16.5q8 0 8 -14 q0 -18 -31.5 -50.5t-80 -64.5t-117.5 -56t-134 -24q-88 0 -160.5 31t-118 78t-77 105t-44.5 110t-13 96zM158 1247q0 29 18.5 52.5t46.5 23.5q17 0 33 -7.5t25.5 -15.5t25.5 -24l301 -299h-71l-267 166q-7 5 -24.5 15t-30.5 18t-27 19.5t-22 24.5t-8 27zM217 573h404 q22 0 31.5 9t9.5 32q0 85 -71 151t-157 66q-90 0 -153.5 -83.5t-63.5 -174.5z" />
<glyph unicode="&#xe9;" horiz-adv-x="909" d="M68 397q0 133 46 241t138.5 174.5t216.5 66.5q72 0 134 -26t102.5 -65t70 -85t42.5 -84.5t13 -65.5q0 -24 -12.5 -29.5t-49.5 -5.5h-7h-545q0 -97 22.5 -175t57.5 -126t80 -80t87.5 -44.5t82.5 -12.5q60 0 112.5 16.5t81.5 36.5t55 36.5t40 16.5q8 0 8 -14 q0 -18 -31.5 -50.5t-80 -64.5t-117.5 -56t-134 -24q-88 0 -160.5 31t-118 78t-77 105t-44.5 110t-13 96zM217 573h404q22 0 31.5 9t9.5 32q0 85 -71 151t-157 66q-90 0 -153.5 -83.5t-63.5 -174.5zM309 977l301 299q16 16 25.5 24t25.5 15.5t33 7.5q28 0 47 -23.5t19 -52.5 q0 -17 -14 -34t-28.5 -27t-39.5 -24.5t-31 -18.5l-266 -166h-72z" />
<glyph unicode="&#xea;" horiz-adv-x="909" d="M68 397q0 133 46 241t138.5 174.5t216.5 66.5q72 0 134 -26t102.5 -65t70 -85t42.5 -84.5t13 -65.5q0 -24 -12.5 -29.5t-49.5 -5.5h-7h-545q0 -97 22.5 -175t57.5 -126t80 -80t87.5 -44.5t82.5 -12.5q60 0 112.5 16.5t81.5 36.5t55 36.5t40 16.5q8 0 8 -14 q0 -18 -31.5 -50.5t-80 -64.5t-117.5 -56t-134 -24q-88 0 -160.5 31t-118 78t-77 105t-44.5 110t-13 96zM150 977l251 342h115l250 -342h-70l-237 215l-242 -215h-67zM217 573h404q22 0 31.5 9t9.5 32q0 85 -71 151t-157 66q-90 0 -153.5 -83.5t-63.5 -174.5z" />
<glyph unicode="&#xeb;" horiz-adv-x="909" d="M68 397q0 133 46 241t138.5 174.5t216.5 66.5q72 0 134 -26t102.5 -65t70 -85t42.5 -84.5t13 -65.5q0 -24 -12.5 -29.5t-49.5 -5.5h-7h-545q0 -97 22.5 -175t57.5 -126t80 -80t87.5 -44.5t82.5 -12.5q60 0 112.5 16.5t81.5 36.5t55 36.5t40 16.5q8 0 8 -14 q0 -18 -31.5 -50.5t-80 -64.5t-117.5 -56t-134 -24q-88 0 -160.5 31t-118 78t-77 105t-44.5 110t-13 96zM193 1110q0 19 34 64t52 45q19 0 52.5 -44.5t33.5 -64.5t-33.5 -63t-52.5 -43q-18 0 -52 44t-34 62zM217 573h404q22 0 31.5 9t9.5 32q0 85 -71 151t-157 66 q-90 0 -153.5 -83.5t-63.5 -174.5zM549 1110q0 20 33.5 64.5t52.5 44.5q18 0 51 -44.5t33 -64.5t-33 -63t-51 -43q-19 0 -52.5 43t-33.5 63z" />
<glyph unicode="&#xec;" horiz-adv-x="569" d="M-12 1247q0 29 18.5 52.5t46.5 23.5q17 0 33 -7.5t25.5 -15.5t25.5 -24l301 -299h-71l-267 166q-7 5 -24.5 15t-30.5 18t-27 19.5t-22 24.5t-8 27zM104 770q0 19 19 23q56 16 101.5 42t72 43t45.5 17q10 0 17.5 -9.5t7.5 -23.5v-735q0 -29 16.5 -46.5t40.5 -23.5 t47.5 -10t40 -11.5t16.5 -21.5q0 -7 -3 -10.5t-5.5 -4t-10 0t-9.5 0.5h-322q-3 0 -11 -0.5t-13.5 -0.5t-12 1t-10 4.5t-4.5 9.5q0 12 6.5 17t16.5 5.5t22 7t22 17.5t16.5 40t6.5 73v483q0 34 -11.5 54.5t-28.5 26.5t-33.5 8.5t-28 7.5t-11.5 16z" />
<glyph unicode="&#xed;" horiz-adv-x="569" d="M104 770q0 19 19 23q56 16 101.5 42t72 43t45.5 17q10 0 17.5 -9.5t7.5 -23.5v-735q0 -29 16.5 -46.5t40.5 -23.5t47.5 -10t40 -11.5t16.5 -21.5q0 -7 -3 -10.5t-5.5 -4t-10 0t-9.5 0.5h-322q-3 0 -11 -0.5t-13.5 -0.5t-12 1t-10 4.5t-4.5 9.5q0 12 6.5 17t16.5 5.5t22 7 t22 17.5t16.5 40t6.5 73v483q0 34 -11.5 54.5t-28.5 26.5t-33.5 8.5t-28 7.5t-11.5 16zM139 977l301 299q16 16 25.5 24t25.5 15.5t33 7.5q28 0 47 -23.5t19 -52.5q0 -17 -14 -34t-28.5 -27t-39.5 -24.5t-31 -18.5l-266 -166h-72z" />
<glyph unicode="&#xee;" horiz-adv-x="569" d="M-20 977l251 342h115l250 -342h-70l-237 215l-242 -215h-67zM104 770q0 19 19 23q56 16 101.5 42t72 43t45.5 17q10 0 17.5 -9.5t7.5 -23.5v-735q0 -29 16.5 -46.5t40.5 -23.5t47.5 -10t40 -11.5t16.5 -21.5q0 -7 -3 -10.5t-5.5 -4t-10 0t-9.5 0.5h-322q-3 0 -11 -0.5 t-13.5 -0.5t-12 1t-10 4.5t-4.5 9.5q0 12 6.5 17t16.5 5.5t22 7t22 17.5t16.5 40t6.5 73v483q0 34 -11.5 54.5t-28.5 26.5t-33.5 8.5t-28 7.5t-11.5 16z" />
<glyph unicode="&#xef;" horiz-adv-x="569" d="M23 1110q0 19 34 64t52 45q19 0 52.5 -44.5t33.5 -64.5t-33.5 -63t-52.5 -43q-18 0 -52 44t-34 62zM104 770q0 19 19 23q56 16 101.5 42t72 43t45.5 17q10 0 17.5 -9.5t7.5 -23.5v-735q0 -29 16.5 -46.5t40.5 -23.5t47.5 -10t40 -11.5t16.5 -21.5q0 -7 -3 -10.5t-5.5 -4 t-10 0t-9.5 0.5h-322q-3 0 -11 -0.5t-13.5 -0.5t-12 1t-10 4.5t-4.5 9.5q0 12 6.5 17t16.5 5.5t22 7t22 17.5t16.5 40t6.5 73v483q0 34 -11.5 54.5t-28.5 26.5t-33.5 8.5t-28 7.5t-11.5 16zM379 1110q0 20 33.5 64.5t52.5 44.5q18 0 51 -44.5t33 -64.5t-33 -63t-51 -43 q-19 0 -52.5 43t-33.5 63z" />
<glyph unicode="&#xf0;" d="M61 412q0 124 59.5 231.5t163 171.5t224.5 64q133 0 219 -74l4 4q-27 84 -83.5 180t-125.5 180l-243 -135l-35 58l235 131q-47 51 -109.5 99.5t-98 74t-35.5 35.5q0 28 28 28q29 0 122.5 -63.5t172.5 -130.5l244 135l35 -58l-228 -126q353 -329 353 -721 q0 -239 -124.5 -379t-318.5 -140q-204 0 -331.5 116t-127.5 319zM205 483q0 -63 11.5 -125.5t37.5 -124t63.5 -108.5t95 -76t126.5 -29q133 0 206.5 92.5t73.5 278.5q0 66 -11 127.5t-36 119.5t-62.5 101t-94.5 69t-128 26q-72 0 -128 -30t-88.5 -80.5t-49 -111.5 t-16.5 -129z" />
<glyph unicode="&#xf1;" horiz-adv-x="1138" d="M29 770q0 19 18 23q73 16 128 42t83.5 43t46.5 17q10 0 17.5 -9.5t7.5 -23.5v-135q-1 -5 5 0q2 3 10 11q117 127 251 140q15 1 31 1q79 0 140 -25.5t96.5 -64t58.5 -91.5t31 -101.5t8 -100.5v-338q0 -48 25 -73t54.5 -28.5t54.5 -11.5t25 -25t-8.5 -22.5t-26.5 -5.5 q-4 0 -61.5 4t-116.5 4q-45 0 -92.5 -4t-54.5 -4q-21 0 -29 4.5t-8 19.5q0 11 9 16.5t22 10.5t26 14t22 32.5t9 60.5v382q0 40 -14.5 83t-42.5 82.5t-76 65t-107 25.5q-60 0 -110 -20t-76.5 -47.5t-41 -52.5t-13.5 -39v-471q0 -39 18.5 -62.5t45 -31.5t53 -12t45 -10.5 t18.5 -21.5q0 -18 -10 -23t-35 -5q-7 0 -66 4t-129 4q-65 0 -118.5 -4t-55.5 -4q-21 0 -29 4.5t-8 19.5q0 11 12.5 16.5t30.5 10.5t35.5 14t30 32.5t12.5 60.5v507q0 34 -15.5 54.5t-37.5 26.5t-44.5 8.5t-38 7.5t-15.5 16zM236 1026q11 84 73.5 143.5t145.5 59.5 q45 0 137 -47q92 -49 133 -49q43 0 73.5 29t45.5 73h59q-21 -86 -79 -147.5t-140 -61.5q-56 0 -160 51q-4 2 -19 10t-20.5 10.5t-18.5 8t-21 8t-19.5 4.5t-22.5 2q-42 0 -72.5 -26.5t-39.5 -67.5h-55z" />
<glyph unicode="&#xf2;" d="M61 412q0 125 60 232t165.5 171t231.5 64q53 0 107 -10.5t116.5 -41.5t110 -79t79.5 -132.5t32 -193.5q0 -189 -127 -317t-316 -128q-204 0 -331.5 116t-127.5 319zM205 483q0 -63 11.5 -125.5t37.5 -124t63.5 -108.5t95 -76t126.5 -29q133 0 206.5 92.5t73.5 278.5 q0 66 -11 127.5t-36 119.5t-62.5 101t-94.5 69t-128 26q-72 0 -128 -30t-88.5 -80.5t-49 -111.5t-16.5 -129zM215 1247q0 29 19 52.5t47 23.5q17 0 33 -7.5t25.5 -15.5t25.5 -24l301 -299h-72l-266 166q-6 4 -31 18.5t-39.5 24.5t-28.5 27t-14 34z" />
<glyph unicode="&#xf3;" d="M61 412q0 125 60 232t165.5 171t231.5 64q53 0 107 -10.5t116.5 -41.5t110 -79t79.5 -132.5t32 -193.5q0 -189 -127 -317t-316 -128q-204 0 -331.5 116t-127.5 319zM205 483q0 -63 11.5 -125.5t37.5 -124t63.5 -108.5t95 -76t126.5 -29q133 0 206.5 92.5t73.5 278.5 q0 66 -11 127.5t-36 119.5t-62.5 101t-94.5 69t-128 26q-72 0 -128 -30t-88.5 -80.5t-49 -111.5t-16.5 -129zM367 977l301 299q16 16 25.5 24t25.5 15.5t33 7.5q28 0 46.5 -23.5t18.5 -52.5q0 -14 -8 -27t-22 -24.5t-27 -19.5t-30.5 -18t-24.5 -15l-267 -166h-71z" />
<glyph unicode="&#xf4;" d="M61 412q0 125 60 232t165.5 171t231.5 64q53 0 107 -10.5t116.5 -41.5t110 -79t79.5 -132.5t32 -193.5q0 -189 -127 -317t-316 -128q-204 0 -331.5 116t-127.5 319zM205 483q0 -63 11.5 -125.5t37.5 -124t63.5 -108.5t95 -76t126.5 -29q133 0 206.5 92.5t73.5 278.5 q0 66 -11 127.5t-36 119.5t-62.5 101t-94.5 69t-128 26q-72 0 -128 -30t-88.5 -80.5t-49 -111.5t-16.5 -129zM207 977l252 342h114l250 -342h-69l-238 215l-242 -215h-67z" />
<glyph unicode="&#xf5;" d="M61 412q0 125 60 232t165.5 171t231.5 64q53 0 107 -10.5t116.5 -41.5t110 -79t79.5 -132.5t32 -193.5q0 -189 -127 -317t-316 -128q-204 0 -331.5 116t-127.5 319zM178 1026q11 84 73.5 143.5t145.5 59.5q46 0 138 -47q92 -49 133 -49q43 0 73 29t45 73h60 q-21 -86 -79 -147.5t-140 -61.5q-56 0 -160 51q-4 2 -19 10t-20.5 10.5t-18.5 8t-21 8t-19.5 4.5t-22.5 2q-42 0 -73 -26.5t-40 -67.5h-55zM205 483q0 -63 11.5 -125.5t37.5 -124t63.5 -108.5t95 -76t126.5 -29q133 0 206.5 92.5t73.5 278.5q0 66 -11 127.5t-36 119.5 t-62.5 101t-94.5 69t-128 26q-72 0 -128 -30t-88.5 -80.5t-49 -111.5t-16.5 -129z" />
<glyph unicode="&#xf6;" d="M61 412q0 125 60 232t165.5 171t231.5 64q53 0 107 -10.5t116.5 -41.5t110 -79t79.5 -132.5t32 -193.5q0 -189 -127 -317t-316 -128q-204 0 -331.5 116t-127.5 319zM205 483q0 -63 11.5 -125.5t37.5 -124t63.5 -108.5t95 -76t126.5 -29q133 0 206.5 92.5t73.5 278.5 q0 66 -11 127.5t-36 119.5t-62.5 101t-94.5 69t-128 26q-72 0 -128 -30t-88.5 -80.5t-49 -111.5t-16.5 -129zM250 1110q0 19 34 64t52 45q19 0 52.5 -44.5t33.5 -64.5t-33.5 -63t-52.5 -43q-18 0 -52 44t-34 62zM606 1110q0 20 33.5 64.5t52.5 44.5q18 0 51 -44.5t33 -64.5 t-33 -63t-51 -43q-19 0 -52.5 43t-33.5 63z" />
<glyph unicode="&#xf7;" horiz-adv-x="1241" d="M166 578v110h907v-110h-907zM492 307q0 54 37.5 92.5t91.5 38.5t91.5 -38.5t37.5 -92.5t-37.5 -91.5t-91.5 -37.5t-91.5 37.5t-37.5 91.5zM492 956q0 54 37.5 92.5t91.5 38.5t91.5 -38.5t37.5 -92.5t-37.5 -91.5t-91.5 -37.5t-91.5 37.5t-37.5 91.5z" />
<glyph unicode="&#xf8;" d="M61 412q0 125 60 232t165.5 171t231.5 64q100 0 184 -35l107 198h80l-123 -227q83 -47 140 -143.5t57 -249.5q0 -189 -127 -317t-316 -128q-109 0 -194 33l-136 -250h-79l151 281q-96 54 -148.5 148.5t-52.5 222.5zM205 483q0 -95 27 -189t81 -159l351 643 q-75 56 -177 56q-72 0 -128 -30t-88.5 -80.5t-49 -111.5t-16.5 -129zM365 82q72 -62 174 -62q78 0 134.5 30.5t87 84.5t44.5 117t14 139q0 216 -100 338z" />
<glyph unicode="&#xf9;" d="M39 807q0 18 37 18q60 0 110 13q57 10 74 10q10 0 23.5 -12t13.5 -37v-518q-1 -61 17.5 -107t43.5 -69t56.5 -36.5t50 -16.5t31.5 -3q83 0 151.5 49t71.5 97v534q0 26 -17 38t-37.5 12t-37.5 6t-17 22q0 18 37 18q61 0 111 13q58 10 73 10q10 0 23.5 -12t13.5 -37v-709 q0 -22 32 -30.5t64.5 -15.5t32.5 -26q0 -18 -75 -18q-49 0 -111 -10q-50 -13 -70 -13q-18 0 -18 31v113h-4q-46 -71 -117.5 -107.5t-155.5 -36.5q-128 0 -213.5 74t-85.5 201v477q0 26 -17 38t-37 12t-37 6t-17 22zM215 1247q0 29 19 52.5t47 23.5q17 0 33 -7.5t25.5 -15.5 t25.5 -24l301 -299h-72l-266 166q-6 4 -31 18.5t-39.5 24.5t-28.5 27t-14 34z" />
<glyph unicode="&#xfa;" d="M39 807q0 18 37 18q60 0 110 13q57 10 74 10q10 0 23.5 -12t13.5 -37v-518q-1 -61 17.5 -107t43.5 -69t56.5 -36.5t50 -16.5t31.5 -3q83 0 151.5 49t71.5 97v534q0 26 -17 38t-37.5 12t-37.5 6t-17 22q0 18 37 18q61 0 111 13q58 10 73 10q10 0 23.5 -12t13.5 -37v-709 q0 -22 32 -30.5t64.5 -15.5t32.5 -26q0 -18 -75 -18q-49 0 -111 -10q-50 -13 -70 -13q-18 0 -18 31v113h-4q-46 -71 -117.5 -107.5t-155.5 -36.5q-128 0 -213.5 74t-85.5 201v477q0 26 -17 38t-37 12t-37 6t-17 22zM367 977l301 299q16 16 25.5 24t25.5 15.5t33 7.5 q28 0 46.5 -23.5t18.5 -52.5q0 -14 -8 -27t-22 -24.5t-27 -19.5t-30.5 -18t-24.5 -15l-267 -166h-71z" />
<glyph unicode="&#xfb;" d="M39 807q0 18 37 18q60 0 110 13q57 10 74 10q10 0 23.5 -12t13.5 -37v-518q-1 -61 17.5 -107t43.5 -69t56.5 -36.5t50 -16.5t31.5 -3q83 0 151.5 49t71.5 97v534q0 26 -17 38t-37.5 12t-37.5 6t-17 22q0 18 37 18q61 0 111 13q58 10 73 10q10 0 23.5 -12t13.5 -37v-709 q0 -22 32 -30.5t64.5 -15.5t32.5 -26q0 -18 -75 -18q-49 0 -111 -10q-50 -13 -70 -13q-18 0 -18 31v113h-4q-46 -71 -117.5 -107.5t-155.5 -36.5q-128 0 -213.5 74t-85.5 201v477q0 26 -17 38t-37 12t-37 6t-17 22zM207 977l252 342h114l250 -342h-69l-238 215l-242 -215 h-67z" />
<glyph unicode="&#xfc;" d="M39 807q0 18 37 18q60 0 110 13q57 10 74 10q10 0 23.5 -12t13.5 -37v-518q-1 -61 17.5 -107t43.5 -69t56.5 -36.5t50 -16.5t31.5 -3q83 0 151.5 49t71.5 97v534q0 26 -17 38t-37.5 12t-37.5 6t-17 22q0 18 37 18q61 0 111 13q58 10 73 10q10 0 23.5 -12t13.5 -37v-709 q0 -22 32 -30.5t64.5 -15.5t32.5 -26q0 -18 -75 -18q-49 0 -111 -10q-50 -13 -70 -13q-18 0 -18 31v113h-4q-46 -71 -117.5 -107.5t-155.5 -36.5q-128 0 -213.5 74t-85.5 201v477q0 26 -17 38t-37 12t-37 6t-17 22zM250 1110q0 19 34 64t52 45q19 0 52.5 -44.5t33.5 -64.5 t-33.5 -63t-52.5 -43q-18 0 -52 44t-34 62zM606 1110q0 20 33.5 64.5t52.5 44.5q18 0 51 -44.5t33 -64.5t-33 -63t-51 -43q-19 0 -52.5 43t-33.5 63z" />
<glyph unicode="&#xfd;" horiz-adv-x="909" d="M23 831q0 15 9 20t31 5q20 0 67.5 -4t76.5 -4q41 0 90 4t61 4q24 0 33.5 -5t9.5 -22q0 -14 -18 -20t-40 -7.5t-40 -15t-18 -41.5q0 -33 13 -49q1 -2 1.5 -1t-0.5 5l-4 -4l219 -557l158 463q24 71 24 107q0 38 -20.5 60t-45 27.5t-45 14.5t-20.5 23t15 18t47 4q9 0 45 -4 t69 -4q27 0 62.5 4t42.5 4q39 0 39 -25q0 -15 -12 -21.5t-28 -9t-36.5 -24t-34.5 -63.5l-389 -1123q-2 -6 -68 -6q-75 0 -75 15q0 14 29 53t64 82.5t64 105.5t29 117q0 14 -2 27.5t-8 30.5t-8.5 25t-12 29.5t-10.5 24.5l-268 662q-6 15 -22.5 26.5t-32.5 17t-28.5 13.5 t-12.5 18zM309 977l301 299q16 16 25.5 24t25.5 15.5t33 7.5q28 0 47 -23.5t19 -52.5q0 -17 -14 -34t-28.5 -27t-39.5 -24.5t-31 -18.5l-266 -166h-72z" />
<glyph unicode="&#xfe;" d="M16 1399q0 17 17 20q27 5 81 26t81 38q7 4 20.5 13t19.5 12.5t15.5 8.5t16.5 7t14 2q9 0 16.5 -9.5t7.5 -23.5v-750q145 136 281 136q117 0 201.5 -58t124.5 -150.5t40 -207.5q0 -59 -14.5 -122.5t-48 -129.5t-82.5 -117.5t-124.5 -84t-166.5 -32.5q-99 0 -211 56v-297 q0 -45 29.5 -69.5t65 -28.5t65 -12t29.5 -23q0 -17 -9 -22t-30 -5q-8 0 -33.5 2t-72.5 4t-107 2q-47 0 -102.5 -4t-59.5 -4q-31 0 -31 23q0 14 11 23t26.5 15.5t31.5 16.5t27 32.5t11 57.5v1554q0 34 -22 52t-48 21t-48 9t-22 19zM305 213q0 -81 79 -133.5t187 -52.5 q68 0 121 30.5t84.5 80.5t47.5 109t16 122q0 73 -19 143.5t-55 132t-98 99.5t-140 38q-55 0 -97.5 -14t-65.5 -34t-37.5 -46.5t-18.5 -46t-4 -37.5v-391z" />
<glyph unicode="&#xff;" horiz-adv-x="909" d="M23 831q0 15 9 20t31 5q20 0 67.5 -4t76.5 -4q41 0 90 4t61 4q24 0 33.5 -5t9.5 -22q0 -14 -18 -20t-40 -7.5t-40 -15t-18 -41.5q0 -33 13 -49q1 -2 1.5 -1t-0.5 5l-4 -4l219 -557l158 463q24 71 24 107q0 38 -20.5 60t-45 27.5t-45 14.5t-20.5 23t15 18t47 4q9 0 45 -4 t69 -4q27 0 62.5 4t42.5 4q39 0 39 -25q0 -15 -12 -21.5t-28 -9t-36.5 -24t-34.5 -63.5l-389 -1123q-2 -6 -68 -6q-75 0 -75 15q0 14 29 53t64 82.5t64 105.5t29 117q0 14 -2 27.5t-8 30.5t-8.5 25t-12 29.5t-10.5 24.5l-268 662q-6 15 -22.5 26.5t-32.5 17t-28.5 13.5 t-12.5 18zM193 1110q0 19 34 64t52 45q19 0 52.5 -44.5t33.5 -64.5t-33.5 -63t-52.5 -43q-18 0 -52 44t-34 62zM549 1110q0 20 33.5 64.5t52.5 44.5q18 0 51 -44.5t33 -64.5t-33 -63t-51 -43q-19 0 -52.5 43t-33.5 63z" />
<glyph unicode="&#x152;" horiz-adv-x="2048" d="M51 723q0 156 55 292t147.5 228.5t214.5 145.5t255 53q60 0 235.5 -4t249.5 -4q146 0 420 4t283 4q20 0 20 -45q0 -244 -41 -244q-21 0 -26 25.5t-7.5 63t-15.5 56.5q-11 14 -31 25t-48 17t-53.5 10t-61.5 5t-57.5 1.5t-55 0t-41.5 -0.5q-109 0 -128 -6q-27 -8 -32 -42 q-2 -17 -2 -81v-381q0 -53 8.5 -61.5t69.5 -8.5h190q50 0 85.5 12t52 30.5t27.5 39.5t14.5 39.5t10 30.5t17.5 12t17 -12.5t6 -26.5q0 -37 -2 -106t-2 -101q0 -26 2 -80t2 -82q0 -26 -23 -26q-17 0 -24.5 18.5t-12 45t-14 53t-38.5 45t-77 18.5h-272q-9 0 -15.5 -1.5 t-10.5 -6t-6.5 -8t-3.5 -11.5t-1 -11v-14v-13v-377q0 -12 -0.5 -34t0 -30.5t1 -25t3 -23t6.5 -17.5t11 -15t17 -10.5t23.5 -8.5t31 -4t40.5 -2q112 0 204.5 15.5t148 39t99 51t64.5 51t35 39t19 15.5q16 0 16 -25q0 -89 -102 -199q-42 -48 -78 -58.5t-107 -10.5h-8.5h-7.5 q-78 0 -233.5 4t-233.5 4h-272q-60 0 -145 -11.5t-95 -11.5q-218 0 -382 97t-249.5 265.5t-85.5 383.5zM207 774q0 -102 27.5 -206t83 -199t131.5 -168.5t180.5 -117.5t222.5 -44q76 0 132 18t99 59.5t64.5 114t21.5 177.5v628q0 193 -103.5 273t-307.5 80 q-183 0 -308.5 -78.5t-184 -214.5t-58.5 -322z" />
<glyph unicode="&#x153;" horiz-adv-x="1593" d="M61 416q0 124 56 230t158 169.5t227 63.5q105 0 200.5 -48t157.5 -126q37 72 131.5 123t196.5 51q68 0 127.5 -26t99 -65t68.5 -85t42 -85t13 -65q0 -24 -13 -29.5t-50 -5.5h-7h-532q0 -97 22.5 -175t57.5 -126t80 -80t87.5 -44.5t82.5 -12.5q52 0 100.5 16.5t77 36.5 t55.5 36.5t41 16.5q8 0 8 -14q0 -20 -29 -52t-75 -64.5t-112.5 -55.5t-131.5 -23q-109 0 -196.5 50t-141.5 131q-61 -92 -164.5 -136.5t-222.5 -44.5q-122 0 -217.5 59.5t-146 159t-50.5 220.5zM213 481q0 -76 17.5 -152.5t52.5 -148.5t98.5 -117t144.5 -45q76 0 131 30.5 t85 84t43.5 114.5t13.5 132q0 106 -22.5 189.5t-56 132.5t-77.5 80.5t-83 43t-77 11.5q-75 0 -129 -29.5t-84 -81.5t-43.5 -112.5t-13.5 -131.5zM936 573h399q31 0 31 41q0 86 -68.5 150.5t-154.5 64.5q-87 0 -147 -81.5t-60 -174.5z" />
<glyph unicode="&#x178;" horiz-adv-x="1251" d="M16 1411q0 11 8.5 21t18.5 10q17 0 85 -4t148 -4q40 0 90 4t54 4q39 0 39 -21q0 -11 -15 -21.5t-33.5 -17.5t-33.5 -22t-15 -35q0 -29 37 -84l248 -395q24 -37 41 -37q15 0 39 41l211 342q1 2 9.5 14.5t12 20t10 21t9 27.5t2.5 30q0 34 -24 51.5t-53 20.5t-53 10.5 t-24 23.5q0 31 43 31q24 0 75 -4t75 -4q30 0 89 4t89 4q9 0 16 -8.5t7 -16.5q0 -10 -8 -17.5t-24 -14t-18 -7.5q-19 -12 -37 -30.5t-27 -31.5t-27 -42t-23 -37l-287 -446q-9 -14 -21 -31t-16.5 -24t-8 -17t-3.5 -21v-501q0 -50 17.5 -81t42 -43t49 -19t42 -16t17.5 -26 q0 -12 -11 -16t-36 -4q-10 0 -96 4t-130 4q-40 0 -82 -2t-69.5 -4t-32.5 -2q-16 0 -23.5 4t-7.5 20q0 15 16.5 23t39.5 13t46 14.5t39.5 34.5t16.5 65v496q0 11 -3 22.5t-9.5 24.5t-10.5 20t-13.5 21t-10.5 16l-342 547q-23 38 -62 55t-65.5 23t-26.5 20zM362 1696 q0 18 34.5 63t52.5 45q19 0 52.5 -44t33.5 -64t-33.5 -63.5t-52.5 -43.5q-18 0 -52.5 44.5t-34.5 62.5zM719 1696q0 20 33.5 64t52.5 44q18 0 51 -44t33 -64t-33 -63.5t-51 -43.5q-19 0 -52.5 43.5t-33.5 63.5z" />
<glyph unicode="&#x2c6;" horiz-adv-x="681" d="M35 977l252 342h114l250 -342h-69l-238 215l-242 -215h-67z" />
<glyph unicode="&#x2dc;" horiz-adv-x="681" d="M6 1026q11 84 73.5 143.5t145.5 59.5q45 0 137 -47q92 -49 134 -49q43 0 73 29t45 73h60q-21 -86 -79 -147.5t-140 -61.5q-56 0 -160 51q-4 2 -19 10t-20.5 10.5t-18.5 8t-21 8t-19.5 4.5t-22.5 2q-42 0 -73 -26.5t-40 -67.5h-55z" />
<glyph unicode="&#x2000;" horiz-adv-x="990" />
<glyph unicode="&#x2001;" horiz-adv-x="1980" />
<glyph unicode="&#x2002;" horiz-adv-x="990" />
<glyph unicode="&#x2003;" horiz-adv-x="1980" />
<glyph unicode="&#x2004;" horiz-adv-x="660" />
<glyph unicode="&#x2005;" horiz-adv-x="495" />
<glyph unicode="&#x2006;" horiz-adv-x="330" />
<glyph unicode="&#x2007;" horiz-adv-x="330" />
<glyph unicode="&#x2008;" horiz-adv-x="247" />
<glyph unicode="&#x2009;" horiz-adv-x="396" />
<glyph unicode="&#x200a;" horiz-adv-x="110" />
<glyph unicode="&#x2010;" horiz-adv-x="681" d="M112 352l1 8v19q0 44 7 54t48 24l311 110q9 3 25.5 10.5t27.5 11t17 3.5q7 0 11 -3.5t5.5 -11t2 -12t0.5 -13.5l-1 -9v-18q0 -42 -6.5 -51t-48.5 -23l-311 -111q-9 -3 -25.5 -10.5t-27.5 -11t-17 -3.5q-7 0 -11 3t-5.5 9.5t-2 11t-0.5 13.5z" />
<glyph unicode="&#x2011;" horiz-adv-x="681" d="M112 352l1 8v19q0 44 7 54t48 24l311 110q9 3 25.5 10.5t27.5 11t17 3.5q7 0 11 -3.5t5.5 -11t2 -12t0.5 -13.5l-1 -9v-18q0 -42 -6.5 -51t-48.5 -23l-311 -111q-9 -3 -25.5 -10.5t-27.5 -11t-17 -3.5q-7 0 -11 3t-5.5 9.5t-2 11t-0.5 13.5z" />
<glyph unicode="&#x2012;" horiz-adv-x="681" d="M112 352l1 8v19q0 44 7 54t48 24l311 110q9 3 25.5 10.5t27.5 11t17 3.5q7 0 11 -3.5t5.5 -11t2 -12t0.5 -13.5l-1 -9v-18q0 -42 -6.5 -51t-48.5 -23l-311 -111q-9 -3 -25.5 -10.5t-27.5 -11t-17 -3.5q-7 0 -11 3t-5.5 9.5t-2 11t-0.5 13.5z" />
<glyph unicode="&#x2013;" d="M0 403v95h1024v-95h-1024z" />
<glyph unicode="&#x2014;" horiz-adv-x="2048" d="M0 403v95h2048v-95h-2048z" />
<glyph unicode="&#x2018;" horiz-adv-x="454" d="M98 1104q0 71 25 137t60 108t70 67.5t58 25.5q19 0 19 -21q0 -9 -17.5 -26t-38 -36.5t-38 -58.5t-17.5 -86q0 -46 21.5 -84t47 -57.5t47 -37t21.5 -27.5q0 -24 -49 -72.5t-76 -48.5q-38 0 -85.5 63t-47.5 154z" />
<glyph unicode="&#x2019;" horiz-adv-x="454" d="M98 1321q0 24 49 72.5t76 48.5q38 0 85.5 -63t47.5 -154q0 -71 -25 -137t-60 -108t-70 -67.5t-58 -25.5q-18 0 -18 20q0 9 17.5 26t38 36.5t38 58.5t17.5 86q0 38 -14 70t-34.5 52.5t-41 36t-34.5 27.5t-14 21z" />
<glyph unicode="&#x201a;" horiz-adv-x="454" d="M98 137q0 24 49 72.5t76 48.5q38 0 85.5 -63t47.5 -154q0 -71 -25 -137t-60 -108t-70 -67.5t-58 -25.5q-18 0 -18 21q0 9 17.5 26t38 36t38 58t17.5 86q0 38 -14 70t-34.5 52.5t-41 36t-34.5 27.5t-14 21z" />
<glyph unicode="&#x201c;" horiz-adv-x="796" d="M74 1104q0 71 25 137t60 108t70 67.5t58 25.5q18 0 18 -21q0 -9 -17 -26t-38 -36.5t-38 -58.5t-17 -86q0 -46 21.5 -84t47 -57.5t47 -37t21.5 -27.5q0 -24 -49 -72.5t-76 -48.5q-38 0 -85.5 63t-47.5 154zM465 1104q0 71 25 137t60 108t70 67.5t58 25.5q18 0 18 -21 q0 -9 -17 -26t-38 -36.5t-38 -58.5t-17 -86q0 -46 21.5 -84t47 -57.5t47 -37t21.5 -27.5q0 -24 -49 -72.5t-76 -48.5q-38 0 -85.5 63t-47.5 154z" />
<glyph unicode="&#x201d;" horiz-adv-x="796" d="M74 1321q0 24 49 72.5t76 48.5q38 0 85.5 -63t47.5 -154q0 -71 -25 -137t-60 -108t-70 -67.5t-58 -25.5q-19 0 -19 20q0 9 17.5 26t38 36.5t38 58.5t17.5 86q0 38 -14 70t-34 52.5t-40.5 36t-34.5 27.5t-14 21zM465 1321q0 24 49 72.5t76 48.5q38 0 85.5 -63t47.5 -154 q0 -71 -25 -137t-60 -108t-70 -67.5t-58 -25.5q-18 0 -18 20q0 9 17 26t38 36.5t38 58.5t17 86q0 38 -14 70t-34 52.5t-40.5 36t-34.5 27.5t-14 21z" />
<glyph unicode="&#x201e;" horiz-adv-x="796" d="M74 135q0 24 49 72.5t76 48.5q38 0 85.5 -63t47.5 -154q0 -71 -25 -137t-60 -108t-70 -67.5t-58 -25.5q-19 0 -19 20q0 9 17.5 26t38 36.5t38 58.5t17.5 86q0 38 -14 70t-34 52.5t-40.5 36t-34.5 27.5t-14 21zM465 135q0 24 49 72.5t76 48.5q38 0 85.5 -63t47.5 -154 q0 -71 -25 -137t-60 -108t-70 -67.5t-58 -25.5q-18 0 -18 20q0 9 17 26t38 36.5t38 58.5t17 86q0 38 -14 70t-34 52.5t-40.5 36t-34.5 27.5t-14 21z" />
<glyph unicode="&#x2022;" horiz-adv-x="1241" d="M260 721q0 149 106 254.5t255 105.5t254.5 -105.5t105.5 -254.5t-105.5 -255t-254.5 -106t-255 106t-106 255z" />
<glyph unicode="&#x2026;" horiz-adv-x="2048" d="M209 131q0 12 7 18t25.5 17.5t34.5 28.5q13 15 23.5 30.5t14.5 22t10 10.5t16 4t16.5 -4t10 -10.5t14.5 -22t25 -30.5q16 -17 33.5 -28.5t24.5 -17.5t7 -18t-7 -19t-25 -20t-33 -31q-18 -16 -29.5 -33t-17.5 -22.5t-19 -5.5q-12 0 -18 5.5t-17.5 22.5t-28.5 33 q-16 18 -34.5 31t-25.5 20t-7 19zM893 131q0 12 7.5 18t26 17.5t34.5 28.5q14 15 24 30.5t14 22t9.5 10.5t15.5 4t16.5 -4t10 -10.5t14.5 -22t25 -30.5q16 -17 33.5 -28.5t24.5 -17.5t7 -18t-7 -19t-25 -20t-33 -31q-18 -16 -29.5 -33t-17.5 -22.5t-19 -5.5q-12 0 -17.5 5.5 t-17 22.5t-28.5 33q-16 18 -34.5 31t-26 20t-7.5 19zM1577 131q0 12 7.5 18t26 17.5t34.5 28.5q14 15 24 30.5t14 22t9.5 10.5t15.5 4t16.5 -4t10 -10.5t14.5 -22t25 -30.5q16 -17 33.5 -28.5t24.5 -17.5t7 -18t-7 -19t-25 -20t-33 -31q-18 -16 -29.5 -33t-17.5 -22.5 t-19 -5.5q-12 0 -17.5 5.5t-17 22.5t-28.5 33q-16 18 -34.5 31t-26 20t-7.5 19z" />
<glyph unicode="&#x202f;" horiz-adv-x="396" />
<glyph unicode="&#x2039;" horiz-adv-x="681" d="M160 465q0 16 14 29t52 39t69 53q37 32 89.5 84t82.5 79t41 27q12 0 12 -18q0 -24 -63.5 -116t-145.5 -177q82 -85 145.5 -177t63.5 -116q0 -18 -12 -18q-11 0 -41 27t-82.5 79t-89.5 84q-31 27 -69 53t-52 39t-14 29z" />
<glyph unicode="&#x203a;" horiz-adv-x="681" d="M160 172q0 24 63.5 116t145.5 177q-82 85 -145.5 177t-63.5 116q0 18 12 18q11 0 41 -27t82.5 -79t89.5 -84q31 -27 69 -53t52 -39t14 -29t-14 -29t-52 -39t-69 -53q-37 -32 -89.5 -84t-82.5 -79t-41 -27q-12 0 -12 18z" />
<glyph unicode="&#x205f;" horiz-adv-x="495" />
<glyph unicode="&#x2122;" horiz-adv-x="2004" d="M211 1264v170h602v-170h-45q0 78 -31 100t-114 22h-54v-561q0 -18 7.5 -29t23.5 -16.5t30.5 -7t39.5 -2.5v-39h-318v39q25 1 39.5 2.5t30.5 7t23.5 16.5t7.5 29v561h-41q-39 0 -57 -1t-41.5 -7t-33.5 -19t-17 -36t-7 -59h-45zM901 731v39q34 1 52 4t33 15.5t15 35.5v543 q0 14 -10 20.5t-20.5 7.5t-32.5 1h-6v37h205l217 -519l207 519h215v-37h-6q-22 0 -32.5 -1t-21 -7.5t-10.5 -20.5v-514q0 -54 15 -68.5t73 -15.5v-39h-291v39q58 1 73 15.5t15 68.5v502h-14l-246 -625h-16l-250 625h-14v-531q0 -23 15 -35.5t33 -15.5t52 -4v-39h-250z" />
<glyph unicode="&#xe000;" horiz-adv-x="860" d="M0 0v860h860v-860h-860z" />
<glyph unicode="&#xfb01;" d="M37 768l12 84h127q0 239 121 432q28 43 74 90t118.5 88t139.5 41q39 0 90 -10t51 -33q0 -43 -8 -94t-23 -51q-7 0 -13 10.5t-15.5 25.5t-26 30t-53 25.5t-88.5 10.5q-51 0 -95.5 -38t-70 -88t-35.5 -101q-6 -31 -9.5 -63t-5 -75t-2 -61t0 -75t0.5 -64h301q53 0 88.5 6.5 t47 15t20 15t14.5 6.5q9 0 16.5 -9.5t7.5 -23.5v-735q0 -35 25.5 -54t55.5 -22t55.5 -11.5t25.5 -25.5q0 -7 -3 -10.5t-5.5 -4t-10.5 0t-10 0.5h-321q-3 0 -11 -0.5t-13.5 -0.5t-12 1t-10 4.5t-4.5 9.5q0 12 6.5 17t16.5 5.5t22 7t22 17.5t16.5 40t6.5 73v483v20 q1 59 -11 75t-71 16h-264v-623q0 -45 22.5 -68.5t50 -27.5t50 -10.5t22.5 -20.5q0 -7 -2.5 -11.5t-8 -6t-10 -1.5t-12 0.5t-10.5 0.5h-317q-1 0 -7 -0.5t-9 0t-8 1.5t-7 3.5t-2 7.5q0 14 15.5 23t33.5 14.5t33.5 26t15.5 53.5v639h-139z" />
<glyph unicode="&#xfb02;" d="M29 768l12 84h127q0 239 121 432q28 43 74 90t118.5 88t139.5 41q13 0 59.5 -7t48.5 -7q17 0 36 18.5t28 18.5t16.5 -9.5t7.5 -23.5v-1335q0 -48 26.5 -73t58.5 -28.5t58.5 -11.5t26.5 -25q0 -4 -1 -7t-3 -5.5t-4.5 -4t-7 -2t-8.5 -1t-11 -0.5h-12.5h-14.5h-16h-317 q-11 0 -18 5.5t-7 12.5q0 10 16 18.5t34.5 16t34.5 28t16 50.5v1233q-56 37 -133 37q-76 0 -131 -65.5t-70 -145.5q-4 -23 -7 -46t-5 -50t-3 -46.5t-1.5 -51.5t-0.5 -46.5v-50.5v-47h158q23 0 41 8.5t28 17.5t11 9q14 0 14 -17q0 -8 -12 -28l-41 -74h-199v-623 q0 -45 23 -68.5t50 -27.5t50 -10.5t23 -20.5q0 -7 -2.5 -11.5t-8 -6t-10 -1.5t-12 0.5t-10.5 0.5h-318q-1 0 -7 -0.5t-9 0t-7.5 1.5t-6.5 3.5t-2 7.5q0 14 15.5 23t33.5 14.5t33.5 26t15.5 53.5v639h-139z" />
</font>
</defs>
</svg>
